%TF.GenerationSoftware,KiCad,Pcbnew,10.0.5*%
%TF.CreationDate,2026-09-18T23:05:00+00:00*%
%TF.ProjectId,sticks3-bot-hat,73746963-6b73-4332-9d62-6f742d686174,rev?*%
%TF.SameCoordinates,Original*%
%TF.FileFunction,Copper,L2,Bot*%
%TF.FilePolarity,Positive*%
%FSLAX46Y46*%
G04 Gerber Fmt 4.6, Leading zero omitted, Abs format (unit mm)*
G04 Created by KiCad (PCBNEW 10.0.5) date 2026-09-18 23:05:00*
%MOMM*%
%LPD*%
G01*
G04 APERTURE LIST*
G04 Aperture macros list*
%AMRoundRect*
0 Rectangle with rounded corners*
0 $1 Rounding radius*
0 $2 $3 $4 $5 $6 $7 $8 $9 X,Y pos of 4 corners*
0 Add a 4 corners polygon primitive as box body*
4,1,4,$2,$3,$4,$5,$6,$7,$8,$9,$2,$3,0*
0 Add four circle primitives for the rounded corners*
1,1,$1+$1,$2,$3*
1,1,$1+$1,$4,$5*
1,1,$1+$1,$6,$7*
1,1,$1+$1,$8,$9*
0 Add four rect primitives between the rounded corners*
20,1,$1+$1,$2,$3,$4,$5,0*
20,1,$1+$1,$4,$5,$6,$7,0*
20,1,$1+$1,$6,$7,$8,$9,0*
20,1,$1+$1,$8,$9,$2,$3,0*%
G04 Aperture macros list end*
%TA.AperFunction,ComponentPad*%
%ADD10R,1.700000X1.700000*%
%TD*%
%TA.AperFunction,ComponentPad*%
%ADD11C,1.700000*%
%TD*%
%TA.AperFunction,ComponentPad*%
%ADD12RoundRect,0.250000X-0.550000X-0.550000X0.550000X-0.550000X0.550000X0.550000X-0.550000X0.550000X0*%
%TD*%
%TA.AperFunction,ComponentPad*%
%ADD13C,1.600000*%
%TD*%
%TA.AperFunction,ComponentPad*%
%ADD14R,3.500000X3.500000*%
%TD*%
%TA.AperFunction,ComponentPad*%
%ADD15RoundRect,0.750000X-1.000000X0.750000X-1.000000X-0.750000X1.000000X-0.750000X1.000000X0.750000X0*%
%TD*%
%TA.AperFunction,ComponentPad*%
%ADD16RoundRect,0.875000X-0.875000X0.875000X-0.875000X-0.875000X0.875000X-0.875000X0.875000X0.875000X0*%
%TD*%
%TA.AperFunction,ViaPad*%
%ADD17C,0.600000*%
%TD*%
%TA.AperFunction,ViaPad*%
%ADD18C,0.800000*%
%TD*%
%TA.AperFunction,Conductor*%
%ADD19C,0.250000*%
%TD*%
%TA.AperFunction,Conductor*%
%ADD20C,0.700000*%
%TD*%
G04 APERTURE END LIST*
D10*
%TO.P,J4,1*%
%TO.N,PAN*%
X74900000Y-76200000D03*
D11*
%TO.P,J4,2*%
%TO.N,VSERVO*%
X77440000Y-76200000D03*
%TO.P,J4,3*%
%TO.N,GND*%
X79980000Y-76200000D03*
%TD*%
D10*
%TO.P,J7,1*%
%TO.N,+3V3*%
X66099999Y-71000000D03*
D11*
%TO.P,J7,2*%
%TO.N,GND*%
X68639999Y-71000000D03*
%TO.P,J7,3*%
%TO.N,ENC_B*%
X71179999Y-71000000D03*
%TD*%
D12*
%TO.P,C7,1*%
%TO.N,VSERVO*%
X72700000Y-63200000D03*
D13*
%TO.P,C7,2*%
%TO.N,GND*%
X76200000Y-63200000D03*
%TD*%
D10*
%TO.P,J1,1*%
%TO.N,GND*%
X57500000Y-55500000D03*
D11*
%TO.P,J1,2*%
%TO.N,SERVO_A*%
X57500000Y-52960000D03*
%TO.P,J1,3*%
%TO.N,N/C*%
X60040000Y-55500000D03*
%TO.P,J1,4*%
%TO.N,SERVO_B*%
X60040000Y-52960000D03*
%TO.P,J1,5*%
%TO.N,N/C*%
X62580000Y-55500000D03*
%TO.P,J1,6*%
%TO.N,PAN*%
X62580000Y-52960000D03*
%TO.P,J1,7*%
%TO.N,COLOR*%
X65120000Y-55500000D03*
%TO.P,J1,8*%
%TO.N,TILT*%
X65120000Y-52960000D03*
%TO.P,J1,9*%
%TO.N,ECHO*%
X67660000Y-55500000D03*
%TO.P,J1,10*%
%TO.N,ENC_A*%
X67660000Y-52960000D03*
%TO.P,J1,11*%
%TO.N,N/C*%
X70200000Y-55500000D03*
%TO.P,J1,12*%
%TO.N,ENC_B*%
X70200000Y-52960000D03*
%TO.P,J1,13*%
%TO.N,+3V3*%
X72740000Y-55500000D03*
%TO.P,J1,14*%
%TO.N,TRIG*%
X72740000Y-52960000D03*
%TO.P,J1,15*%
%TO.N,+5V*%
X75280000Y-55500000D03*
%TO.P,J1,16*%
%TO.N,N/C*%
X75280000Y-52960000D03*
%TD*%
D10*
%TO.P,J6,1*%
%TO.N,+3V3*%
X57300000Y-71000000D03*
D11*
%TO.P,J6,2*%
%TO.N,GND*%
X59840000Y-71000000D03*
%TO.P,J6,3*%
%TO.N,ENC_A*%
X62380000Y-71000000D03*
%TD*%
D10*
%TO.P,J8,1*%
%TO.N,+3V3*%
X74900000Y-71000000D03*
D11*
%TO.P,J8,2*%
%TO.N,GND*%
X77440000Y-71000000D03*
%TO.P,J8,3*%
%TO.N,N/C*%
X79980000Y-71000000D03*
%TO.P,J8,4*%
%TO.N,COLOR*%
X82520000Y-71000000D03*
%TD*%
D10*
%TO.P,J3,1*%
%TO.N,SERVO_B*%
X66100000Y-76200000D03*
D11*
%TO.P,J3,2*%
%TO.N,VSERVO*%
X68640000Y-76200000D03*
%TO.P,J3,3*%
%TO.N,GND*%
X71180000Y-76200000D03*
%TD*%
D14*
%TO.P,J11,1*%
%TO.N,VSERVO*%
X86000000Y-64000000D03*
D15*
%TO.P,J11,2*%
%TO.N,GND*%
X86000000Y-58000000D03*
D16*
%TO.P,J11,3*%
%TO.N,N/C*%
X81300000Y-61000000D03*
%TD*%
D10*
%TO.P,J2,1*%
%TO.N,SERVO_A*%
X57300000Y-76200000D03*
D11*
%TO.P,J2,2*%
%TO.N,VSERVO*%
X59840000Y-76200000D03*
%TO.P,J2,3*%
%TO.N,GND*%
X62380000Y-76200000D03*
%TD*%
D10*
%TO.P,J5,1*%
%TO.N,TILT*%
X83700000Y-76200000D03*
D11*
%TO.P,J5,2*%
%TO.N,VSERVO*%
X86240000Y-76200000D03*
%TO.P,J5,3*%
%TO.N,GND*%
X88780000Y-76200000D03*
%TD*%
D10*
%TO.P,J10,1*%
%TO.N,+5V*%
X86240000Y-71000000D03*
D11*
%TO.P,J10,2*%
%TO.N,TRIG*%
X88780000Y-71000000D03*
%TO.P,J10,3*%
%TO.N,ECHO_5V*%
X91320000Y-71000000D03*
%TO.P,J10,4*%
%TO.N,GND*%
X93860000Y-71000000D03*
%TD*%
D17*
%TO.N,VSERVO*%
X59270200Y-60850000D03*
D18*
%TO.N,GND*%
X57810582Y-56659110D03*
X77400000Y-63200000D03*
X93860000Y-76500000D03*
X96600000Y-76300000D03*
D17*
%TO.N,SW_NODE*%
X63674400Y-60748400D03*
X63674400Y-65300000D03*
%TO.N,ENC_A*%
X57300000Y-69000000D03*
X57300000Y-59074000D03*
%TO.N,COLOR*%
X72000000Y-69200000D03*
X69739300Y-59142200D03*
%TO.N,ECHO*%
X92590000Y-74400000D03*
X83700000Y-54309400D03*
%TO.N,TRIG*%
X88780000Y-56000000D03*
%TD*%
%TO.N,PAN*%
D19*
X70665500Y-77427200D02*
X72496100Y-77427200D01*
X64885000Y-60061700D02*
X64885000Y-71947200D01*
X69910000Y-76671700D02*
X70665500Y-77427200D01*
X65790300Y-72852500D02*
X67017200Y-72852500D01*
X74900000Y-76200000D02*
X73723300Y-76200000D01*
X72496100Y-77427200D02*
X73723300Y-76200000D01*
X63850000Y-54230000D02*
X63850000Y-59026700D01*
X67017200Y-72852500D02*
X69910000Y-75745300D01*
X69910000Y-75745300D02*
X69910000Y-76671700D01*
X64885000Y-71947200D02*
X65790300Y-72852500D01*
X63850000Y-59026700D02*
X64885000Y-60061700D01*
X62580000Y-52960000D02*
X63850000Y-54230000D01*
%TO.N,VSERVO*%
D20*
X56977900Y-58168300D02*
X57636500Y-58168300D01*
X59840000Y-76200000D02*
X58438300Y-77601700D01*
X58438300Y-77601700D02*
X56202800Y-77601700D01*
X84380000Y-65620000D02*
X84380000Y-74340000D01*
X84380000Y-74340000D02*
X86240000Y-76200000D01*
X57636500Y-58168300D02*
X59270200Y-59802000D01*
X86000000Y-64000000D02*
X84380000Y-65620000D01*
X55859200Y-77258100D02*
X55859200Y-59287000D01*
X55859200Y-59287000D02*
X56977900Y-58168300D01*
X56202800Y-77601700D02*
X55859200Y-77258100D01*
X59270200Y-59802000D02*
X59270200Y-60850000D01*
%TO.N,SW_NODE*%
X63674400Y-60748400D02*
X63674400Y-65300000D01*
%TO.N,ENC_B*%
D19*
X66140000Y-59740000D02*
X66140000Y-65959999D01*
X68930000Y-56949500D02*
X68930000Y-54230000D01*
X68930000Y-54230000D02*
X70200000Y-52960000D01*
X66140000Y-65959999D02*
X71180000Y-71000000D01*
X66138400Y-59741100D02*
X68930000Y-56949500D01*
%TO.N,+3V3*%
D20*
X74750000Y-57510000D02*
X74750000Y-70850000D01*
X72740000Y-55500000D02*
X74750000Y-57510000D01*
X74750000Y-70850000D02*
X74900000Y-71000000D01*
%TO.N,SERVO_A*%
D19*
X60002600Y-58340000D02*
X58770000Y-57107400D01*
X60002600Y-61293900D02*
X60002600Y-58340000D01*
X58770000Y-57107400D02*
X58770000Y-54230000D01*
X57300000Y-75023300D02*
X58476700Y-73846600D01*
X58770000Y-54230000D02*
X57500000Y-52960000D01*
X58476700Y-62819800D02*
X60002600Y-61293900D01*
X57300000Y-76200000D02*
X57300000Y-75023300D01*
X58476700Y-73846600D02*
X58476700Y-62819800D01*
%TO.N,SERVO_B*%
X64351100Y-60468100D02*
X61310000Y-57427000D01*
X66100000Y-76200000D02*
X66100000Y-75023300D01*
X64351100Y-73274400D02*
X64351100Y-60468100D01*
X61310000Y-57427000D02*
X61310000Y-54230000D01*
X66100000Y-75023300D02*
X64351100Y-73274400D01*
X61310000Y-54230000D02*
X60040000Y-52960000D01*
%TO.N,TILT*%
X65120000Y-52960000D02*
X66340100Y-51739900D01*
X81250000Y-73000000D02*
X83700000Y-75450000D01*
X81250000Y-68190000D02*
X81250000Y-73000000D01*
X75790000Y-51739900D02*
X78559900Y-54509800D01*
X78560000Y-54510000D02*
X78560000Y-65500000D01*
X78560000Y-65500000D02*
X81250000Y-68190000D01*
X66340100Y-51739900D02*
X75790000Y-51739900D01*
X83700000Y-75450000D02*
X83700000Y-76200000D01*
%TO.N,ENC_A*%
X57300000Y-59070000D02*
X57300000Y-69000000D01*
%TO.N,COLOR*%
X69740000Y-64000000D02*
X72000000Y-66260000D01*
X72000000Y-66260000D02*
X72000000Y-69200000D01*
X69740000Y-59140000D02*
X69740000Y-64000000D01*
%TO.N,ECHO*%
X83700000Y-54310000D02*
X84590000Y-55200000D01*
X92590000Y-56090000D02*
X92590000Y-74400000D01*
X91700000Y-55200000D02*
X92590000Y-56090000D01*
X84590000Y-55200000D02*
X91700000Y-55200000D01*
%TO.N,TRIG*%
X88780000Y-56000000D02*
X88780000Y-71000000D01*
%TD*%
%TA.AperFunction,Conductor*%
%TO.N,GND*%
G36*
X66426630Y-55510253D02*
G01*
X66484863Y-55548863D01*
X66512473Y-55609321D01*
X66537829Y-55769410D01*
X66593787Y-55941636D01*
X66593788Y-55941639D01*
X66640840Y-56033982D01*
X66674478Y-56100000D01*
X66676006Y-56102997D01*
X66782441Y-56249494D01*
X66782445Y-56249499D01*
X66910500Y-56377554D01*
X66910505Y-56377558D01*
X67008480Y-56448740D01*
X67057006Y-56483996D01*
X67162484Y-56537740D01*
X67218360Y-56566211D01*
X67218363Y-56566212D01*
X67304476Y-56594191D01*
X67390591Y-56622171D01*
X67473429Y-56635291D01*
X67569449Y-56650500D01*
X67569454Y-56650500D01*
X67750551Y-56650500D01*
X67837259Y-56636765D01*
X67929409Y-56622171D01*
X68101639Y-56566211D01*
X68262994Y-56483996D01*
X68307614Y-56451578D01*
X68373420Y-56428097D01*
X68441474Y-56443922D01*
X68490169Y-56494027D01*
X68504500Y-56551895D01*
X68504500Y-56721890D01*
X68484815Y-56788929D01*
X68468181Y-56809571D01*
X65797917Y-59479834D01*
X65797913Y-59479840D01*
X65741898Y-59576860D01*
X65741897Y-59576863D01*
X65712900Y-59685082D01*
X65712900Y-59797115D01*
X65713439Y-59801209D01*
X65714500Y-59817397D01*
X65714500Y-65903981D01*
X65714500Y-66016017D01*
X65743497Y-66124236D01*
X65799515Y-66221262D01*
X65799517Y-66221264D01*
X69199005Y-69620753D01*
X69232490Y-69682076D01*
X69227506Y-69751768D01*
X69185634Y-69807701D01*
X69120170Y-69832118D01*
X69073006Y-69826365D01*
X68932704Y-69780778D01*
X68738381Y-69750000D01*
X68541617Y-69750000D01*
X68347293Y-69780778D01*
X68160168Y-69841579D01*
X68160158Y-69841583D01*
X67991685Y-69927422D01*
X68566357Y-70502094D01*
X68447006Y-70534075D01*
X68332992Y-70599901D01*
X68239900Y-70692993D01*
X68174074Y-70807007D01*
X68142093Y-70926358D01*
X67567421Y-70351686D01*
X67484983Y-70513485D01*
X67437009Y-70564281D01*
X67369188Y-70581077D01*
X67303053Y-70558540D01*
X67259601Y-70503825D01*
X67250498Y-70457191D01*
X67250498Y-70105143D01*
X67250498Y-70105136D01*
X67250496Y-70105117D01*
X67247585Y-70080012D01*
X67247584Y-70080010D01*
X67247584Y-70080009D01*
X67202205Y-69977235D01*
X67122764Y-69897794D01*
X67111687Y-69892903D01*
X67019991Y-69852415D01*
X66994867Y-69849500D01*
X66994864Y-69849500D01*
X65434500Y-69849500D01*
X65367461Y-69829815D01*
X65321706Y-69777011D01*
X65310500Y-69725500D01*
X65310500Y-60005684D01*
X65310500Y-60005682D01*
X65281503Y-59897463D01*
X65225485Y-59800437D01*
X65146263Y-59721215D01*
X64311819Y-58886771D01*
X64278334Y-58825448D01*
X64275500Y-58799090D01*
X64275500Y-56551895D01*
X64295185Y-56484856D01*
X64347989Y-56439101D01*
X64417147Y-56429157D01*
X64472386Y-56451578D01*
X64517001Y-56483993D01*
X64517003Y-56483994D01*
X64517006Y-56483996D01*
X64536693Y-56494027D01*
X64678360Y-56566211D01*
X64678363Y-56566212D01*
X64764476Y-56594191D01*
X64850591Y-56622171D01*
X64933429Y-56635291D01*
X65029449Y-56650500D01*
X65029454Y-56650500D01*
X65210551Y-56650500D01*
X65297259Y-56636765D01*
X65389409Y-56622171D01*
X65561639Y-56566211D01*
X65722994Y-56483996D01*
X65869501Y-56377553D01*
X65997553Y-56249501D01*
X66103996Y-56102994D01*
X66186211Y-55941639D01*
X66242171Y-55769409D01*
X66264964Y-55625500D01*
X66267527Y-55609321D01*
X66297456Y-55546186D01*
X66356768Y-55509255D01*
X66426630Y-55510253D01*
G37*
%TD.AperFunction*%
%TA.AperFunction,Conductor*%
G36*
X76560835Y-53132783D02*
G01*
X76611935Y-53163583D01*
X78098181Y-54649829D01*
X78131666Y-54711152D01*
X78134500Y-54737510D01*
X78134500Y-65443982D01*
X78134500Y-65556018D01*
X78163497Y-65664237D01*
X78219515Y-65761263D01*
X78219517Y-65761265D01*
X80788181Y-68329929D01*
X80821666Y-68391252D01*
X80824500Y-68417610D01*
X80824500Y-69948104D01*
X80804815Y-70015143D01*
X80752011Y-70060898D01*
X80682853Y-70070842D01*
X80627615Y-70048422D01*
X80582997Y-70016006D01*
X80582996Y-70016005D01*
X80582994Y-70016004D01*
X80506906Y-69977235D01*
X80421639Y-69933788D01*
X80421636Y-69933787D01*
X80249410Y-69877829D01*
X80070551Y-69849500D01*
X80070546Y-69849500D01*
X79889454Y-69849500D01*
X79889449Y-69849500D01*
X79710589Y-69877829D01*
X79538363Y-69933787D01*
X79538360Y-69933788D01*
X79377002Y-70016006D01*
X79230505Y-70122441D01*
X79230500Y-70122445D01*
X79102445Y-70250500D01*
X79102441Y-70250505D01*
X78996006Y-70397002D01*
X78913788Y-70558360D01*
X78913787Y-70558363D01*
X78880240Y-70661612D01*
X78840802Y-70719288D01*
X78776444Y-70746486D01*
X78707597Y-70734571D01*
X78656122Y-70687327D01*
X78644378Y-70661612D01*
X78598417Y-70520161D01*
X78512576Y-70351687D01*
X78512576Y-70351686D01*
X77937905Y-70926357D01*
X77905925Y-70807007D01*
X77840099Y-70692993D01*
X77747007Y-70599901D01*
X77632993Y-70534075D01*
X77513642Y-70502094D01*
X78088312Y-69927423D01*
X78088312Y-69927422D01*
X77919840Y-69841583D01*
X77919830Y-69841579D01*
X77732705Y-69780778D01*
X77538382Y-69750000D01*
X77341618Y-69750000D01*
X77147294Y-69780778D01*
X76960169Y-69841579D01*
X76960159Y-69841583D01*
X76791686Y-69927422D01*
X77366358Y-70502094D01*
X77247007Y-70534075D01*
X77132993Y-70599901D01*
X77039901Y-70692993D01*
X76974075Y-70807007D01*
X76942094Y-70926358D01*
X76367422Y-70351686D01*
X76284984Y-70513485D01*
X76237010Y-70564281D01*
X76169189Y-70581077D01*
X76103054Y-70558540D01*
X76059602Y-70503825D01*
X76050499Y-70457191D01*
X76050499Y-70105143D01*
X76050499Y-70105136D01*
X76050497Y-70105117D01*
X76047586Y-70080013D01*
X76047585Y-70080011D01*
X76047585Y-70080009D01*
X76002206Y-69977235D01*
X75922765Y-69897794D01*
X75911688Y-69892903D01*
X75819992Y-69852415D01*
X75794868Y-69849500D01*
X75794865Y-69849500D01*
X75524500Y-69849500D01*
X75457461Y-69829815D01*
X75411706Y-69777011D01*
X75400500Y-69725500D01*
X75400500Y-64341775D01*
X75420185Y-64274736D01*
X75472989Y-64228981D01*
X75542147Y-64219037D01*
X75580795Y-64231291D01*
X75739355Y-64312082D01*
X75739359Y-64312084D01*
X75918997Y-64370451D01*
X76105553Y-64400000D01*
X76294447Y-64400000D01*
X76481001Y-64370452D01*
X76660637Y-64312084D01*
X76811137Y-64235400D01*
X76175737Y-63600000D01*
X76252661Y-63600000D01*
X76354394Y-63572741D01*
X76445606Y-63520080D01*
X76520080Y-63445606D01*
X76572741Y-63354394D01*
X76600000Y-63252661D01*
X76600000Y-63199999D01*
X76624264Y-63199999D01*
X76624264Y-63200001D01*
X77235400Y-63811137D01*
X77312084Y-63660637D01*
X77370452Y-63481001D01*
X77400000Y-63294447D01*
X77400000Y-63105552D01*
X77370451Y-62918997D01*
X77312085Y-62739362D01*
X77235400Y-62588861D01*
X76624264Y-63199999D01*
X76600000Y-63199999D01*
X76600000Y-63147339D01*
X76572741Y-63045606D01*
X76520080Y-62954394D01*
X76445606Y-62879920D01*
X76354394Y-62827259D01*
X76252661Y-62800000D01*
X76175734Y-62800000D01*
X76811136Y-62164598D01*
X76660637Y-62087914D01*
X76481002Y-62029548D01*
X76294447Y-62000000D01*
X76105553Y-62000000D01*
X75918997Y-62029548D01*
X75739362Y-62087914D01*
X75580795Y-62168709D01*
X75512126Y-62181605D01*
X75447385Y-62155329D01*
X75407128Y-62098222D01*
X75400500Y-62058224D01*
X75400500Y-57445928D01*
X75375502Y-57320261D01*
X75375501Y-57320260D01*
X75375501Y-57320256D01*
X75326465Y-57201873D01*
X75311189Y-57179011D01*
X75300770Y-57163417D01*
X75300769Y-57163417D01*
X75255276Y-57095330D01*
X75255273Y-57095327D01*
X75255271Y-57095324D01*
X75008975Y-56849029D01*
X74975490Y-56787706D01*
X74980474Y-56718015D01*
X75022345Y-56662081D01*
X75087810Y-56637664D01*
X75116055Y-56638875D01*
X75189450Y-56650500D01*
X75189454Y-56650500D01*
X75370551Y-56650500D01*
X75457259Y-56636765D01*
X75549409Y-56622171D01*
X75721639Y-56566211D01*
X75882994Y-56483996D01*
X76029501Y-56377553D01*
X76157553Y-56249501D01*
X76263996Y-56102994D01*
X76346211Y-55941639D01*
X76402171Y-55769409D01*
X76424964Y-55625499D01*
X76430500Y-55590551D01*
X76430500Y-55409448D01*
X76408807Y-55272489D01*
X76402171Y-55230591D01*
X76346211Y-55058361D01*
X76346211Y-55058360D01*
X76289071Y-54946219D01*
X76263996Y-54897006D01*
X76186194Y-54789920D01*
X76157558Y-54750505D01*
X76157554Y-54750500D01*
X76029499Y-54622445D01*
X76029494Y-54622441D01*
X75882997Y-54516006D01*
X75882996Y-54516005D01*
X75882994Y-54516004D01*
X75813724Y-54480709D01*
X75721639Y-54433788D01*
X75721636Y-54433787D01*
X75549410Y-54377829D01*
X75389321Y-54352473D01*
X75326186Y-54322544D01*
X75289255Y-54263232D01*
X75290253Y-54193370D01*
X75328863Y-54135137D01*
X75389321Y-54107527D01*
X75459425Y-54096422D01*
X75549409Y-54082171D01*
X75721639Y-54026211D01*
X75882994Y-53943996D01*
X76029501Y-53837553D01*
X76157553Y-53709501D01*
X76263996Y-53562994D01*
X76346211Y-53401639D01*
X76402171Y-53229409D01*
X76402171Y-53229403D01*
X76403307Y-53224678D01*
X76405007Y-53225086D01*
X76431676Y-53168770D01*
X76490972Y-53131814D01*
X76560835Y-53132783D01*
G37*
%TD.AperFunction*%
%TA.AperFunction,Conductor*%
G36*
X96004418Y-50500816D02*
G01*
X96204561Y-50515130D01*
X96222063Y-50517647D01*
X96413795Y-50559355D01*
X96430760Y-50564336D01*
X96614611Y-50632909D01*
X96630694Y-50640253D01*
X96747495Y-50704032D01*
X96802908Y-50734290D01*
X96817791Y-50743855D01*
X96974864Y-50861438D01*
X96988235Y-50873024D01*
X97126975Y-51011764D01*
X97138561Y-51025135D01*
X97256144Y-51182208D01*
X97265709Y-51197091D01*
X97359743Y-51369300D01*
X97367093Y-51385394D01*
X97435661Y-51569234D01*
X97440645Y-51586209D01*
X97482351Y-51777931D01*
X97484869Y-51795442D01*
X97499184Y-51995580D01*
X97499500Y-52004427D01*
X97499500Y-80995572D01*
X97499184Y-81004419D01*
X97484869Y-81204557D01*
X97482351Y-81222068D01*
X97440645Y-81413790D01*
X97435661Y-81430765D01*
X97367093Y-81614605D01*
X97359743Y-81630699D01*
X97265709Y-81802908D01*
X97256144Y-81817791D01*
X97138561Y-81974864D01*
X97126975Y-81988235D01*
X96988235Y-82126975D01*
X96974864Y-82138561D01*
X96817791Y-82256144D01*
X96802908Y-82265709D01*
X96630699Y-82359743D01*
X96614605Y-82367093D01*
X96430765Y-82435661D01*
X96413790Y-82440645D01*
X96222068Y-82482351D01*
X96204557Y-82484869D01*
X96023779Y-82497799D01*
X96004417Y-82499184D01*
X95995572Y-82499500D01*
X52004428Y-82499500D01*
X51995582Y-82499184D01*
X51973622Y-82497613D01*
X51795442Y-82484869D01*
X51777931Y-82482351D01*
X51586209Y-82440645D01*
X51569234Y-82435661D01*
X51385394Y-82367093D01*
X51369300Y-82359743D01*
X51197091Y-82265709D01*
X51182208Y-82256144D01*
X51025135Y-82138561D01*
X51011764Y-82126975D01*
X50873024Y-81988235D01*
X50861438Y-81974864D01*
X50743855Y-81817791D01*
X50734290Y-81802908D01*
X50640256Y-81630699D01*
X50632909Y-81614611D01*
X50564336Y-81430760D01*
X50559354Y-81413790D01*
X50545586Y-81350500D01*
X50517647Y-81222063D01*
X50515130Y-81204556D01*
X50500816Y-81004418D01*
X50500500Y-80995572D01*
X50500500Y-79378711D01*
X50849500Y-79378711D01*
X50849500Y-79621288D01*
X50881161Y-79861785D01*
X50943947Y-80096104D01*
X51036773Y-80320205D01*
X51036776Y-80320212D01*
X51158064Y-80530289D01*
X51158066Y-80530292D01*
X51158067Y-80530293D01*
X51305733Y-80722736D01*
X51305739Y-80722743D01*
X51477256Y-80894260D01*
X51477263Y-80894266D01*
X51590321Y-80981018D01*
X51669711Y-81041936D01*
X51879788Y-81163224D01*
X52103900Y-81256054D01*
X52338211Y-81318838D01*
X52518586Y-81342584D01*
X52578711Y-81350500D01*
X52578712Y-81350500D01*
X52821289Y-81350500D01*
X52869388Y-81344167D01*
X53061789Y-81318838D01*
X53296100Y-81256054D01*
X53520212Y-81163224D01*
X53730289Y-81041936D01*
X53922738Y-80894265D01*
X54094265Y-80722738D01*
X54241936Y-80530289D01*
X54363224Y-80320212D01*
X54456054Y-80096100D01*
X54518838Y-79861789D01*
X54550500Y-79621288D01*
X54550500Y-79378712D01*
X54550500Y-79378711D01*
X93449500Y-79378711D01*
X93449500Y-79621288D01*
X93481161Y-79861785D01*
X93543947Y-80096104D01*
X93636773Y-80320205D01*
X93636776Y-80320212D01*
X93758064Y-80530289D01*
X93758066Y-80530292D01*
X93758067Y-80530293D01*
X93905733Y-80722736D01*
X93905739Y-80722743D01*
X94077256Y-80894260D01*
X94077263Y-80894266D01*
X94190321Y-80981018D01*
X94269711Y-81041936D01*
X94479788Y-81163224D01*
X94703900Y-81256054D01*
X94938211Y-81318838D01*
X95118586Y-81342584D01*
X95178711Y-81350500D01*
X95178712Y-81350500D01*
X95421289Y-81350500D01*
X95469388Y-81344167D01*
X95661789Y-81318838D01*
X95896100Y-81256054D01*
X96120212Y-81163224D01*
X96330289Y-81041936D01*
X96522738Y-80894265D01*
X96694265Y-80722738D01*
X96841936Y-80530289D01*
X96963224Y-80320212D01*
X97056054Y-80096100D01*
X97118838Y-79861789D01*
X97150500Y-79621288D01*
X97150500Y-79378712D01*
X97118838Y-79138211D01*
X97056054Y-78903900D01*
X96963224Y-78679788D01*
X96841936Y-78469711D01*
X96694265Y-78277262D01*
X96694260Y-78277256D01*
X96522743Y-78105739D01*
X96522736Y-78105733D01*
X96330293Y-77958067D01*
X96330292Y-77958066D01*
X96330289Y-77958064D01*
X96147793Y-77852700D01*
X96120214Y-77836777D01*
X96120205Y-77836773D01*
X95896104Y-77743947D01*
X95661785Y-77681161D01*
X95421289Y-77649500D01*
X95421288Y-77649500D01*
X95178712Y-77649500D01*
X95178711Y-77649500D01*
X94938214Y-77681161D01*
X94703895Y-77743947D01*
X94479794Y-77836773D01*
X94479785Y-77836777D01*
X94269706Y-77958067D01*
X94077263Y-78105733D01*
X94077256Y-78105739D01*
X93905739Y-78277256D01*
X93905733Y-78277263D01*
X93758067Y-78469706D01*
X93636777Y-78679785D01*
X93636773Y-78679794D01*
X93543947Y-78903895D01*
X93481161Y-79138214D01*
X93449500Y-79378711D01*
X54550500Y-79378711D01*
X54518838Y-79138211D01*
X54456054Y-78903900D01*
X54363224Y-78679788D01*
X54241936Y-78469711D01*
X54094265Y-78277262D01*
X54094260Y-78277256D01*
X53922743Y-78105739D01*
X53922736Y-78105733D01*
X53730293Y-77958067D01*
X53730292Y-77958066D01*
X53730289Y-77958064D01*
X53547793Y-77852700D01*
X53520214Y-77836777D01*
X53520205Y-77836773D01*
X53296104Y-77743947D01*
X53061785Y-77681161D01*
X52821289Y-77649500D01*
X52821288Y-77649500D01*
X52578712Y-77649500D01*
X52578711Y-77649500D01*
X52338214Y-77681161D01*
X52103895Y-77743947D01*
X51879794Y-77836773D01*
X51879785Y-77836777D01*
X51669706Y-77958067D01*
X51477263Y-78105733D01*
X51477256Y-78105739D01*
X51305739Y-78277256D01*
X51305733Y-78277263D01*
X51158067Y-78469706D01*
X51036777Y-78679785D01*
X51036773Y-78679794D01*
X50943947Y-78903895D01*
X50881161Y-79138214D01*
X50849500Y-79378711D01*
X50500500Y-79378711D01*
X50500500Y-77322171D01*
X55208699Y-77322171D01*
X55233697Y-77447838D01*
X55233699Y-77447844D01*
X55282735Y-77566227D01*
X55353923Y-77672769D01*
X55353926Y-77672773D01*
X55788126Y-78106973D01*
X55788129Y-78106975D01*
X55788131Y-78106977D01*
X55894673Y-78178165D01*
X56013056Y-78227201D01*
X56013060Y-78227201D01*
X56013061Y-78227202D01*
X56138728Y-78252200D01*
X56138731Y-78252200D01*
X58502371Y-78252200D01*
X58586915Y-78235382D01*
X58628044Y-78227201D01*
X58746427Y-78178165D01*
X58852969Y-78106977D01*
X59583912Y-77376031D01*
X59645235Y-77342547D01*
X59690991Y-77341240D01*
X59749454Y-77350500D01*
X59749455Y-77350500D01*
X59930551Y-77350500D01*
X60017259Y-77336765D01*
X60109409Y-77322171D01*
X60281639Y-77266211D01*
X60442994Y-77183996D01*
X60477681Y-77158794D01*
X60518343Y-77129253D01*
X60589494Y-77077558D01*
X60589492Y-77077558D01*
X60589501Y-77077553D01*
X60717553Y-76949501D01*
X60823996Y-76802994D01*
X60906211Y-76641639D01*
X60939759Y-76538388D01*
X60979196Y-76480712D01*
X61043554Y-76453513D01*
X61112401Y-76465427D01*
X61163877Y-76512671D01*
X61175621Y-76538386D01*
X61221580Y-76679833D01*
X61221583Y-76679840D01*
X61307422Y-76848312D01*
X61307423Y-76848312D01*
X61882094Y-76273641D01*
X61914075Y-76392993D01*
X61979901Y-76507007D01*
X62072993Y-76600099D01*
X62187007Y-76665925D01*
X62306358Y-76697905D01*
X61731686Y-77272576D01*
X61900161Y-77358417D01*
X62087294Y-77419221D01*
X62281618Y-77450000D01*
X62478382Y-77450000D01*
X62672705Y-77419221D01*
X62859835Y-77358418D01*
X63028311Y-77272575D01*
X62453642Y-76697905D01*
X62572993Y-76665925D01*
X62687007Y-76600099D01*
X62780099Y-76507007D01*
X62845925Y-76392993D01*
X62877905Y-76273641D01*
X63452575Y-76848311D01*
X63538418Y-76679835D01*
X63599221Y-76492705D01*
X63630000Y-76298382D01*
X63630000Y-76101617D01*
X63599221Y-75907294D01*
X63538417Y-75720161D01*
X63452576Y-75551687D01*
X63452576Y-75551686D01*
X62877905Y-76126357D01*
X62845925Y-76007007D01*
X62780099Y-75892993D01*
X62687007Y-75799901D01*
X62572993Y-75734075D01*
X62453642Y-75702094D01*
X63028312Y-75127423D01*
X63028312Y-75127422D01*
X62859840Y-75041583D01*
X62859830Y-75041579D01*
X62672705Y-74980778D01*
X62478382Y-74950000D01*
X62281618Y-74950000D01*
X62087294Y-74980778D01*
X61900169Y-75041579D01*
X61900159Y-75041583D01*
X61731686Y-75127422D01*
X62306358Y-75702094D01*
X62187007Y-75734075D01*
X62072993Y-75799901D01*
X61979901Y-75892993D01*
X61914075Y-76007007D01*
X61882094Y-76126358D01*
X61307422Y-75551686D01*
X61221583Y-75720159D01*
X61221580Y-75720166D01*
X61175621Y-75861613D01*
X61136183Y-75919288D01*
X61071824Y-75946486D01*
X61002978Y-75934571D01*
X60951502Y-75887327D01*
X60939759Y-75861611D01*
X60906213Y-75758366D01*
X60906211Y-75758360D01*
X60854728Y-75657321D01*
X60823996Y-75597006D01*
X60741920Y-75484037D01*
X60717558Y-75450505D01*
X60717554Y-75450500D01*
X60589501Y-75322447D01*
X60565648Y-75305117D01*
X60518340Y-75270746D01*
X60518339Y-75270744D01*
X60442997Y-75216006D01*
X60442996Y-75216005D01*
X60442994Y-75216004D01*
X60366906Y-75177235D01*
X60281639Y-75133788D01*
X60281636Y-75133787D01*
X60109410Y-75077829D01*
X59930551Y-75049500D01*
X59930546Y-75049500D01*
X59749454Y-75049500D01*
X59749449Y-75049500D01*
X59570589Y-75077829D01*
X59398363Y-75133787D01*
X59398360Y-75133788D01*
X59237002Y-75216006D01*
X59090505Y-75322441D01*
X59090500Y-75322445D01*
X58962445Y-75450500D01*
X58962441Y-75450505D01*
X58856006Y-75597002D01*
X58773788Y-75758360D01*
X58773787Y-75758363D01*
X58717829Y-75930589D01*
X58696972Y-76062273D01*
X58667043Y-76125408D01*
X58607731Y-76162339D01*
X58537868Y-76161341D01*
X58479636Y-76122731D01*
X58451522Y-76058767D01*
X58450499Y-76042875D01*
X58450499Y-75305143D01*
X58450499Y-75305136D01*
X58450497Y-75305117D01*
X58447586Y-75280012D01*
X58447585Y-75280010D01*
X58447585Y-75280009D01*
X58402206Y-75177235D01*
X58322765Y-75097794D01*
X58322763Y-75097793D01*
X58219992Y-75052415D01*
X58194868Y-75049500D01*
X58194865Y-75049500D01*
X58174909Y-75049500D01*
X58107870Y-75029815D01*
X58062115Y-74977011D01*
X58052171Y-74907853D01*
X58081196Y-74844297D01*
X58087228Y-74837819D01*
X58334475Y-74590572D01*
X58817185Y-74107863D01*
X58873203Y-74010837D01*
X58902200Y-73902618D01*
X58902200Y-73790582D01*
X58902200Y-72107096D01*
X58921885Y-72040057D01*
X58974689Y-71994302D01*
X59043847Y-71984358D01*
X59099087Y-72006779D01*
X59184855Y-72069095D01*
X59360164Y-72158418D01*
X59547294Y-72219221D01*
X59741618Y-72250000D01*
X59938382Y-72250000D01*
X60132705Y-72219221D01*
X60319835Y-72158418D01*
X60488311Y-72072575D01*
X59913641Y-71497905D01*
X60032993Y-71465925D01*
X60147007Y-71400099D01*
X60240099Y-71307007D01*
X60305925Y-71192993D01*
X60337905Y-71073641D01*
X60912575Y-71648311D01*
X60998418Y-71479835D01*
X61044378Y-71338387D01*
X61083815Y-71280712D01*
X61148174Y-71253513D01*
X61217020Y-71265428D01*
X61268496Y-71312672D01*
X61280240Y-71338387D01*
X61313787Y-71441636D01*
X61313788Y-71441639D01*
X61365338Y-71542809D01*
X61395172Y-71601362D01*
X61396006Y-71602997D01*
X61502441Y-71749494D01*
X61502445Y-71749499D01*
X61630500Y-71877554D01*
X61630505Y-71877558D01*
X61732386Y-71951578D01*
X61777006Y-71983996D01*
X61853094Y-72022765D01*
X61938360Y-72066211D01*
X61938363Y-72066212D01*
X62001716Y-72086796D01*
X62110591Y-72122171D01*
X62193429Y-72135291D01*
X62289449Y-72150500D01*
X62289454Y-72150500D01*
X62470551Y-72150500D01*
X62557259Y-72136765D01*
X62649409Y-72122171D01*
X62821639Y-72066211D01*
X62982994Y-71983996D01*
X63129501Y-71877553D01*
X63257553Y-71749501D01*
X63363996Y-71602994D01*
X63446211Y-71441639D01*
X63502171Y-71269409D01*
X63518106Y-71168798D01*
X63530500Y-71090551D01*
X63530500Y-70909448D01*
X63514019Y-70805397D01*
X63502171Y-70730591D01*
X63453592Y-70581077D01*
X63446212Y-70558363D01*
X63446211Y-70558360D01*
X63394662Y-70457191D01*
X63363996Y-70397006D01*
X63312227Y-70325752D01*
X63257558Y-70250505D01*
X63257554Y-70250500D01*
X63129499Y-70122445D01*
X63129494Y-70122441D01*
X62982997Y-70016006D01*
X62982996Y-70016005D01*
X62982994Y-70016004D01*
X62906906Y-69977235D01*
X62821639Y-69933788D01*
X62821636Y-69933787D01*
X62649410Y-69877829D01*
X62470551Y-69849500D01*
X62470546Y-69849500D01*
X62289454Y-69849500D01*
X62289449Y-69849500D01*
X62110589Y-69877829D01*
X61938363Y-69933787D01*
X61938360Y-69933788D01*
X61777002Y-70016006D01*
X61630505Y-70122441D01*
X61630500Y-70122445D01*
X61502445Y-70250500D01*
X61502441Y-70250505D01*
X61396006Y-70397002D01*
X61313788Y-70558360D01*
X61313787Y-70558363D01*
X61280240Y-70661612D01*
X61240802Y-70719288D01*
X61176444Y-70746486D01*
X61107597Y-70734571D01*
X61056122Y-70687327D01*
X61044378Y-70661612D01*
X60998417Y-70520161D01*
X60912576Y-70351687D01*
X60912576Y-70351686D01*
X60337905Y-70926357D01*
X60305925Y-70807007D01*
X60240099Y-70692993D01*
X60147007Y-70599901D01*
X60032993Y-70534075D01*
X59913640Y-70502093D01*
X60488312Y-69927422D01*
X60319840Y-69841583D01*
X60319830Y-69841579D01*
X60132705Y-69780778D01*
X59938382Y-69750000D01*
X59741618Y-69750000D01*
X59547294Y-69780778D01*
X59360164Y-69841581D01*
X59184856Y-69930904D01*
X59099086Y-69993221D01*
X59033280Y-70016701D01*
X58965226Y-70000876D01*
X58916531Y-69950770D01*
X58902200Y-69892903D01*
X58902200Y-63047410D01*
X58921885Y-62980371D01*
X58938519Y-62959729D01*
X59520592Y-62377656D01*
X60343084Y-61555164D01*
X60399103Y-61458137D01*
X60428100Y-61349919D01*
X60428100Y-61237882D01*
X60428100Y-58283982D01*
X60399103Y-58175763D01*
X60343085Y-58078737D01*
X60263863Y-57999515D01*
X59231819Y-56967471D01*
X59198334Y-56906148D01*
X59195500Y-56879790D01*
X59195500Y-56551895D01*
X59215185Y-56484856D01*
X59267989Y-56439101D01*
X59337147Y-56429157D01*
X59392386Y-56451578D01*
X59437001Y-56483993D01*
X59437003Y-56483994D01*
X59437006Y-56483996D01*
X59456693Y-56494027D01*
X59598360Y-56566211D01*
X59598363Y-56566212D01*
X59684476Y-56594191D01*
X59770591Y-56622171D01*
X59853429Y-56635291D01*
X59949449Y-56650500D01*
X59949454Y-56650500D01*
X60130551Y-56650500D01*
X60217259Y-56636765D01*
X60309409Y-56622171D01*
X60481639Y-56566211D01*
X60642994Y-56483996D01*
X60687614Y-56451578D01*
X60753420Y-56428097D01*
X60821474Y-56443922D01*
X60870169Y-56494027D01*
X60884500Y-56551895D01*
X60884500Y-57370982D01*
X60884500Y-57483018D01*
X60889051Y-57500000D01*
X60913497Y-57591236D01*
X60913498Y-57591239D01*
X60913842Y-57591834D01*
X60969515Y-57688263D01*
X60969517Y-57688265D01*
X63311534Y-60030282D01*
X63345019Y-60091605D01*
X63340035Y-60161297D01*
X63298163Y-60217230D01*
X63292744Y-60221065D01*
X63259731Y-60243123D01*
X63259727Y-60243126D01*
X63169126Y-60333727D01*
X63169123Y-60333731D01*
X63097938Y-60440266D01*
X63097933Y-60440275D01*
X63048899Y-60558655D01*
X63048897Y-60558661D01*
X63023900Y-60684328D01*
X63023900Y-60684331D01*
X63023900Y-65364069D01*
X63023900Y-65364071D01*
X63023899Y-65364071D01*
X63048897Y-65489738D01*
X63048899Y-65489744D01*
X63097933Y-65608124D01*
X63097938Y-65608133D01*
X63169123Y-65714668D01*
X63169126Y-65714672D01*
X63259727Y-65805273D01*
X63259731Y-65805276D01*
X63366266Y-65876461D01*
X63366272Y-65876464D01*
X63366273Y-65876465D01*
X63484656Y-65925501D01*
X63484660Y-65925501D01*
X63484661Y-65925502D01*
X63610328Y-65950500D01*
X63610331Y-65950500D01*
X63738469Y-65950500D01*
X63777408Y-65942754D01*
X63846998Y-65948980D01*
X63902176Y-65991842D01*
X63925422Y-66057731D01*
X63925600Y-66064371D01*
X63925600Y-73218382D01*
X63925600Y-73330418D01*
X63954597Y-73438637D01*
X64010615Y-73535663D01*
X64010617Y-73535665D01*
X65312771Y-74837819D01*
X65346256Y-74899142D01*
X65341272Y-74968834D01*
X65299400Y-75024767D01*
X65233936Y-75049184D01*
X65225095Y-75049500D01*
X65205146Y-75049500D01*
X65205117Y-75049502D01*
X65180012Y-75052413D01*
X65180008Y-75052415D01*
X65077235Y-75097793D01*
X64997794Y-75177234D01*
X64952415Y-75280006D01*
X64952415Y-75280008D01*
X64949500Y-75305131D01*
X64949500Y-77094856D01*
X64949502Y-77094882D01*
X64952413Y-77119987D01*
X64952415Y-77119991D01*
X64997793Y-77222764D01*
X64997794Y-77222765D01*
X65077235Y-77302206D01*
X65180009Y-77347585D01*
X65205135Y-77350500D01*
X66994864Y-77350499D01*
X66994879Y-77350497D01*
X66994882Y-77350497D01*
X67019987Y-77347586D01*
X67019988Y-77347585D01*
X67019991Y-77347585D01*
X67122765Y-77302206D01*
X67202206Y-77222765D01*
X67247585Y-77119991D01*
X67250500Y-77094865D01*
X67250499Y-76357125D01*
X67270183Y-76290089D01*
X67322987Y-76244334D01*
X67392146Y-76234390D01*
X67455702Y-76263415D01*
X67493476Y-76322193D01*
X67496972Y-76337729D01*
X67517829Y-76469410D01*
X67573787Y-76641636D01*
X67573788Y-76641639D01*
X67629268Y-76750522D01*
X67653142Y-76797378D01*
X67656006Y-76802997D01*
X67762441Y-76949494D01*
X67762445Y-76949499D01*
X67890500Y-77077554D01*
X67890505Y-77077558D01*
X67961658Y-77129253D01*
X68037006Y-77183996D01*
X68113094Y-77222765D01*
X68198360Y-77266211D01*
X68198363Y-77266212D01*
X68284476Y-77294191D01*
X68370591Y-77322171D01*
X68453429Y-77335291D01*
X68549449Y-77350500D01*
X68549454Y-77350500D01*
X68730551Y-77350500D01*
X68817259Y-77336765D01*
X68909409Y-77322171D01*
X69081639Y-77266211D01*
X69242994Y-77183996D01*
X69389501Y-77077553D01*
X69464125Y-77002928D01*
X69525444Y-76969446D01*
X69595136Y-76974430D01*
X69639481Y-77002929D01*
X69958722Y-77322169D01*
X70320674Y-77684121D01*
X70320684Y-77684132D01*
X70325014Y-77688462D01*
X70325015Y-77688463D01*
X70404237Y-77767685D01*
X70501263Y-77823703D01*
X70609481Y-77852700D01*
X70609482Y-77852700D01*
X70609483Y-77852700D01*
X72552116Y-77852700D01*
X72552118Y-77852700D01*
X72660337Y-77823703D01*
X72757363Y-77767685D01*
X73537821Y-76987225D01*
X73599142Y-76953742D01*
X73668833Y-76958726D01*
X73724767Y-77000597D01*
X73749184Y-77066062D01*
X73749500Y-77074903D01*
X73749500Y-77094853D01*
X73749502Y-77094882D01*
X73752413Y-77119987D01*
X73752415Y-77119991D01*
X73797793Y-77222764D01*
X73797794Y-77222765D01*
X73877235Y-77302206D01*
X73980009Y-77347585D01*
X74005135Y-77350500D01*
X75794864Y-77350499D01*
X75794879Y-77350497D01*
X75794882Y-77350497D01*
X75819987Y-77347586D01*
X75819988Y-77347585D01*
X75819991Y-77347585D01*
X75922765Y-77302206D01*
X76002206Y-77222765D01*
X76047585Y-77119991D01*
X76050500Y-77094865D01*
X76050499Y-76357125D01*
X76070183Y-76290089D01*
X76122987Y-76244334D01*
X76192146Y-76234390D01*
X76255702Y-76263415D01*
X76293476Y-76322193D01*
X76296972Y-76337729D01*
X76317829Y-76469410D01*
X76373787Y-76641636D01*
X76373788Y-76641639D01*
X76429268Y-76750522D01*
X76453142Y-76797378D01*
X76456006Y-76802997D01*
X76562441Y-76949494D01*
X76562445Y-76949499D01*
X76690500Y-77077554D01*
X76690505Y-77077558D01*
X76761658Y-77129253D01*
X76837006Y-77183996D01*
X76913094Y-77222765D01*
X76998360Y-77266211D01*
X76998363Y-77266212D01*
X77084476Y-77294191D01*
X77170591Y-77322171D01*
X77253429Y-77335291D01*
X77349449Y-77350500D01*
X77349454Y-77350500D01*
X77530551Y-77350500D01*
X77617259Y-77336765D01*
X77709409Y-77322171D01*
X77881639Y-77266211D01*
X78042994Y-77183996D01*
X78077681Y-77158794D01*
X78118343Y-77129253D01*
X78189494Y-77077558D01*
X78189492Y-77077558D01*
X78189501Y-77077553D01*
X78317553Y-76949501D01*
X78423996Y-76802994D01*
X78506211Y-76641639D01*
X78539759Y-76538388D01*
X78579196Y-76480712D01*
X78643554Y-76453513D01*
X78712401Y-76465427D01*
X78763877Y-76512671D01*
X78775621Y-76538386D01*
X78821580Y-76679833D01*
X78821583Y-76679840D01*
X78907422Y-76848312D01*
X78907423Y-76848312D01*
X79482094Y-76273641D01*
X79514075Y-76392993D01*
X79579901Y-76507007D01*
X79672993Y-76600099D01*
X79787007Y-76665925D01*
X79906358Y-76697905D01*
X79331686Y-77272576D01*
X79500161Y-77358417D01*
X79687294Y-77419221D01*
X79881618Y-77450000D01*
X80078382Y-77450000D01*
X80272705Y-77419221D01*
X80459835Y-77358418D01*
X80628311Y-77272575D01*
X80053642Y-76697905D01*
X80172993Y-76665925D01*
X80287007Y-76600099D01*
X80380099Y-76507007D01*
X80445925Y-76392993D01*
X80477905Y-76273641D01*
X81052575Y-76848311D01*
X81138418Y-76679835D01*
X81199221Y-76492705D01*
X81230000Y-76298382D01*
X81230000Y-76101617D01*
X81199221Y-75907294D01*
X81138417Y-75720161D01*
X81052576Y-75551687D01*
X81052576Y-75551686D01*
X80477905Y-76126357D01*
X80445925Y-76007007D01*
X80380099Y-75892993D01*
X80287007Y-75799901D01*
X80172993Y-75734075D01*
X80053642Y-75702094D01*
X80628312Y-75127423D01*
X80628312Y-75127422D01*
X80459840Y-75041583D01*
X80459830Y-75041579D01*
X80272705Y-74980778D01*
X80078382Y-74950000D01*
X79881618Y-74950000D01*
X79687294Y-74980778D01*
X79500169Y-75041579D01*
X79500159Y-75041583D01*
X79331686Y-75127422D01*
X79906358Y-75702094D01*
X79787007Y-75734075D01*
X79672993Y-75799901D01*
X79579901Y-75892993D01*
X79514075Y-76007007D01*
X79482094Y-76126358D01*
X78907422Y-75551686D01*
X78821583Y-75720159D01*
X78821580Y-75720166D01*
X78775621Y-75861613D01*
X78736183Y-75919288D01*
X78671824Y-75946486D01*
X78602978Y-75934571D01*
X78551502Y-75887327D01*
X78539759Y-75861611D01*
X78506213Y-75758366D01*
X78506211Y-75758360D01*
X78454728Y-75657321D01*
X78423996Y-75597006D01*
X78341920Y-75484037D01*
X78317558Y-75450505D01*
X78317554Y-75450500D01*
X78189501Y-75322447D01*
X78165648Y-75305117D01*
X78118340Y-75270746D01*
X78118339Y-75270744D01*
X78042997Y-75216006D01*
X78042996Y-75216005D01*
X78042994Y-75216004D01*
X77966906Y-75177235D01*
X77881639Y-75133788D01*
X77881636Y-75133787D01*
X77709410Y-75077829D01*
X77530551Y-75049500D01*
X77530546Y-75049500D01*
X77349454Y-75049500D01*
X77349449Y-75049500D01*
X77170589Y-75077829D01*
X76998363Y-75133787D01*
X76998360Y-75133788D01*
X76837002Y-75216006D01*
X76690505Y-75322441D01*
X76690500Y-75322445D01*
X76562445Y-75450500D01*
X76562441Y-75450505D01*
X76456006Y-75597002D01*
X76373788Y-75758360D01*
X76373787Y-75758363D01*
X76317829Y-75930589D01*
X76296972Y-76062271D01*
X76267042Y-76125405D01*
X76207731Y-76162336D01*
X76137868Y-76161338D01*
X76079636Y-76122728D01*
X76051522Y-76058764D01*
X76050499Y-76042872D01*
X76050499Y-75305143D01*
X76050499Y-75305136D01*
X76050497Y-75305117D01*
X76047586Y-75280012D01*
X76047585Y-75280010D01*
X76047585Y-75280009D01*
X76002206Y-75177235D01*
X75922765Y-75097794D01*
X75922763Y-75097793D01*
X75819992Y-75052415D01*
X75794865Y-75049500D01*
X74005143Y-75049500D01*
X74005117Y-75049502D01*
X73980012Y-75052413D01*
X73980008Y-75052415D01*
X73877235Y-75097793D01*
X73797794Y-75177234D01*
X73752415Y-75280006D01*
X73752415Y-75280008D01*
X73749500Y-75305131D01*
X73749500Y-75657321D01*
X73729815Y-75724360D01*
X73677011Y-75770115D01*
X73657594Y-75777096D01*
X73559061Y-75803497D01*
X73559060Y-75803498D01*
X73462040Y-75859513D01*
X73462034Y-75859517D01*
X72557658Y-76763893D01*
X72496335Y-76797378D01*
X72426643Y-76792394D01*
X72370710Y-76750522D01*
X72346293Y-76685058D01*
X72352046Y-76637893D01*
X72399221Y-76492703D01*
X72430000Y-76298382D01*
X72430000Y-76101617D01*
X72399221Y-75907294D01*
X72338417Y-75720161D01*
X72252576Y-75551687D01*
X72252576Y-75551686D01*
X71677905Y-76126356D01*
X71645925Y-76007007D01*
X71580099Y-75892993D01*
X71487007Y-75799901D01*
X71372993Y-75734075D01*
X71253642Y-75702094D01*
X71828312Y-75127423D01*
X71828312Y-75127422D01*
X71659840Y-75041583D01*
X71659830Y-75041579D01*
X71472705Y-74980778D01*
X71278382Y-74950000D01*
X71081618Y-74950000D01*
X70887294Y-74980778D01*
X70700169Y-75041579D01*
X70700159Y-75041583D01*
X70531686Y-75127422D01*
X71106358Y-75702094D01*
X70987007Y-75734075D01*
X70872993Y-75799901D01*
X70779901Y-75892993D01*
X70714075Y-76007007D01*
X70682094Y-76126358D01*
X70371819Y-75816083D01*
X70338334Y-75754760D01*
X70335500Y-75728402D01*
X70335500Y-75689284D01*
X70335500Y-75689282D01*
X70306503Y-75581063D01*
X70250485Y-75484037D01*
X70171263Y-75404815D01*
X67278463Y-72512015D01*
X67181437Y-72455997D01*
X67073218Y-72427000D01*
X67073217Y-72427000D01*
X66017910Y-72427000D01*
X65950871Y-72407315D01*
X65930229Y-72390681D01*
X65901728Y-72362180D01*
X65868243Y-72300857D01*
X65873227Y-72231165D01*
X65915099Y-72175232D01*
X65980563Y-72150815D01*
X65989409Y-72150499D01*
X66994855Y-72150499D01*
X66994863Y-72150499D01*
X66994878Y-72150497D01*
X66994881Y-72150497D01*
X67019986Y-72147586D01*
X67019987Y-72147585D01*
X67019990Y-72147585D01*
X67122764Y-72102206D01*
X67202205Y-72022765D01*
X67247584Y-71919991D01*
X67250499Y-71894865D01*
X67250498Y-71542806D01*
X67270182Y-71475770D01*
X67322986Y-71430015D01*
X67392145Y-71420071D01*
X67455700Y-71449096D01*
X67484983Y-71486515D01*
X67567421Y-71648312D01*
X67567422Y-71648312D01*
X68142093Y-71073641D01*
X68174074Y-71192993D01*
X68239900Y-71307007D01*
X68332992Y-71400099D01*
X68447006Y-71465925D01*
X68566357Y-71497905D01*
X67991685Y-72072576D01*
X68160160Y-72158417D01*
X68347293Y-72219221D01*
X68541617Y-72250000D01*
X68738381Y-72250000D01*
X68932704Y-72219221D01*
X69119834Y-72158418D01*
X69288310Y-72072575D01*
X68713641Y-71497905D01*
X68832992Y-71465925D01*
X68947006Y-71400099D01*
X69040098Y-71307007D01*
X69105924Y-71192993D01*
X69137904Y-71073641D01*
X69712574Y-71648311D01*
X69798417Y-71479835D01*
X69844377Y-71338387D01*
X69883814Y-71280712D01*
X69948173Y-71253513D01*
X70017019Y-71265428D01*
X70068495Y-71312672D01*
X70080239Y-71338387D01*
X70113786Y-71441636D01*
X70113787Y-71441639D01*
X70165337Y-71542809D01*
X70195171Y-71601362D01*
X70196005Y-71602997D01*
X70302440Y-71749494D01*
X70302444Y-71749499D01*
X70430499Y-71877554D01*
X70430504Y-71877558D01*
X70532385Y-71951578D01*
X70577005Y-71983996D01*
X70653093Y-72022765D01*
X70738359Y-72066211D01*
X70738362Y-72066212D01*
X70801715Y-72086796D01*
X70910590Y-72122171D01*
X70993428Y-72135291D01*
X71089448Y-72150500D01*
X71089453Y-72150500D01*
X71270550Y-72150500D01*
X71357258Y-72136765D01*
X71449408Y-72122171D01*
X71621638Y-72066211D01*
X71782993Y-71983996D01*
X71929500Y-71877553D01*
X72057552Y-71749501D01*
X72163995Y-71602994D01*
X72246210Y-71441639D01*
X72302170Y-71269409D01*
X72318105Y-71168798D01*
X72330499Y-71090551D01*
X72330499Y-70909448D01*
X72314018Y-70805397D01*
X72302170Y-70730591D01*
X72253591Y-70581077D01*
X72246211Y-70558363D01*
X72246210Y-70558360D01*
X72194661Y-70457191D01*
X72163995Y-70397006D01*
X72112226Y-70325752D01*
X72057557Y-70250505D01*
X72057553Y-70250500D01*
X71929498Y-70122445D01*
X71929493Y-70122441D01*
X71782998Y-70016007D01*
X71780077Y-70014217D01*
X71779199Y-70013247D01*
X71779052Y-70013140D01*
X71779074Y-70013108D01*
X71733201Y-69962406D01*
X71721778Y-69893476D01*
X71749434Y-69829313D01*
X71807389Y-69790288D01*
X71876957Y-69788714D01*
X71920943Y-69800500D01*
X71920946Y-69800500D01*
X72079055Y-69800500D01*
X72079057Y-69800500D01*
X72231784Y-69759577D01*
X72368716Y-69680520D01*
X72480520Y-69568716D01*
X72559577Y-69431784D01*
X72600500Y-69279057D01*
X72600500Y-69120943D01*
X72559577Y-68968216D01*
X72532284Y-68920943D01*
X72480524Y-68831290D01*
X72480518Y-68831282D01*
X72461819Y-68812583D01*
X72428334Y-68751260D01*
X72425500Y-68724902D01*
X72425500Y-66203984D01*
X72425500Y-66203982D01*
X72396503Y-66095763D01*
X72340485Y-65998737D01*
X72261263Y-65919515D01*
X70201819Y-63860071D01*
X70168334Y-63798748D01*
X70165500Y-63772390D01*
X70165500Y-62606898D01*
X71599500Y-62606898D01*
X71599500Y-63793102D01*
X71601666Y-63811137D01*
X71610122Y-63881561D01*
X71665639Y-64022343D01*
X71757077Y-64142922D01*
X71877656Y-64234360D01*
X71877657Y-64234360D01*
X71877658Y-64234361D01*
X72018436Y-64289877D01*
X72106898Y-64300500D01*
X72106903Y-64300500D01*
X73293097Y-64300500D01*
X73293102Y-64300500D01*
X73381564Y-64289877D01*
X73522342Y-64234361D01*
X73642922Y-64142922D01*
X73734361Y-64022342D01*
X73789877Y-63881564D01*
X73800500Y-63793102D01*
X73800500Y-62606898D01*
X73789877Y-62518436D01*
X73734361Y-62377658D01*
X73734360Y-62377657D01*
X73734360Y-62377656D01*
X73642922Y-62257077D01*
X73522343Y-62165639D01*
X73381561Y-62110122D01*
X73335926Y-62104642D01*
X73293102Y-62099500D01*
X72106898Y-62099500D01*
X72067853Y-62104188D01*
X72018438Y-62110122D01*
X71877656Y-62165639D01*
X71757077Y-62257077D01*
X71665639Y-62377656D01*
X71610122Y-62518438D01*
X71605308Y-62558534D01*
X71599500Y-62606898D01*
X70165500Y-62606898D01*
X70165500Y-59616598D01*
X70185185Y-59549559D01*
X70201819Y-59528917D01*
X70210610Y-59520126D01*
X70219820Y-59510916D01*
X70298877Y-59373984D01*
X70339800Y-59221257D01*
X70339800Y-59063143D01*
X70298877Y-58910416D01*
X70285226Y-58886771D01*
X70219824Y-58773490D01*
X70219818Y-58773482D01*
X70108017Y-58661681D01*
X70108009Y-58661675D01*
X69971090Y-58582626D01*
X69971086Y-58582624D01*
X69971084Y-58582623D01*
X69818357Y-58541700D01*
X69660243Y-58541700D01*
X69507516Y-58582623D01*
X69507509Y-58582626D01*
X69370590Y-58661675D01*
X69370582Y-58661681D01*
X69258781Y-58773482D01*
X69258775Y-58773490D01*
X69179726Y-58910409D01*
X69179723Y-58910416D01*
X69138800Y-59063143D01*
X69138800Y-59221256D01*
X69179723Y-59373983D01*
X69179726Y-59373990D01*
X69258775Y-59510909D01*
X69258781Y-59510917D01*
X69278181Y-59530317D01*
X69311666Y-59591640D01*
X69314500Y-59617998D01*
X69314500Y-63943982D01*
X69314500Y-64056018D01*
X69343497Y-64164237D01*
X69399515Y-64261263D01*
X69399517Y-64261265D01*
X71538181Y-66399929D01*
X71571666Y-66461252D01*
X71574500Y-66487610D01*
X71574500Y-68724902D01*
X71554815Y-68791941D01*
X71538181Y-68812583D01*
X71519481Y-68831282D01*
X71519475Y-68831290D01*
X71440426Y-68968209D01*
X71440423Y-68968216D01*
X71399500Y-69120943D01*
X71399500Y-69279057D01*
X71423525Y-69368717D01*
X71440423Y-69431783D01*
X71440426Y-69431790D01*
X71519475Y-69568709D01*
X71519479Y-69568714D01*
X71519480Y-69568716D01*
X71631284Y-69680520D01*
X71631286Y-69680521D01*
X71637735Y-69685470D01*
X71635767Y-69688034D01*
X71673535Y-69727670D01*
X71686735Y-69796281D01*
X71660745Y-69861137D01*
X71603817Y-69901647D01*
X71534025Y-69904948D01*
X71524982Y-69902384D01*
X71449409Y-69877829D01*
X71270550Y-69849500D01*
X71270545Y-69849500D01*
X71089453Y-69849500D01*
X71089448Y-69849500D01*
X70910586Y-69877829D01*
X70793400Y-69915904D01*
X70723558Y-69917899D01*
X70667402Y-69885654D01*
X66601819Y-65820070D01*
X66568334Y-65758747D01*
X66565500Y-65732389D01*
X66565500Y-59967110D01*
X66585185Y-59900071D01*
X66601819Y-59879429D01*
X67913638Y-58567610D01*
X69270485Y-57210763D01*
X69326503Y-57113737D01*
X69355500Y-57005518D01*
X69355500Y-56893481D01*
X69355500Y-56551895D01*
X69375185Y-56484856D01*
X69427989Y-56439101D01*
X69497147Y-56429157D01*
X69552386Y-56451578D01*
X69597001Y-56483993D01*
X69597003Y-56483994D01*
X69597006Y-56483996D01*
X69616693Y-56494027D01*
X69758360Y-56566211D01*
X69758363Y-56566212D01*
X69844476Y-56594191D01*
X69930591Y-56622171D01*
X70013429Y-56635291D01*
X70109449Y-56650500D01*
X70109454Y-56650500D01*
X70290551Y-56650500D01*
X70377259Y-56636765D01*
X70469409Y-56622171D01*
X70641639Y-56566211D01*
X70802994Y-56483996D01*
X70949501Y-56377553D01*
X71077553Y-56249501D01*
X71183996Y-56102994D01*
X71266211Y-55941639D01*
X71322171Y-55769409D01*
X71344964Y-55625500D01*
X71347527Y-55609321D01*
X71377456Y-55546186D01*
X71436768Y-55509255D01*
X71506630Y-55510253D01*
X71564863Y-55548863D01*
X71592473Y-55609321D01*
X71617829Y-55769410D01*
X71673787Y-55941636D01*
X71673788Y-55941639D01*
X71720840Y-56033982D01*
X71754478Y-56100000D01*
X71756006Y-56102997D01*
X71862441Y-56249494D01*
X71862445Y-56249499D01*
X71990500Y-56377554D01*
X71990505Y-56377558D01*
X72088480Y-56448740D01*
X72137006Y-56483996D01*
X72242484Y-56537740D01*
X72298360Y-56566211D01*
X72298363Y-56566212D01*
X72384476Y-56594191D01*
X72470591Y-56622171D01*
X72553429Y-56635291D01*
X72649449Y-56650500D01*
X72649454Y-56650500D01*
X72830545Y-56650500D01*
X72830546Y-56650500D01*
X72889007Y-56641240D01*
X72958299Y-56650194D01*
X72996086Y-56676032D01*
X74063181Y-57743127D01*
X74096666Y-57804450D01*
X74099500Y-57830808D01*
X74099500Y-69728106D01*
X74079815Y-69795145D01*
X74027011Y-69840900D01*
X73989789Y-69851280D01*
X73980010Y-69852414D01*
X73980008Y-69852415D01*
X73877235Y-69897793D01*
X73797794Y-69977234D01*
X73752415Y-70080006D01*
X73752415Y-70080008D01*
X73749500Y-70105131D01*
X73749500Y-71894856D01*
X73749502Y-71894882D01*
X73752413Y-71919987D01*
X73752415Y-71919991D01*
X73797793Y-72022764D01*
X73797794Y-72022765D01*
X73877235Y-72102206D01*
X73980009Y-72147585D01*
X74005135Y-72150500D01*
X75794864Y-72150499D01*
X75794879Y-72150497D01*
X75794882Y-72150497D01*
X75819987Y-72147586D01*
X75819988Y-72147585D01*
X75819991Y-72147585D01*
X75922765Y-72102206D01*
X76002206Y-72022765D01*
X76047585Y-71919991D01*
X76050500Y-71894865D01*
X76050499Y-71542806D01*
X76070183Y-71475770D01*
X76122987Y-71430015D01*
X76192146Y-71420071D01*
X76255701Y-71449096D01*
X76284984Y-71486515D01*
X76367422Y-71648312D01*
X76367423Y-71648312D01*
X76942094Y-71073641D01*
X76974075Y-71192993D01*
X77039901Y-71307007D01*
X77132993Y-71400099D01*
X77247007Y-71465925D01*
X77366358Y-71497905D01*
X76791686Y-72072576D01*
X76960161Y-72158417D01*
X77147294Y-72219221D01*
X77341618Y-72250000D01*
X77538382Y-72250000D01*
X77732705Y-72219221D01*
X77919835Y-72158418D01*
X78088311Y-72072575D01*
X77513642Y-71497905D01*
X77632993Y-71465925D01*
X77747007Y-71400099D01*
X77840099Y-71307007D01*
X77905925Y-71192993D01*
X77937905Y-71073641D01*
X78512575Y-71648311D01*
X78598418Y-71479835D01*
X78644378Y-71338387D01*
X78683815Y-71280712D01*
X78748174Y-71253513D01*
X78817020Y-71265428D01*
X78868496Y-71312672D01*
X78880240Y-71338387D01*
X78913787Y-71441636D01*
X78913788Y-71441639D01*
X78965338Y-71542809D01*
X78995172Y-71601362D01*
X78996006Y-71602997D01*
X79102441Y-71749494D01*
X79102445Y-71749499D01*
X79230500Y-71877554D01*
X79230505Y-71877558D01*
X79332386Y-71951578D01*
X79377006Y-71983996D01*
X79453094Y-72022765D01*
X79538360Y-72066211D01*
X79538363Y-72066212D01*
X79601716Y-72086796D01*
X79710591Y-72122171D01*
X79793429Y-72135291D01*
X79889449Y-72150500D01*
X79889454Y-72150500D01*
X80070551Y-72150500D01*
X80157259Y-72136765D01*
X80249409Y-72122171D01*
X80421639Y-72066211D01*
X80582994Y-71983996D01*
X80627614Y-71951578D01*
X80693420Y-71928097D01*
X80761474Y-71943922D01*
X80810169Y-71994027D01*
X80824500Y-72051895D01*
X80824500Y-72943982D01*
X80824500Y-73056018D01*
X80853497Y-73164237D01*
X80909515Y-73261263D01*
X80909517Y-73261265D01*
X82623959Y-74975707D01*
X82657444Y-75037030D01*
X82652460Y-75106722D01*
X82623961Y-75151068D01*
X82597793Y-75177235D01*
X82552415Y-75280006D01*
X82552415Y-75280008D01*
X82549500Y-75305131D01*
X82549500Y-77094856D01*
X82549502Y-77094882D01*
X82552413Y-77119987D01*
X82552415Y-77119991D01*
X82597793Y-77222764D01*
X82597794Y-77222765D01*
X82677235Y-77302206D01*
X82780009Y-77347585D01*
X82805135Y-77350500D01*
X84594864Y-77350499D01*
X84594879Y-77350497D01*
X84594882Y-77350497D01*
X84619987Y-77347586D01*
X84619988Y-77347585D01*
X84619991Y-77347585D01*
X84722765Y-77302206D01*
X84802206Y-77222765D01*
X84847585Y-77119991D01*
X84850500Y-77094865D01*
X84850499Y-76357125D01*
X84870183Y-76290088D01*
X84922987Y-76244333D01*
X84992146Y-76234389D01*
X85055702Y-76263414D01*
X85093476Y-76322192D01*
X85096972Y-76337728D01*
X85117829Y-76469410D01*
X85173787Y-76641636D01*
X85173788Y-76641639D01*
X85229268Y-76750522D01*
X85253142Y-76797378D01*
X85256006Y-76802997D01*
X85362441Y-76949494D01*
X85362445Y-76949499D01*
X85490500Y-77077554D01*
X85490505Y-77077558D01*
X85561658Y-77129253D01*
X85637006Y-77183996D01*
X85713094Y-77222765D01*
X85798360Y-77266211D01*
X85798363Y-77266212D01*
X85884476Y-77294191D01*
X85970591Y-77322171D01*
X86053429Y-77335291D01*
X86149449Y-77350500D01*
X86149454Y-77350500D01*
X86330551Y-77350500D01*
X86417259Y-77336765D01*
X86509409Y-77322171D01*
X86681639Y-77266211D01*
X86842994Y-77183996D01*
X86877681Y-77158794D01*
X86918343Y-77129253D01*
X86989494Y-77077558D01*
X86989492Y-77077558D01*
X86989501Y-77077553D01*
X87117553Y-76949501D01*
X87223996Y-76802994D01*
X87306211Y-76641639D01*
X87339759Y-76538388D01*
X87379196Y-76480712D01*
X87443554Y-76453513D01*
X87512401Y-76465427D01*
X87563877Y-76512671D01*
X87575621Y-76538386D01*
X87621580Y-76679833D01*
X87621583Y-76679840D01*
X87707422Y-76848312D01*
X88282094Y-76273641D01*
X88314075Y-76392993D01*
X88379901Y-76507007D01*
X88472993Y-76600099D01*
X88587007Y-76665925D01*
X88706358Y-76697905D01*
X88131686Y-77272576D01*
X88300161Y-77358417D01*
X88487294Y-77419221D01*
X88681618Y-77450000D01*
X88878382Y-77450000D01*
X89072705Y-77419221D01*
X89259835Y-77358418D01*
X89428311Y-77272575D01*
X88853642Y-76697905D01*
X88972993Y-76665925D01*
X89087007Y-76600099D01*
X89180099Y-76507007D01*
X89245925Y-76392993D01*
X89277905Y-76273641D01*
X89852575Y-76848311D01*
X89938418Y-76679835D01*
X89999221Y-76492705D01*
X90030000Y-76298382D01*
X90030000Y-76101617D01*
X89999221Y-75907294D01*
X89938417Y-75720161D01*
X89852576Y-75551687D01*
X89852576Y-75551686D01*
X89277905Y-76126357D01*
X89245925Y-76007007D01*
X89180099Y-75892993D01*
X89087007Y-75799901D01*
X88972993Y-75734075D01*
X88853642Y-75702094D01*
X89428312Y-75127423D01*
X89428312Y-75127422D01*
X89259840Y-75041583D01*
X89259830Y-75041579D01*
X89072705Y-74980778D01*
X88878382Y-74950000D01*
X88681618Y-74950000D01*
X88487294Y-74980778D01*
X88300169Y-75041579D01*
X88300159Y-75041583D01*
X88131686Y-75127422D01*
X88706358Y-75702094D01*
X88587007Y-75734075D01*
X88472993Y-75799901D01*
X88379901Y-75892993D01*
X88314075Y-76007007D01*
X88282094Y-76126358D01*
X87707422Y-75551686D01*
X87621583Y-75720159D01*
X87621580Y-75720166D01*
X87575621Y-75861613D01*
X87536183Y-75919288D01*
X87471824Y-75946486D01*
X87402978Y-75934571D01*
X87351502Y-75887327D01*
X87339759Y-75861611D01*
X87306213Y-75758366D01*
X87306211Y-75758360D01*
X87254728Y-75657321D01*
X87223996Y-75597006D01*
X87141920Y-75484037D01*
X87117558Y-75450505D01*
X87117554Y-75450500D01*
X86989501Y-75322447D01*
X86965648Y-75305117D01*
X86918340Y-75270746D01*
X86918339Y-75270744D01*
X86842997Y-75216006D01*
X86842996Y-75216005D01*
X86842994Y-75216004D01*
X86766906Y-75177235D01*
X86681639Y-75133788D01*
X86681636Y-75133787D01*
X86509410Y-75077829D01*
X86330551Y-75049500D01*
X86330546Y-75049500D01*
X86149454Y-75049500D01*
X86149449Y-75049500D01*
X86090991Y-75058759D01*
X86021698Y-75049805D01*
X85983912Y-75023967D01*
X85066819Y-74106873D01*
X85033334Y-74045550D01*
X85030500Y-74019192D01*
X85030500Y-72209534D01*
X85050185Y-72142495D01*
X85102989Y-72096740D01*
X85172147Y-72086796D01*
X85205703Y-72099879D01*
X85206725Y-72097565D01*
X85217234Y-72102205D01*
X85217235Y-72102206D01*
X85320009Y-72147585D01*
X85345135Y-72150500D01*
X87134864Y-72150499D01*
X87134879Y-72150497D01*
X87134882Y-72150497D01*
X87159987Y-72147586D01*
X87159988Y-72147585D01*
X87159991Y-72147585D01*
X87262765Y-72102206D01*
X87342206Y-72022765D01*
X87387585Y-71919991D01*
X87390500Y-71894865D01*
X87390499Y-71157125D01*
X87410183Y-71090089D01*
X87462987Y-71044334D01*
X87532146Y-71034390D01*
X87595702Y-71063415D01*
X87633476Y-71122193D01*
X87636972Y-71137729D01*
X87657829Y-71269410D01*
X87713787Y-71441636D01*
X87713788Y-71441639D01*
X87765338Y-71542809D01*
X87795172Y-71601362D01*
X87796006Y-71602997D01*
X87902441Y-71749494D01*
X87902445Y-71749499D01*
X88030500Y-71877554D01*
X88030505Y-71877558D01*
X88132386Y-71951578D01*
X88177006Y-71983996D01*
X88253094Y-72022765D01*
X88338360Y-72066211D01*
X88338363Y-72066212D01*
X88401716Y-72086796D01*
X88510591Y-72122171D01*
X88593429Y-72135291D01*
X88689449Y-72150500D01*
X88689454Y-72150500D01*
X88870551Y-72150500D01*
X88957259Y-72136765D01*
X89049409Y-72122171D01*
X89221639Y-72066211D01*
X89382994Y-71983996D01*
X89529501Y-71877553D01*
X89657553Y-71749501D01*
X89763996Y-71602994D01*
X89846211Y-71441639D01*
X89902171Y-71269409D01*
X89918106Y-71168798D01*
X89927527Y-71109321D01*
X89957456Y-71046186D01*
X90016768Y-71009255D01*
X90086630Y-71010253D01*
X90144863Y-71048863D01*
X90172473Y-71109321D01*
X90197829Y-71269410D01*
X90253787Y-71441636D01*
X90253788Y-71441639D01*
X90305338Y-71542809D01*
X90335172Y-71601362D01*
X90336006Y-71602997D01*
X90442441Y-71749494D01*
X90442445Y-71749499D01*
X90570500Y-71877554D01*
X90570505Y-71877558D01*
X90672386Y-71951578D01*
X90717006Y-71983996D01*
X90793094Y-72022765D01*
X90878360Y-72066211D01*
X90878363Y-72066212D01*
X90941716Y-72086796D01*
X91050591Y-72122171D01*
X91133429Y-72135291D01*
X91229449Y-72150500D01*
X91229454Y-72150500D01*
X91410551Y-72150500D01*
X91497259Y-72136765D01*
X91589409Y-72122171D01*
X91761639Y-72066211D01*
X91922994Y-71983996D01*
X91967614Y-71951578D01*
X92033420Y-71928097D01*
X92101474Y-71943922D01*
X92150169Y-71994027D01*
X92164500Y-72051895D01*
X92164500Y-73924902D01*
X92144815Y-73991941D01*
X92128181Y-74012583D01*
X92109481Y-74031282D01*
X92109475Y-74031290D01*
X92030426Y-74168209D01*
X92030423Y-74168216D01*
X91989500Y-74320943D01*
X91989500Y-74479057D01*
X92019381Y-74590572D01*
X92030423Y-74631783D01*
X92030426Y-74631790D01*
X92109475Y-74768709D01*
X92109479Y-74768714D01*
X92109480Y-74768716D01*
X92221284Y-74880520D01*
X92221286Y-74880521D01*
X92221290Y-74880524D01*
X92358209Y-74959573D01*
X92358216Y-74959577D01*
X92510943Y-75000500D01*
X92510945Y-75000500D01*
X92669055Y-75000500D01*
X92669057Y-75000500D01*
X92821784Y-74959577D01*
X92958716Y-74880520D01*
X93070520Y-74768716D01*
X93149577Y-74631784D01*
X93190500Y-74479057D01*
X93190500Y-74320943D01*
X93149577Y-74168216D01*
X93114734Y-74107865D01*
X93070524Y-74031290D01*
X93070518Y-74031282D01*
X93051819Y-74012583D01*
X93018334Y-73951260D01*
X93015500Y-73924902D01*
X93015500Y-72174476D01*
X93035185Y-72107437D01*
X93087989Y-72061682D01*
X93157147Y-72051738D01*
X93200299Y-72067308D01*
X93200516Y-72066884D01*
X93203896Y-72068606D01*
X93204289Y-72068748D01*
X93204854Y-72069094D01*
X93380164Y-72158418D01*
X93567294Y-72219221D01*
X93761618Y-72250000D01*
X93958382Y-72250000D01*
X94152705Y-72219221D01*
X94339835Y-72158418D01*
X94508311Y-72072575D01*
X93933641Y-71497905D01*
X94052993Y-71465925D01*
X94167007Y-71400099D01*
X94260099Y-71307007D01*
X94325925Y-71192993D01*
X94357905Y-71073641D01*
X94932575Y-71648311D01*
X95018418Y-71479835D01*
X95079221Y-71292705D01*
X95110000Y-71098382D01*
X95110000Y-70901617D01*
X95079221Y-70707294D01*
X95018417Y-70520161D01*
X94932576Y-70351687D01*
X94932576Y-70351686D01*
X94357905Y-70926357D01*
X94325925Y-70807007D01*
X94260099Y-70692993D01*
X94167007Y-70599901D01*
X94052993Y-70534075D01*
X93933640Y-70502093D01*
X94508312Y-69927422D01*
X94339840Y-69841583D01*
X94339830Y-69841579D01*
X94152705Y-69780778D01*
X93958382Y-69750000D01*
X93761618Y-69750000D01*
X93567294Y-69780778D01*
X93380164Y-69841581D01*
X93204848Y-69930908D01*
X93204273Y-69931261D01*
X93204025Y-69931327D01*
X93200516Y-69933116D01*
X93200140Y-69932378D01*
X93136824Y-69949494D01*
X93070225Y-69928368D01*
X93025620Y-69874589D01*
X93015500Y-69825523D01*
X93015500Y-56033984D01*
X93015500Y-56033982D01*
X92986503Y-55925763D01*
X92930485Y-55828737D01*
X92851263Y-55749515D01*
X91961263Y-54859515D01*
X91864237Y-54803497D01*
X91756018Y-54774500D01*
X91756017Y-54774500D01*
X84817610Y-54774500D01*
X84750571Y-54754815D01*
X84729929Y-54738181D01*
X84336819Y-54345071D01*
X84303334Y-54283748D01*
X84300500Y-54257390D01*
X84300500Y-54230345D01*
X84300500Y-54230343D01*
X84259577Y-54077616D01*
X84252733Y-54065762D01*
X84180524Y-53940690D01*
X84180518Y-53940682D01*
X84068717Y-53828881D01*
X84068709Y-53828875D01*
X83931790Y-53749826D01*
X83931786Y-53749824D01*
X83931784Y-53749823D01*
X83779057Y-53708900D01*
X83620943Y-53708900D01*
X83468216Y-53749823D01*
X83468209Y-53749826D01*
X83331290Y-53828875D01*
X83331282Y-53828881D01*
X83219481Y-53940682D01*
X83219475Y-53940690D01*
X83140426Y-54077609D01*
X83140423Y-54077616D01*
X83099500Y-54230343D01*
X83099500Y-54388457D01*
X83135315Y-54522118D01*
X83140423Y-54541183D01*
X83140426Y-54541190D01*
X83219475Y-54678109D01*
X83219479Y-54678114D01*
X83219480Y-54678116D01*
X83331284Y-54789920D01*
X83331286Y-54789921D01*
X83331290Y-54789924D01*
X83468209Y-54868973D01*
X83468216Y-54868977D01*
X83620943Y-54909900D01*
X83646790Y-54909900D01*
X83713829Y-54929585D01*
X83734471Y-54946219D01*
X84328737Y-55540485D01*
X84425763Y-55596503D01*
X84533982Y-55625500D01*
X84646018Y-55625500D01*
X88097064Y-55625500D01*
X88164103Y-55645185D01*
X88209858Y-55697989D01*
X88219802Y-55767147D01*
X88216840Y-55781587D01*
X88179500Y-55920943D01*
X88179500Y-56079057D01*
X88218312Y-56223903D01*
X88220423Y-56231783D01*
X88220426Y-56231790D01*
X88299475Y-56368709D01*
X88299481Y-56368717D01*
X88318181Y-56387417D01*
X88351666Y-56448740D01*
X88354500Y-56475098D01*
X88354500Y-56917242D01*
X88334815Y-56984281D01*
X88282011Y-57030036D01*
X88212853Y-57039980D01*
X88149297Y-57010955D01*
X88111523Y-56952177D01*
X88109794Y-56945632D01*
X88095058Y-56882982D01*
X88095053Y-56882967D01*
X88008971Y-56688009D01*
X87888525Y-56512179D01*
X87737820Y-56361474D01*
X87561990Y-56241028D01*
X87367032Y-56154946D01*
X87367017Y-56154941D01*
X87159570Y-56106149D01*
X87159555Y-56106147D01*
X87070989Y-56100000D01*
X86300000Y-56100000D01*
X86300000Y-57500000D01*
X85700000Y-57500000D01*
X85700000Y-56100000D01*
X84929011Y-56100000D01*
X84840440Y-56106147D01*
X84840431Y-56106148D01*
X84632982Y-56154941D01*
X84632967Y-56154946D01*
X84438009Y-56241028D01*
X84262179Y-56361474D01*
X84111474Y-56512179D01*
X83991028Y-56688009D01*
X83904946Y-56882967D01*
X83904941Y-56882982D01*
X83856149Y-57090429D01*
X83856147Y-57090444D01*
X83850000Y-57179011D01*
X83850000Y-57700000D01*
X84595856Y-57700000D01*
X84534075Y-57807007D01*
X84500000Y-57934174D01*
X84500000Y-58065826D01*
X84534075Y-58192993D01*
X84595856Y-58300000D01*
X83850001Y-58300000D01*
X83850001Y-58820988D01*
X83856147Y-58909559D01*
X83856148Y-58909568D01*
X83904941Y-59117017D01*
X83904946Y-59117032D01*
X83991028Y-59311990D01*
X84111474Y-59487820D01*
X84262179Y-59638525D01*
X84438009Y-59758971D01*
X84632967Y-59845053D01*
X84632982Y-59845058D01*
X84840429Y-59893850D01*
X84840444Y-59893852D01*
X84929011Y-59899999D01*
X85699999Y-59899999D01*
X85700000Y-59899998D01*
X85700000Y-58500000D01*
X86300000Y-58500000D01*
X86300000Y-59899999D01*
X87070988Y-59899999D01*
X87159559Y-59893852D01*
X87159568Y-59893851D01*
X87367017Y-59845058D01*
X87367032Y-59845053D01*
X87561990Y-59758971D01*
X87737820Y-59638525D01*
X87888525Y-59487820D01*
X88008971Y-59311990D01*
X88095053Y-59117032D01*
X88095058Y-59117017D01*
X88109794Y-59054367D01*
X88144304Y-58993615D01*
X88206181Y-58961165D01*
X88275779Y-58967320D01*
X88331002Y-59010125D01*
X88354315Y-59075990D01*
X88354500Y-59082757D01*
X88354500Y-69849578D01*
X88334815Y-69916617D01*
X88286795Y-69960062D01*
X88177007Y-70016002D01*
X88177006Y-70016003D01*
X88030505Y-70122441D01*
X88030500Y-70122445D01*
X87902445Y-70250500D01*
X87902441Y-70250505D01*
X87796006Y-70397002D01*
X87713788Y-70558360D01*
X87713787Y-70558363D01*
X87657829Y-70730589D01*
X87636972Y-70862271D01*
X87607042Y-70925405D01*
X87547731Y-70962336D01*
X87477868Y-70961338D01*
X87419636Y-70922728D01*
X87391522Y-70858764D01*
X87390499Y-70842872D01*
X87390499Y-70105143D01*
X87390499Y-70105136D01*
X87390497Y-70105117D01*
X87387586Y-70080012D01*
X87387585Y-70080010D01*
X87387585Y-70080009D01*
X87342206Y-69977235D01*
X87262765Y-69897794D01*
X87251688Y-69892903D01*
X87159992Y-69852415D01*
X87134865Y-69849500D01*
X85345143Y-69849500D01*
X85345117Y-69849502D01*
X85320012Y-69852413D01*
X85320008Y-69852415D01*
X85206724Y-69902435D01*
X85205237Y-69899068D01*
X85158123Y-69914412D01*
X85090537Y-69896695D01*
X85043259Y-69845250D01*
X85030500Y-69790465D01*
X85030500Y-66174499D01*
X85050185Y-66107460D01*
X85102989Y-66061705D01*
X85154500Y-66050499D01*
X87794856Y-66050499D01*
X87794864Y-66050499D01*
X87794879Y-66050497D01*
X87794882Y-66050497D01*
X87819987Y-66047586D01*
X87819988Y-66047585D01*
X87819991Y-66047585D01*
X87922765Y-66002206D01*
X88002206Y-65922765D01*
X88047585Y-65819991D01*
X88050500Y-65794865D01*
X88050499Y-62205136D01*
X88050497Y-62205117D01*
X88047586Y-62180012D01*
X88047585Y-62180010D01*
X88047585Y-62180009D01*
X88002206Y-62077235D01*
X87922765Y-61997794D01*
X87922763Y-61997793D01*
X87819992Y-61952415D01*
X87794865Y-61949500D01*
X84205143Y-61949500D01*
X84205117Y-61949502D01*
X84180012Y-61952413D01*
X84180008Y-61952415D01*
X84077235Y-61997793D01*
X83997794Y-62077234D01*
X83952415Y-62180006D01*
X83952415Y-62180008D01*
X83949500Y-62205131D01*
X83949500Y-65079190D01*
X83929815Y-65146229D01*
X83913183Y-65166869D01*
X83874725Y-65205328D01*
X83874723Y-65205331D01*
X83851097Y-65240691D01*
X83832046Y-65269203D01*
X83803534Y-65311873D01*
X83754499Y-65430255D01*
X83754497Y-65430261D01*
X83729500Y-65555928D01*
X83729500Y-70325752D01*
X83709815Y-70392791D01*
X83657011Y-70438546D01*
X83587853Y-70448490D01*
X83524297Y-70419465D01*
X83505182Y-70398637D01*
X83397558Y-70250505D01*
X83397554Y-70250500D01*
X83269499Y-70122445D01*
X83269494Y-70122441D01*
X83122997Y-70016006D01*
X83122996Y-70016005D01*
X83122994Y-70016004D01*
X83046906Y-69977235D01*
X82961639Y-69933788D01*
X82961636Y-69933787D01*
X82789410Y-69877829D01*
X82610551Y-69849500D01*
X82610546Y-69849500D01*
X82429454Y-69849500D01*
X82429449Y-69849500D01*
X82250589Y-69877829D01*
X82078363Y-69933787D01*
X82078360Y-69933788D01*
X81917002Y-70016006D01*
X81872385Y-70048422D01*
X81806578Y-70071902D01*
X81738525Y-70056076D01*
X81689830Y-70005970D01*
X81675500Y-69948104D01*
X81675500Y-68133984D01*
X81675500Y-68133982D01*
X81646503Y-68025763D01*
X81590485Y-67928737D01*
X81511263Y-67849515D01*
X79021819Y-65360071D01*
X78988334Y-65298748D01*
X78985500Y-65272390D01*
X78985500Y-60052444D01*
X79249500Y-60052444D01*
X79249500Y-61947555D01*
X79255784Y-62038093D01*
X79255786Y-62038109D01*
X79305659Y-62250156D01*
X79305661Y-62250161D01*
X79305662Y-62250164D01*
X79393657Y-62449454D01*
X79468379Y-62558534D01*
X79516773Y-62629181D01*
X79516778Y-62629187D01*
X79670812Y-62783221D01*
X79670818Y-62783226D01*
X79850546Y-62906343D01*
X80049836Y-62994338D01*
X80049841Y-62994339D01*
X80049843Y-62994340D01*
X80261890Y-63044213D01*
X80261895Y-63044213D01*
X80261901Y-63044215D01*
X80307931Y-63047410D01*
X80352444Y-63050500D01*
X80352448Y-63050500D01*
X82247556Y-63050500D01*
X82283770Y-63047986D01*
X82338099Y-63044215D01*
X82338105Y-63044213D01*
X82338109Y-63044213D01*
X82550156Y-62994340D01*
X82550156Y-62994339D01*
X82550164Y-62994338D01*
X82749454Y-62906343D01*
X82929182Y-62783226D01*
X83083226Y-62629182D01*
X83206343Y-62449454D01*
X83294338Y-62250164D01*
X83304927Y-62205143D01*
X83344213Y-62038109D01*
X83344213Y-62038105D01*
X83344215Y-62038099D01*
X83348405Y-61977734D01*
X83350500Y-61947555D01*
X83350500Y-60052444D01*
X83347254Y-60005682D01*
X83344215Y-59961901D01*
X83344213Y-59961895D01*
X83344213Y-59961890D01*
X83294340Y-59749843D01*
X83294339Y-59749841D01*
X83294338Y-59749836D01*
X83206343Y-59550546D01*
X83083226Y-59370818D01*
X83083221Y-59370812D01*
X82929187Y-59216778D01*
X82929181Y-59216773D01*
X82888570Y-59188954D01*
X82749454Y-59093657D01*
X82550164Y-59005662D01*
X82550161Y-59005661D01*
X82550156Y-59005659D01*
X82338109Y-58955786D01*
X82338093Y-58955784D01*
X82247556Y-58949500D01*
X82247552Y-58949500D01*
X80352448Y-58949500D01*
X80352444Y-58949500D01*
X80261906Y-58955784D01*
X80261890Y-58955786D01*
X80049843Y-59005659D01*
X80049836Y-59005662D01*
X79850550Y-59093655D01*
X79850549Y-59093655D01*
X79850546Y-59093657D01*
X79816445Y-59117017D01*
X79670818Y-59216773D01*
X79670812Y-59216778D01*
X79516778Y-59370812D01*
X79516773Y-59370818D01*
X79467522Y-59442717D01*
X79393657Y-59550546D01*
X79393655Y-59550549D01*
X79393655Y-59550550D01*
X79305662Y-59749836D01*
X79305659Y-59749843D01*
X79255786Y-59961890D01*
X79255784Y-59961906D01*
X79249500Y-60052444D01*
X78985500Y-60052444D01*
X78985500Y-54453984D01*
X78985500Y-54453982D01*
X78956503Y-54345763D01*
X78956500Y-54345757D01*
X78956499Y-54345754D01*
X78956463Y-54345667D01*
X78956119Y-54345071D01*
X78900385Y-54248537D01*
X77230559Y-52578711D01*
X93449500Y-52578711D01*
X93449500Y-52821288D01*
X93481161Y-53061785D01*
X93543947Y-53296104D01*
X93593924Y-53416759D01*
X93636776Y-53520212D01*
X93758064Y-53730289D01*
X93758066Y-53730292D01*
X93758067Y-53730293D01*
X93905733Y-53922736D01*
X93905739Y-53922743D01*
X94077256Y-54094260D01*
X94077263Y-54094266D01*
X94133550Y-54137456D01*
X94269711Y-54241936D01*
X94479788Y-54363224D01*
X94675269Y-54444195D01*
X94698902Y-54453984D01*
X94703900Y-54456054D01*
X94938211Y-54518838D01*
X95107941Y-54541183D01*
X95178711Y-54550500D01*
X95178712Y-54550500D01*
X95421289Y-54550500D01*
X95469388Y-54544167D01*
X95661789Y-54518838D01*
X95896100Y-54456054D01*
X96120212Y-54363224D01*
X96330289Y-54241936D01*
X96522738Y-54094265D01*
X96694265Y-53922738D01*
X96841936Y-53730289D01*
X96963224Y-53520212D01*
X97056054Y-53296100D01*
X97118838Y-53061789D01*
X97150500Y-52821288D01*
X97150500Y-52578712D01*
X97118838Y-52338211D01*
X97056054Y-52103900D01*
X96963224Y-51879788D01*
X96841936Y-51669711D01*
X96694265Y-51477262D01*
X96694260Y-51477256D01*
X96522743Y-51305739D01*
X96522736Y-51305733D01*
X96330293Y-51158067D01*
X96330292Y-51158066D01*
X96330289Y-51158064D01*
X96120212Y-51036776D01*
X96059828Y-51011764D01*
X95896104Y-50943947D01*
X95661785Y-50881161D01*
X95421289Y-50849500D01*
X95421288Y-50849500D01*
X95178712Y-50849500D01*
X95178711Y-50849500D01*
X94938214Y-50881161D01*
X94703895Y-50943947D01*
X94479794Y-51036773D01*
X94479785Y-51036777D01*
X94269706Y-51158067D01*
X94077263Y-51305733D01*
X94077256Y-51305739D01*
X93905739Y-51477256D01*
X93905733Y-51477263D01*
X93758067Y-51669706D01*
X93636777Y-51879785D01*
X93636773Y-51879794D01*
X93543947Y-52103895D01*
X93481161Y-52338214D01*
X93449500Y-52578711D01*
X77230559Y-52578711D01*
X76051263Y-51399415D01*
X75954237Y-51343397D01*
X75846018Y-51314400D01*
X66396118Y-51314400D01*
X66284082Y-51314400D01*
X66175863Y-51343397D01*
X66175860Y-51343398D01*
X66078840Y-51399413D01*
X66078834Y-51399417D01*
X65632595Y-51845655D01*
X65571272Y-51879140D01*
X65506596Y-51875905D01*
X65482337Y-51868022D01*
X65389409Y-51837828D01*
X65210551Y-51809500D01*
X65210546Y-51809500D01*
X65029454Y-51809500D01*
X65029449Y-51809500D01*
X64850589Y-51837829D01*
X64678363Y-51893787D01*
X64678360Y-51893788D01*
X64517002Y-51976006D01*
X64370505Y-52082441D01*
X64370500Y-52082445D01*
X64242445Y-52210500D01*
X64242441Y-52210505D01*
X64136006Y-52357002D01*
X64053788Y-52518360D01*
X64053787Y-52518363D01*
X63997829Y-52690589D01*
X63972473Y-52850678D01*
X63942544Y-52913813D01*
X63883232Y-52950744D01*
X63813369Y-52949746D01*
X63755137Y-52911136D01*
X63727527Y-52850678D01*
X63713740Y-52763639D01*
X63702171Y-52690591D01*
X63646211Y-52518361D01*
X63646211Y-52518360D01*
X63610055Y-52447401D01*
X63563996Y-52357006D01*
X63464557Y-52220139D01*
X63457558Y-52210505D01*
X63457554Y-52210500D01*
X63329499Y-52082445D01*
X63329494Y-52082441D01*
X63182997Y-51976006D01*
X63182996Y-51976005D01*
X63182994Y-51976004D01*
X63131300Y-51949664D01*
X63021639Y-51893788D01*
X63021636Y-51893787D01*
X62849410Y-51837829D01*
X62670551Y-51809500D01*
X62670546Y-51809500D01*
X62489454Y-51809500D01*
X62489449Y-51809500D01*
X62310589Y-51837829D01*
X62138363Y-51893787D01*
X62138360Y-51893788D01*
X61977002Y-51976006D01*
X61830505Y-52082441D01*
X61830500Y-52082445D01*
X61702445Y-52210500D01*
X61702441Y-52210505D01*
X61596006Y-52357002D01*
X61513788Y-52518360D01*
X61513787Y-52518363D01*
X61457829Y-52690589D01*
X61432473Y-52850678D01*
X61402544Y-52913813D01*
X61343232Y-52950744D01*
X61273369Y-52949746D01*
X61215137Y-52911136D01*
X61187527Y-52850678D01*
X61173740Y-52763639D01*
X61162171Y-52690591D01*
X61106211Y-52518361D01*
X61106211Y-52518360D01*
X61070055Y-52447401D01*
X61023996Y-52357006D01*
X60924557Y-52220139D01*
X60917558Y-52210505D01*
X60917554Y-52210500D01*
X60789499Y-52082445D01*
X60789494Y-52082441D01*
X60642997Y-51976006D01*
X60642996Y-51976005D01*
X60642994Y-51976004D01*
X60591300Y-51949664D01*
X60481639Y-51893788D01*
X60481636Y-51893787D01*
X60309410Y-51837829D01*
X60130551Y-51809500D01*
X60130546Y-51809500D01*
X59949454Y-51809500D01*
X59949449Y-51809500D01*
X59770589Y-51837829D01*
X59598363Y-51893787D01*
X59598360Y-51893788D01*
X59437002Y-51976006D01*
X59290505Y-52082441D01*
X59290500Y-52082445D01*
X59162445Y-52210500D01*
X59162441Y-52210505D01*
X59056006Y-52357002D01*
X58973788Y-52518360D01*
X58973787Y-52518363D01*
X58917829Y-52690589D01*
X58892473Y-52850678D01*
X58862544Y-52913813D01*
X58803232Y-52950744D01*
X58733369Y-52949746D01*
X58675137Y-52911136D01*
X58647527Y-52850678D01*
X58633740Y-52763639D01*
X58622171Y-52690591D01*
X58566211Y-52518361D01*
X58566211Y-52518360D01*
X58530055Y-52447401D01*
X58483996Y-52357006D01*
X58384557Y-52220139D01*
X58377558Y-52210505D01*
X58377554Y-52210500D01*
X58249499Y-52082445D01*
X58249494Y-52082441D01*
X58102997Y-51976006D01*
X58102996Y-51976005D01*
X58102994Y-51976004D01*
X58051300Y-51949664D01*
X57941639Y-51893788D01*
X57941636Y-51893787D01*
X57769410Y-51837829D01*
X57590551Y-51809500D01*
X57590546Y-51809500D01*
X57409454Y-51809500D01*
X57409449Y-51809500D01*
X57230589Y-51837829D01*
X57058363Y-51893787D01*
X57058360Y-51893788D01*
X56897002Y-51976006D01*
X56750505Y-52082441D01*
X56750500Y-52082445D01*
X56622445Y-52210500D01*
X56622441Y-52210505D01*
X56516006Y-52357002D01*
X56433788Y-52518360D01*
X56433787Y-52518363D01*
X56377829Y-52690589D01*
X56349500Y-52869448D01*
X56349500Y-53050551D01*
X56377829Y-53229410D01*
X56433787Y-53401636D01*
X56433788Y-53401639D01*
X56516006Y-53562997D01*
X56622441Y-53709494D01*
X56622445Y-53709499D01*
X56750500Y-53837554D01*
X56750505Y-53837558D01*
X56822019Y-53889515D01*
X56897006Y-53943996D01*
X57037371Y-54015516D01*
X57088166Y-54063490D01*
X57104961Y-54131311D01*
X57082424Y-54197446D01*
X57027709Y-54240897D01*
X56981075Y-54250000D01*
X56618520Y-54250000D01*
X56524850Y-54264835D01*
X56524844Y-54264837D01*
X56411958Y-54322356D01*
X56411949Y-54322363D01*
X56322363Y-54411949D01*
X56322360Y-54411953D01*
X56264833Y-54524855D01*
X56250000Y-54618513D01*
X56250000Y-55200000D01*
X57095856Y-55200000D01*
X57034075Y-55307007D01*
X57000000Y-55434174D01*
X57000000Y-55565826D01*
X57034075Y-55692993D01*
X57095856Y-55800000D01*
X56250001Y-55800000D01*
X56250001Y-56381479D01*
X56264835Y-56475149D01*
X56264837Y-56475155D01*
X56322356Y-56588041D01*
X56322363Y-56588050D01*
X56411949Y-56677636D01*
X56411953Y-56677639D01*
X56524855Y-56735166D01*
X56618514Y-56749999D01*
X57199999Y-56749999D01*
X57200000Y-56749998D01*
X57200000Y-55904144D01*
X57307007Y-55965925D01*
X57434174Y-56000000D01*
X57565826Y-56000000D01*
X57692993Y-55965925D01*
X57800000Y-55904144D01*
X57800000Y-56749999D01*
X58220500Y-56749999D01*
X58287539Y-56769684D01*
X58333294Y-56822488D01*
X58344500Y-56873999D01*
X58344500Y-57051382D01*
X58344500Y-57163418D01*
X58373497Y-57271637D01*
X58429515Y-57368663D01*
X58429517Y-57368665D01*
X59540781Y-58479929D01*
X59574266Y-58541252D01*
X59577100Y-58567610D01*
X59577100Y-58889591D01*
X59557415Y-58956630D01*
X59504611Y-59002385D01*
X59435453Y-59012329D01*
X59371897Y-58983304D01*
X59365419Y-58977272D01*
X58051173Y-57663026D01*
X58051169Y-57663023D01*
X57944627Y-57591835D01*
X57943188Y-57591239D01*
X57826244Y-57542799D01*
X57826238Y-57542797D01*
X57700571Y-57517800D01*
X57700569Y-57517800D01*
X56913831Y-57517800D01*
X56913829Y-57517800D01*
X56788161Y-57542797D01*
X56788155Y-57542799D01*
X56712664Y-57574069D01*
X56712663Y-57574069D01*
X56669776Y-57591832D01*
X56563226Y-57663026D01*
X56563225Y-57663027D01*
X55353925Y-58872328D01*
X55353922Y-58872332D01*
X55331584Y-58905762D01*
X55331585Y-58905763D01*
X55282734Y-58978874D01*
X55233699Y-59097255D01*
X55233697Y-59097261D01*
X55208700Y-59222928D01*
X55208700Y-59222931D01*
X55208700Y-77322169D01*
X55208700Y-77322171D01*
X55208699Y-77322171D01*
X50500500Y-77322171D01*
X50500500Y-52578711D01*
X50849500Y-52578711D01*
X50849500Y-52821288D01*
X50881161Y-53061785D01*
X50943947Y-53296104D01*
X50993924Y-53416759D01*
X51036776Y-53520212D01*
X51158064Y-53730289D01*
X51158066Y-53730292D01*
X51158067Y-53730293D01*
X51305733Y-53922736D01*
X51305739Y-53922743D01*
X51477256Y-54094260D01*
X51477263Y-54094266D01*
X51533550Y-54137456D01*
X51669711Y-54241936D01*
X51879788Y-54363224D01*
X52075269Y-54444195D01*
X52098902Y-54453984D01*
X52103900Y-54456054D01*
X52338211Y-54518838D01*
X52507941Y-54541183D01*
X52578711Y-54550500D01*
X52578712Y-54550500D01*
X52821289Y-54550500D01*
X52869388Y-54544167D01*
X53061789Y-54518838D01*
X53296100Y-54456054D01*
X53520212Y-54363224D01*
X53730289Y-54241936D01*
X53922738Y-54094265D01*
X54094265Y-53922738D01*
X54241936Y-53730289D01*
X54363224Y-53520212D01*
X54456054Y-53296100D01*
X54518838Y-53061789D01*
X54550500Y-52821288D01*
X54550500Y-52578712D01*
X54518838Y-52338211D01*
X54456054Y-52103900D01*
X54363224Y-51879788D01*
X54241936Y-51669711D01*
X54094265Y-51477262D01*
X54094260Y-51477256D01*
X53922743Y-51305739D01*
X53922736Y-51305733D01*
X53730293Y-51158067D01*
X53730292Y-51158066D01*
X53730289Y-51158064D01*
X53520212Y-51036776D01*
X53459828Y-51011764D01*
X53296104Y-50943947D01*
X53061785Y-50881161D01*
X52821289Y-50849500D01*
X52821288Y-50849500D01*
X52578712Y-50849500D01*
X52578711Y-50849500D01*
X52338214Y-50881161D01*
X52103895Y-50943947D01*
X51879794Y-51036773D01*
X51879785Y-51036777D01*
X51669706Y-51158067D01*
X51477263Y-51305733D01*
X51477256Y-51305739D01*
X51305739Y-51477256D01*
X51305733Y-51477263D01*
X51158067Y-51669706D01*
X51036777Y-51879785D01*
X51036773Y-51879794D01*
X50943947Y-52103895D01*
X50881161Y-52338214D01*
X50849500Y-52578711D01*
X50500500Y-52578711D01*
X50500500Y-52004427D01*
X50500816Y-51995581D01*
X50508096Y-51893789D01*
X50515130Y-51795436D01*
X50517646Y-51777938D01*
X50559356Y-51586200D01*
X50564335Y-51569242D01*
X50632911Y-51385382D01*
X50640251Y-51369310D01*
X50734294Y-51197083D01*
X50743850Y-51182214D01*
X50861443Y-51025128D01*
X50873017Y-51011771D01*
X51011771Y-50873017D01*
X51025128Y-50861443D01*
X51182214Y-50743850D01*
X51197083Y-50734294D01*
X51369310Y-50640251D01*
X51385382Y-50632911D01*
X51569242Y-50564335D01*
X51586200Y-50559356D01*
X51777938Y-50517646D01*
X51795436Y-50515130D01*
X51995582Y-50500816D01*
X52004428Y-50500500D01*
X52065892Y-50500500D01*
X95934108Y-50500500D01*
X95995572Y-50500500D01*
X96004418Y-50500816D01*
G37*
%TD.AperFunction*%
%TD*%
M02*
