%TF.GenerationSoftware,KiCad,Pcbnew,10.0.6*%
%TF.CreationDate,2026-09-11T16:05:18-07:00*%
%TF.ProjectId,sticks3-bot-hat,73746963-6b73-4332-9d62-6f742d686174,rev?*%
%TF.SameCoordinates,Original*%
%TF.FileFunction,Soldermask,Bot*%
%TF.FilePolarity,Negative*%
%FSLAX46Y46*%
G04 Gerber Fmt 4.6, Leading zero omitted, Abs format (unit mm)*
G04 Created by KiCad (PCBNEW 10.0.6) date 2026-09-11 16:05:18*
%MOMM*%
%LPD*%
G01*
G04 APERTURE LIST*
G04 Aperture macros list*
%AMRoundRect*
0 Rectangle with rounded corners*
0 $1 Rounding radius*
0 $2 $3 $4 $5 $6 $7 $8 $9 X,Y pos of 4 corners*
0 Add a 4 corners polygon primitive as box body*
4,1,4,$2,$3,$4,$5,$6,$7,$8,$9,$2,$3,0*
0 Add four circle primitives for the rounded corners*
1,1,$1+$1,$2,$3*
1,1,$1+$1,$4,$5*
1,1,$1+$1,$6,$7*
1,1,$1+$1,$8,$9*
0 Add four rect primitives between the rounded corners*
20,1,$1+$1,$2,$3,$4,$5,0*
20,1,$1+$1,$4,$5,$6,$7,0*
20,1,$1+$1,$6,$7,$8,$9,0*
20,1,$1+$1,$8,$9,$2,$3,0*%
G04 Aperture macros list end*
%ADD10R,1.700000X1.700000*%
%ADD11C,1.700000*%
%ADD12C,2.700000*%
%ADD13RoundRect,0.250000X-0.550000X-0.550000X0.550000X-0.550000X0.550000X0.550000X-0.550000X0.550000X0*%
%ADD14C,1.600000*%
%ADD15R,3.500000X3.500000*%
%ADD16RoundRect,0.750000X-1.000000X0.750000X-1.000000X-0.750000X1.000000X-0.750000X1.000000X0.750000X0*%
%ADD17RoundRect,0.875000X-0.875000X0.875000X-0.875000X-0.875000X0.875000X-0.875000X0.875000X0.875000X0*%
G04 APERTURE END LIST*
D10*
%TO.C,J4*%
X74900000Y-76200000D03*
D11*
X77440000Y-76200000D03*
X79980000Y-76200000D03*
%TD*%
D12*
%TO.C,H2*%
X95300000Y-52700000D03*
%TD*%
D10*
%TO.C,J8*%
X74900000Y-71000000D03*
D11*
X77440000Y-71000000D03*
X79980000Y-71000000D03*
%TD*%
D10*
%TO.C,J7*%
X66100000Y-71000000D03*
D11*
X68640000Y-71000000D03*
X71180000Y-71000000D03*
%TD*%
D13*
%TO.C,C7*%
X72700000Y-63200000D03*
D14*
X76200000Y-63200000D03*
%TD*%
D10*
%TO.C,J1*%
X57500000Y-55500000D03*
D11*
X57500000Y-52960000D03*
X60040000Y-55500000D03*
X60040000Y-52960000D03*
X62580000Y-55500000D03*
X62580000Y-52960000D03*
X65120000Y-55500000D03*
X65120000Y-52960000D03*
X67660000Y-55500000D03*
X67660000Y-52960000D03*
X70200000Y-55500000D03*
X70200000Y-52960000D03*
X72740000Y-55500000D03*
X72740000Y-52960000D03*
X75280000Y-55500000D03*
X75280000Y-52960000D03*
%TD*%
D10*
%TO.C,J6*%
X57300000Y-71000000D03*
D11*
X59840000Y-71000000D03*
X62380000Y-71000000D03*
%TD*%
D12*
%TO.C,H1*%
X52700000Y-52700000D03*
%TD*%
D10*
%TO.C,J3*%
X66100000Y-76200000D03*
D11*
X68640000Y-76200000D03*
X71180000Y-76200000D03*
%TD*%
D10*
%TO.C,J10*%
X83700000Y-71000000D03*
D11*
X86240000Y-71000000D03*
X88780000Y-71000000D03*
%TD*%
D15*
%TO.C,J11*%
X86000000Y-64000000D03*
D16*
X86000000Y-58000000D03*
D17*
X81300000Y-61000000D03*
%TD*%
D12*
%TO.C,H4*%
X95300000Y-79500000D03*
%TD*%
%TO.C,H3*%
X52700000Y-79500000D03*
%TD*%
D10*
%TO.C,J2*%
X57300000Y-76200000D03*
D11*
X59840000Y-76200000D03*
X62380000Y-76200000D03*
%TD*%
D10*
%TO.C,J5*%
X83700000Y-76200000D03*
D11*
X86240000Y-76200000D03*
X88780000Y-76200000D03*
%TD*%
M02*
