%TF.GenerationSoftware,KiCad,Pcbnew,10.0.6*%
%TF.CreationDate,2026-09-11T16:05:18-07:00*%
%TF.ProjectId,sticks3-bot-hat,73746963-6b73-4332-9d62-6f742d686174,rev?*%
%TF.SameCoordinates,Original*%
%TF.FileFunction,Drillmap*%
%TF.FilePolarity,Positive*%
%FSLAX45Y45*%
G04 Gerber Fmt 4.5, Leading zero omitted, Abs format (unit mm)*
G04 Created by KiCad (PCBNEW 10.0.6) date 2026-09-11 16:05:18*
%MOMM*%
%LPD*%
G01*
G04 APERTURE LIST*
%ADD10C,0.100000*%
%ADD11C,0.200000*%
%ADD12C,0.270000*%
G04 APERTURE END LIST*
D10*
X5000000Y-5200000D02*
G75*
G02*
X5200000Y-5000000I200000J0D01*
G01*
X5000000Y-8100000D02*
X5000000Y-5200000D01*
X5200000Y-5000000D02*
X9600000Y-5000000D01*
X5200000Y-8300000D02*
G75*
G02*
X5000000Y-8100000I0J200000D01*
G01*
X9600000Y-5000000D02*
G75*
G02*
X9800000Y-5200000I0J-200000D01*
G01*
X9600000Y-8300000D02*
X5200000Y-8300000D01*
X9800000Y-5200000D02*
X9800000Y-8100000D01*
X9800000Y-8100000D02*
G75*
G02*
X9600000Y-8300000I-200000J0D01*
G01*
D11*
D10*
X5715000Y-5892400D02*
X5745000Y-5922400D01*
X5745000Y-5892400D02*
X5715000Y-5922400D01*
X5912020Y-6070000D02*
X5942020Y-6100000D01*
X5942020Y-6070000D02*
X5912020Y-6100000D01*
X6352440Y-6059840D02*
X6382440Y-6089840D01*
X6382440Y-6059840D02*
X6352440Y-6089840D01*
X6352440Y-6515000D02*
X6382440Y-6545000D01*
X6382440Y-6515000D02*
X6352440Y-6545000D01*
X6958930Y-5899220D02*
X6988930Y-5929220D01*
X6988930Y-5899220D02*
X6958930Y-5929220D01*
X8355000Y-5415940D02*
X8385000Y-5445940D01*
X8385000Y-5415940D02*
X8355000Y-5445940D01*
X9009430Y-6385000D02*
X9039430Y-6415000D01*
X9039430Y-6385000D02*
X9009430Y-6415000D01*
X5801058Y-5665911D02*
G75*
G02*
X5761058Y-5665911I-20000J0D01*
G01*
X5761058Y-5665911D02*
G75*
G02*
X5801058Y-5665911I20000J0D01*
G01*
X6373911Y-7131058D02*
G75*
G02*
X6333911Y-7131058I-20000J0D01*
G01*
X6333911Y-7131058D02*
G75*
G02*
X6373911Y-7131058I20000J0D01*
G01*
X7760000Y-6320000D02*
G75*
G02*
X7720000Y-6320000I-20000J0D01*
G01*
X7720000Y-6320000D02*
G75*
G02*
X7760000Y-6320000I20000J0D01*
G01*
X7270000Y-6280000D02*
X7270000Y-6360000D01*
X7230000Y-6320000D02*
X7310000Y-6320000D01*
X7620000Y-6280000D02*
X7620000Y-6360000D01*
X7580000Y-6320000D02*
X7660000Y-6320000D01*
X5765356Y-7135356D02*
X5765356Y-7064644D01*
X5694644Y-7064644D01*
X5694644Y-7135356D01*
X5765356Y-7135356D01*
X5765356Y-7655356D02*
X5765356Y-7584644D01*
X5694644Y-7584644D01*
X5694644Y-7655356D01*
X5765356Y-7655356D01*
X5785356Y-5331356D02*
X5785356Y-5260644D01*
X5714644Y-5260644D01*
X5714644Y-5331356D01*
X5785356Y-5331356D01*
X5785356Y-5585356D02*
X5785356Y-5514644D01*
X5714644Y-5514644D01*
X5714644Y-5585356D01*
X5785356Y-5585356D01*
X6019356Y-7135356D02*
X6019356Y-7064644D01*
X5948644Y-7064644D01*
X5948644Y-7135356D01*
X6019356Y-7135356D01*
X6019356Y-7655356D02*
X6019356Y-7584644D01*
X5948644Y-7584644D01*
X5948644Y-7655356D01*
X6019356Y-7655356D01*
X6039356Y-5331356D02*
X6039356Y-5260644D01*
X5968644Y-5260644D01*
X5968644Y-5331356D01*
X6039356Y-5331356D01*
X6039356Y-5585356D02*
X6039356Y-5514644D01*
X5968644Y-5514644D01*
X5968644Y-5585356D01*
X6039356Y-5585356D01*
X6273356Y-7135356D02*
X6273356Y-7064644D01*
X6202644Y-7064644D01*
X6202644Y-7135356D01*
X6273356Y-7135356D01*
X6273356Y-7655356D02*
X6273356Y-7584644D01*
X6202644Y-7584644D01*
X6202644Y-7655356D01*
X6273356Y-7655356D01*
X6293356Y-5331356D02*
X6293356Y-5260644D01*
X6222644Y-5260644D01*
X6222644Y-5331356D01*
X6293356Y-5331356D01*
X6293356Y-5585356D02*
X6293356Y-5514644D01*
X6222644Y-5514644D01*
X6222644Y-5585356D01*
X6293356Y-5585356D01*
X6547356Y-5331356D02*
X6547356Y-5260644D01*
X6476644Y-5260644D01*
X6476644Y-5331356D01*
X6547356Y-5331356D01*
X6547356Y-5585356D02*
X6547356Y-5514644D01*
X6476644Y-5514644D01*
X6476644Y-5585356D01*
X6547356Y-5585356D01*
X6645356Y-7135356D02*
X6645356Y-7064644D01*
X6574644Y-7064644D01*
X6574644Y-7135356D01*
X6645356Y-7135356D01*
X6645356Y-7655356D02*
X6645356Y-7584644D01*
X6574644Y-7584644D01*
X6574644Y-7655356D01*
X6645356Y-7655356D01*
X6801356Y-5331356D02*
X6801356Y-5260644D01*
X6730644Y-5260644D01*
X6730644Y-5331356D01*
X6801356Y-5331356D01*
X6801356Y-5585356D02*
X6801356Y-5514644D01*
X6730644Y-5514644D01*
X6730644Y-5585356D01*
X6801356Y-5585356D01*
X6899356Y-7135356D02*
X6899356Y-7064644D01*
X6828644Y-7064644D01*
X6828644Y-7135356D01*
X6899356Y-7135356D01*
X6899356Y-7655356D02*
X6899356Y-7584644D01*
X6828644Y-7584644D01*
X6828644Y-7655356D01*
X6899356Y-7655356D01*
X7055356Y-5331356D02*
X7055356Y-5260644D01*
X6984644Y-5260644D01*
X6984644Y-5331356D01*
X7055356Y-5331356D01*
X7055356Y-5585356D02*
X7055356Y-5514644D01*
X6984644Y-5514644D01*
X6984644Y-5585356D01*
X7055356Y-5585356D01*
X7153356Y-7135356D02*
X7153356Y-7064644D01*
X7082644Y-7064644D01*
X7082644Y-7135356D01*
X7153356Y-7135356D01*
X7153356Y-7655356D02*
X7153356Y-7584644D01*
X7082644Y-7584644D01*
X7082644Y-7655356D01*
X7153356Y-7655356D01*
X7309356Y-5331356D02*
X7309356Y-5260644D01*
X7238644Y-5260644D01*
X7238644Y-5331356D01*
X7309356Y-5331356D01*
X7309356Y-5585356D02*
X7309356Y-5514644D01*
X7238644Y-5514644D01*
X7238644Y-5585356D01*
X7309356Y-5585356D01*
X7525356Y-7135356D02*
X7525356Y-7064644D01*
X7454644Y-7064644D01*
X7454644Y-7135356D01*
X7525356Y-7135356D01*
X7525356Y-7655356D02*
X7525356Y-7584644D01*
X7454644Y-7584644D01*
X7454644Y-7655356D01*
X7525356Y-7655356D01*
X7563356Y-5331356D02*
X7563356Y-5260644D01*
X7492644Y-5260644D01*
X7492644Y-5331356D01*
X7563356Y-5331356D01*
X7563356Y-5585356D02*
X7563356Y-5514644D01*
X7492644Y-5514644D01*
X7492644Y-5585356D01*
X7563356Y-5585356D01*
X7779356Y-7135356D02*
X7779356Y-7064644D01*
X7708644Y-7064644D01*
X7708644Y-7135356D01*
X7779356Y-7135356D01*
X7779356Y-7655356D02*
X7779356Y-7584644D01*
X7708644Y-7584644D01*
X7708644Y-7655356D01*
X7779356Y-7655356D01*
X8033356Y-7135356D02*
X8033356Y-7064644D01*
X7962644Y-7064644D01*
X7962644Y-7135356D01*
X8033356Y-7135356D01*
X8033356Y-7655356D02*
X8033356Y-7584644D01*
X7962644Y-7584644D01*
X7962644Y-7655356D01*
X8033356Y-7655356D01*
X8165356Y-6135356D02*
X8165356Y-6064644D01*
X8094644Y-6064644D01*
X8094644Y-6135356D01*
X8165356Y-6135356D01*
X8080000Y-6000000D02*
X8080000Y-6200000D01*
X8180000Y-6200000D02*
G75*
G02*
X8080000Y-6200000I-50000J0D01*
G01*
X8180000Y-6200000D02*
X8180000Y-6000000D01*
X8180000Y-6000000D02*
G75*
G03*
X8080000Y-6000000I-50000J0D01*
G01*
X8405356Y-7135356D02*
X8405356Y-7064644D01*
X8334644Y-7064644D01*
X8334644Y-7135356D01*
X8405356Y-7135356D01*
X8405356Y-7655356D02*
X8405356Y-7584644D01*
X8334644Y-7584644D01*
X8334644Y-7655356D01*
X8405356Y-7655356D01*
X8635356Y-5835356D02*
X8635356Y-5764644D01*
X8564644Y-5764644D01*
X8564644Y-5835356D01*
X8635356Y-5835356D01*
X8700000Y-5750000D02*
X8500000Y-5750000D01*
X8500000Y-5850000D02*
G75*
G02*
X8500000Y-5750000I0J50000D01*
G01*
X8500000Y-5850000D02*
X8700000Y-5850000D01*
X8700000Y-5850000D02*
G75*
G03*
X8700000Y-5750000I0J50000D01*
G01*
X8635356Y-6435356D02*
X8635356Y-6364644D01*
X8564644Y-6364644D01*
X8564644Y-6435356D01*
X8635356Y-6435356D01*
X8700000Y-6350000D02*
X8500000Y-6350000D01*
X8500000Y-6450000D02*
G75*
G02*
X8500000Y-6350000I0J50000D01*
G01*
X8500000Y-6450000D02*
X8700000Y-6450000D01*
X8700000Y-6450000D02*
G75*
G03*
X8700000Y-6350000I0J50000D01*
G01*
X8659356Y-7135356D02*
X8659356Y-7064644D01*
X8588644Y-7064644D01*
X8588644Y-7135356D01*
X8659356Y-7135356D01*
X8659356Y-7655356D02*
X8659356Y-7584644D01*
X8588644Y-7584644D01*
X8588644Y-7655356D01*
X8659356Y-7655356D01*
X8913356Y-7135356D02*
X8913356Y-7064644D01*
X8842644Y-7064644D01*
X8842644Y-7135356D01*
X8913356Y-7135356D01*
X8913356Y-7655356D02*
X8913356Y-7584644D01*
X8842644Y-7584644D01*
X8842644Y-7655356D01*
X8913356Y-7655356D01*
D12*
X5270000Y-5405000D02*
X5405000Y-5270000D01*
X5270000Y-5135000D01*
X5135000Y-5270000D01*
X5270000Y-5405000D01*
X5270000Y-8085000D02*
X5405000Y-7950000D01*
X5270000Y-7815000D01*
X5135000Y-7950000D01*
X5270000Y-8085000D01*
X9530000Y-5405000D02*
X9665000Y-5270000D01*
X9530000Y-5135000D01*
X9395000Y-5270000D01*
X9530000Y-5405000D01*
X9530000Y-8085000D02*
X9665000Y-7950000D01*
X9530000Y-7815000D01*
X9395000Y-7950000D01*
X9530000Y-8085000D01*
D11*
X5255777Y-8616484D02*
X5255777Y-8416484D01*
X5255777Y-8416484D02*
X5303396Y-8416484D01*
X5303396Y-8416484D02*
X5331967Y-8426008D01*
X5331967Y-8426008D02*
X5351015Y-8445055D01*
X5351015Y-8445055D02*
X5360539Y-8464103D01*
X5360539Y-8464103D02*
X5370063Y-8502198D01*
X5370063Y-8502198D02*
X5370063Y-8530770D01*
X5370063Y-8530770D02*
X5360539Y-8568865D01*
X5360539Y-8568865D02*
X5351015Y-8587912D01*
X5351015Y-8587912D02*
X5331967Y-8606960D01*
X5331967Y-8606960D02*
X5303396Y-8616484D01*
X5303396Y-8616484D02*
X5255777Y-8616484D01*
X5455777Y-8616484D02*
X5455777Y-8483150D01*
X5455777Y-8521246D02*
X5465301Y-8502198D01*
X5465301Y-8502198D02*
X5474824Y-8492674D01*
X5474824Y-8492674D02*
X5493872Y-8483150D01*
X5493872Y-8483150D02*
X5512920Y-8483150D01*
X5579586Y-8616484D02*
X5579586Y-8483150D01*
X5579586Y-8416484D02*
X5570063Y-8426008D01*
X5570063Y-8426008D02*
X5579586Y-8435531D01*
X5579586Y-8435531D02*
X5589110Y-8426008D01*
X5589110Y-8426008D02*
X5579586Y-8416484D01*
X5579586Y-8416484D02*
X5579586Y-8435531D01*
X5703396Y-8616484D02*
X5684348Y-8606960D01*
X5684348Y-8606960D02*
X5674824Y-8587912D01*
X5674824Y-8587912D02*
X5674824Y-8416484D01*
X5808158Y-8616484D02*
X5789110Y-8606960D01*
X5789110Y-8606960D02*
X5779586Y-8587912D01*
X5779586Y-8587912D02*
X5779586Y-8416484D01*
X6036729Y-8616484D02*
X6036729Y-8416484D01*
X6036729Y-8416484D02*
X6103396Y-8559341D01*
X6103396Y-8559341D02*
X6170062Y-8416484D01*
X6170062Y-8416484D02*
X6170062Y-8616484D01*
X6351015Y-8616484D02*
X6351015Y-8511722D01*
X6351015Y-8511722D02*
X6341491Y-8492674D01*
X6341491Y-8492674D02*
X6322443Y-8483150D01*
X6322443Y-8483150D02*
X6284348Y-8483150D01*
X6284348Y-8483150D02*
X6265301Y-8492674D01*
X6351015Y-8606960D02*
X6331967Y-8616484D01*
X6331967Y-8616484D02*
X6284348Y-8616484D01*
X6284348Y-8616484D02*
X6265301Y-8606960D01*
X6265301Y-8606960D02*
X6255777Y-8587912D01*
X6255777Y-8587912D02*
X6255777Y-8568865D01*
X6255777Y-8568865D02*
X6265301Y-8549817D01*
X6265301Y-8549817D02*
X6284348Y-8540293D01*
X6284348Y-8540293D02*
X6331967Y-8540293D01*
X6331967Y-8540293D02*
X6351015Y-8530770D01*
X6446253Y-8483150D02*
X6446253Y-8683150D01*
X6446253Y-8492674D02*
X6465301Y-8483150D01*
X6465301Y-8483150D02*
X6503396Y-8483150D01*
X6503396Y-8483150D02*
X6522443Y-8492674D01*
X6522443Y-8492674D02*
X6531967Y-8502198D01*
X6531967Y-8502198D02*
X6541491Y-8521246D01*
X6541491Y-8521246D02*
X6541491Y-8578389D01*
X6541491Y-8578389D02*
X6531967Y-8597436D01*
X6531967Y-8597436D02*
X6522443Y-8606960D01*
X6522443Y-8606960D02*
X6503396Y-8616484D01*
X6503396Y-8616484D02*
X6465301Y-8616484D01*
X6465301Y-8616484D02*
X6446253Y-8606960D01*
X6627205Y-8597436D02*
X6636729Y-8606960D01*
X6636729Y-8606960D02*
X6627205Y-8616484D01*
X6627205Y-8616484D02*
X6617682Y-8606960D01*
X6617682Y-8606960D02*
X6627205Y-8597436D01*
X6627205Y-8597436D02*
X6627205Y-8616484D01*
X6627205Y-8492674D02*
X6636729Y-8502198D01*
X6636729Y-8502198D02*
X6627205Y-8511722D01*
X6627205Y-8511722D02*
X6617682Y-8502198D01*
X6617682Y-8502198D02*
X6627205Y-8492674D01*
X6627205Y-8492674D02*
X6627205Y-8511722D01*
D10*
X4965000Y-8930000D02*
X4995000Y-8960000D01*
X4995000Y-8930000D02*
X4965000Y-8960000D01*
D11*
X5293872Y-8836484D02*
X5312920Y-8836484D01*
X5312920Y-8836484D02*
X5331967Y-8846008D01*
X5331967Y-8846008D02*
X5341491Y-8855531D01*
X5341491Y-8855531D02*
X5351015Y-8874579D01*
X5351015Y-8874579D02*
X5360539Y-8912674D01*
X5360539Y-8912674D02*
X5360539Y-8960293D01*
X5360539Y-8960293D02*
X5351015Y-8998389D01*
X5351015Y-8998389D02*
X5341491Y-9017436D01*
X5341491Y-9017436D02*
X5331967Y-9026960D01*
X5331967Y-9026960D02*
X5312920Y-9036484D01*
X5312920Y-9036484D02*
X5293872Y-9036484D01*
X5293872Y-9036484D02*
X5274824Y-9026960D01*
X5274824Y-9026960D02*
X5265301Y-9017436D01*
X5265301Y-9017436D02*
X5255777Y-8998389D01*
X5255777Y-8998389D02*
X5246253Y-8960293D01*
X5246253Y-8960293D02*
X5246253Y-8912674D01*
X5246253Y-8912674D02*
X5255777Y-8874579D01*
X5255777Y-8874579D02*
X5265301Y-8855531D01*
X5265301Y-8855531D02*
X5274824Y-8846008D01*
X5274824Y-8846008D02*
X5293872Y-8836484D01*
X5446253Y-9017436D02*
X5455777Y-9026960D01*
X5455777Y-9026960D02*
X5446253Y-9036484D01*
X5446253Y-9036484D02*
X5436729Y-9026960D01*
X5436729Y-9026960D02*
X5446253Y-9017436D01*
X5446253Y-9017436D02*
X5446253Y-9036484D01*
X5522444Y-8836484D02*
X5646253Y-8836484D01*
X5646253Y-8836484D02*
X5579586Y-8912674D01*
X5579586Y-8912674D02*
X5608158Y-8912674D01*
X5608158Y-8912674D02*
X5627205Y-8922198D01*
X5627205Y-8922198D02*
X5636729Y-8931722D01*
X5636729Y-8931722D02*
X5646253Y-8950770D01*
X5646253Y-8950770D02*
X5646253Y-8998389D01*
X5646253Y-8998389D02*
X5636729Y-9017436D01*
X5636729Y-9017436D02*
X5627205Y-9026960D01*
X5627205Y-9026960D02*
X5608158Y-9036484D01*
X5608158Y-9036484D02*
X5551015Y-9036484D01*
X5551015Y-9036484D02*
X5531967Y-9026960D01*
X5531967Y-9026960D02*
X5522444Y-9017436D01*
X5770062Y-8836484D02*
X5789110Y-8836484D01*
X5789110Y-8836484D02*
X5808158Y-8846008D01*
X5808158Y-8846008D02*
X5817682Y-8855531D01*
X5817682Y-8855531D02*
X5827205Y-8874579D01*
X5827205Y-8874579D02*
X5836729Y-8912674D01*
X5836729Y-8912674D02*
X5836729Y-8960293D01*
X5836729Y-8960293D02*
X5827205Y-8998389D01*
X5827205Y-8998389D02*
X5817682Y-9017436D01*
X5817682Y-9017436D02*
X5808158Y-9026960D01*
X5808158Y-9026960D02*
X5789110Y-9036484D01*
X5789110Y-9036484D02*
X5770062Y-9036484D01*
X5770062Y-9036484D02*
X5751015Y-9026960D01*
X5751015Y-9026960D02*
X5741491Y-9017436D01*
X5741491Y-9017436D02*
X5731967Y-8998389D01*
X5731967Y-8998389D02*
X5722443Y-8960293D01*
X5722443Y-8960293D02*
X5722443Y-8912674D01*
X5722443Y-8912674D02*
X5731967Y-8874579D01*
X5731967Y-8874579D02*
X5741491Y-8855531D01*
X5741491Y-8855531D02*
X5751015Y-8846008D01*
X5751015Y-8846008D02*
X5770062Y-8836484D01*
X5960539Y-8836484D02*
X5979586Y-8836484D01*
X5979586Y-8836484D02*
X5998634Y-8846008D01*
X5998634Y-8846008D02*
X6008158Y-8855531D01*
X6008158Y-8855531D02*
X6017682Y-8874579D01*
X6017682Y-8874579D02*
X6027205Y-8912674D01*
X6027205Y-8912674D02*
X6027205Y-8960293D01*
X6027205Y-8960293D02*
X6017682Y-8998389D01*
X6017682Y-8998389D02*
X6008158Y-9017436D01*
X6008158Y-9017436D02*
X5998634Y-9026960D01*
X5998634Y-9026960D02*
X5979586Y-9036484D01*
X5979586Y-9036484D02*
X5960539Y-9036484D01*
X5960539Y-9036484D02*
X5941491Y-9026960D01*
X5941491Y-9026960D02*
X5931967Y-9017436D01*
X5931967Y-9017436D02*
X5922443Y-8998389D01*
X5922443Y-8998389D02*
X5912920Y-8960293D01*
X5912920Y-8960293D02*
X5912920Y-8912674D01*
X5912920Y-8912674D02*
X5922443Y-8874579D01*
X5922443Y-8874579D02*
X5931967Y-8855531D01*
X5931967Y-8855531D02*
X5941491Y-8846008D01*
X5941491Y-8846008D02*
X5960539Y-8836484D01*
X6112920Y-9036484D02*
X6112920Y-8903150D01*
X6112920Y-8922198D02*
X6122443Y-8912674D01*
X6122443Y-8912674D02*
X6141491Y-8903150D01*
X6141491Y-8903150D02*
X6170063Y-8903150D01*
X6170063Y-8903150D02*
X6189110Y-8912674D01*
X6189110Y-8912674D02*
X6198634Y-8931722D01*
X6198634Y-8931722D02*
X6198634Y-9036484D01*
X6198634Y-8931722D02*
X6208158Y-8912674D01*
X6208158Y-8912674D02*
X6227205Y-8903150D01*
X6227205Y-8903150D02*
X6255777Y-8903150D01*
X6255777Y-8903150D02*
X6274824Y-8912674D01*
X6274824Y-8912674D02*
X6284348Y-8931722D01*
X6284348Y-8931722D02*
X6284348Y-9036484D01*
X6379586Y-9036484D02*
X6379586Y-8903150D01*
X6379586Y-8922198D02*
X6389110Y-8912674D01*
X6389110Y-8912674D02*
X6408158Y-8903150D01*
X6408158Y-8903150D02*
X6436729Y-8903150D01*
X6436729Y-8903150D02*
X6455777Y-8912674D01*
X6455777Y-8912674D02*
X6465301Y-8931722D01*
X6465301Y-8931722D02*
X6465301Y-9036484D01*
X6465301Y-8931722D02*
X6474824Y-8912674D01*
X6474824Y-8912674D02*
X6493872Y-8903150D01*
X6493872Y-8903150D02*
X6522443Y-8903150D01*
X6522443Y-8903150D02*
X6541491Y-8912674D01*
X6541491Y-8912674D02*
X6551015Y-8931722D01*
X6551015Y-8931722D02*
X6551015Y-9036484D01*
X6941491Y-8826960D02*
X6770063Y-9084103D01*
X7198634Y-8836484D02*
X7217682Y-8836484D01*
X7217682Y-8836484D02*
X7236729Y-8846008D01*
X7236729Y-8846008D02*
X7246253Y-8855531D01*
X7246253Y-8855531D02*
X7255777Y-8874579D01*
X7255777Y-8874579D02*
X7265301Y-8912674D01*
X7265301Y-8912674D02*
X7265301Y-8960293D01*
X7265301Y-8960293D02*
X7255777Y-8998389D01*
X7255777Y-8998389D02*
X7246253Y-9017436D01*
X7246253Y-9017436D02*
X7236729Y-9026960D01*
X7236729Y-9026960D02*
X7217682Y-9036484D01*
X7217682Y-9036484D02*
X7198634Y-9036484D01*
X7198634Y-9036484D02*
X7179586Y-9026960D01*
X7179586Y-9026960D02*
X7170063Y-9017436D01*
X7170063Y-9017436D02*
X7160539Y-8998389D01*
X7160539Y-8998389D02*
X7151015Y-8960293D01*
X7151015Y-8960293D02*
X7151015Y-8912674D01*
X7151015Y-8912674D02*
X7160539Y-8874579D01*
X7160539Y-8874579D02*
X7170063Y-8855531D01*
X7170063Y-8855531D02*
X7179586Y-8846008D01*
X7179586Y-8846008D02*
X7198634Y-8836484D01*
X7351015Y-9017436D02*
X7360539Y-9026960D01*
X7360539Y-9026960D02*
X7351015Y-9036484D01*
X7351015Y-9036484D02*
X7341491Y-9026960D01*
X7341491Y-9026960D02*
X7351015Y-9017436D01*
X7351015Y-9017436D02*
X7351015Y-9036484D01*
X7484348Y-8836484D02*
X7503396Y-8836484D01*
X7503396Y-8836484D02*
X7522444Y-8846008D01*
X7522444Y-8846008D02*
X7531967Y-8855531D01*
X7531967Y-8855531D02*
X7541491Y-8874579D01*
X7541491Y-8874579D02*
X7551015Y-8912674D01*
X7551015Y-8912674D02*
X7551015Y-8960293D01*
X7551015Y-8960293D02*
X7541491Y-8998389D01*
X7541491Y-8998389D02*
X7531967Y-9017436D01*
X7531967Y-9017436D02*
X7522444Y-9026960D01*
X7522444Y-9026960D02*
X7503396Y-9036484D01*
X7503396Y-9036484D02*
X7484348Y-9036484D01*
X7484348Y-9036484D02*
X7465301Y-9026960D01*
X7465301Y-9026960D02*
X7455777Y-9017436D01*
X7455777Y-9017436D02*
X7446253Y-8998389D01*
X7446253Y-8998389D02*
X7436729Y-8960293D01*
X7436729Y-8960293D02*
X7436729Y-8912674D01*
X7436729Y-8912674D02*
X7446253Y-8874579D01*
X7446253Y-8874579D02*
X7455777Y-8855531D01*
X7455777Y-8855531D02*
X7465301Y-8846008D01*
X7465301Y-8846008D02*
X7484348Y-8836484D01*
X7741491Y-9036484D02*
X7627206Y-9036484D01*
X7684348Y-9036484D02*
X7684348Y-8836484D01*
X7684348Y-8836484D02*
X7665301Y-8865055D01*
X7665301Y-8865055D02*
X7646253Y-8884103D01*
X7646253Y-8884103D02*
X7627206Y-8893627D01*
X7931967Y-9036484D02*
X7817682Y-9036484D01*
X7874825Y-9036484D02*
X7874825Y-8836484D01*
X7874825Y-8836484D02*
X7855777Y-8865055D01*
X7855777Y-8865055D02*
X7836729Y-8884103D01*
X7836729Y-8884103D02*
X7817682Y-8893627D01*
X8046253Y-8922198D02*
X8027206Y-8912674D01*
X8027206Y-8912674D02*
X8017682Y-8903150D01*
X8017682Y-8903150D02*
X8008158Y-8884103D01*
X8008158Y-8884103D02*
X8008158Y-8874579D01*
X8008158Y-8874579D02*
X8017682Y-8855531D01*
X8017682Y-8855531D02*
X8027206Y-8846008D01*
X8027206Y-8846008D02*
X8046253Y-8836484D01*
X8046253Y-8836484D02*
X8084348Y-8836484D01*
X8084348Y-8836484D02*
X8103396Y-8846008D01*
X8103396Y-8846008D02*
X8112920Y-8855531D01*
X8112920Y-8855531D02*
X8122444Y-8874579D01*
X8122444Y-8874579D02*
X8122444Y-8884103D01*
X8122444Y-8884103D02*
X8112920Y-8903150D01*
X8112920Y-8903150D02*
X8103396Y-8912674D01*
X8103396Y-8912674D02*
X8084348Y-8922198D01*
X8084348Y-8922198D02*
X8046253Y-8922198D01*
X8046253Y-8922198D02*
X8027206Y-8931722D01*
X8027206Y-8931722D02*
X8017682Y-8941246D01*
X8017682Y-8941246D02*
X8008158Y-8960293D01*
X8008158Y-8960293D02*
X8008158Y-8998389D01*
X8008158Y-8998389D02*
X8017682Y-9017436D01*
X8017682Y-9017436D02*
X8027206Y-9026960D01*
X8027206Y-9026960D02*
X8046253Y-9036484D01*
X8046253Y-9036484D02*
X8084348Y-9036484D01*
X8084348Y-9036484D02*
X8103396Y-9026960D01*
X8103396Y-9026960D02*
X8112920Y-9017436D01*
X8112920Y-9017436D02*
X8122444Y-8998389D01*
X8122444Y-8998389D02*
X8122444Y-8960293D01*
X8122444Y-8960293D02*
X8112920Y-8941246D01*
X8112920Y-8941246D02*
X8103396Y-8931722D01*
X8103396Y-8931722D02*
X8084348Y-8922198D01*
X8198634Y-8836484D02*
X8198634Y-8874579D01*
X8274825Y-8836484D02*
X8274825Y-8874579D01*
X8570063Y-9112674D02*
X8560539Y-9103150D01*
X8560539Y-9103150D02*
X8541491Y-9074579D01*
X8541491Y-9074579D02*
X8531968Y-9055531D01*
X8531968Y-9055531D02*
X8522444Y-9026960D01*
X8522444Y-9026960D02*
X8512920Y-8979341D01*
X8512920Y-8979341D02*
X8512920Y-8941246D01*
X8512920Y-8941246D02*
X8522444Y-8893627D01*
X8522444Y-8893627D02*
X8531968Y-8865055D01*
X8531968Y-8865055D02*
X8541491Y-8846008D01*
X8541491Y-8846008D02*
X8560539Y-8817436D01*
X8560539Y-8817436D02*
X8570063Y-8807912D01*
X8627206Y-8836484D02*
X8760539Y-8836484D01*
X8760539Y-8836484D02*
X8674825Y-9036484D01*
X8989111Y-9036484D02*
X8989111Y-8836484D01*
X9074825Y-9036484D02*
X9074825Y-8931722D01*
X9074825Y-8931722D02*
X9065301Y-8912674D01*
X9065301Y-8912674D02*
X9046253Y-8903150D01*
X9046253Y-8903150D02*
X9017682Y-8903150D01*
X9017682Y-8903150D02*
X8998634Y-8912674D01*
X8998634Y-8912674D02*
X8989111Y-8922198D01*
X9198634Y-9036484D02*
X9179587Y-9026960D01*
X9179587Y-9026960D02*
X9170063Y-9017436D01*
X9170063Y-9017436D02*
X9160539Y-8998389D01*
X9160539Y-8998389D02*
X9160539Y-8941246D01*
X9160539Y-8941246D02*
X9170063Y-8922198D01*
X9170063Y-8922198D02*
X9179587Y-8912674D01*
X9179587Y-8912674D02*
X9198634Y-8903150D01*
X9198634Y-8903150D02*
X9227206Y-8903150D01*
X9227206Y-8903150D02*
X9246253Y-8912674D01*
X9246253Y-8912674D02*
X9255777Y-8922198D01*
X9255777Y-8922198D02*
X9265301Y-8941246D01*
X9265301Y-8941246D02*
X9265301Y-8998389D01*
X9265301Y-8998389D02*
X9255777Y-9017436D01*
X9255777Y-9017436D02*
X9246253Y-9026960D01*
X9246253Y-9026960D02*
X9227206Y-9036484D01*
X9227206Y-9036484D02*
X9198634Y-9036484D01*
X9379587Y-9036484D02*
X9360539Y-9026960D01*
X9360539Y-9026960D02*
X9351015Y-9007912D01*
X9351015Y-9007912D02*
X9351015Y-8836484D01*
X9531968Y-9026960D02*
X9512920Y-9036484D01*
X9512920Y-9036484D02*
X9474825Y-9036484D01*
X9474825Y-9036484D02*
X9455777Y-9026960D01*
X9455777Y-9026960D02*
X9446253Y-9007912D01*
X9446253Y-9007912D02*
X9446253Y-8931722D01*
X9446253Y-8931722D02*
X9455777Y-8912674D01*
X9455777Y-8912674D02*
X9474825Y-8903150D01*
X9474825Y-8903150D02*
X9512920Y-8903150D01*
X9512920Y-8903150D02*
X9531968Y-8912674D01*
X9531968Y-8912674D02*
X9541492Y-8931722D01*
X9541492Y-8931722D02*
X9541492Y-8950770D01*
X9541492Y-8950770D02*
X9446253Y-8969817D01*
X9617682Y-9026960D02*
X9636730Y-9036484D01*
X9636730Y-9036484D02*
X9674825Y-9036484D01*
X9674825Y-9036484D02*
X9693873Y-9026960D01*
X9693873Y-9026960D02*
X9703396Y-9007912D01*
X9703396Y-9007912D02*
X9703396Y-8998389D01*
X9703396Y-8998389D02*
X9693873Y-8979341D01*
X9693873Y-8979341D02*
X9674825Y-8969817D01*
X9674825Y-8969817D02*
X9646253Y-8969817D01*
X9646253Y-8969817D02*
X9627206Y-8960293D01*
X9627206Y-8960293D02*
X9617682Y-8941246D01*
X9617682Y-8941246D02*
X9617682Y-8931722D01*
X9617682Y-8931722D02*
X9627206Y-8912674D01*
X9627206Y-8912674D02*
X9646253Y-8903150D01*
X9646253Y-8903150D02*
X9674825Y-8903150D01*
X9674825Y-8903150D02*
X9693873Y-8912674D01*
X9770063Y-9112674D02*
X9779587Y-9103150D01*
X9779587Y-9103150D02*
X9798634Y-9074579D01*
X9798634Y-9074579D02*
X9808158Y-9055531D01*
X9808158Y-9055531D02*
X9817682Y-9026960D01*
X9817682Y-9026960D02*
X9827206Y-8979341D01*
X9827206Y-8979341D02*
X9827206Y-8941246D01*
X9827206Y-8941246D02*
X9817682Y-8893627D01*
X9817682Y-8893627D02*
X9808158Y-8865055D01*
X9808158Y-8865055D02*
X9798634Y-8846008D01*
X9798634Y-8846008D02*
X9779587Y-8817436D01*
X9779587Y-8817436D02*
X9770063Y-8807912D01*
D10*
X4995000Y-9209000D02*
G75*
G02*
X4955000Y-9209000I-20000J0D01*
G01*
X4955000Y-9209000D02*
G75*
G02*
X4995000Y-9209000I20000J0D01*
G01*
D11*
X5293872Y-9100484D02*
X5312920Y-9100484D01*
X5312920Y-9100484D02*
X5331967Y-9110008D01*
X5331967Y-9110008D02*
X5341491Y-9119531D01*
X5341491Y-9119531D02*
X5351015Y-9138579D01*
X5351015Y-9138579D02*
X5360539Y-9176674D01*
X5360539Y-9176674D02*
X5360539Y-9224293D01*
X5360539Y-9224293D02*
X5351015Y-9262389D01*
X5351015Y-9262389D02*
X5341491Y-9281436D01*
X5341491Y-9281436D02*
X5331967Y-9290960D01*
X5331967Y-9290960D02*
X5312920Y-9300484D01*
X5312920Y-9300484D02*
X5293872Y-9300484D01*
X5293872Y-9300484D02*
X5274824Y-9290960D01*
X5274824Y-9290960D02*
X5265301Y-9281436D01*
X5265301Y-9281436D02*
X5255777Y-9262389D01*
X5255777Y-9262389D02*
X5246253Y-9224293D01*
X5246253Y-9224293D02*
X5246253Y-9176674D01*
X5246253Y-9176674D02*
X5255777Y-9138579D01*
X5255777Y-9138579D02*
X5265301Y-9119531D01*
X5265301Y-9119531D02*
X5274824Y-9110008D01*
X5274824Y-9110008D02*
X5293872Y-9100484D01*
X5446253Y-9281436D02*
X5455777Y-9290960D01*
X5455777Y-9290960D02*
X5446253Y-9300484D01*
X5446253Y-9300484D02*
X5436729Y-9290960D01*
X5436729Y-9290960D02*
X5446253Y-9281436D01*
X5446253Y-9281436D02*
X5446253Y-9300484D01*
X5627205Y-9167150D02*
X5627205Y-9300484D01*
X5579586Y-9090960D02*
X5531967Y-9233817D01*
X5531967Y-9233817D02*
X5655777Y-9233817D01*
X5770062Y-9100484D02*
X5789110Y-9100484D01*
X5789110Y-9100484D02*
X5808158Y-9110008D01*
X5808158Y-9110008D02*
X5817682Y-9119531D01*
X5817682Y-9119531D02*
X5827205Y-9138579D01*
X5827205Y-9138579D02*
X5836729Y-9176674D01*
X5836729Y-9176674D02*
X5836729Y-9224293D01*
X5836729Y-9224293D02*
X5827205Y-9262389D01*
X5827205Y-9262389D02*
X5817682Y-9281436D01*
X5817682Y-9281436D02*
X5808158Y-9290960D01*
X5808158Y-9290960D02*
X5789110Y-9300484D01*
X5789110Y-9300484D02*
X5770062Y-9300484D01*
X5770062Y-9300484D02*
X5751015Y-9290960D01*
X5751015Y-9290960D02*
X5741491Y-9281436D01*
X5741491Y-9281436D02*
X5731967Y-9262389D01*
X5731967Y-9262389D02*
X5722443Y-9224293D01*
X5722443Y-9224293D02*
X5722443Y-9176674D01*
X5722443Y-9176674D02*
X5731967Y-9138579D01*
X5731967Y-9138579D02*
X5741491Y-9119531D01*
X5741491Y-9119531D02*
X5751015Y-9110008D01*
X5751015Y-9110008D02*
X5770062Y-9100484D01*
X5960539Y-9100484D02*
X5979586Y-9100484D01*
X5979586Y-9100484D02*
X5998634Y-9110008D01*
X5998634Y-9110008D02*
X6008158Y-9119531D01*
X6008158Y-9119531D02*
X6017682Y-9138579D01*
X6017682Y-9138579D02*
X6027205Y-9176674D01*
X6027205Y-9176674D02*
X6027205Y-9224293D01*
X6027205Y-9224293D02*
X6017682Y-9262389D01*
X6017682Y-9262389D02*
X6008158Y-9281436D01*
X6008158Y-9281436D02*
X5998634Y-9290960D01*
X5998634Y-9290960D02*
X5979586Y-9300484D01*
X5979586Y-9300484D02*
X5960539Y-9300484D01*
X5960539Y-9300484D02*
X5941491Y-9290960D01*
X5941491Y-9290960D02*
X5931967Y-9281436D01*
X5931967Y-9281436D02*
X5922443Y-9262389D01*
X5922443Y-9262389D02*
X5912920Y-9224293D01*
X5912920Y-9224293D02*
X5912920Y-9176674D01*
X5912920Y-9176674D02*
X5922443Y-9138579D01*
X5922443Y-9138579D02*
X5931967Y-9119531D01*
X5931967Y-9119531D02*
X5941491Y-9110008D01*
X5941491Y-9110008D02*
X5960539Y-9100484D01*
X6112920Y-9300484D02*
X6112920Y-9167150D01*
X6112920Y-9186198D02*
X6122443Y-9176674D01*
X6122443Y-9176674D02*
X6141491Y-9167150D01*
X6141491Y-9167150D02*
X6170063Y-9167150D01*
X6170063Y-9167150D02*
X6189110Y-9176674D01*
X6189110Y-9176674D02*
X6198634Y-9195722D01*
X6198634Y-9195722D02*
X6198634Y-9300484D01*
X6198634Y-9195722D02*
X6208158Y-9176674D01*
X6208158Y-9176674D02*
X6227205Y-9167150D01*
X6227205Y-9167150D02*
X6255777Y-9167150D01*
X6255777Y-9167150D02*
X6274824Y-9176674D01*
X6274824Y-9176674D02*
X6284348Y-9195722D01*
X6284348Y-9195722D02*
X6284348Y-9300484D01*
X6379586Y-9300484D02*
X6379586Y-9167150D01*
X6379586Y-9186198D02*
X6389110Y-9176674D01*
X6389110Y-9176674D02*
X6408158Y-9167150D01*
X6408158Y-9167150D02*
X6436729Y-9167150D01*
X6436729Y-9167150D02*
X6455777Y-9176674D01*
X6455777Y-9176674D02*
X6465301Y-9195722D01*
X6465301Y-9195722D02*
X6465301Y-9300484D01*
X6465301Y-9195722D02*
X6474824Y-9176674D01*
X6474824Y-9176674D02*
X6493872Y-9167150D01*
X6493872Y-9167150D02*
X6522443Y-9167150D01*
X6522443Y-9167150D02*
X6541491Y-9176674D01*
X6541491Y-9176674D02*
X6551015Y-9195722D01*
X6551015Y-9195722D02*
X6551015Y-9300484D01*
X6941491Y-9090960D02*
X6770063Y-9348103D01*
X7198634Y-9100484D02*
X7217682Y-9100484D01*
X7217682Y-9100484D02*
X7236729Y-9110008D01*
X7236729Y-9110008D02*
X7246253Y-9119531D01*
X7246253Y-9119531D02*
X7255777Y-9138579D01*
X7255777Y-9138579D02*
X7265301Y-9176674D01*
X7265301Y-9176674D02*
X7265301Y-9224293D01*
X7265301Y-9224293D02*
X7255777Y-9262389D01*
X7255777Y-9262389D02*
X7246253Y-9281436D01*
X7246253Y-9281436D02*
X7236729Y-9290960D01*
X7236729Y-9290960D02*
X7217682Y-9300484D01*
X7217682Y-9300484D02*
X7198634Y-9300484D01*
X7198634Y-9300484D02*
X7179586Y-9290960D01*
X7179586Y-9290960D02*
X7170063Y-9281436D01*
X7170063Y-9281436D02*
X7160539Y-9262389D01*
X7160539Y-9262389D02*
X7151015Y-9224293D01*
X7151015Y-9224293D02*
X7151015Y-9176674D01*
X7151015Y-9176674D02*
X7160539Y-9138579D01*
X7160539Y-9138579D02*
X7170063Y-9119531D01*
X7170063Y-9119531D02*
X7179586Y-9110008D01*
X7179586Y-9110008D02*
X7198634Y-9100484D01*
X7351015Y-9281436D02*
X7360539Y-9290960D01*
X7360539Y-9290960D02*
X7351015Y-9300484D01*
X7351015Y-9300484D02*
X7341491Y-9290960D01*
X7341491Y-9290960D02*
X7351015Y-9281436D01*
X7351015Y-9281436D02*
X7351015Y-9300484D01*
X7484348Y-9100484D02*
X7503396Y-9100484D01*
X7503396Y-9100484D02*
X7522444Y-9110008D01*
X7522444Y-9110008D02*
X7531967Y-9119531D01*
X7531967Y-9119531D02*
X7541491Y-9138579D01*
X7541491Y-9138579D02*
X7551015Y-9176674D01*
X7551015Y-9176674D02*
X7551015Y-9224293D01*
X7551015Y-9224293D02*
X7541491Y-9262389D01*
X7541491Y-9262389D02*
X7531967Y-9281436D01*
X7531967Y-9281436D02*
X7522444Y-9290960D01*
X7522444Y-9290960D02*
X7503396Y-9300484D01*
X7503396Y-9300484D02*
X7484348Y-9300484D01*
X7484348Y-9300484D02*
X7465301Y-9290960D01*
X7465301Y-9290960D02*
X7455777Y-9281436D01*
X7455777Y-9281436D02*
X7446253Y-9262389D01*
X7446253Y-9262389D02*
X7436729Y-9224293D01*
X7436729Y-9224293D02*
X7436729Y-9176674D01*
X7436729Y-9176674D02*
X7446253Y-9138579D01*
X7446253Y-9138579D02*
X7455777Y-9119531D01*
X7455777Y-9119531D02*
X7465301Y-9110008D01*
X7465301Y-9110008D02*
X7484348Y-9100484D01*
X7741491Y-9300484D02*
X7627206Y-9300484D01*
X7684348Y-9300484D02*
X7684348Y-9100484D01*
X7684348Y-9100484D02*
X7665301Y-9129055D01*
X7665301Y-9129055D02*
X7646253Y-9148103D01*
X7646253Y-9148103D02*
X7627206Y-9157627D01*
X7922444Y-9100484D02*
X7827206Y-9100484D01*
X7827206Y-9100484D02*
X7817682Y-9195722D01*
X7817682Y-9195722D02*
X7827206Y-9186198D01*
X7827206Y-9186198D02*
X7846253Y-9176674D01*
X7846253Y-9176674D02*
X7893872Y-9176674D01*
X7893872Y-9176674D02*
X7912920Y-9186198D01*
X7912920Y-9186198D02*
X7922444Y-9195722D01*
X7922444Y-9195722D02*
X7931967Y-9214770D01*
X7931967Y-9214770D02*
X7931967Y-9262389D01*
X7931967Y-9262389D02*
X7922444Y-9281436D01*
X7922444Y-9281436D02*
X7912920Y-9290960D01*
X7912920Y-9290960D02*
X7893872Y-9300484D01*
X7893872Y-9300484D02*
X7846253Y-9300484D01*
X7846253Y-9300484D02*
X7827206Y-9290960D01*
X7827206Y-9290960D02*
X7817682Y-9281436D01*
X7998634Y-9100484D02*
X8131967Y-9100484D01*
X8131967Y-9100484D02*
X8046253Y-9300484D01*
X8198634Y-9100484D02*
X8198634Y-9138579D01*
X8274825Y-9100484D02*
X8274825Y-9138579D01*
X8570063Y-9376674D02*
X8560539Y-9367150D01*
X8560539Y-9367150D02*
X8541491Y-9338579D01*
X8541491Y-9338579D02*
X8531968Y-9319531D01*
X8531968Y-9319531D02*
X8522444Y-9290960D01*
X8522444Y-9290960D02*
X8512920Y-9243341D01*
X8512920Y-9243341D02*
X8512920Y-9205246D01*
X8512920Y-9205246D02*
X8522444Y-9157627D01*
X8522444Y-9157627D02*
X8531968Y-9129055D01*
X8531968Y-9129055D02*
X8541491Y-9110008D01*
X8541491Y-9110008D02*
X8560539Y-9081436D01*
X8560539Y-9081436D02*
X8570063Y-9071912D01*
X8627206Y-9100484D02*
X8751015Y-9100484D01*
X8751015Y-9100484D02*
X8684349Y-9176674D01*
X8684349Y-9176674D02*
X8712920Y-9176674D01*
X8712920Y-9176674D02*
X8731968Y-9186198D01*
X8731968Y-9186198D02*
X8741491Y-9195722D01*
X8741491Y-9195722D02*
X8751015Y-9214770D01*
X8751015Y-9214770D02*
X8751015Y-9262389D01*
X8751015Y-9262389D02*
X8741491Y-9281436D01*
X8741491Y-9281436D02*
X8731968Y-9290960D01*
X8731968Y-9290960D02*
X8712920Y-9300484D01*
X8712920Y-9300484D02*
X8655777Y-9300484D01*
X8655777Y-9300484D02*
X8636730Y-9290960D01*
X8636730Y-9290960D02*
X8627206Y-9281436D01*
X8989111Y-9300484D02*
X8989111Y-9100484D01*
X9074825Y-9300484D02*
X9074825Y-9195722D01*
X9074825Y-9195722D02*
X9065301Y-9176674D01*
X9065301Y-9176674D02*
X9046253Y-9167150D01*
X9046253Y-9167150D02*
X9017682Y-9167150D01*
X9017682Y-9167150D02*
X8998634Y-9176674D01*
X8998634Y-9176674D02*
X8989111Y-9186198D01*
X9198634Y-9300484D02*
X9179587Y-9290960D01*
X9179587Y-9290960D02*
X9170063Y-9281436D01*
X9170063Y-9281436D02*
X9160539Y-9262389D01*
X9160539Y-9262389D02*
X9160539Y-9205246D01*
X9160539Y-9205246D02*
X9170063Y-9186198D01*
X9170063Y-9186198D02*
X9179587Y-9176674D01*
X9179587Y-9176674D02*
X9198634Y-9167150D01*
X9198634Y-9167150D02*
X9227206Y-9167150D01*
X9227206Y-9167150D02*
X9246253Y-9176674D01*
X9246253Y-9176674D02*
X9255777Y-9186198D01*
X9255777Y-9186198D02*
X9265301Y-9205246D01*
X9265301Y-9205246D02*
X9265301Y-9262389D01*
X9265301Y-9262389D02*
X9255777Y-9281436D01*
X9255777Y-9281436D02*
X9246253Y-9290960D01*
X9246253Y-9290960D02*
X9227206Y-9300484D01*
X9227206Y-9300484D02*
X9198634Y-9300484D01*
X9379587Y-9300484D02*
X9360539Y-9290960D01*
X9360539Y-9290960D02*
X9351015Y-9271912D01*
X9351015Y-9271912D02*
X9351015Y-9100484D01*
X9531968Y-9290960D02*
X9512920Y-9300484D01*
X9512920Y-9300484D02*
X9474825Y-9300484D01*
X9474825Y-9300484D02*
X9455777Y-9290960D01*
X9455777Y-9290960D02*
X9446253Y-9271912D01*
X9446253Y-9271912D02*
X9446253Y-9195722D01*
X9446253Y-9195722D02*
X9455777Y-9176674D01*
X9455777Y-9176674D02*
X9474825Y-9167150D01*
X9474825Y-9167150D02*
X9512920Y-9167150D01*
X9512920Y-9167150D02*
X9531968Y-9176674D01*
X9531968Y-9176674D02*
X9541492Y-9195722D01*
X9541492Y-9195722D02*
X9541492Y-9214770D01*
X9541492Y-9214770D02*
X9446253Y-9233817D01*
X9617682Y-9290960D02*
X9636730Y-9300484D01*
X9636730Y-9300484D02*
X9674825Y-9300484D01*
X9674825Y-9300484D02*
X9693873Y-9290960D01*
X9693873Y-9290960D02*
X9703396Y-9271912D01*
X9703396Y-9271912D02*
X9703396Y-9262389D01*
X9703396Y-9262389D02*
X9693873Y-9243341D01*
X9693873Y-9243341D02*
X9674825Y-9233817D01*
X9674825Y-9233817D02*
X9646253Y-9233817D01*
X9646253Y-9233817D02*
X9627206Y-9224293D01*
X9627206Y-9224293D02*
X9617682Y-9205246D01*
X9617682Y-9205246D02*
X9617682Y-9195722D01*
X9617682Y-9195722D02*
X9627206Y-9176674D01*
X9627206Y-9176674D02*
X9646253Y-9167150D01*
X9646253Y-9167150D02*
X9674825Y-9167150D01*
X9674825Y-9167150D02*
X9693873Y-9176674D01*
X9770063Y-9376674D02*
X9779587Y-9367150D01*
X9779587Y-9367150D02*
X9798634Y-9338579D01*
X9798634Y-9338579D02*
X9808158Y-9319531D01*
X9808158Y-9319531D02*
X9817682Y-9290960D01*
X9817682Y-9290960D02*
X9827206Y-9243341D01*
X9827206Y-9243341D02*
X9827206Y-9205246D01*
X9827206Y-9205246D02*
X9817682Y-9157627D01*
X9817682Y-9157627D02*
X9808158Y-9129055D01*
X9808158Y-9129055D02*
X9798634Y-9110008D01*
X9798634Y-9110008D02*
X9779587Y-9081436D01*
X9779587Y-9081436D02*
X9770063Y-9071912D01*
D10*
X4955000Y-9433000D02*
X4955000Y-9513000D01*
X4915000Y-9473000D02*
X4995000Y-9473000D01*
D11*
X5293872Y-9364484D02*
X5312920Y-9364484D01*
X5312920Y-9364484D02*
X5331967Y-9374008D01*
X5331967Y-9374008D02*
X5341491Y-9383531D01*
X5341491Y-9383531D02*
X5351015Y-9402579D01*
X5351015Y-9402579D02*
X5360539Y-9440674D01*
X5360539Y-9440674D02*
X5360539Y-9488293D01*
X5360539Y-9488293D02*
X5351015Y-9526389D01*
X5351015Y-9526389D02*
X5341491Y-9545436D01*
X5341491Y-9545436D02*
X5331967Y-9554960D01*
X5331967Y-9554960D02*
X5312920Y-9564484D01*
X5312920Y-9564484D02*
X5293872Y-9564484D01*
X5293872Y-9564484D02*
X5274824Y-9554960D01*
X5274824Y-9554960D02*
X5265301Y-9545436D01*
X5265301Y-9545436D02*
X5255777Y-9526389D01*
X5255777Y-9526389D02*
X5246253Y-9488293D01*
X5246253Y-9488293D02*
X5246253Y-9440674D01*
X5246253Y-9440674D02*
X5255777Y-9402579D01*
X5255777Y-9402579D02*
X5265301Y-9383531D01*
X5265301Y-9383531D02*
X5274824Y-9374008D01*
X5274824Y-9374008D02*
X5293872Y-9364484D01*
X5446253Y-9545436D02*
X5455777Y-9554960D01*
X5455777Y-9554960D02*
X5446253Y-9564484D01*
X5446253Y-9564484D02*
X5436729Y-9554960D01*
X5436729Y-9554960D02*
X5446253Y-9545436D01*
X5446253Y-9545436D02*
X5446253Y-9564484D01*
X5570063Y-9450198D02*
X5551015Y-9440674D01*
X5551015Y-9440674D02*
X5541491Y-9431150D01*
X5541491Y-9431150D02*
X5531967Y-9412103D01*
X5531967Y-9412103D02*
X5531967Y-9402579D01*
X5531967Y-9402579D02*
X5541491Y-9383531D01*
X5541491Y-9383531D02*
X5551015Y-9374008D01*
X5551015Y-9374008D02*
X5570063Y-9364484D01*
X5570063Y-9364484D02*
X5608158Y-9364484D01*
X5608158Y-9364484D02*
X5627205Y-9374008D01*
X5627205Y-9374008D02*
X5636729Y-9383531D01*
X5636729Y-9383531D02*
X5646253Y-9402579D01*
X5646253Y-9402579D02*
X5646253Y-9412103D01*
X5646253Y-9412103D02*
X5636729Y-9431150D01*
X5636729Y-9431150D02*
X5627205Y-9440674D01*
X5627205Y-9440674D02*
X5608158Y-9450198D01*
X5608158Y-9450198D02*
X5570063Y-9450198D01*
X5570063Y-9450198D02*
X5551015Y-9459722D01*
X5551015Y-9459722D02*
X5541491Y-9469246D01*
X5541491Y-9469246D02*
X5531967Y-9488293D01*
X5531967Y-9488293D02*
X5531967Y-9526389D01*
X5531967Y-9526389D02*
X5541491Y-9545436D01*
X5541491Y-9545436D02*
X5551015Y-9554960D01*
X5551015Y-9554960D02*
X5570063Y-9564484D01*
X5570063Y-9564484D02*
X5608158Y-9564484D01*
X5608158Y-9564484D02*
X5627205Y-9554960D01*
X5627205Y-9554960D02*
X5636729Y-9545436D01*
X5636729Y-9545436D02*
X5646253Y-9526389D01*
X5646253Y-9526389D02*
X5646253Y-9488293D01*
X5646253Y-9488293D02*
X5636729Y-9469246D01*
X5636729Y-9469246D02*
X5627205Y-9459722D01*
X5627205Y-9459722D02*
X5608158Y-9450198D01*
X5770062Y-9364484D02*
X5789110Y-9364484D01*
X5789110Y-9364484D02*
X5808158Y-9374008D01*
X5808158Y-9374008D02*
X5817682Y-9383531D01*
X5817682Y-9383531D02*
X5827205Y-9402579D01*
X5827205Y-9402579D02*
X5836729Y-9440674D01*
X5836729Y-9440674D02*
X5836729Y-9488293D01*
X5836729Y-9488293D02*
X5827205Y-9526389D01*
X5827205Y-9526389D02*
X5817682Y-9545436D01*
X5817682Y-9545436D02*
X5808158Y-9554960D01*
X5808158Y-9554960D02*
X5789110Y-9564484D01*
X5789110Y-9564484D02*
X5770062Y-9564484D01*
X5770062Y-9564484D02*
X5751015Y-9554960D01*
X5751015Y-9554960D02*
X5741491Y-9545436D01*
X5741491Y-9545436D02*
X5731967Y-9526389D01*
X5731967Y-9526389D02*
X5722443Y-9488293D01*
X5722443Y-9488293D02*
X5722443Y-9440674D01*
X5722443Y-9440674D02*
X5731967Y-9402579D01*
X5731967Y-9402579D02*
X5741491Y-9383531D01*
X5741491Y-9383531D02*
X5751015Y-9374008D01*
X5751015Y-9374008D02*
X5770062Y-9364484D01*
X5960539Y-9364484D02*
X5979586Y-9364484D01*
X5979586Y-9364484D02*
X5998634Y-9374008D01*
X5998634Y-9374008D02*
X6008158Y-9383531D01*
X6008158Y-9383531D02*
X6017682Y-9402579D01*
X6017682Y-9402579D02*
X6027205Y-9440674D01*
X6027205Y-9440674D02*
X6027205Y-9488293D01*
X6027205Y-9488293D02*
X6017682Y-9526389D01*
X6017682Y-9526389D02*
X6008158Y-9545436D01*
X6008158Y-9545436D02*
X5998634Y-9554960D01*
X5998634Y-9554960D02*
X5979586Y-9564484D01*
X5979586Y-9564484D02*
X5960539Y-9564484D01*
X5960539Y-9564484D02*
X5941491Y-9554960D01*
X5941491Y-9554960D02*
X5931967Y-9545436D01*
X5931967Y-9545436D02*
X5922443Y-9526389D01*
X5922443Y-9526389D02*
X5912920Y-9488293D01*
X5912920Y-9488293D02*
X5912920Y-9440674D01*
X5912920Y-9440674D02*
X5922443Y-9402579D01*
X5922443Y-9402579D02*
X5931967Y-9383531D01*
X5931967Y-9383531D02*
X5941491Y-9374008D01*
X5941491Y-9374008D02*
X5960539Y-9364484D01*
X6112920Y-9564484D02*
X6112920Y-9431150D01*
X6112920Y-9450198D02*
X6122443Y-9440674D01*
X6122443Y-9440674D02*
X6141491Y-9431150D01*
X6141491Y-9431150D02*
X6170063Y-9431150D01*
X6170063Y-9431150D02*
X6189110Y-9440674D01*
X6189110Y-9440674D02*
X6198634Y-9459722D01*
X6198634Y-9459722D02*
X6198634Y-9564484D01*
X6198634Y-9459722D02*
X6208158Y-9440674D01*
X6208158Y-9440674D02*
X6227205Y-9431150D01*
X6227205Y-9431150D02*
X6255777Y-9431150D01*
X6255777Y-9431150D02*
X6274824Y-9440674D01*
X6274824Y-9440674D02*
X6284348Y-9459722D01*
X6284348Y-9459722D02*
X6284348Y-9564484D01*
X6379586Y-9564484D02*
X6379586Y-9431150D01*
X6379586Y-9450198D02*
X6389110Y-9440674D01*
X6389110Y-9440674D02*
X6408158Y-9431150D01*
X6408158Y-9431150D02*
X6436729Y-9431150D01*
X6436729Y-9431150D02*
X6455777Y-9440674D01*
X6455777Y-9440674D02*
X6465301Y-9459722D01*
X6465301Y-9459722D02*
X6465301Y-9564484D01*
X6465301Y-9459722D02*
X6474824Y-9440674D01*
X6474824Y-9440674D02*
X6493872Y-9431150D01*
X6493872Y-9431150D02*
X6522443Y-9431150D01*
X6522443Y-9431150D02*
X6541491Y-9440674D01*
X6541491Y-9440674D02*
X6551015Y-9459722D01*
X6551015Y-9459722D02*
X6551015Y-9564484D01*
X6941491Y-9354960D02*
X6770063Y-9612103D01*
X7198634Y-9364484D02*
X7217682Y-9364484D01*
X7217682Y-9364484D02*
X7236729Y-9374008D01*
X7236729Y-9374008D02*
X7246253Y-9383531D01*
X7246253Y-9383531D02*
X7255777Y-9402579D01*
X7255777Y-9402579D02*
X7265301Y-9440674D01*
X7265301Y-9440674D02*
X7265301Y-9488293D01*
X7265301Y-9488293D02*
X7255777Y-9526389D01*
X7255777Y-9526389D02*
X7246253Y-9545436D01*
X7246253Y-9545436D02*
X7236729Y-9554960D01*
X7236729Y-9554960D02*
X7217682Y-9564484D01*
X7217682Y-9564484D02*
X7198634Y-9564484D01*
X7198634Y-9564484D02*
X7179586Y-9554960D01*
X7179586Y-9554960D02*
X7170063Y-9545436D01*
X7170063Y-9545436D02*
X7160539Y-9526389D01*
X7160539Y-9526389D02*
X7151015Y-9488293D01*
X7151015Y-9488293D02*
X7151015Y-9440674D01*
X7151015Y-9440674D02*
X7160539Y-9402579D01*
X7160539Y-9402579D02*
X7170063Y-9383531D01*
X7170063Y-9383531D02*
X7179586Y-9374008D01*
X7179586Y-9374008D02*
X7198634Y-9364484D01*
X7351015Y-9545436D02*
X7360539Y-9554960D01*
X7360539Y-9554960D02*
X7351015Y-9564484D01*
X7351015Y-9564484D02*
X7341491Y-9554960D01*
X7341491Y-9554960D02*
X7351015Y-9545436D01*
X7351015Y-9545436D02*
X7351015Y-9564484D01*
X7484348Y-9364484D02*
X7503396Y-9364484D01*
X7503396Y-9364484D02*
X7522444Y-9374008D01*
X7522444Y-9374008D02*
X7531967Y-9383531D01*
X7531967Y-9383531D02*
X7541491Y-9402579D01*
X7541491Y-9402579D02*
X7551015Y-9440674D01*
X7551015Y-9440674D02*
X7551015Y-9488293D01*
X7551015Y-9488293D02*
X7541491Y-9526389D01*
X7541491Y-9526389D02*
X7531967Y-9545436D01*
X7531967Y-9545436D02*
X7522444Y-9554960D01*
X7522444Y-9554960D02*
X7503396Y-9564484D01*
X7503396Y-9564484D02*
X7484348Y-9564484D01*
X7484348Y-9564484D02*
X7465301Y-9554960D01*
X7465301Y-9554960D02*
X7455777Y-9545436D01*
X7455777Y-9545436D02*
X7446253Y-9526389D01*
X7446253Y-9526389D02*
X7436729Y-9488293D01*
X7436729Y-9488293D02*
X7436729Y-9440674D01*
X7436729Y-9440674D02*
X7446253Y-9402579D01*
X7446253Y-9402579D02*
X7455777Y-9383531D01*
X7455777Y-9383531D02*
X7465301Y-9374008D01*
X7465301Y-9374008D02*
X7484348Y-9364484D01*
X7617682Y-9364484D02*
X7741491Y-9364484D01*
X7741491Y-9364484D02*
X7674825Y-9440674D01*
X7674825Y-9440674D02*
X7703396Y-9440674D01*
X7703396Y-9440674D02*
X7722444Y-9450198D01*
X7722444Y-9450198D02*
X7731967Y-9459722D01*
X7731967Y-9459722D02*
X7741491Y-9478770D01*
X7741491Y-9478770D02*
X7741491Y-9526389D01*
X7741491Y-9526389D02*
X7731967Y-9545436D01*
X7731967Y-9545436D02*
X7722444Y-9554960D01*
X7722444Y-9554960D02*
X7703396Y-9564484D01*
X7703396Y-9564484D02*
X7646253Y-9564484D01*
X7646253Y-9564484D02*
X7627206Y-9554960D01*
X7627206Y-9554960D02*
X7617682Y-9545436D01*
X7931967Y-9564484D02*
X7817682Y-9564484D01*
X7874825Y-9564484D02*
X7874825Y-9364484D01*
X7874825Y-9364484D02*
X7855777Y-9393055D01*
X7855777Y-9393055D02*
X7836729Y-9412103D01*
X7836729Y-9412103D02*
X7817682Y-9421627D01*
X8112920Y-9364484D02*
X8017682Y-9364484D01*
X8017682Y-9364484D02*
X8008158Y-9459722D01*
X8008158Y-9459722D02*
X8017682Y-9450198D01*
X8017682Y-9450198D02*
X8036729Y-9440674D01*
X8036729Y-9440674D02*
X8084348Y-9440674D01*
X8084348Y-9440674D02*
X8103396Y-9450198D01*
X8103396Y-9450198D02*
X8112920Y-9459722D01*
X8112920Y-9459722D02*
X8122444Y-9478770D01*
X8122444Y-9478770D02*
X8122444Y-9526389D01*
X8122444Y-9526389D02*
X8112920Y-9545436D01*
X8112920Y-9545436D02*
X8103396Y-9554960D01*
X8103396Y-9554960D02*
X8084348Y-9564484D01*
X8084348Y-9564484D02*
X8036729Y-9564484D01*
X8036729Y-9564484D02*
X8017682Y-9554960D01*
X8017682Y-9554960D02*
X8008158Y-9545436D01*
X8198634Y-9364484D02*
X8198634Y-9402579D01*
X8274825Y-9364484D02*
X8274825Y-9402579D01*
X8570063Y-9640674D02*
X8560539Y-9631150D01*
X8560539Y-9631150D02*
X8541491Y-9602579D01*
X8541491Y-9602579D02*
X8531968Y-9583531D01*
X8531968Y-9583531D02*
X8522444Y-9554960D01*
X8522444Y-9554960D02*
X8512920Y-9507341D01*
X8512920Y-9507341D02*
X8512920Y-9469246D01*
X8512920Y-9469246D02*
X8522444Y-9421627D01*
X8522444Y-9421627D02*
X8531968Y-9393055D01*
X8531968Y-9393055D02*
X8541491Y-9374008D01*
X8541491Y-9374008D02*
X8560539Y-9345436D01*
X8560539Y-9345436D02*
X8570063Y-9335912D01*
X8636730Y-9383531D02*
X8646253Y-9374008D01*
X8646253Y-9374008D02*
X8665301Y-9364484D01*
X8665301Y-9364484D02*
X8712920Y-9364484D01*
X8712920Y-9364484D02*
X8731968Y-9374008D01*
X8731968Y-9374008D02*
X8741491Y-9383531D01*
X8741491Y-9383531D02*
X8751015Y-9402579D01*
X8751015Y-9402579D02*
X8751015Y-9421627D01*
X8751015Y-9421627D02*
X8741491Y-9450198D01*
X8741491Y-9450198D02*
X8627206Y-9564484D01*
X8627206Y-9564484D02*
X8751015Y-9564484D01*
X8989111Y-9564484D02*
X8989111Y-9364484D01*
X9074825Y-9564484D02*
X9074825Y-9459722D01*
X9074825Y-9459722D02*
X9065301Y-9440674D01*
X9065301Y-9440674D02*
X9046253Y-9431150D01*
X9046253Y-9431150D02*
X9017682Y-9431150D01*
X9017682Y-9431150D02*
X8998634Y-9440674D01*
X8998634Y-9440674D02*
X8989111Y-9450198D01*
X9198634Y-9564484D02*
X9179587Y-9554960D01*
X9179587Y-9554960D02*
X9170063Y-9545436D01*
X9170063Y-9545436D02*
X9160539Y-9526389D01*
X9160539Y-9526389D02*
X9160539Y-9469246D01*
X9160539Y-9469246D02*
X9170063Y-9450198D01*
X9170063Y-9450198D02*
X9179587Y-9440674D01*
X9179587Y-9440674D02*
X9198634Y-9431150D01*
X9198634Y-9431150D02*
X9227206Y-9431150D01*
X9227206Y-9431150D02*
X9246253Y-9440674D01*
X9246253Y-9440674D02*
X9255777Y-9450198D01*
X9255777Y-9450198D02*
X9265301Y-9469246D01*
X9265301Y-9469246D02*
X9265301Y-9526389D01*
X9265301Y-9526389D02*
X9255777Y-9545436D01*
X9255777Y-9545436D02*
X9246253Y-9554960D01*
X9246253Y-9554960D02*
X9227206Y-9564484D01*
X9227206Y-9564484D02*
X9198634Y-9564484D01*
X9379587Y-9564484D02*
X9360539Y-9554960D01*
X9360539Y-9554960D02*
X9351015Y-9535912D01*
X9351015Y-9535912D02*
X9351015Y-9364484D01*
X9531968Y-9554960D02*
X9512920Y-9564484D01*
X9512920Y-9564484D02*
X9474825Y-9564484D01*
X9474825Y-9564484D02*
X9455777Y-9554960D01*
X9455777Y-9554960D02*
X9446253Y-9535912D01*
X9446253Y-9535912D02*
X9446253Y-9459722D01*
X9446253Y-9459722D02*
X9455777Y-9440674D01*
X9455777Y-9440674D02*
X9474825Y-9431150D01*
X9474825Y-9431150D02*
X9512920Y-9431150D01*
X9512920Y-9431150D02*
X9531968Y-9440674D01*
X9531968Y-9440674D02*
X9541492Y-9459722D01*
X9541492Y-9459722D02*
X9541492Y-9478770D01*
X9541492Y-9478770D02*
X9446253Y-9497817D01*
X9617682Y-9554960D02*
X9636730Y-9564484D01*
X9636730Y-9564484D02*
X9674825Y-9564484D01*
X9674825Y-9564484D02*
X9693873Y-9554960D01*
X9693873Y-9554960D02*
X9703396Y-9535912D01*
X9703396Y-9535912D02*
X9703396Y-9526389D01*
X9703396Y-9526389D02*
X9693873Y-9507341D01*
X9693873Y-9507341D02*
X9674825Y-9497817D01*
X9674825Y-9497817D02*
X9646253Y-9497817D01*
X9646253Y-9497817D02*
X9627206Y-9488293D01*
X9627206Y-9488293D02*
X9617682Y-9469246D01*
X9617682Y-9469246D02*
X9617682Y-9459722D01*
X9617682Y-9459722D02*
X9627206Y-9440674D01*
X9627206Y-9440674D02*
X9646253Y-9431150D01*
X9646253Y-9431150D02*
X9674825Y-9431150D01*
X9674825Y-9431150D02*
X9693873Y-9440674D01*
X9770063Y-9640674D02*
X9779587Y-9631150D01*
X9779587Y-9631150D02*
X9798634Y-9602579D01*
X9798634Y-9602579D02*
X9808158Y-9583531D01*
X9808158Y-9583531D02*
X9817682Y-9554960D01*
X9817682Y-9554960D02*
X9827206Y-9507341D01*
X9827206Y-9507341D02*
X9827206Y-9469246D01*
X9827206Y-9469246D02*
X9817682Y-9421627D01*
X9817682Y-9421627D02*
X9808158Y-9393055D01*
X9808158Y-9393055D02*
X9798634Y-9374008D01*
X9798634Y-9374008D02*
X9779587Y-9345436D01*
X9779587Y-9345436D02*
X9770063Y-9335912D01*
D10*
X4980356Y-9772356D02*
X4980356Y-9701644D01*
X4909644Y-9701644D01*
X4909644Y-9772356D01*
X4980356Y-9772356D01*
D11*
X5360539Y-9828484D02*
X5246253Y-9828484D01*
X5303396Y-9828484D02*
X5303396Y-9628484D01*
X5303396Y-9628484D02*
X5284348Y-9657055D01*
X5284348Y-9657055D02*
X5265301Y-9676103D01*
X5265301Y-9676103D02*
X5246253Y-9685627D01*
X5446253Y-9809436D02*
X5455777Y-9818960D01*
X5455777Y-9818960D02*
X5446253Y-9828484D01*
X5446253Y-9828484D02*
X5436729Y-9818960D01*
X5436729Y-9818960D02*
X5446253Y-9809436D01*
X5446253Y-9809436D02*
X5446253Y-9828484D01*
X5579586Y-9628484D02*
X5598634Y-9628484D01*
X5598634Y-9628484D02*
X5617682Y-9638008D01*
X5617682Y-9638008D02*
X5627205Y-9647531D01*
X5627205Y-9647531D02*
X5636729Y-9666579D01*
X5636729Y-9666579D02*
X5646253Y-9704674D01*
X5646253Y-9704674D02*
X5646253Y-9752293D01*
X5646253Y-9752293D02*
X5636729Y-9790389D01*
X5636729Y-9790389D02*
X5627205Y-9809436D01*
X5627205Y-9809436D02*
X5617682Y-9818960D01*
X5617682Y-9818960D02*
X5598634Y-9828484D01*
X5598634Y-9828484D02*
X5579586Y-9828484D01*
X5579586Y-9828484D02*
X5560539Y-9818960D01*
X5560539Y-9818960D02*
X5551015Y-9809436D01*
X5551015Y-9809436D02*
X5541491Y-9790389D01*
X5541491Y-9790389D02*
X5531967Y-9752293D01*
X5531967Y-9752293D02*
X5531967Y-9704674D01*
X5531967Y-9704674D02*
X5541491Y-9666579D01*
X5541491Y-9666579D02*
X5551015Y-9647531D01*
X5551015Y-9647531D02*
X5560539Y-9638008D01*
X5560539Y-9638008D02*
X5579586Y-9628484D01*
X5770062Y-9628484D02*
X5789110Y-9628484D01*
X5789110Y-9628484D02*
X5808158Y-9638008D01*
X5808158Y-9638008D02*
X5817682Y-9647531D01*
X5817682Y-9647531D02*
X5827205Y-9666579D01*
X5827205Y-9666579D02*
X5836729Y-9704674D01*
X5836729Y-9704674D02*
X5836729Y-9752293D01*
X5836729Y-9752293D02*
X5827205Y-9790389D01*
X5827205Y-9790389D02*
X5817682Y-9809436D01*
X5817682Y-9809436D02*
X5808158Y-9818960D01*
X5808158Y-9818960D02*
X5789110Y-9828484D01*
X5789110Y-9828484D02*
X5770062Y-9828484D01*
X5770062Y-9828484D02*
X5751015Y-9818960D01*
X5751015Y-9818960D02*
X5741491Y-9809436D01*
X5741491Y-9809436D02*
X5731967Y-9790389D01*
X5731967Y-9790389D02*
X5722443Y-9752293D01*
X5722443Y-9752293D02*
X5722443Y-9704674D01*
X5722443Y-9704674D02*
X5731967Y-9666579D01*
X5731967Y-9666579D02*
X5741491Y-9647531D01*
X5741491Y-9647531D02*
X5751015Y-9638008D01*
X5751015Y-9638008D02*
X5770062Y-9628484D01*
X5960539Y-9628484D02*
X5979586Y-9628484D01*
X5979586Y-9628484D02*
X5998634Y-9638008D01*
X5998634Y-9638008D02*
X6008158Y-9647531D01*
X6008158Y-9647531D02*
X6017682Y-9666579D01*
X6017682Y-9666579D02*
X6027205Y-9704674D01*
X6027205Y-9704674D02*
X6027205Y-9752293D01*
X6027205Y-9752293D02*
X6017682Y-9790389D01*
X6017682Y-9790389D02*
X6008158Y-9809436D01*
X6008158Y-9809436D02*
X5998634Y-9818960D01*
X5998634Y-9818960D02*
X5979586Y-9828484D01*
X5979586Y-9828484D02*
X5960539Y-9828484D01*
X5960539Y-9828484D02*
X5941491Y-9818960D01*
X5941491Y-9818960D02*
X5931967Y-9809436D01*
X5931967Y-9809436D02*
X5922443Y-9790389D01*
X5922443Y-9790389D02*
X5912920Y-9752293D01*
X5912920Y-9752293D02*
X5912920Y-9704674D01*
X5912920Y-9704674D02*
X5922443Y-9666579D01*
X5922443Y-9666579D02*
X5931967Y-9647531D01*
X5931967Y-9647531D02*
X5941491Y-9638008D01*
X5941491Y-9638008D02*
X5960539Y-9628484D01*
X6112920Y-9828484D02*
X6112920Y-9695150D01*
X6112920Y-9714198D02*
X6122443Y-9704674D01*
X6122443Y-9704674D02*
X6141491Y-9695150D01*
X6141491Y-9695150D02*
X6170063Y-9695150D01*
X6170063Y-9695150D02*
X6189110Y-9704674D01*
X6189110Y-9704674D02*
X6198634Y-9723722D01*
X6198634Y-9723722D02*
X6198634Y-9828484D01*
X6198634Y-9723722D02*
X6208158Y-9704674D01*
X6208158Y-9704674D02*
X6227205Y-9695150D01*
X6227205Y-9695150D02*
X6255777Y-9695150D01*
X6255777Y-9695150D02*
X6274824Y-9704674D01*
X6274824Y-9704674D02*
X6284348Y-9723722D01*
X6284348Y-9723722D02*
X6284348Y-9828484D01*
X6379586Y-9828484D02*
X6379586Y-9695150D01*
X6379586Y-9714198D02*
X6389110Y-9704674D01*
X6389110Y-9704674D02*
X6408158Y-9695150D01*
X6408158Y-9695150D02*
X6436729Y-9695150D01*
X6436729Y-9695150D02*
X6455777Y-9704674D01*
X6455777Y-9704674D02*
X6465301Y-9723722D01*
X6465301Y-9723722D02*
X6465301Y-9828484D01*
X6465301Y-9723722D02*
X6474824Y-9704674D01*
X6474824Y-9704674D02*
X6493872Y-9695150D01*
X6493872Y-9695150D02*
X6522443Y-9695150D01*
X6522443Y-9695150D02*
X6541491Y-9704674D01*
X6541491Y-9704674D02*
X6551015Y-9723722D01*
X6551015Y-9723722D02*
X6551015Y-9828484D01*
X6941491Y-9618960D02*
X6770063Y-9876103D01*
X7198634Y-9628484D02*
X7217682Y-9628484D01*
X7217682Y-9628484D02*
X7236729Y-9638008D01*
X7236729Y-9638008D02*
X7246253Y-9647531D01*
X7246253Y-9647531D02*
X7255777Y-9666579D01*
X7255777Y-9666579D02*
X7265301Y-9704674D01*
X7265301Y-9704674D02*
X7265301Y-9752293D01*
X7265301Y-9752293D02*
X7255777Y-9790389D01*
X7255777Y-9790389D02*
X7246253Y-9809436D01*
X7246253Y-9809436D02*
X7236729Y-9818960D01*
X7236729Y-9818960D02*
X7217682Y-9828484D01*
X7217682Y-9828484D02*
X7198634Y-9828484D01*
X7198634Y-9828484D02*
X7179586Y-9818960D01*
X7179586Y-9818960D02*
X7170063Y-9809436D01*
X7170063Y-9809436D02*
X7160539Y-9790389D01*
X7160539Y-9790389D02*
X7151015Y-9752293D01*
X7151015Y-9752293D02*
X7151015Y-9704674D01*
X7151015Y-9704674D02*
X7160539Y-9666579D01*
X7160539Y-9666579D02*
X7170063Y-9647531D01*
X7170063Y-9647531D02*
X7179586Y-9638008D01*
X7179586Y-9638008D02*
X7198634Y-9628484D01*
X7351015Y-9809436D02*
X7360539Y-9818960D01*
X7360539Y-9818960D02*
X7351015Y-9828484D01*
X7351015Y-9828484D02*
X7341491Y-9818960D01*
X7341491Y-9818960D02*
X7351015Y-9809436D01*
X7351015Y-9809436D02*
X7351015Y-9828484D01*
X7484348Y-9628484D02*
X7503396Y-9628484D01*
X7503396Y-9628484D02*
X7522444Y-9638008D01*
X7522444Y-9638008D02*
X7531967Y-9647531D01*
X7531967Y-9647531D02*
X7541491Y-9666579D01*
X7541491Y-9666579D02*
X7551015Y-9704674D01*
X7551015Y-9704674D02*
X7551015Y-9752293D01*
X7551015Y-9752293D02*
X7541491Y-9790389D01*
X7541491Y-9790389D02*
X7531967Y-9809436D01*
X7531967Y-9809436D02*
X7522444Y-9818960D01*
X7522444Y-9818960D02*
X7503396Y-9828484D01*
X7503396Y-9828484D02*
X7484348Y-9828484D01*
X7484348Y-9828484D02*
X7465301Y-9818960D01*
X7465301Y-9818960D02*
X7455777Y-9809436D01*
X7455777Y-9809436D02*
X7446253Y-9790389D01*
X7446253Y-9790389D02*
X7436729Y-9752293D01*
X7436729Y-9752293D02*
X7436729Y-9704674D01*
X7436729Y-9704674D02*
X7446253Y-9666579D01*
X7446253Y-9666579D02*
X7455777Y-9647531D01*
X7455777Y-9647531D02*
X7465301Y-9638008D01*
X7465301Y-9638008D02*
X7484348Y-9628484D01*
X7617682Y-9628484D02*
X7741491Y-9628484D01*
X7741491Y-9628484D02*
X7674825Y-9704674D01*
X7674825Y-9704674D02*
X7703396Y-9704674D01*
X7703396Y-9704674D02*
X7722444Y-9714198D01*
X7722444Y-9714198D02*
X7731967Y-9723722D01*
X7731967Y-9723722D02*
X7741491Y-9742770D01*
X7741491Y-9742770D02*
X7741491Y-9790389D01*
X7741491Y-9790389D02*
X7731967Y-9809436D01*
X7731967Y-9809436D02*
X7722444Y-9818960D01*
X7722444Y-9818960D02*
X7703396Y-9828484D01*
X7703396Y-9828484D02*
X7646253Y-9828484D01*
X7646253Y-9828484D02*
X7627206Y-9818960D01*
X7627206Y-9818960D02*
X7617682Y-9809436D01*
X7836729Y-9828484D02*
X7874825Y-9828484D01*
X7874825Y-9828484D02*
X7893872Y-9818960D01*
X7893872Y-9818960D02*
X7903396Y-9809436D01*
X7903396Y-9809436D02*
X7922444Y-9780865D01*
X7922444Y-9780865D02*
X7931967Y-9742770D01*
X7931967Y-9742770D02*
X7931967Y-9666579D01*
X7931967Y-9666579D02*
X7922444Y-9647531D01*
X7922444Y-9647531D02*
X7912920Y-9638008D01*
X7912920Y-9638008D02*
X7893872Y-9628484D01*
X7893872Y-9628484D02*
X7855777Y-9628484D01*
X7855777Y-9628484D02*
X7836729Y-9638008D01*
X7836729Y-9638008D02*
X7827206Y-9647531D01*
X7827206Y-9647531D02*
X7817682Y-9666579D01*
X7817682Y-9666579D02*
X7817682Y-9714198D01*
X7817682Y-9714198D02*
X7827206Y-9733246D01*
X7827206Y-9733246D02*
X7836729Y-9742770D01*
X7836729Y-9742770D02*
X7855777Y-9752293D01*
X7855777Y-9752293D02*
X7893872Y-9752293D01*
X7893872Y-9752293D02*
X7912920Y-9742770D01*
X7912920Y-9742770D02*
X7922444Y-9733246D01*
X7922444Y-9733246D02*
X7931967Y-9714198D01*
X8103396Y-9695150D02*
X8103396Y-9828484D01*
X8055777Y-9618960D02*
X8008158Y-9761817D01*
X8008158Y-9761817D02*
X8131967Y-9761817D01*
X8198634Y-9628484D02*
X8198634Y-9666579D01*
X8274825Y-9628484D02*
X8274825Y-9666579D01*
X8570063Y-9904674D02*
X8560539Y-9895150D01*
X8560539Y-9895150D02*
X8541491Y-9866579D01*
X8541491Y-9866579D02*
X8531968Y-9847531D01*
X8531968Y-9847531D02*
X8522444Y-9818960D01*
X8522444Y-9818960D02*
X8512920Y-9771341D01*
X8512920Y-9771341D02*
X8512920Y-9733246D01*
X8512920Y-9733246D02*
X8522444Y-9685627D01*
X8522444Y-9685627D02*
X8531968Y-9657055D01*
X8531968Y-9657055D02*
X8541491Y-9638008D01*
X8541491Y-9638008D02*
X8560539Y-9609436D01*
X8560539Y-9609436D02*
X8570063Y-9599912D01*
X8731968Y-9695150D02*
X8731968Y-9828484D01*
X8684349Y-9618960D02*
X8636730Y-9761817D01*
X8636730Y-9761817D02*
X8760539Y-9761817D01*
X8874825Y-9628484D02*
X8893872Y-9628484D01*
X8893872Y-9628484D02*
X8912920Y-9638008D01*
X8912920Y-9638008D02*
X8922444Y-9647531D01*
X8922444Y-9647531D02*
X8931968Y-9666579D01*
X8931968Y-9666579D02*
X8941491Y-9704674D01*
X8941491Y-9704674D02*
X8941491Y-9752293D01*
X8941491Y-9752293D02*
X8931968Y-9790389D01*
X8931968Y-9790389D02*
X8922444Y-9809436D01*
X8922444Y-9809436D02*
X8912920Y-9818960D01*
X8912920Y-9818960D02*
X8893872Y-9828484D01*
X8893872Y-9828484D02*
X8874825Y-9828484D01*
X8874825Y-9828484D02*
X8855777Y-9818960D01*
X8855777Y-9818960D02*
X8846253Y-9809436D01*
X8846253Y-9809436D02*
X8836730Y-9790389D01*
X8836730Y-9790389D02*
X8827206Y-9752293D01*
X8827206Y-9752293D02*
X8827206Y-9704674D01*
X8827206Y-9704674D02*
X8836730Y-9666579D01*
X8836730Y-9666579D02*
X8846253Y-9647531D01*
X8846253Y-9647531D02*
X8855777Y-9638008D01*
X8855777Y-9638008D02*
X8874825Y-9628484D01*
X9179587Y-9828484D02*
X9179587Y-9628484D01*
X9265301Y-9828484D02*
X9265301Y-9723722D01*
X9265301Y-9723722D02*
X9255777Y-9704674D01*
X9255777Y-9704674D02*
X9236730Y-9695150D01*
X9236730Y-9695150D02*
X9208158Y-9695150D01*
X9208158Y-9695150D02*
X9189111Y-9704674D01*
X9189111Y-9704674D02*
X9179587Y-9714198D01*
X9389111Y-9828484D02*
X9370063Y-9818960D01*
X9370063Y-9818960D02*
X9360539Y-9809436D01*
X9360539Y-9809436D02*
X9351015Y-9790389D01*
X9351015Y-9790389D02*
X9351015Y-9733246D01*
X9351015Y-9733246D02*
X9360539Y-9714198D01*
X9360539Y-9714198D02*
X9370063Y-9704674D01*
X9370063Y-9704674D02*
X9389111Y-9695150D01*
X9389111Y-9695150D02*
X9417682Y-9695150D01*
X9417682Y-9695150D02*
X9436730Y-9704674D01*
X9436730Y-9704674D02*
X9446253Y-9714198D01*
X9446253Y-9714198D02*
X9455777Y-9733246D01*
X9455777Y-9733246D02*
X9455777Y-9790389D01*
X9455777Y-9790389D02*
X9446253Y-9809436D01*
X9446253Y-9809436D02*
X9436730Y-9818960D01*
X9436730Y-9818960D02*
X9417682Y-9828484D01*
X9417682Y-9828484D02*
X9389111Y-9828484D01*
X9570063Y-9828484D02*
X9551015Y-9818960D01*
X9551015Y-9818960D02*
X9541492Y-9799912D01*
X9541492Y-9799912D02*
X9541492Y-9628484D01*
X9722444Y-9818960D02*
X9703396Y-9828484D01*
X9703396Y-9828484D02*
X9665301Y-9828484D01*
X9665301Y-9828484D02*
X9646253Y-9818960D01*
X9646253Y-9818960D02*
X9636730Y-9799912D01*
X9636730Y-9799912D02*
X9636730Y-9723722D01*
X9636730Y-9723722D02*
X9646253Y-9704674D01*
X9646253Y-9704674D02*
X9665301Y-9695150D01*
X9665301Y-9695150D02*
X9703396Y-9695150D01*
X9703396Y-9695150D02*
X9722444Y-9704674D01*
X9722444Y-9704674D02*
X9731968Y-9723722D01*
X9731968Y-9723722D02*
X9731968Y-9742770D01*
X9731968Y-9742770D02*
X9636730Y-9761817D01*
X9808158Y-9818960D02*
X9827206Y-9828484D01*
X9827206Y-9828484D02*
X9865301Y-9828484D01*
X9865301Y-9828484D02*
X9884349Y-9818960D01*
X9884349Y-9818960D02*
X9893873Y-9799912D01*
X9893873Y-9799912D02*
X9893873Y-9790389D01*
X9893873Y-9790389D02*
X9884349Y-9771341D01*
X9884349Y-9771341D02*
X9865301Y-9761817D01*
X9865301Y-9761817D02*
X9836730Y-9761817D01*
X9836730Y-9761817D02*
X9817682Y-9752293D01*
X9817682Y-9752293D02*
X9808158Y-9733246D01*
X9808158Y-9733246D02*
X9808158Y-9723722D01*
X9808158Y-9723722D02*
X9817682Y-9704674D01*
X9817682Y-9704674D02*
X9836730Y-9695150D01*
X9836730Y-9695150D02*
X9865301Y-9695150D01*
X9865301Y-9695150D02*
X9884349Y-9704674D01*
X10131968Y-9752293D02*
X10284349Y-9752293D01*
X10208158Y-9828484D02*
X10208158Y-9676103D01*
X10512920Y-9628484D02*
X10636730Y-9628484D01*
X10636730Y-9628484D02*
X10570063Y-9704674D01*
X10570063Y-9704674D02*
X10598635Y-9704674D01*
X10598635Y-9704674D02*
X10617682Y-9714198D01*
X10617682Y-9714198D02*
X10627206Y-9723722D01*
X10627206Y-9723722D02*
X10636730Y-9742770D01*
X10636730Y-9742770D02*
X10636730Y-9790389D01*
X10636730Y-9790389D02*
X10627206Y-9809436D01*
X10627206Y-9809436D02*
X10617682Y-9818960D01*
X10617682Y-9818960D02*
X10598635Y-9828484D01*
X10598635Y-9828484D02*
X10541492Y-9828484D01*
X10541492Y-9828484D02*
X10522444Y-9818960D01*
X10522444Y-9818960D02*
X10512920Y-9809436D01*
X10865301Y-9818960D02*
X10884349Y-9828484D01*
X10884349Y-9828484D02*
X10922444Y-9828484D01*
X10922444Y-9828484D02*
X10941492Y-9818960D01*
X10941492Y-9818960D02*
X10951016Y-9799912D01*
X10951016Y-9799912D02*
X10951016Y-9790389D01*
X10951016Y-9790389D02*
X10941492Y-9771341D01*
X10941492Y-9771341D02*
X10922444Y-9761817D01*
X10922444Y-9761817D02*
X10893873Y-9761817D01*
X10893873Y-9761817D02*
X10874825Y-9752293D01*
X10874825Y-9752293D02*
X10865301Y-9733246D01*
X10865301Y-9733246D02*
X10865301Y-9723722D01*
X10865301Y-9723722D02*
X10874825Y-9704674D01*
X10874825Y-9704674D02*
X10893873Y-9695150D01*
X10893873Y-9695150D02*
X10922444Y-9695150D01*
X10922444Y-9695150D02*
X10941492Y-9704674D01*
X11065301Y-9828484D02*
X11046254Y-9818960D01*
X11046254Y-9818960D02*
X11036730Y-9799912D01*
X11036730Y-9799912D02*
X11036730Y-9628484D01*
X11170063Y-9828484D02*
X11151016Y-9818960D01*
X11151016Y-9818960D02*
X11141492Y-9809436D01*
X11141492Y-9809436D02*
X11131968Y-9790389D01*
X11131968Y-9790389D02*
X11131968Y-9733246D01*
X11131968Y-9733246D02*
X11141492Y-9714198D01*
X11141492Y-9714198D02*
X11151016Y-9704674D01*
X11151016Y-9704674D02*
X11170063Y-9695150D01*
X11170063Y-9695150D02*
X11198635Y-9695150D01*
X11198635Y-9695150D02*
X11217682Y-9704674D01*
X11217682Y-9704674D02*
X11227206Y-9714198D01*
X11227206Y-9714198D02*
X11236730Y-9733246D01*
X11236730Y-9733246D02*
X11236730Y-9790389D01*
X11236730Y-9790389D02*
X11227206Y-9809436D01*
X11227206Y-9809436D02*
X11217682Y-9818960D01*
X11217682Y-9818960D02*
X11198635Y-9828484D01*
X11198635Y-9828484D02*
X11170063Y-9828484D01*
X11293873Y-9695150D02*
X11370063Y-9695150D01*
X11322444Y-9628484D02*
X11322444Y-9799912D01*
X11322444Y-9799912D02*
X11331968Y-9818960D01*
X11331968Y-9818960D02*
X11351015Y-9828484D01*
X11351015Y-9828484D02*
X11370063Y-9828484D01*
X11427206Y-9818960D02*
X11446254Y-9828484D01*
X11446254Y-9828484D02*
X11484349Y-9828484D01*
X11484349Y-9828484D02*
X11503396Y-9818960D01*
X11503396Y-9818960D02*
X11512920Y-9799912D01*
X11512920Y-9799912D02*
X11512920Y-9790389D01*
X11512920Y-9790389D02*
X11503396Y-9771341D01*
X11503396Y-9771341D02*
X11484349Y-9761817D01*
X11484349Y-9761817D02*
X11455777Y-9761817D01*
X11455777Y-9761817D02*
X11436730Y-9752293D01*
X11436730Y-9752293D02*
X11427206Y-9733246D01*
X11427206Y-9733246D02*
X11427206Y-9723722D01*
X11427206Y-9723722D02*
X11436730Y-9704674D01*
X11436730Y-9704674D02*
X11455777Y-9695150D01*
X11455777Y-9695150D02*
X11484349Y-9695150D01*
X11484349Y-9695150D02*
X11503396Y-9704674D01*
X11579587Y-9904674D02*
X11589111Y-9895150D01*
X11589111Y-9895150D02*
X11608158Y-9866579D01*
X11608158Y-9866579D02*
X11617682Y-9847531D01*
X11617682Y-9847531D02*
X11627206Y-9818960D01*
X11627206Y-9818960D02*
X11636730Y-9771341D01*
X11636730Y-9771341D02*
X11636730Y-9733246D01*
X11636730Y-9733246D02*
X11627206Y-9685627D01*
X11627206Y-9685627D02*
X11617682Y-9657055D01*
X11617682Y-9657055D02*
X11608158Y-9638008D01*
X11608158Y-9638008D02*
X11589111Y-9609436D01*
X11589111Y-9609436D02*
X11579587Y-9599912D01*
X4895000Y-10101000D02*
X4995000Y-10001000D01*
X4895000Y-9901000D01*
X4795000Y-10001000D01*
X4895000Y-10101000D01*
X5246253Y-9911531D02*
X5255777Y-9902008D01*
X5255777Y-9902008D02*
X5274824Y-9892484D01*
X5274824Y-9892484D02*
X5322444Y-9892484D01*
X5322444Y-9892484D02*
X5341491Y-9902008D01*
X5341491Y-9902008D02*
X5351015Y-9911531D01*
X5351015Y-9911531D02*
X5360539Y-9930579D01*
X5360539Y-9930579D02*
X5360539Y-9949627D01*
X5360539Y-9949627D02*
X5351015Y-9978198D01*
X5351015Y-9978198D02*
X5236729Y-10092484D01*
X5236729Y-10092484D02*
X5360539Y-10092484D01*
X5446253Y-10073436D02*
X5455777Y-10082960D01*
X5455777Y-10082960D02*
X5446253Y-10092484D01*
X5446253Y-10092484D02*
X5436729Y-10082960D01*
X5436729Y-10082960D02*
X5446253Y-10073436D01*
X5446253Y-10073436D02*
X5446253Y-10092484D01*
X5522444Y-9892484D02*
X5655777Y-9892484D01*
X5655777Y-9892484D02*
X5570063Y-10092484D01*
X5770062Y-9892484D02*
X5789110Y-9892484D01*
X5789110Y-9892484D02*
X5808158Y-9902008D01*
X5808158Y-9902008D02*
X5817682Y-9911531D01*
X5817682Y-9911531D02*
X5827205Y-9930579D01*
X5827205Y-9930579D02*
X5836729Y-9968674D01*
X5836729Y-9968674D02*
X5836729Y-10016293D01*
X5836729Y-10016293D02*
X5827205Y-10054389D01*
X5827205Y-10054389D02*
X5817682Y-10073436D01*
X5817682Y-10073436D02*
X5808158Y-10082960D01*
X5808158Y-10082960D02*
X5789110Y-10092484D01*
X5789110Y-10092484D02*
X5770062Y-10092484D01*
X5770062Y-10092484D02*
X5751015Y-10082960D01*
X5751015Y-10082960D02*
X5741491Y-10073436D01*
X5741491Y-10073436D02*
X5731967Y-10054389D01*
X5731967Y-10054389D02*
X5722443Y-10016293D01*
X5722443Y-10016293D02*
X5722443Y-9968674D01*
X5722443Y-9968674D02*
X5731967Y-9930579D01*
X5731967Y-9930579D02*
X5741491Y-9911531D01*
X5741491Y-9911531D02*
X5751015Y-9902008D01*
X5751015Y-9902008D02*
X5770062Y-9892484D01*
X5960539Y-9892484D02*
X5979586Y-9892484D01*
X5979586Y-9892484D02*
X5998634Y-9902008D01*
X5998634Y-9902008D02*
X6008158Y-9911531D01*
X6008158Y-9911531D02*
X6017682Y-9930579D01*
X6017682Y-9930579D02*
X6027205Y-9968674D01*
X6027205Y-9968674D02*
X6027205Y-10016293D01*
X6027205Y-10016293D02*
X6017682Y-10054389D01*
X6017682Y-10054389D02*
X6008158Y-10073436D01*
X6008158Y-10073436D02*
X5998634Y-10082960D01*
X5998634Y-10082960D02*
X5979586Y-10092484D01*
X5979586Y-10092484D02*
X5960539Y-10092484D01*
X5960539Y-10092484D02*
X5941491Y-10082960D01*
X5941491Y-10082960D02*
X5931967Y-10073436D01*
X5931967Y-10073436D02*
X5922443Y-10054389D01*
X5922443Y-10054389D02*
X5912920Y-10016293D01*
X5912920Y-10016293D02*
X5912920Y-9968674D01*
X5912920Y-9968674D02*
X5922443Y-9930579D01*
X5922443Y-9930579D02*
X5931967Y-9911531D01*
X5931967Y-9911531D02*
X5941491Y-9902008D01*
X5941491Y-9902008D02*
X5960539Y-9892484D01*
X6112920Y-10092484D02*
X6112920Y-9959150D01*
X6112920Y-9978198D02*
X6122443Y-9968674D01*
X6122443Y-9968674D02*
X6141491Y-9959150D01*
X6141491Y-9959150D02*
X6170063Y-9959150D01*
X6170063Y-9959150D02*
X6189110Y-9968674D01*
X6189110Y-9968674D02*
X6198634Y-9987722D01*
X6198634Y-9987722D02*
X6198634Y-10092484D01*
X6198634Y-9987722D02*
X6208158Y-9968674D01*
X6208158Y-9968674D02*
X6227205Y-9959150D01*
X6227205Y-9959150D02*
X6255777Y-9959150D01*
X6255777Y-9959150D02*
X6274824Y-9968674D01*
X6274824Y-9968674D02*
X6284348Y-9987722D01*
X6284348Y-9987722D02*
X6284348Y-10092484D01*
X6379586Y-10092484D02*
X6379586Y-9959150D01*
X6379586Y-9978198D02*
X6389110Y-9968674D01*
X6389110Y-9968674D02*
X6408158Y-9959150D01*
X6408158Y-9959150D02*
X6436729Y-9959150D01*
X6436729Y-9959150D02*
X6455777Y-9968674D01*
X6455777Y-9968674D02*
X6465301Y-9987722D01*
X6465301Y-9987722D02*
X6465301Y-10092484D01*
X6465301Y-9987722D02*
X6474824Y-9968674D01*
X6474824Y-9968674D02*
X6493872Y-9959150D01*
X6493872Y-9959150D02*
X6522443Y-9959150D01*
X6522443Y-9959150D02*
X6541491Y-9968674D01*
X6541491Y-9968674D02*
X6551015Y-9987722D01*
X6551015Y-9987722D02*
X6551015Y-10092484D01*
X6941491Y-9882960D02*
X6770063Y-10140103D01*
X7198634Y-9892484D02*
X7217682Y-9892484D01*
X7217682Y-9892484D02*
X7236729Y-9902008D01*
X7236729Y-9902008D02*
X7246253Y-9911531D01*
X7246253Y-9911531D02*
X7255777Y-9930579D01*
X7255777Y-9930579D02*
X7265301Y-9968674D01*
X7265301Y-9968674D02*
X7265301Y-10016293D01*
X7265301Y-10016293D02*
X7255777Y-10054389D01*
X7255777Y-10054389D02*
X7246253Y-10073436D01*
X7246253Y-10073436D02*
X7236729Y-10082960D01*
X7236729Y-10082960D02*
X7217682Y-10092484D01*
X7217682Y-10092484D02*
X7198634Y-10092484D01*
X7198634Y-10092484D02*
X7179586Y-10082960D01*
X7179586Y-10082960D02*
X7170063Y-10073436D01*
X7170063Y-10073436D02*
X7160539Y-10054389D01*
X7160539Y-10054389D02*
X7151015Y-10016293D01*
X7151015Y-10016293D02*
X7151015Y-9968674D01*
X7151015Y-9968674D02*
X7160539Y-9930579D01*
X7160539Y-9930579D02*
X7170063Y-9911531D01*
X7170063Y-9911531D02*
X7179586Y-9902008D01*
X7179586Y-9902008D02*
X7198634Y-9892484D01*
X7351015Y-10073436D02*
X7360539Y-10082960D01*
X7360539Y-10082960D02*
X7351015Y-10092484D01*
X7351015Y-10092484D02*
X7341491Y-10082960D01*
X7341491Y-10082960D02*
X7351015Y-10073436D01*
X7351015Y-10073436D02*
X7351015Y-10092484D01*
X7551015Y-10092484D02*
X7436729Y-10092484D01*
X7493872Y-10092484D02*
X7493872Y-9892484D01*
X7493872Y-9892484D02*
X7474825Y-9921055D01*
X7474825Y-9921055D02*
X7455777Y-9940103D01*
X7455777Y-9940103D02*
X7436729Y-9949627D01*
X7674825Y-9892484D02*
X7693872Y-9892484D01*
X7693872Y-9892484D02*
X7712920Y-9902008D01*
X7712920Y-9902008D02*
X7722444Y-9911531D01*
X7722444Y-9911531D02*
X7731967Y-9930579D01*
X7731967Y-9930579D02*
X7741491Y-9968674D01*
X7741491Y-9968674D02*
X7741491Y-10016293D01*
X7741491Y-10016293D02*
X7731967Y-10054389D01*
X7731967Y-10054389D02*
X7722444Y-10073436D01*
X7722444Y-10073436D02*
X7712920Y-10082960D01*
X7712920Y-10082960D02*
X7693872Y-10092484D01*
X7693872Y-10092484D02*
X7674825Y-10092484D01*
X7674825Y-10092484D02*
X7655777Y-10082960D01*
X7655777Y-10082960D02*
X7646253Y-10073436D01*
X7646253Y-10073436D02*
X7636729Y-10054389D01*
X7636729Y-10054389D02*
X7627206Y-10016293D01*
X7627206Y-10016293D02*
X7627206Y-9968674D01*
X7627206Y-9968674D02*
X7636729Y-9930579D01*
X7636729Y-9930579D02*
X7646253Y-9911531D01*
X7646253Y-9911531D02*
X7655777Y-9902008D01*
X7655777Y-9902008D02*
X7674825Y-9892484D01*
X7912920Y-9892484D02*
X7874825Y-9892484D01*
X7874825Y-9892484D02*
X7855777Y-9902008D01*
X7855777Y-9902008D02*
X7846253Y-9911531D01*
X7846253Y-9911531D02*
X7827206Y-9940103D01*
X7827206Y-9940103D02*
X7817682Y-9978198D01*
X7817682Y-9978198D02*
X7817682Y-10054389D01*
X7817682Y-10054389D02*
X7827206Y-10073436D01*
X7827206Y-10073436D02*
X7836729Y-10082960D01*
X7836729Y-10082960D02*
X7855777Y-10092484D01*
X7855777Y-10092484D02*
X7893872Y-10092484D01*
X7893872Y-10092484D02*
X7912920Y-10082960D01*
X7912920Y-10082960D02*
X7922444Y-10073436D01*
X7922444Y-10073436D02*
X7931967Y-10054389D01*
X7931967Y-10054389D02*
X7931967Y-10006770D01*
X7931967Y-10006770D02*
X7922444Y-9987722D01*
X7922444Y-9987722D02*
X7912920Y-9978198D01*
X7912920Y-9978198D02*
X7893872Y-9968674D01*
X7893872Y-9968674D02*
X7855777Y-9968674D01*
X7855777Y-9968674D02*
X7836729Y-9978198D01*
X7836729Y-9978198D02*
X7827206Y-9987722D01*
X7827206Y-9987722D02*
X7817682Y-10006770D01*
X7998634Y-9892484D02*
X8122444Y-9892484D01*
X8122444Y-9892484D02*
X8055777Y-9968674D01*
X8055777Y-9968674D02*
X8084348Y-9968674D01*
X8084348Y-9968674D02*
X8103396Y-9978198D01*
X8103396Y-9978198D02*
X8112920Y-9987722D01*
X8112920Y-9987722D02*
X8122444Y-10006770D01*
X8122444Y-10006770D02*
X8122444Y-10054389D01*
X8122444Y-10054389D02*
X8112920Y-10073436D01*
X8112920Y-10073436D02*
X8103396Y-10082960D01*
X8103396Y-10082960D02*
X8084348Y-10092484D01*
X8084348Y-10092484D02*
X8027206Y-10092484D01*
X8027206Y-10092484D02*
X8008158Y-10082960D01*
X8008158Y-10082960D02*
X7998634Y-10073436D01*
X8198634Y-9892484D02*
X8198634Y-9930579D01*
X8274825Y-9892484D02*
X8274825Y-9930579D01*
X8570063Y-10168674D02*
X8560539Y-10159150D01*
X8560539Y-10159150D02*
X8541491Y-10130579D01*
X8541491Y-10130579D02*
X8531968Y-10111531D01*
X8531968Y-10111531D02*
X8522444Y-10082960D01*
X8522444Y-10082960D02*
X8512920Y-10035341D01*
X8512920Y-10035341D02*
X8512920Y-9997246D01*
X8512920Y-9997246D02*
X8522444Y-9949627D01*
X8522444Y-9949627D02*
X8531968Y-9921055D01*
X8531968Y-9921055D02*
X8541491Y-9902008D01*
X8541491Y-9902008D02*
X8560539Y-9873436D01*
X8560539Y-9873436D02*
X8570063Y-9863912D01*
X8731968Y-9959150D02*
X8731968Y-10092484D01*
X8684349Y-9882960D02*
X8636730Y-10025817D01*
X8636730Y-10025817D02*
X8760539Y-10025817D01*
X8989111Y-10092484D02*
X8989111Y-9892484D01*
X9074825Y-10092484D02*
X9074825Y-9987722D01*
X9074825Y-9987722D02*
X9065301Y-9968674D01*
X9065301Y-9968674D02*
X9046253Y-9959150D01*
X9046253Y-9959150D02*
X9017682Y-9959150D01*
X9017682Y-9959150D02*
X8998634Y-9968674D01*
X8998634Y-9968674D02*
X8989111Y-9978198D01*
X9198634Y-10092484D02*
X9179587Y-10082960D01*
X9179587Y-10082960D02*
X9170063Y-10073436D01*
X9170063Y-10073436D02*
X9160539Y-10054389D01*
X9160539Y-10054389D02*
X9160539Y-9997246D01*
X9160539Y-9997246D02*
X9170063Y-9978198D01*
X9170063Y-9978198D02*
X9179587Y-9968674D01*
X9179587Y-9968674D02*
X9198634Y-9959150D01*
X9198634Y-9959150D02*
X9227206Y-9959150D01*
X9227206Y-9959150D02*
X9246253Y-9968674D01*
X9246253Y-9968674D02*
X9255777Y-9978198D01*
X9255777Y-9978198D02*
X9265301Y-9997246D01*
X9265301Y-9997246D02*
X9265301Y-10054389D01*
X9265301Y-10054389D02*
X9255777Y-10073436D01*
X9255777Y-10073436D02*
X9246253Y-10082960D01*
X9246253Y-10082960D02*
X9227206Y-10092484D01*
X9227206Y-10092484D02*
X9198634Y-10092484D01*
X9379587Y-10092484D02*
X9360539Y-10082960D01*
X9360539Y-10082960D02*
X9351015Y-10063912D01*
X9351015Y-10063912D02*
X9351015Y-9892484D01*
X9531968Y-10082960D02*
X9512920Y-10092484D01*
X9512920Y-10092484D02*
X9474825Y-10092484D01*
X9474825Y-10092484D02*
X9455777Y-10082960D01*
X9455777Y-10082960D02*
X9446253Y-10063912D01*
X9446253Y-10063912D02*
X9446253Y-9987722D01*
X9446253Y-9987722D02*
X9455777Y-9968674D01*
X9455777Y-9968674D02*
X9474825Y-9959150D01*
X9474825Y-9959150D02*
X9512920Y-9959150D01*
X9512920Y-9959150D02*
X9531968Y-9968674D01*
X9531968Y-9968674D02*
X9541492Y-9987722D01*
X9541492Y-9987722D02*
X9541492Y-10006770D01*
X9541492Y-10006770D02*
X9446253Y-10025817D01*
X9617682Y-10082960D02*
X9636730Y-10092484D01*
X9636730Y-10092484D02*
X9674825Y-10092484D01*
X9674825Y-10092484D02*
X9693873Y-10082960D01*
X9693873Y-10082960D02*
X9703396Y-10063912D01*
X9703396Y-10063912D02*
X9703396Y-10054389D01*
X9703396Y-10054389D02*
X9693873Y-10035341D01*
X9693873Y-10035341D02*
X9674825Y-10025817D01*
X9674825Y-10025817D02*
X9646253Y-10025817D01*
X9646253Y-10025817D02*
X9627206Y-10016293D01*
X9627206Y-10016293D02*
X9617682Y-9997246D01*
X9617682Y-9997246D02*
X9617682Y-9987722D01*
X9617682Y-9987722D02*
X9627206Y-9968674D01*
X9627206Y-9968674D02*
X9646253Y-9959150D01*
X9646253Y-9959150D02*
X9674825Y-9959150D01*
X9674825Y-9959150D02*
X9693873Y-9968674D01*
X9770063Y-10168674D02*
X9779587Y-10159150D01*
X9779587Y-10159150D02*
X9798634Y-10130579D01*
X9798634Y-10130579D02*
X9808158Y-10111531D01*
X9808158Y-10111531D02*
X9817682Y-10082960D01*
X9817682Y-10082960D02*
X9827206Y-10035341D01*
X9827206Y-10035341D02*
X9827206Y-9997246D01*
X9827206Y-9997246D02*
X9817682Y-9949627D01*
X9817682Y-9949627D02*
X9808158Y-9921055D01*
X9808158Y-9921055D02*
X9798634Y-9902008D01*
X9798634Y-9902008D02*
X9779587Y-9873436D01*
X9779587Y-9873436D02*
X9770063Y-9863912D01*
X10131968Y-10168674D02*
X10122444Y-10159150D01*
X10122444Y-10159150D02*
X10103396Y-10130579D01*
X10103396Y-10130579D02*
X10093873Y-10111531D01*
X10093873Y-10111531D02*
X10084349Y-10082960D01*
X10084349Y-10082960D02*
X10074825Y-10035341D01*
X10074825Y-10035341D02*
X10074825Y-9997246D01*
X10074825Y-9997246D02*
X10084349Y-9949627D01*
X10084349Y-9949627D02*
X10093873Y-9921055D01*
X10093873Y-9921055D02*
X10103396Y-9902008D01*
X10103396Y-9902008D02*
X10122444Y-9873436D01*
X10122444Y-9873436D02*
X10131968Y-9863912D01*
X10208158Y-9959150D02*
X10208158Y-10092484D01*
X10208158Y-9978198D02*
X10217682Y-9968674D01*
X10217682Y-9968674D02*
X10236730Y-9959150D01*
X10236730Y-9959150D02*
X10265301Y-9959150D01*
X10265301Y-9959150D02*
X10284349Y-9968674D01*
X10284349Y-9968674D02*
X10293873Y-9987722D01*
X10293873Y-9987722D02*
X10293873Y-10092484D01*
X10417682Y-10092484D02*
X10398634Y-10082960D01*
X10398634Y-10082960D02*
X10389111Y-10073436D01*
X10389111Y-10073436D02*
X10379587Y-10054389D01*
X10379587Y-10054389D02*
X10379587Y-9997246D01*
X10379587Y-9997246D02*
X10389111Y-9978198D01*
X10389111Y-9978198D02*
X10398634Y-9968674D01*
X10398634Y-9968674D02*
X10417682Y-9959150D01*
X10417682Y-9959150D02*
X10446254Y-9959150D01*
X10446254Y-9959150D02*
X10465301Y-9968674D01*
X10465301Y-9968674D02*
X10474825Y-9978198D01*
X10474825Y-9978198D02*
X10484349Y-9997246D01*
X10484349Y-9997246D02*
X10484349Y-10054389D01*
X10484349Y-10054389D02*
X10474825Y-10073436D01*
X10474825Y-10073436D02*
X10465301Y-10082960D01*
X10465301Y-10082960D02*
X10446254Y-10092484D01*
X10446254Y-10092484D02*
X10417682Y-10092484D01*
X10541492Y-9959150D02*
X10617682Y-9959150D01*
X10570063Y-9892484D02*
X10570063Y-10063912D01*
X10570063Y-10063912D02*
X10579587Y-10082960D01*
X10579587Y-10082960D02*
X10598634Y-10092484D01*
X10598634Y-10092484D02*
X10617682Y-10092484D01*
X10836730Y-9959150D02*
X10836730Y-10159150D01*
X10836730Y-9968674D02*
X10855777Y-9959150D01*
X10855777Y-9959150D02*
X10893873Y-9959150D01*
X10893873Y-9959150D02*
X10912920Y-9968674D01*
X10912920Y-9968674D02*
X10922444Y-9978198D01*
X10922444Y-9978198D02*
X10931968Y-9997246D01*
X10931968Y-9997246D02*
X10931968Y-10054389D01*
X10931968Y-10054389D02*
X10922444Y-10073436D01*
X10922444Y-10073436D02*
X10912920Y-10082960D01*
X10912920Y-10082960D02*
X10893873Y-10092484D01*
X10893873Y-10092484D02*
X10855777Y-10092484D01*
X10855777Y-10092484D02*
X10836730Y-10082960D01*
X11046254Y-10092484D02*
X11027206Y-10082960D01*
X11027206Y-10082960D02*
X11017682Y-10063912D01*
X11017682Y-10063912D02*
X11017682Y-9892484D01*
X11208158Y-10092484D02*
X11208158Y-9987722D01*
X11208158Y-9987722D02*
X11198634Y-9968674D01*
X11198634Y-9968674D02*
X11179587Y-9959150D01*
X11179587Y-9959150D02*
X11141492Y-9959150D01*
X11141492Y-9959150D02*
X11122444Y-9968674D01*
X11208158Y-10082960D02*
X11189111Y-10092484D01*
X11189111Y-10092484D02*
X11141492Y-10092484D01*
X11141492Y-10092484D02*
X11122444Y-10082960D01*
X11122444Y-10082960D02*
X11112920Y-10063912D01*
X11112920Y-10063912D02*
X11112920Y-10044865D01*
X11112920Y-10044865D02*
X11122444Y-10025817D01*
X11122444Y-10025817D02*
X11141492Y-10016293D01*
X11141492Y-10016293D02*
X11189111Y-10016293D01*
X11189111Y-10016293D02*
X11208158Y-10006770D01*
X11274825Y-9959150D02*
X11351015Y-9959150D01*
X11303396Y-9892484D02*
X11303396Y-10063912D01*
X11303396Y-10063912D02*
X11312920Y-10082960D01*
X11312920Y-10082960D02*
X11331968Y-10092484D01*
X11331968Y-10092484D02*
X11351015Y-10092484D01*
X11493873Y-10082960D02*
X11474825Y-10092484D01*
X11474825Y-10092484D02*
X11436730Y-10092484D01*
X11436730Y-10092484D02*
X11417682Y-10082960D01*
X11417682Y-10082960D02*
X11408158Y-10063912D01*
X11408158Y-10063912D02*
X11408158Y-9987722D01*
X11408158Y-9987722D02*
X11417682Y-9968674D01*
X11417682Y-9968674D02*
X11436730Y-9959150D01*
X11436730Y-9959150D02*
X11474825Y-9959150D01*
X11474825Y-9959150D02*
X11493873Y-9968674D01*
X11493873Y-9968674D02*
X11503396Y-9987722D01*
X11503396Y-9987722D02*
X11503396Y-10006770D01*
X11503396Y-10006770D02*
X11408158Y-10025817D01*
X11674825Y-10092484D02*
X11674825Y-9892484D01*
X11674825Y-10082960D02*
X11655777Y-10092484D01*
X11655777Y-10092484D02*
X11617682Y-10092484D01*
X11617682Y-10092484D02*
X11598634Y-10082960D01*
X11598634Y-10082960D02*
X11589111Y-10073436D01*
X11589111Y-10073436D02*
X11579587Y-10054389D01*
X11579587Y-10054389D02*
X11579587Y-9997246D01*
X11579587Y-9997246D02*
X11589111Y-9978198D01*
X11589111Y-9978198D02*
X11598634Y-9968674D01*
X11598634Y-9968674D02*
X11617682Y-9959150D01*
X11617682Y-9959150D02*
X11655777Y-9959150D01*
X11655777Y-9959150D02*
X11674825Y-9968674D01*
X11751015Y-10168674D02*
X11760539Y-10159150D01*
X11760539Y-10159150D02*
X11779587Y-10130579D01*
X11779587Y-10130579D02*
X11789111Y-10111531D01*
X11789111Y-10111531D02*
X11798634Y-10082960D01*
X11798634Y-10082960D02*
X11808158Y-10035341D01*
X11808158Y-10035341D02*
X11808158Y-9997246D01*
X11808158Y-9997246D02*
X11798634Y-9949627D01*
X11798634Y-9949627D02*
X11789111Y-9921055D01*
X11789111Y-9921055D02*
X11779587Y-9902008D01*
X11779587Y-9902008D02*
X11760539Y-9873436D01*
X11760539Y-9873436D02*
X11751015Y-9863912D01*
M02*
