%TF.GenerationSoftware,KiCad,Pcbnew,10.0.6*%
%TF.CreationDate,2026-09-11T16:05:18-07:00*%
%TF.ProjectId,sticks3-bot-hat,73746963-6b73-4332-9d62-6f742d686174,rev?*%
%TF.SameCoordinates,Original*%
%TF.FileFunction,Soldermask,Top*%
%TF.FilePolarity,Negative*%
%FSLAX46Y46*%
G04 Gerber Fmt 4.6, Leading zero omitted, Abs format (unit mm)*
G04 Created by KiCad (PCBNEW 10.0.6) date 2026-09-11 16:05:18*
%MOMM*%
%LPD*%
G01*
G04 APERTURE LIST*
G04 Aperture macros list*
%AMRoundRect*
0 Rectangle with rounded corners*
0 $1 Rounding radius*
0 $2 $3 $4 $5 $6 $7 $8 $9 X,Y pos of 4 corners*
0 Add a 4 corners polygon primitive as box body*
4,1,4,$2,$3,$4,$5,$6,$7,$8,$9,$2,$3,0*
0 Add four circle primitives for the rounded corners*
1,1,$1+$1,$2,$3*
1,1,$1+$1,$4,$5*
1,1,$1+$1,$6,$7*
1,1,$1+$1,$8,$9*
0 Add four rect primitives between the rounded corners*
20,1,$1+$1,$2,$3,$4,$5,0*
20,1,$1+$1,$4,$5,$6,$7,0*
20,1,$1+$1,$6,$7,$8,$9,0*
20,1,$1+$1,$8,$9,$2,$3,0*%
G04 Aperture macros list end*
%ADD10R,1.700000X1.700000*%
%ADD11C,1.700000*%
%ADD12C,2.700000*%
%ADD13R,2.350000X5.100000*%
%ADD14RoundRect,0.250000X-0.550000X-0.550000X0.550000X-0.550000X0.550000X0.550000X-0.550000X0.550000X0*%
%ADD15C,1.600000*%
%ADD16RoundRect,0.225000X-0.225000X-0.250000X0.225000X-0.250000X0.225000X0.250000X-0.225000X0.250000X0*%
%ADD17RoundRect,0.250000X0.650000X-0.325000X0.650000X0.325000X-0.650000X0.325000X-0.650000X-0.325000X0*%
%ADD18RoundRect,0.200000X0.275000X-0.200000X0.275000X0.200000X-0.275000X0.200000X-0.275000X-0.200000X0*%
%ADD19RoundRect,0.150000X0.512500X0.150000X-0.512500X0.150000X-0.512500X-0.150000X0.512500X-0.150000X0*%
%ADD20R,3.500000X3.500000*%
%ADD21RoundRect,0.750000X-1.000000X0.750000X-1.000000X-0.750000X1.000000X-0.750000X1.000000X0.750000X0*%
%ADD22RoundRect,0.875000X-0.875000X0.875000X-0.875000X-0.875000X0.875000X-0.875000X0.875000X0.875000X0*%
%ADD23RoundRect,0.250000X-0.325000X-0.650000X0.325000X-0.650000X0.325000X0.650000X-0.325000X0.650000X0*%
%ADD24RoundRect,0.250000X-0.250000X-0.475000X0.250000X-0.475000X0.250000X0.475000X-0.250000X0.475000X0*%
%ADD25RoundRect,0.218750X0.256250X-0.218750X0.256250X0.218750X-0.256250X0.218750X-0.256250X-0.218750X0*%
G04 APERTURE END LIST*
D10*
%TO.C,J4*%
X74900000Y-76200000D03*
D11*
X77440000Y-76200000D03*
X79980000Y-76200000D03*
%TD*%
D12*
%TO.C,H2*%
X95300000Y-52700000D03*
%TD*%
D10*
%TO.C,J8*%
X74900000Y-71000000D03*
D11*
X77440000Y-71000000D03*
X79980000Y-71000000D03*
%TD*%
D13*
%TO.C,L1*%
X61625000Y-65300000D03*
X65775000Y-65300000D03*
%TD*%
D10*
%TO.C,J7*%
X66100000Y-71000000D03*
D11*
X68640000Y-71000000D03*
X71180000Y-71000000D03*
%TD*%
D14*
%TO.C,C7*%
X72700000Y-63200000D03*
D15*
X76200000Y-63200000D03*
%TD*%
D16*
%TO.C,C3*%
X60725000Y-60400000D03*
X62275000Y-60400000D03*
%TD*%
D17*
%TO.C,C4*%
X68600000Y-67475000D03*
X68600000Y-64525000D03*
%TD*%
D10*
%TO.C,J1*%
X57500000Y-55500000D03*
D11*
X57500000Y-52960000D03*
X60040000Y-55500000D03*
X60040000Y-52960000D03*
X62580000Y-55500000D03*
X62580000Y-52960000D03*
X65120000Y-55500000D03*
X65120000Y-52960000D03*
X67660000Y-55500000D03*
X67660000Y-52960000D03*
X70200000Y-55500000D03*
X70200000Y-52960000D03*
X72740000Y-55500000D03*
X72740000Y-52960000D03*
X75280000Y-55500000D03*
X75280000Y-52960000D03*
%TD*%
D10*
%TO.C,J6*%
X57300000Y-71000000D03*
D11*
X59840000Y-71000000D03*
X62380000Y-71000000D03*
%TD*%
D12*
%TO.C,H1*%
X52700000Y-52700000D03*
%TD*%
D18*
%TO.C,R3*%
X92700000Y-72125000D03*
X92700000Y-70475000D03*
%TD*%
D10*
%TO.C,J3*%
X66100000Y-76200000D03*
D11*
X68640000Y-76200000D03*
X71180000Y-76200000D03*
%TD*%
D19*
%TO.C,U1*%
X57737500Y-62750000D03*
X57737500Y-61800000D03*
X57737500Y-60850000D03*
X55462500Y-60850000D03*
X55462500Y-61800000D03*
X55462500Y-62750000D03*
%TD*%
D10*
%TO.C,J10*%
X83700000Y-71000000D03*
D11*
X86240000Y-71000000D03*
X88780000Y-71000000D03*
%TD*%
D20*
%TO.C,J11*%
X86000000Y-64000000D03*
D21*
X86000000Y-58000000D03*
D22*
X81300000Y-61000000D03*
%TD*%
D23*
%TO.C,C5*%
X80325000Y-67700000D03*
X83275000Y-67700000D03*
%TD*%
D12*
%TO.C,H4*%
X95300000Y-79500000D03*
%TD*%
%TO.C,H3*%
X52700000Y-79500000D03*
%TD*%
D24*
%TO.C,C1*%
X52650000Y-65600000D03*
X54550000Y-65600000D03*
%TD*%
D10*
%TO.C,J2*%
X57300000Y-76200000D03*
D11*
X59840000Y-76200000D03*
X62380000Y-76200000D03*
%TD*%
D10*
%TO.C,J5*%
X83700000Y-76200000D03*
D11*
X86240000Y-76200000D03*
X88780000Y-76200000D03*
%TD*%
D25*
%TO.C,D1*%
X92700000Y-75187500D03*
X92700000Y-73612500D03*
%TD*%
M02*
