M48
; DRILL file KiCad 10.0.6 date 2026-09-11T16:05:18
; FORMAT={-:-/ absolute / metric / decimal}
; #@! TF.CreationDate,2026-09-11T16:05:18-07:00
; #@! TF.GenerationSoftware,Kicad,Pcbnew,10.0.6
; #@! TF.FileFunction,MixedPlating,1,2
FMAT,2
METRIC
; #@! TA.AperFunction,Plated,PTH,ViaDrill
T1C0.300
; #@! TA.AperFunction,Plated,PTH,ViaDrill
T2C0.400
; #@! TA.AperFunction,Plated,PTH,ComponentDrill
T3C0.800
; #@! TA.AperFunction,Plated,PTH,ComponentDrill
T4C1.000
; #@! TA.AperFunction,NonPlated,NPTH,ComponentDrill
T5C2.700
%
G90
G05
T1
X57.3Y-59.074
X59.27Y-60.85
X63.674Y-60.748
X63.674Y-65.3
X69.739Y-59.142
X83.7Y-54.309
X90.244Y-64.0
T2
X57.811Y-56.659
X63.539Y-71.311
X77.4Y-63.2
T3
X72.7Y-63.2
X76.2Y-63.2
T4
X57.3Y-71.0
X57.3Y-76.2
X57.5Y-52.96
X57.5Y-55.5
X59.84Y-71.0
X59.84Y-76.2
X60.04Y-52.96
X60.04Y-55.5
X62.38Y-71.0
X62.38Y-76.2
X62.58Y-52.96
X62.58Y-55.5
X65.12Y-52.96
X65.12Y-55.5
X66.1Y-71.0
X66.1Y-76.2
X67.66Y-52.96
X67.66Y-55.5
X68.64Y-71.0
X68.64Y-76.2
X70.2Y-52.96
X70.2Y-55.5
X71.18Y-71.0
X71.18Y-76.2
X72.74Y-52.96
X72.74Y-55.5
X74.9Y-71.0
X74.9Y-76.2
X75.28Y-52.96
X75.28Y-55.5
X77.44Y-71.0
X77.44Y-76.2
X79.98Y-71.0
X79.98Y-76.2
X83.7Y-71.0
X83.7Y-76.2
X86.24Y-71.0
X86.24Y-76.2
X88.78Y-71.0
X88.78Y-76.2
T5
X52.7Y-52.7
X52.7Y-79.5
X95.3Y-52.7
X95.3Y-79.5
T4
X81.3Y-60.0G85X81.3Y-62.0
G05
X87.0Y-58.0G85X85.0Y-58.0
G05
X87.0Y-64.0G85X85.0Y-64.0
G05
M30
