%TF.GenerationSoftware,KiCad,Pcbnew,10.0.5*%
%TF.CreationDate,2026-09-18T23:05:00+00:00*%
%TF.ProjectId,sticks3-bot-hat,73746963-6b73-4332-9d62-6f742d686174,rev?*%
%TF.SameCoordinates,Original*%
%TF.FileFunction,Legend,Bot*%
%TF.FilePolarity,Positive*%
%FSLAX46Y46*%
G04 Gerber Fmt 4.6, Leading zero omitted, Abs format (unit mm)*
G04 Created by KiCad (PCBNEW 10.0.5) date 2026-09-18 23:05:00*
%MOMM*%
%LPD*%
G01*
G04 APERTURE LIST*
G04 Aperture macros list*
%AMRoundRect*
0 Rectangle with rounded corners*
0 $1 Rounding radius*
0 $2 $3 $4 $5 $6 $7 $8 $9 X,Y pos of 4 corners*
0 Add a 4 corners polygon primitive as box body*
4,1,4,$2,$3,$4,$5,$6,$7,$8,$9,$2,$3,0*
0 Add four circle primitives for the rounded corners*
1,1,$1+$1,$2,$3*
1,1,$1+$1,$4,$5*
1,1,$1+$1,$6,$7*
1,1,$1+$1,$8,$9*
0 Add four rect primitives between the rounded corners*
20,1,$1+$1,$2,$3,$4,$5,0*
20,1,$1+$1,$4,$5,$6,$7,0*
20,1,$1+$1,$6,$7,$8,$9,0*
20,1,$1+$1,$8,$9,$2,$3,0*%
G04 Aperture macros list end*
%ADD10C,0.135000*%
%ADD11C,0.200000*%
%ADD12C,3.200000*%
%ADD13R,1.700000X1.700000*%
%ADD14C,1.700000*%
%ADD15RoundRect,0.250000X-0.550000X-0.550000X0.550000X-0.550000X0.550000X0.550000X-0.550000X0.550000X0*%
%ADD16C,1.600000*%
%ADD17R,3.500000X3.500000*%
%ADD18RoundRect,0.750000X-1.000000X0.750000X-1.000000X-0.750000X1.000000X-0.750000X1.000000X0.750000X0*%
%ADD19RoundRect,0.875000X-0.875000X0.875000X-0.875000X-0.875000X0.875000X-0.875000X0.875000X0.875000X0*%
G04 APERTURE END LIST*
D10*
X87014287Y-81909337D02*
X87014287Y-81309337D01*
X87014287Y-81480765D02*
X86971430Y-81395051D01*
X86971430Y-81395051D02*
X86928573Y-81352194D01*
X86928573Y-81352194D02*
X86842858Y-81309337D01*
X86842858Y-81309337D02*
X86757144Y-81309337D01*
X86328572Y-81909337D02*
X86414287Y-81866480D01*
X86414287Y-81866480D02*
X86457144Y-81823622D01*
X86457144Y-81823622D02*
X86500001Y-81737908D01*
X86500001Y-81737908D02*
X86500001Y-81480765D01*
X86500001Y-81480765D02*
X86457144Y-81395051D01*
X86457144Y-81395051D02*
X86414287Y-81352194D01*
X86414287Y-81352194D02*
X86328572Y-81309337D01*
X86328572Y-81309337D02*
X86200001Y-81309337D01*
X86200001Y-81309337D02*
X86114287Y-81352194D01*
X86114287Y-81352194D02*
X86071430Y-81395051D01*
X86071430Y-81395051D02*
X86028572Y-81480765D01*
X86028572Y-81480765D02*
X86028572Y-81737908D01*
X86028572Y-81737908D02*
X86071430Y-81823622D01*
X86071430Y-81823622D02*
X86114287Y-81866480D01*
X86114287Y-81866480D02*
X86200001Y-81909337D01*
X86200001Y-81909337D02*
X86328572Y-81909337D01*
X85642858Y-81909337D02*
X85642858Y-81009337D01*
X85642858Y-81352194D02*
X85557144Y-81309337D01*
X85557144Y-81309337D02*
X85385715Y-81309337D01*
X85385715Y-81309337D02*
X85300001Y-81352194D01*
X85300001Y-81352194D02*
X85257144Y-81395051D01*
X85257144Y-81395051D02*
X85214286Y-81480765D01*
X85214286Y-81480765D02*
X85214286Y-81737908D01*
X85214286Y-81737908D02*
X85257144Y-81823622D01*
X85257144Y-81823622D02*
X85300001Y-81866480D01*
X85300001Y-81866480D02*
X85385715Y-81909337D01*
X85385715Y-81909337D02*
X85557144Y-81909337D01*
X85557144Y-81909337D02*
X85642858Y-81866480D01*
X84700000Y-81909337D02*
X84785715Y-81866480D01*
X84785715Y-81866480D02*
X84828572Y-81823622D01*
X84828572Y-81823622D02*
X84871429Y-81737908D01*
X84871429Y-81737908D02*
X84871429Y-81480765D01*
X84871429Y-81480765D02*
X84828572Y-81395051D01*
X84828572Y-81395051D02*
X84785715Y-81352194D01*
X84785715Y-81352194D02*
X84700000Y-81309337D01*
X84700000Y-81309337D02*
X84571429Y-81309337D01*
X84571429Y-81309337D02*
X84485715Y-81352194D01*
X84485715Y-81352194D02*
X84442858Y-81395051D01*
X84442858Y-81395051D02*
X84400000Y-81480765D01*
X84400000Y-81480765D02*
X84400000Y-81737908D01*
X84400000Y-81737908D02*
X84442858Y-81823622D01*
X84442858Y-81823622D02*
X84485715Y-81866480D01*
X84485715Y-81866480D02*
X84571429Y-81909337D01*
X84571429Y-81909337D02*
X84700000Y-81909337D01*
X84142857Y-81309337D02*
X83800000Y-81309337D01*
X84014286Y-81009337D02*
X84014286Y-81780765D01*
X84014286Y-81780765D02*
X83971429Y-81866480D01*
X83971429Y-81866480D02*
X83885714Y-81909337D01*
X83885714Y-81909337D02*
X83800000Y-81909337D01*
X83500000Y-81823622D02*
X83457143Y-81866480D01*
X83457143Y-81866480D02*
X83500000Y-81909337D01*
X83500000Y-81909337D02*
X83542857Y-81866480D01*
X83542857Y-81866480D02*
X83500000Y-81823622D01*
X83500000Y-81823622D02*
X83500000Y-81909337D01*
X83071429Y-81309337D02*
X83071429Y-82209337D01*
X83071429Y-81352194D02*
X82985715Y-81309337D01*
X82985715Y-81309337D02*
X82814286Y-81309337D01*
X82814286Y-81309337D02*
X82728572Y-81352194D01*
X82728572Y-81352194D02*
X82685715Y-81395051D01*
X82685715Y-81395051D02*
X82642857Y-81480765D01*
X82642857Y-81480765D02*
X82642857Y-81737908D01*
X82642857Y-81737908D02*
X82685715Y-81823622D01*
X82685715Y-81823622D02*
X82728572Y-81866480D01*
X82728572Y-81866480D02*
X82814286Y-81909337D01*
X82814286Y-81909337D02*
X82985715Y-81909337D01*
X82985715Y-81909337D02*
X83071429Y-81866480D01*
X82342857Y-81309337D02*
X82128571Y-81909337D01*
X81914286Y-81309337D02*
X82128571Y-81909337D01*
X82128571Y-81909337D02*
X82214286Y-82123622D01*
X82214286Y-82123622D02*
X82257143Y-82166480D01*
X82257143Y-82166480D02*
X82342857Y-82209337D01*
X81614286Y-81866480D02*
X81528572Y-81909337D01*
X81528572Y-81909337D02*
X81357143Y-81909337D01*
X81357143Y-81909337D02*
X81271429Y-81866480D01*
X81271429Y-81866480D02*
X81228572Y-81780765D01*
X81228572Y-81780765D02*
X81228572Y-81737908D01*
X81228572Y-81737908D02*
X81271429Y-81652194D01*
X81271429Y-81652194D02*
X81357143Y-81609337D01*
X81357143Y-81609337D02*
X81485715Y-81609337D01*
X81485715Y-81609337D02*
X81571429Y-81566480D01*
X81571429Y-81566480D02*
X81614286Y-81480765D01*
X81614286Y-81480765D02*
X81614286Y-81437908D01*
X81614286Y-81437908D02*
X81571429Y-81352194D01*
X81571429Y-81352194D02*
X81485715Y-81309337D01*
X81485715Y-81309337D02*
X81357143Y-81309337D01*
X81357143Y-81309337D02*
X81271429Y-81352194D01*
X80971429Y-81309337D02*
X80628572Y-81309337D01*
X80842858Y-81009337D02*
X80842858Y-81780765D01*
X80842858Y-81780765D02*
X80800001Y-81866480D01*
X80800001Y-81866480D02*
X80714286Y-81909337D01*
X80714286Y-81909337D02*
X80628572Y-81909337D01*
X79985715Y-81866480D02*
X80071429Y-81909337D01*
X80071429Y-81909337D02*
X80242858Y-81909337D01*
X80242858Y-81909337D02*
X80328572Y-81866480D01*
X80328572Y-81866480D02*
X80371429Y-81780765D01*
X80371429Y-81780765D02*
X80371429Y-81437908D01*
X80371429Y-81437908D02*
X80328572Y-81352194D01*
X80328572Y-81352194D02*
X80242858Y-81309337D01*
X80242858Y-81309337D02*
X80071429Y-81309337D01*
X80071429Y-81309337D02*
X79985715Y-81352194D01*
X79985715Y-81352194D02*
X79942858Y-81437908D01*
X79942858Y-81437908D02*
X79942858Y-81523622D01*
X79942858Y-81523622D02*
X80371429Y-81609337D01*
X79557143Y-81909337D02*
X79557143Y-81309337D01*
X79557143Y-81395051D02*
X79514286Y-81352194D01*
X79514286Y-81352194D02*
X79428571Y-81309337D01*
X79428571Y-81309337D02*
X79300000Y-81309337D01*
X79300000Y-81309337D02*
X79214286Y-81352194D01*
X79214286Y-81352194D02*
X79171429Y-81437908D01*
X79171429Y-81437908D02*
X79171429Y-81909337D01*
X79171429Y-81437908D02*
X79128571Y-81352194D01*
X79128571Y-81352194D02*
X79042857Y-81309337D01*
X79042857Y-81309337D02*
X78914286Y-81309337D01*
X78914286Y-81309337D02*
X78828571Y-81352194D01*
X78828571Y-81352194D02*
X78785714Y-81437908D01*
X78785714Y-81437908D02*
X78785714Y-81909337D01*
X78357143Y-81823622D02*
X78314286Y-81866480D01*
X78314286Y-81866480D02*
X78357143Y-81909337D01*
X78357143Y-81909337D02*
X78400000Y-81866480D01*
X78400000Y-81866480D02*
X78357143Y-81823622D01*
X78357143Y-81823622D02*
X78357143Y-81909337D01*
X77542858Y-81866480D02*
X77628572Y-81909337D01*
X77628572Y-81909337D02*
X77800000Y-81909337D01*
X77800000Y-81909337D02*
X77885715Y-81866480D01*
X77885715Y-81866480D02*
X77928572Y-81823622D01*
X77928572Y-81823622D02*
X77971429Y-81737908D01*
X77971429Y-81737908D02*
X77971429Y-81480765D01*
X77971429Y-81480765D02*
X77928572Y-81395051D01*
X77928572Y-81395051D02*
X77885715Y-81352194D01*
X77885715Y-81352194D02*
X77800000Y-81309337D01*
X77800000Y-81309337D02*
X77628572Y-81309337D01*
X77628572Y-81309337D02*
X77542858Y-81352194D01*
X77028571Y-81909337D02*
X77114286Y-81866480D01*
X77114286Y-81866480D02*
X77157143Y-81823622D01*
X77157143Y-81823622D02*
X77200000Y-81737908D01*
X77200000Y-81737908D02*
X77200000Y-81480765D01*
X77200000Y-81480765D02*
X77157143Y-81395051D01*
X77157143Y-81395051D02*
X77114286Y-81352194D01*
X77114286Y-81352194D02*
X77028571Y-81309337D01*
X77028571Y-81309337D02*
X76900000Y-81309337D01*
X76900000Y-81309337D02*
X76814286Y-81352194D01*
X76814286Y-81352194D02*
X76771429Y-81395051D01*
X76771429Y-81395051D02*
X76728571Y-81480765D01*
X76728571Y-81480765D02*
X76728571Y-81737908D01*
X76728571Y-81737908D02*
X76771429Y-81823622D01*
X76771429Y-81823622D02*
X76814286Y-81866480D01*
X76814286Y-81866480D02*
X76900000Y-81909337D01*
X76900000Y-81909337D02*
X77028571Y-81909337D01*
X76342857Y-81909337D02*
X76342857Y-81309337D01*
X76342857Y-81395051D02*
X76300000Y-81352194D01*
X76300000Y-81352194D02*
X76214285Y-81309337D01*
X76214285Y-81309337D02*
X76085714Y-81309337D01*
X76085714Y-81309337D02*
X76000000Y-81352194D01*
X76000000Y-81352194D02*
X75957143Y-81437908D01*
X75957143Y-81437908D02*
X75957143Y-81909337D01*
X75957143Y-81437908D02*
X75914285Y-81352194D01*
X75914285Y-81352194D02*
X75828571Y-81309337D01*
X75828571Y-81309337D02*
X75700000Y-81309337D01*
X75700000Y-81309337D02*
X75614285Y-81352194D01*
X75614285Y-81352194D02*
X75571428Y-81437908D01*
X75571428Y-81437908D02*
X75571428Y-81909337D01*
X74457143Y-81566480D02*
X73771429Y-81566480D01*
X72657143Y-81909337D02*
X72657143Y-81009337D01*
X72657143Y-81352194D02*
X72571429Y-81309337D01*
X72571429Y-81309337D02*
X72400000Y-81309337D01*
X72400000Y-81309337D02*
X72314286Y-81352194D01*
X72314286Y-81352194D02*
X72271429Y-81395051D01*
X72271429Y-81395051D02*
X72228571Y-81480765D01*
X72228571Y-81480765D02*
X72228571Y-81737908D01*
X72228571Y-81737908D02*
X72271429Y-81823622D01*
X72271429Y-81823622D02*
X72314286Y-81866480D01*
X72314286Y-81866480D02*
X72400000Y-81909337D01*
X72400000Y-81909337D02*
X72571429Y-81909337D01*
X72571429Y-81909337D02*
X72657143Y-81866480D01*
X71457143Y-81909337D02*
X71457143Y-81437908D01*
X71457143Y-81437908D02*
X71500000Y-81352194D01*
X71500000Y-81352194D02*
X71585714Y-81309337D01*
X71585714Y-81309337D02*
X71757143Y-81309337D01*
X71757143Y-81309337D02*
X71842857Y-81352194D01*
X71457143Y-81866480D02*
X71542857Y-81909337D01*
X71542857Y-81909337D02*
X71757143Y-81909337D01*
X71757143Y-81909337D02*
X71842857Y-81866480D01*
X71842857Y-81866480D02*
X71885714Y-81780765D01*
X71885714Y-81780765D02*
X71885714Y-81695051D01*
X71885714Y-81695051D02*
X71842857Y-81609337D01*
X71842857Y-81609337D02*
X71757143Y-81566480D01*
X71757143Y-81566480D02*
X71542857Y-81566480D01*
X71542857Y-81566480D02*
X71457143Y-81523622D01*
X71157142Y-81309337D02*
X70814285Y-81309337D01*
X71028571Y-81009337D02*
X71028571Y-81780765D01*
X71028571Y-81780765D02*
X70985714Y-81866480D01*
X70985714Y-81866480D02*
X70899999Y-81909337D01*
X70899999Y-81909337D02*
X70814285Y-81909337D01*
X70642856Y-81309337D02*
X70299999Y-81309337D01*
X70514285Y-81009337D02*
X70514285Y-81780765D01*
X70514285Y-81780765D02*
X70471428Y-81866480D01*
X70471428Y-81866480D02*
X70385713Y-81909337D01*
X70385713Y-81909337D02*
X70299999Y-81909337D01*
X69657142Y-81866480D02*
X69742856Y-81909337D01*
X69742856Y-81909337D02*
X69914285Y-81909337D01*
X69914285Y-81909337D02*
X69999999Y-81866480D01*
X69999999Y-81866480D02*
X70042856Y-81780765D01*
X70042856Y-81780765D02*
X70042856Y-81437908D01*
X70042856Y-81437908D02*
X69999999Y-81352194D01*
X69999999Y-81352194D02*
X69914285Y-81309337D01*
X69914285Y-81309337D02*
X69742856Y-81309337D01*
X69742856Y-81309337D02*
X69657142Y-81352194D01*
X69657142Y-81352194D02*
X69614285Y-81437908D01*
X69614285Y-81437908D02*
X69614285Y-81523622D01*
X69614285Y-81523622D02*
X70042856Y-81609337D01*
X69228570Y-81909337D02*
X69228570Y-81309337D01*
X69228570Y-81480765D02*
X69185713Y-81395051D01*
X69185713Y-81395051D02*
X69142856Y-81352194D01*
X69142856Y-81352194D02*
X69057141Y-81309337D01*
X69057141Y-81309337D02*
X68971427Y-81309337D01*
X68757141Y-81309337D02*
X68542855Y-81909337D01*
X68328570Y-81309337D02*
X68542855Y-81909337D01*
X68542855Y-81909337D02*
X68628570Y-82123622D01*
X68628570Y-82123622D02*
X68671427Y-82166480D01*
X68671427Y-82166480D02*
X68757141Y-82209337D01*
X66914285Y-81009337D02*
X67085713Y-81009337D01*
X67085713Y-81009337D02*
X67171427Y-81052194D01*
X67171427Y-81052194D02*
X67214285Y-81095051D01*
X67214285Y-81095051D02*
X67299999Y-81223622D01*
X67299999Y-81223622D02*
X67342856Y-81395051D01*
X67342856Y-81395051D02*
X67342856Y-81737908D01*
X67342856Y-81737908D02*
X67299999Y-81823622D01*
X67299999Y-81823622D02*
X67257142Y-81866480D01*
X67257142Y-81866480D02*
X67171427Y-81909337D01*
X67171427Y-81909337D02*
X66999999Y-81909337D01*
X66999999Y-81909337D02*
X66914285Y-81866480D01*
X66914285Y-81866480D02*
X66871427Y-81823622D01*
X66871427Y-81823622D02*
X66828570Y-81737908D01*
X66828570Y-81737908D02*
X66828570Y-81523622D01*
X66828570Y-81523622D02*
X66871427Y-81437908D01*
X66871427Y-81437908D02*
X66914285Y-81395051D01*
X66914285Y-81395051D02*
X66999999Y-81352194D01*
X66999999Y-81352194D02*
X67171427Y-81352194D01*
X67171427Y-81352194D02*
X67257142Y-81395051D01*
X67257142Y-81395051D02*
X67299999Y-81437908D01*
X67299999Y-81437908D02*
X67342856Y-81523622D01*
X66571427Y-81009337D02*
X66271427Y-81909337D01*
X66271427Y-81909337D02*
X65971427Y-81009337D01*
X65628570Y-81866480D02*
X65628570Y-81909337D01*
X65628570Y-81909337D02*
X65671427Y-81995051D01*
X65671427Y-81995051D02*
X65714284Y-82037908D01*
X64171428Y-81866480D02*
X64257142Y-81909337D01*
X64257142Y-81909337D02*
X64428570Y-81909337D01*
X64428570Y-81909337D02*
X64514285Y-81866480D01*
X64514285Y-81866480D02*
X64557142Y-81823622D01*
X64557142Y-81823622D02*
X64599999Y-81737908D01*
X64599999Y-81737908D02*
X64599999Y-81480765D01*
X64599999Y-81480765D02*
X64557142Y-81395051D01*
X64557142Y-81395051D02*
X64514285Y-81352194D01*
X64514285Y-81352194D02*
X64428570Y-81309337D01*
X64428570Y-81309337D02*
X64257142Y-81309337D01*
X64257142Y-81309337D02*
X64171428Y-81352194D01*
X63442856Y-81866480D02*
X63528570Y-81909337D01*
X63528570Y-81909337D02*
X63699999Y-81909337D01*
X63699999Y-81909337D02*
X63785713Y-81866480D01*
X63785713Y-81866480D02*
X63828570Y-81780765D01*
X63828570Y-81780765D02*
X63828570Y-81437908D01*
X63828570Y-81437908D02*
X63785713Y-81352194D01*
X63785713Y-81352194D02*
X63699999Y-81309337D01*
X63699999Y-81309337D02*
X63528570Y-81309337D01*
X63528570Y-81309337D02*
X63442856Y-81352194D01*
X63442856Y-81352194D02*
X63399999Y-81437908D01*
X63399999Y-81437908D02*
X63399999Y-81523622D01*
X63399999Y-81523622D02*
X63828570Y-81609337D01*
X63014284Y-81309337D02*
X63014284Y-81909337D01*
X63014284Y-81395051D02*
X62971427Y-81352194D01*
X62971427Y-81352194D02*
X62885712Y-81309337D01*
X62885712Y-81309337D02*
X62757141Y-81309337D01*
X62757141Y-81309337D02*
X62671427Y-81352194D01*
X62671427Y-81352194D02*
X62628570Y-81437908D01*
X62628570Y-81437908D02*
X62628570Y-81909337D01*
X62328569Y-81309337D02*
X61985712Y-81309337D01*
X62199998Y-81009337D02*
X62199998Y-81780765D01*
X62199998Y-81780765D02*
X62157141Y-81866480D01*
X62157141Y-81866480D02*
X62071426Y-81909337D01*
X62071426Y-81909337D02*
X61985712Y-81909337D01*
X61342855Y-81866480D02*
X61428569Y-81909337D01*
X61428569Y-81909337D02*
X61599998Y-81909337D01*
X61599998Y-81909337D02*
X61685712Y-81866480D01*
X61685712Y-81866480D02*
X61728569Y-81780765D01*
X61728569Y-81780765D02*
X61728569Y-81437908D01*
X61728569Y-81437908D02*
X61685712Y-81352194D01*
X61685712Y-81352194D02*
X61599998Y-81309337D01*
X61599998Y-81309337D02*
X61428569Y-81309337D01*
X61428569Y-81309337D02*
X61342855Y-81352194D01*
X61342855Y-81352194D02*
X61299998Y-81437908D01*
X61299998Y-81437908D02*
X61299998Y-81523622D01*
X61299998Y-81523622D02*
X61728569Y-81609337D01*
X60914283Y-81909337D02*
X60914283Y-81309337D01*
X60914283Y-81480765D02*
X60871426Y-81395051D01*
X60871426Y-81395051D02*
X60828569Y-81352194D01*
X60828569Y-81352194D02*
X60742854Y-81309337D01*
X60742854Y-81309337D02*
X60657140Y-81309337D01*
X59671426Y-81566480D02*
X58985712Y-81566480D01*
X59328569Y-81909337D02*
X59328569Y-81223622D01*
D11*
X84904762Y-80052219D02*
X84904762Y-79052219D01*
X84904762Y-79052219D02*
X84523810Y-79052219D01*
X84523810Y-79052219D02*
X84428572Y-79099838D01*
X84428572Y-79099838D02*
X84380953Y-79147457D01*
X84380953Y-79147457D02*
X84333334Y-79242695D01*
X84333334Y-79242695D02*
X84333334Y-79385552D01*
X84333334Y-79385552D02*
X84380953Y-79480790D01*
X84380953Y-79480790D02*
X84428572Y-79528409D01*
X84428572Y-79528409D02*
X84523810Y-79576028D01*
X84523810Y-79576028D02*
X84904762Y-79576028D01*
X84000000Y-79385552D02*
X83761905Y-80052219D01*
X83523810Y-79385552D02*
X83761905Y-80052219D01*
X83761905Y-80052219D02*
X83857143Y-80290314D01*
X83857143Y-80290314D02*
X83904762Y-80337933D01*
X83904762Y-80337933D02*
X84000000Y-80385552D01*
X83190476Y-80004600D02*
X83047619Y-80052219D01*
X83047619Y-80052219D02*
X82809524Y-80052219D01*
X82809524Y-80052219D02*
X82714286Y-80004600D01*
X82714286Y-80004600D02*
X82666667Y-79956980D01*
X82666667Y-79956980D02*
X82619048Y-79861742D01*
X82619048Y-79861742D02*
X82619048Y-79766504D01*
X82619048Y-79766504D02*
X82666667Y-79671266D01*
X82666667Y-79671266D02*
X82714286Y-79623647D01*
X82714286Y-79623647D02*
X82809524Y-79576028D01*
X82809524Y-79576028D02*
X83000000Y-79528409D01*
X83000000Y-79528409D02*
X83095238Y-79480790D01*
X83095238Y-79480790D02*
X83142857Y-79433171D01*
X83142857Y-79433171D02*
X83190476Y-79337933D01*
X83190476Y-79337933D02*
X83190476Y-79242695D01*
X83190476Y-79242695D02*
X83142857Y-79147457D01*
X83142857Y-79147457D02*
X83095238Y-79099838D01*
X83095238Y-79099838D02*
X83000000Y-79052219D01*
X83000000Y-79052219D02*
X82761905Y-79052219D01*
X82761905Y-79052219D02*
X82619048Y-79099838D01*
X82333333Y-79052219D02*
X81761905Y-79052219D01*
X82047619Y-80052219D02*
X82047619Y-79052219D01*
X81428571Y-79528409D02*
X81095238Y-79528409D01*
X80952381Y-80052219D02*
X81428571Y-80052219D01*
X81428571Y-80052219D02*
X81428571Y-79052219D01*
X81428571Y-79052219D02*
X80952381Y-79052219D01*
X80523809Y-80052219D02*
X80523809Y-79052219D01*
X80523809Y-79052219D02*
X80190476Y-79766504D01*
X80190476Y-79766504D02*
X79857143Y-79052219D01*
X79857143Y-79052219D02*
X79857143Y-80052219D01*
X78619047Y-80052219D02*
X78619047Y-79052219D01*
X78619047Y-79052219D02*
X78285714Y-79766504D01*
X78285714Y-79766504D02*
X77952381Y-79052219D01*
X77952381Y-79052219D02*
X77952381Y-80052219D01*
X77476190Y-80052219D02*
X77476190Y-79385552D01*
X77476190Y-79052219D02*
X77523809Y-79099838D01*
X77523809Y-79099838D02*
X77476190Y-79147457D01*
X77476190Y-79147457D02*
X77428571Y-79099838D01*
X77428571Y-79099838D02*
X77476190Y-79052219D01*
X77476190Y-79052219D02*
X77476190Y-79147457D01*
X77000000Y-79385552D02*
X77000000Y-80052219D01*
X77000000Y-79480790D02*
X76952381Y-79433171D01*
X76952381Y-79433171D02*
X76857143Y-79385552D01*
X76857143Y-79385552D02*
X76714286Y-79385552D01*
X76714286Y-79385552D02*
X76619048Y-79433171D01*
X76619048Y-79433171D02*
X76571429Y-79528409D01*
X76571429Y-79528409D02*
X76571429Y-80052219D01*
X76095238Y-80052219D02*
X76095238Y-79385552D01*
X76095238Y-79052219D02*
X76142857Y-79099838D01*
X76142857Y-79099838D02*
X76095238Y-79147457D01*
X76095238Y-79147457D02*
X76047619Y-79099838D01*
X76047619Y-79099838D02*
X76095238Y-79052219D01*
X76095238Y-79052219D02*
X76095238Y-79147457D01*
X74523810Y-79528409D02*
X74380953Y-79576028D01*
X74380953Y-79576028D02*
X74333334Y-79623647D01*
X74333334Y-79623647D02*
X74285715Y-79718885D01*
X74285715Y-79718885D02*
X74285715Y-79861742D01*
X74285715Y-79861742D02*
X74333334Y-79956980D01*
X74333334Y-79956980D02*
X74380953Y-80004600D01*
X74380953Y-80004600D02*
X74476191Y-80052219D01*
X74476191Y-80052219D02*
X74857143Y-80052219D01*
X74857143Y-80052219D02*
X74857143Y-79052219D01*
X74857143Y-79052219D02*
X74523810Y-79052219D01*
X74523810Y-79052219D02*
X74428572Y-79099838D01*
X74428572Y-79099838D02*
X74380953Y-79147457D01*
X74380953Y-79147457D02*
X74333334Y-79242695D01*
X74333334Y-79242695D02*
X74333334Y-79337933D01*
X74333334Y-79337933D02*
X74380953Y-79433171D01*
X74380953Y-79433171D02*
X74428572Y-79480790D01*
X74428572Y-79480790D02*
X74523810Y-79528409D01*
X74523810Y-79528409D02*
X74857143Y-79528409D01*
X73714286Y-80052219D02*
X73809524Y-80004600D01*
X73809524Y-80004600D02*
X73857143Y-79956980D01*
X73857143Y-79956980D02*
X73904762Y-79861742D01*
X73904762Y-79861742D02*
X73904762Y-79576028D01*
X73904762Y-79576028D02*
X73857143Y-79480790D01*
X73857143Y-79480790D02*
X73809524Y-79433171D01*
X73809524Y-79433171D02*
X73714286Y-79385552D01*
X73714286Y-79385552D02*
X73571429Y-79385552D01*
X73571429Y-79385552D02*
X73476191Y-79433171D01*
X73476191Y-79433171D02*
X73428572Y-79480790D01*
X73428572Y-79480790D02*
X73380953Y-79576028D01*
X73380953Y-79576028D02*
X73380953Y-79861742D01*
X73380953Y-79861742D02*
X73428572Y-79956980D01*
X73428572Y-79956980D02*
X73476191Y-80004600D01*
X73476191Y-80004600D02*
X73571429Y-80052219D01*
X73571429Y-80052219D02*
X73714286Y-80052219D01*
X73095238Y-79385552D02*
X72714286Y-79385552D01*
X72952381Y-79052219D02*
X72952381Y-79909361D01*
X72952381Y-79909361D02*
X72904762Y-80004600D01*
X72904762Y-80004600D02*
X72809524Y-80052219D01*
X72809524Y-80052219D02*
X72714286Y-80052219D01*
X71619047Y-79671266D02*
X70857143Y-79671266D01*
X69666666Y-80004600D02*
X69523809Y-80052219D01*
X69523809Y-80052219D02*
X69285714Y-80052219D01*
X69285714Y-80052219D02*
X69190476Y-80004600D01*
X69190476Y-80004600D02*
X69142857Y-79956980D01*
X69142857Y-79956980D02*
X69095238Y-79861742D01*
X69095238Y-79861742D02*
X69095238Y-79766504D01*
X69095238Y-79766504D02*
X69142857Y-79671266D01*
X69142857Y-79671266D02*
X69190476Y-79623647D01*
X69190476Y-79623647D02*
X69285714Y-79576028D01*
X69285714Y-79576028D02*
X69476190Y-79528409D01*
X69476190Y-79528409D02*
X69571428Y-79480790D01*
X69571428Y-79480790D02*
X69619047Y-79433171D01*
X69619047Y-79433171D02*
X69666666Y-79337933D01*
X69666666Y-79337933D02*
X69666666Y-79242695D01*
X69666666Y-79242695D02*
X69619047Y-79147457D01*
X69619047Y-79147457D02*
X69571428Y-79099838D01*
X69571428Y-79099838D02*
X69476190Y-79052219D01*
X69476190Y-79052219D02*
X69238095Y-79052219D01*
X69238095Y-79052219D02*
X69095238Y-79099838D01*
X68809523Y-79385552D02*
X68428571Y-79385552D01*
X68666666Y-79052219D02*
X68666666Y-79909361D01*
X68666666Y-79909361D02*
X68619047Y-80004600D01*
X68619047Y-80004600D02*
X68523809Y-80052219D01*
X68523809Y-80052219D02*
X68428571Y-80052219D01*
X68095237Y-80052219D02*
X68095237Y-79385552D01*
X68095237Y-79052219D02*
X68142856Y-79099838D01*
X68142856Y-79099838D02*
X68095237Y-79147457D01*
X68095237Y-79147457D02*
X68047618Y-79099838D01*
X68047618Y-79099838D02*
X68095237Y-79052219D01*
X68095237Y-79052219D02*
X68095237Y-79147457D01*
X67190476Y-80004600D02*
X67285714Y-80052219D01*
X67285714Y-80052219D02*
X67476190Y-80052219D01*
X67476190Y-80052219D02*
X67571428Y-80004600D01*
X67571428Y-80004600D02*
X67619047Y-79956980D01*
X67619047Y-79956980D02*
X67666666Y-79861742D01*
X67666666Y-79861742D02*
X67666666Y-79576028D01*
X67666666Y-79576028D02*
X67619047Y-79480790D01*
X67619047Y-79480790D02*
X67571428Y-79433171D01*
X67571428Y-79433171D02*
X67476190Y-79385552D01*
X67476190Y-79385552D02*
X67285714Y-79385552D01*
X67285714Y-79385552D02*
X67190476Y-79433171D01*
X66761904Y-80052219D02*
X66761904Y-79052219D01*
X66666666Y-79671266D02*
X66380952Y-80052219D01*
X66380952Y-79385552D02*
X66761904Y-79766504D01*
X65999999Y-80004600D02*
X65857142Y-80052219D01*
X65857142Y-80052219D02*
X65619047Y-80052219D01*
X65619047Y-80052219D02*
X65523809Y-80004600D01*
X65523809Y-80004600D02*
X65476190Y-79956980D01*
X65476190Y-79956980D02*
X65428571Y-79861742D01*
X65428571Y-79861742D02*
X65428571Y-79766504D01*
X65428571Y-79766504D02*
X65476190Y-79671266D01*
X65476190Y-79671266D02*
X65523809Y-79623647D01*
X65523809Y-79623647D02*
X65619047Y-79576028D01*
X65619047Y-79576028D02*
X65809523Y-79528409D01*
X65809523Y-79528409D02*
X65904761Y-79480790D01*
X65904761Y-79480790D02*
X65952380Y-79433171D01*
X65952380Y-79433171D02*
X65999999Y-79337933D01*
X65999999Y-79337933D02*
X65999999Y-79242695D01*
X65999999Y-79242695D02*
X65952380Y-79147457D01*
X65952380Y-79147457D02*
X65904761Y-79099838D01*
X65904761Y-79099838D02*
X65809523Y-79052219D01*
X65809523Y-79052219D02*
X65571428Y-79052219D01*
X65571428Y-79052219D02*
X65428571Y-79099838D01*
X65095237Y-79052219D02*
X64476190Y-79052219D01*
X64476190Y-79052219D02*
X64809523Y-79433171D01*
X64809523Y-79433171D02*
X64666666Y-79433171D01*
X64666666Y-79433171D02*
X64571428Y-79480790D01*
X64571428Y-79480790D02*
X64523809Y-79528409D01*
X64523809Y-79528409D02*
X64476190Y-79623647D01*
X64476190Y-79623647D02*
X64476190Y-79861742D01*
X64476190Y-79861742D02*
X64523809Y-79956980D01*
X64523809Y-79956980D02*
X64571428Y-80004600D01*
X64571428Y-80004600D02*
X64666666Y-80052219D01*
X64666666Y-80052219D02*
X64952380Y-80052219D01*
X64952380Y-80052219D02*
X65047618Y-80004600D01*
X65047618Y-80004600D02*
X65095237Y-79956980D01*
X63285713Y-80052219D02*
X63285713Y-79052219D01*
X63285713Y-79528409D02*
X62714285Y-79528409D01*
X62714285Y-80052219D02*
X62714285Y-79052219D01*
X62285713Y-79766504D02*
X61809523Y-79766504D01*
X62380951Y-80052219D02*
X62047618Y-79052219D01*
X62047618Y-79052219D02*
X61714285Y-80052219D01*
X61523808Y-79052219D02*
X60952380Y-79052219D01*
X61238094Y-80052219D02*
X61238094Y-79052219D01*
%LPC*%
D12*
%TO.C,H4*%
X95300000Y-79500000D03*
%TD*%
D13*
%TO.C,J4*%
X74900000Y-76200000D03*
D14*
X77440000Y-76200000D03*
X79980000Y-76200000D03*
%TD*%
D13*
%TO.C,J7*%
X66099999Y-71000000D03*
D14*
X68639999Y-71000000D03*
X71179999Y-71000000D03*
%TD*%
D15*
%TO.C,C7*%
X72700000Y-63200000D03*
D16*
X76200000Y-63200000D03*
%TD*%
D13*
%TO.C,J1*%
X57500000Y-55500000D03*
D14*
X57500000Y-52960000D03*
X60040000Y-55500000D03*
X60040000Y-52960000D03*
X62580000Y-55500000D03*
X62580000Y-52960000D03*
X65120000Y-55500000D03*
X65120000Y-52960000D03*
X67660000Y-55500000D03*
X67660000Y-52960000D03*
X70200000Y-55500000D03*
X70200000Y-52960000D03*
X72740000Y-55500000D03*
X72740000Y-52960000D03*
X75280000Y-55500000D03*
X75280000Y-52960000D03*
%TD*%
D13*
%TO.C,J6*%
X57300000Y-71000000D03*
D14*
X59840000Y-71000000D03*
X62380000Y-71000000D03*
%TD*%
D12*
%TO.C,H1*%
X52700000Y-52700000D03*
%TD*%
%TO.C,H2*%
X95300000Y-52700000D03*
%TD*%
D13*
%TO.C,J8*%
X74900000Y-71000000D03*
D14*
X77440000Y-71000000D03*
X79980000Y-71000000D03*
X82520000Y-71000000D03*
%TD*%
D12*
%TO.C,H3*%
X52700000Y-79500000D03*
%TD*%
D13*
%TO.C,J3*%
X66100000Y-76200000D03*
D14*
X68640000Y-76200000D03*
X71180000Y-76200000D03*
%TD*%
D17*
%TO.C,J11*%
X86000000Y-64000000D03*
D18*
X86000000Y-58000000D03*
D19*
X81300000Y-61000000D03*
%TD*%
D13*
%TO.C,J2*%
X57300000Y-76200000D03*
D14*
X59840000Y-76200000D03*
X62380000Y-76200000D03*
%TD*%
D13*
%TO.C,J5*%
X83700000Y-76200000D03*
D14*
X86240000Y-76200000D03*
X88780000Y-76200000D03*
%TD*%
D13*
%TO.C,J10*%
X86240000Y-71000000D03*
D14*
X88780000Y-71000000D03*
X91320000Y-71000000D03*
X93860000Y-71000000D03*
%TD*%
%LPD*%
M02*
