%TF.GenerationSoftware,KiCad,Pcbnew,10.0.5*%
%TF.CreationDate,2026-09-18T23:05:00+00:00*%
%TF.ProjectId,sticks3-bot-hat,73746963-6b73-4332-9d62-6f742d686174,rev?*%
%TF.SameCoordinates,Original*%
%TF.FileFunction,Copper,L1,Top*%
%TF.FilePolarity,Positive*%
%FSLAX46Y46*%
G04 Gerber Fmt 4.6, Leading zero omitted, Abs format (unit mm)*
G04 Created by KiCad (PCBNEW 10.0.5) date 2026-09-18 23:05:00*
%MOMM*%
%LPD*%
G01*
G04 APERTURE LIST*
G04 Aperture macros list*
%AMRoundRect*
0 Rectangle with rounded corners*
0 $1 Rounding radius*
0 $2 $3 $4 $5 $6 $7 $8 $9 X,Y pos of 4 corners*
0 Add a 4 corners polygon primitive as box body*
4,1,4,$2,$3,$4,$5,$6,$7,$8,$9,$2,$3,0*
0 Add four circle primitives for the rounded corners*
1,1,$1+$1,$2,$3*
1,1,$1+$1,$4,$5*
1,1,$1+$1,$6,$7*
1,1,$1+$1,$8,$9*
0 Add four rect primitives between the rounded corners*
20,1,$1+$1,$2,$3,$4,$5,0*
20,1,$1+$1,$4,$5,$6,$7,0*
20,1,$1+$1,$6,$7,$8,$9,0*
20,1,$1+$1,$8,$9,$2,$3,0*%
G04 Aperture macros list end*
%TA.AperFunction,ComponentPad*%
%ADD10R,1.700000X1.700000*%
%TD*%
%TA.AperFunction,ComponentPad*%
%ADD11C,1.700000*%
%TD*%
%TA.AperFunction,SMDPad,CuDef*%
%ADD12R,2.350000X5.100000*%
%TD*%
%TA.AperFunction,ComponentPad*%
%ADD13RoundRect,0.250000X-0.550000X-0.550000X0.550000X-0.550000X0.550000X0.550000X-0.550000X0.550000X0*%
%TD*%
%TA.AperFunction,ComponentPad*%
%ADD14C,1.600000*%
%TD*%
%TA.AperFunction,SMDPad,CuDef*%
%ADD15RoundRect,0.225000X-0.225000X-0.250000X0.225000X-0.250000X0.225000X0.250000X-0.225000X0.250000X0*%
%TD*%
%TA.AperFunction,SMDPad,CuDef*%
%ADD16RoundRect,0.250000X0.650000X-0.325000X0.650000X0.325000X-0.650000X0.325000X-0.650000X-0.325000X0*%
%TD*%
%TA.AperFunction,SMDPad,CuDef*%
%ADD17RoundRect,0.200000X-0.275000X0.200000X-0.275000X-0.200000X0.275000X-0.200000X0.275000X0.200000X0*%
%TD*%
%TA.AperFunction,SMDPad,CuDef*%
%ADD18RoundRect,0.150000X0.512500X0.150000X-0.512500X0.150000X-0.512500X-0.150000X0.512500X-0.150000X0*%
%TD*%
%TA.AperFunction,ComponentPad*%
%ADD19R,3.500000X3.500000*%
%TD*%
%TA.AperFunction,ComponentPad*%
%ADD20RoundRect,0.750000X-1.000000X0.750000X-1.000000X-0.750000X1.000000X-0.750000X1.000000X0.750000X0*%
%TD*%
%TA.AperFunction,ComponentPad*%
%ADD21RoundRect,0.875000X-0.875000X0.875000X-0.875000X-0.875000X0.875000X-0.875000X0.875000X0.875000X0*%
%TD*%
%TA.AperFunction,SMDPad,CuDef*%
%ADD22RoundRect,0.250000X-0.325000X-0.650000X0.325000X-0.650000X0.325000X0.650000X-0.325000X0.650000X0*%
%TD*%
%TA.AperFunction,SMDPad,CuDef*%
%ADD23RoundRect,0.250000X-0.250000X-0.475000X0.250000X-0.475000X0.250000X0.475000X-0.250000X0.475000X0*%
%TD*%
%TA.AperFunction,SMDPad,CuDef*%
%ADD24RoundRect,0.218750X0.256250X-0.218750X0.256250X0.218750X-0.256250X0.218750X-0.256250X-0.218750X0*%
%TD*%
%TA.AperFunction,ViaPad*%
%ADD25C,0.600000*%
%TD*%
%TA.AperFunction,ViaPad*%
%ADD26C,0.800000*%
%TD*%
%TA.AperFunction,Conductor*%
%ADD27C,0.700000*%
%TD*%
%TA.AperFunction,Conductor*%
%ADD28C,0.601000*%
%TD*%
%TA.AperFunction,Conductor*%
%ADD29C,0.250000*%
%TD*%
G04 APERTURE END LIST*
D10*
%TO.P,J4,1*%
%TO.N,PAN*%
X74900000Y-76200000D03*
D11*
%TO.P,J4,2*%
%TO.N,VSERVO*%
X77440000Y-76200000D03*
%TO.P,J4,3*%
%TO.N,GND*%
X79980000Y-76200000D03*
%TD*%
D12*
%TO.P,L1,1*%
%TO.N,SW_NODE*%
X61625000Y-65300000D03*
%TO.P,L1,2*%
%TO.N,+5V*%
X65775000Y-65300000D03*
%TD*%
D10*
%TO.P,J7,1*%
%TO.N,+3V3*%
X66099999Y-71000000D03*
D11*
%TO.P,J7,2*%
%TO.N,GND*%
X68639999Y-71000000D03*
%TO.P,J7,3*%
%TO.N,ENC_B*%
X71179999Y-71000000D03*
%TD*%
D13*
%TO.P,C7,1*%
%TO.N,VSERVO*%
X72700000Y-63200000D03*
D14*
%TO.P,C7,2*%
%TO.N,GND*%
X76200000Y-63200000D03*
%TD*%
D15*
%TO.P,C3,1*%
%TO.N,BST*%
X60725000Y-60400000D03*
%TO.P,C3,2*%
%TO.N,SW_NODE*%
X62275000Y-60400000D03*
%TD*%
D16*
%TO.P,C4,1*%
%TO.N,+5V*%
X68600000Y-67475000D03*
%TO.P,C4,2*%
%TO.N,GND*%
X68600000Y-64525000D03*
%TD*%
D10*
%TO.P,J1,1*%
%TO.N,GND*%
X57500000Y-55500000D03*
D11*
%TO.P,J1,2*%
%TO.N,SERVO_A*%
X57500000Y-52960000D03*
%TO.P,J1,3*%
%TO.N,N/C*%
X60040000Y-55500000D03*
%TO.P,J1,4*%
%TO.N,SERVO_B*%
X60040000Y-52960000D03*
%TO.P,J1,5*%
%TO.N,N/C*%
X62580000Y-55500000D03*
%TO.P,J1,6*%
%TO.N,PAN*%
X62580000Y-52960000D03*
%TO.P,J1,7*%
%TO.N,COLOR*%
X65120000Y-55500000D03*
%TO.P,J1,8*%
%TO.N,TILT*%
X65120000Y-52960000D03*
%TO.P,J1,9*%
%TO.N,ECHO*%
X67660000Y-55500000D03*
%TO.P,J1,10*%
%TO.N,ENC_A*%
X67660000Y-52960000D03*
%TO.P,J1,11*%
%TO.N,N/C*%
X70200000Y-55500000D03*
%TO.P,J1,12*%
%TO.N,ENC_B*%
X70200000Y-52960000D03*
%TO.P,J1,13*%
%TO.N,+3V3*%
X72740000Y-55500000D03*
%TO.P,J1,14*%
%TO.N,TRIG*%
X72740000Y-52960000D03*
%TO.P,J1,15*%
%TO.N,+5V*%
X75280000Y-55500000D03*
%TO.P,J1,16*%
%TO.N,N/C*%
X75280000Y-52960000D03*
%TD*%
D10*
%TO.P,J6,1*%
%TO.N,+3V3*%
X57300000Y-71000000D03*
D11*
%TO.P,J6,2*%
%TO.N,GND*%
X59840000Y-71000000D03*
%TO.P,J6,3*%
%TO.N,ENC_A*%
X62380000Y-71000000D03*
%TD*%
D17*
%TO.P,R3,1*%
%TO.N,+5V*%
X96600000Y-70475000D03*
%TO.P,R3,2*%
%TO.N,LED_K*%
X96600000Y-72125000D03*
%TD*%
D10*
%TO.P,J8,1*%
%TO.N,+3V3*%
X74900000Y-71000000D03*
D11*
%TO.P,J8,2*%
%TO.N,GND*%
X77440000Y-71000000D03*
%TO.P,J8,3*%
%TO.N,N/C*%
X79980000Y-71000000D03*
%TO.P,J8,4*%
%TO.N,COLOR*%
X82520000Y-71000000D03*
%TD*%
D10*
%TO.P,J3,1*%
%TO.N,SERVO_B*%
X66100000Y-76200000D03*
D11*
%TO.P,J3,2*%
%TO.N,VSERVO*%
X68640000Y-76200000D03*
%TO.P,J3,3*%
%TO.N,GND*%
X71180000Y-76200000D03*
%TD*%
D18*
%TO.P,U1,1*%
%TO.N,+5V*%
X57737500Y-62750000D03*
%TO.P,U1,2*%
%TO.N,VSERVO*%
X57737500Y-61800000D03*
%TO.P,U1,3*%
X57737500Y-60850000D03*
%TO.P,U1,4*%
%TO.N,GND*%
X55462500Y-60850000D03*
%TO.P,U1,5*%
%TO.N,SW_NODE*%
X55462500Y-61800000D03*
%TO.P,U1,6*%
%TO.N,BST*%
X55462500Y-62750000D03*
%TD*%
D19*
%TO.P,J11,1*%
%TO.N,VSERVO*%
X86000000Y-64000000D03*
D20*
%TO.P,J11,2*%
%TO.N,GND*%
X86000000Y-58000000D03*
D21*
%TO.P,J11,3*%
%TO.N,N/C*%
X81300000Y-61000000D03*
%TD*%
D17*
%TO.P,R5,1*%
%TO.N,ECHO*%
X93860000Y-73575000D03*
%TO.P,R5,2*%
%TO.N,GND*%
X93860000Y-75225000D03*
%TD*%
D22*
%TO.P,C5,1*%
%TO.N,+5V*%
X80325000Y-67700000D03*
%TO.P,C5,2*%
%TO.N,GND*%
X83275000Y-67700000D03*
%TD*%
D17*
%TO.P,R4,1*%
%TO.N,ECHO_5V*%
X91500000Y-73575000D03*
%TO.P,R4,2*%
%TO.N,ECHO*%
X91500000Y-75225000D03*
%TD*%
D23*
%TO.P,C1,1*%
%TO.N,VSERVO*%
X52650000Y-65600000D03*
%TO.P,C1,2*%
%TO.N,GND*%
X54550000Y-65600000D03*
%TD*%
D10*
%TO.P,J2,1*%
%TO.N,SERVO_A*%
X57300000Y-76200000D03*
D11*
%TO.P,J2,2*%
%TO.N,VSERVO*%
X59840000Y-76200000D03*
%TO.P,J2,3*%
%TO.N,GND*%
X62380000Y-76200000D03*
%TD*%
D10*
%TO.P,J5,1*%
%TO.N,TILT*%
X83700000Y-76200000D03*
D11*
%TO.P,J5,2*%
%TO.N,VSERVO*%
X86240000Y-76200000D03*
%TO.P,J5,3*%
%TO.N,GND*%
X88780000Y-76200000D03*
%TD*%
D10*
%TO.P,J10,1*%
%TO.N,+5V*%
X86240000Y-71000000D03*
D11*
%TO.P,J10,2*%
%TO.N,TRIG*%
X88780000Y-71000000D03*
%TO.P,J10,3*%
%TO.N,ECHO_5V*%
X91320000Y-71000000D03*
%TO.P,J10,4*%
%TO.N,GND*%
X93860000Y-71000000D03*
%TD*%
D24*
%TO.P,D1,1*%
%TO.N,GND*%
X96600000Y-75187500D03*
%TO.P,D1,2*%
%TO.N,LED_K*%
X96600000Y-73612500D03*
%TD*%
D25*
%TO.N,VSERVO*%
X59270200Y-60850000D03*
D26*
%TO.N,GND*%
X57810582Y-56659110D03*
X77400000Y-63200000D03*
X93860000Y-76500000D03*
X96600000Y-76300000D03*
D25*
%TO.N,SW_NODE*%
X63674400Y-60748400D03*
X63674400Y-65300000D03*
%TO.N,ENC_A*%
X57300000Y-69000000D03*
X57300000Y-59074000D03*
%TO.N,COLOR*%
X72000000Y-69200000D03*
X69739300Y-59142200D03*
%TO.N,ECHO*%
X92590000Y-74400000D03*
X83700000Y-54309400D03*
%TO.N,TRIG*%
X88780000Y-56000000D03*
%TD*%
%TO.N,VSERVO*%
D27*
X59840000Y-76200000D02*
X59840000Y-74798300D01*
X57737500Y-61800000D02*
X57737500Y-60850000D01*
X77440000Y-74798300D02*
X77440000Y-76200000D01*
X84838300Y-74798300D02*
X86240000Y-76200000D01*
X68640000Y-74798300D02*
X77440000Y-74798300D01*
X77440000Y-74798300D02*
X84838300Y-74798300D01*
X52650000Y-68830300D02*
X52650000Y-65600000D01*
X68640000Y-74798300D02*
X68640000Y-76200000D01*
X59840000Y-74798300D02*
X58618000Y-74798300D01*
X59270200Y-60850000D02*
X57737500Y-60850000D01*
X68640000Y-74798300D02*
X59840000Y-74798300D01*
X86000000Y-64000000D02*
X83698300Y-64000000D01*
X83698300Y-64000000D02*
X83115800Y-64582500D01*
X74082500Y-64582500D02*
X72700000Y-63200000D01*
X58618000Y-74798300D02*
X52650000Y-68830300D01*
X83115800Y-64582500D02*
X74082500Y-64582500D01*
%TO.N,GND*%
X57500000Y-55500000D02*
X57810582Y-56659110D01*
X57500000Y-56901700D02*
X55462500Y-58939200D01*
X57500000Y-55500000D02*
X57500000Y-56901700D01*
X96600000Y-75190000D02*
X96600000Y-76300000D01*
X54334000Y-60850000D02*
X55462500Y-60850000D01*
X76200000Y-63200000D02*
X77400000Y-63200000D01*
X53336300Y-64386300D02*
X53336300Y-61847700D01*
X53336300Y-61847700D02*
X54334000Y-60850000D01*
X55462500Y-58939200D02*
X55462500Y-60850000D01*
X54550000Y-65600000D02*
X53336300Y-64386300D01*
X93860000Y-75225000D02*
X93860000Y-76500000D01*
%TO.N,SW_NODE*%
X54247500Y-63245600D02*
X54247500Y-62255600D01*
X61625000Y-65300000D02*
X56301900Y-65300000D01*
X62623400Y-60748400D02*
X62275000Y-60400000D01*
X61625000Y-65300000D02*
X63674400Y-65300000D01*
X54247500Y-62255600D02*
X54703100Y-61800000D01*
X54703100Y-61800000D02*
X55462500Y-61800000D01*
X56301900Y-65300000D02*
X54247500Y-63245600D01*
X63674400Y-60748400D02*
X62623400Y-60748400D01*
%TO.N,+5V*%
X69019900Y-61760100D02*
X74959700Y-67700000D01*
X65775000Y-62192100D02*
X65775000Y-65300000D01*
X59324400Y-62192100D02*
X58865700Y-62650800D01*
X83919100Y-66234000D02*
X85047100Y-67362000D01*
X74959700Y-67700000D02*
X80325000Y-67700000D01*
X68163200Y-62192000D02*
X68163100Y-62192100D01*
D28*
X57737500Y-62750000D02*
X58766500Y-62750000D01*
D27*
X65775000Y-65300000D02*
X67950000Y-67475000D01*
X80325000Y-67700000D02*
X81791000Y-66234000D01*
X69019900Y-61760100D02*
X68588000Y-62192000D01*
X75280000Y-55500000D02*
X69019900Y-61760100D01*
X95700000Y-67360000D02*
X96600000Y-68260000D01*
X67950000Y-67475000D02*
X68600000Y-67475000D01*
X96600000Y-68260000D02*
X96600000Y-70480000D01*
X68163100Y-62192100D02*
X65775000Y-62192100D01*
D28*
X58766500Y-62750000D02*
X58865700Y-62650800D01*
D27*
X81791000Y-66234000D02*
X83919100Y-66234000D01*
X85047100Y-67362000D02*
X87937000Y-67362000D01*
X87940000Y-67360000D02*
X95700000Y-67360000D01*
X68588000Y-62192000D02*
X68163200Y-62192000D01*
X86240000Y-71000000D02*
X86240000Y-67360000D01*
X65775000Y-62192100D02*
X59324400Y-62192100D01*
%TO.N,+3V3*%
X58900000Y-72600000D02*
X57300000Y-71000000D01*
X67700000Y-72600000D02*
X66099999Y-71000000D01*
X73300000Y-72600000D02*
X67700000Y-72600000D01*
X66099999Y-71000000D02*
X64500000Y-72600000D01*
X74900000Y-71000000D02*
X73300000Y-72600000D01*
X64500000Y-72600000D02*
X58900000Y-72600000D01*
%TO.N,BST*%
D29*
X57114600Y-60104200D02*
X56600000Y-60618800D01*
X56600000Y-62082300D02*
X55932300Y-62750000D01*
X60429200Y-60104200D02*
X57114600Y-60104200D01*
X60725000Y-60400000D02*
X60429200Y-60104200D01*
X55932300Y-62750000D02*
X55462500Y-62750000D01*
X56600000Y-60618800D02*
X56600000Y-62082300D01*
%TO.N,ENC_A*%
X66390000Y-54230000D02*
X64689100Y-54230000D01*
X57300000Y-69000000D02*
X61300000Y-69000000D01*
X67660000Y-52960000D02*
X66390000Y-54230000D01*
X64689100Y-54230000D02*
X63756700Y-55162400D01*
X61300000Y-69000000D02*
X62380000Y-70080000D01*
X63756700Y-55162400D02*
X63756700Y-55995000D01*
X62380000Y-70080000D02*
X62380000Y-71000000D01*
X60677700Y-59074000D02*
X57300000Y-59074000D01*
X63756700Y-55995000D02*
X60677700Y-59074000D01*
%TO.N,LED_K*%
X96600000Y-72120000D02*
X96600000Y-73610000D01*
%TO.N,COLOR*%
X82520000Y-70020000D02*
X82520000Y-71000000D01*
X68762200Y-59142200D02*
X69739300Y-59142200D01*
X72000000Y-69200000D02*
X81700000Y-69200000D01*
X81700000Y-69200000D02*
X82520000Y-70020000D01*
X65120000Y-55500000D02*
X68762200Y-59142200D01*
%TO.N,ECHO*%
X68850600Y-54309400D02*
X83700000Y-54309400D01*
X93860000Y-73575000D02*
X92590000Y-74400000D01*
X92590000Y-74400000D02*
X91500000Y-75225000D01*
X67660000Y-55500000D02*
X68850600Y-54309400D01*
%TO.N,TRIG*%
X88780000Y-52500000D02*
X88780000Y-56000000D01*
X72740000Y-52960000D02*
X74300000Y-51400000D01*
X74300000Y-51400000D02*
X87680000Y-51400000D01*
X87680000Y-51400000D02*
X88780000Y-52500000D01*
%TO.N,ECHO_5V*%
X91500000Y-71180000D02*
X91500000Y-73575000D01*
X91320000Y-71000000D02*
X91500000Y-71180000D01*
%TD*%
%TA.AperFunction,Conductor*%
%TO.N,GND*%
G36*
X96004418Y-50500816D02*
G01*
X96204561Y-50515130D01*
X96222063Y-50517647D01*
X96413795Y-50559355D01*
X96430760Y-50564336D01*
X96614611Y-50632909D01*
X96630694Y-50640253D01*
X96747495Y-50704032D01*
X96802908Y-50734290D01*
X96817791Y-50743855D01*
X96974864Y-50861438D01*
X96988235Y-50873024D01*
X97126975Y-51011764D01*
X97138561Y-51025135D01*
X97256144Y-51182208D01*
X97265709Y-51197091D01*
X97359743Y-51369300D01*
X97367093Y-51385394D01*
X97435661Y-51569234D01*
X97440645Y-51586209D01*
X97482351Y-51777931D01*
X97484869Y-51795442D01*
X97499184Y-51995580D01*
X97499500Y-52004427D01*
X97499500Y-69901500D01*
X97479815Y-69968539D01*
X97427011Y-70014294D01*
X97357853Y-70024238D01*
X97294297Y-69995213D01*
X97276255Y-69975841D01*
X97275255Y-69974506D01*
X97250819Y-69909049D01*
X97250500Y-69900165D01*
X97250500Y-68195928D01*
X97225502Y-68070261D01*
X97225501Y-68070260D01*
X97225501Y-68070256D01*
X97176465Y-67951873D01*
X97176464Y-67951872D01*
X97176461Y-67951866D01*
X97105277Y-67845332D01*
X97103041Y-67843096D01*
X97014669Y-67754724D01*
X96366844Y-67106898D01*
X96114674Y-66854727D01*
X96114673Y-66854726D01*
X96114669Y-66854723D01*
X96008127Y-66783535D01*
X95944254Y-66757078D01*
X95889744Y-66734499D01*
X95889738Y-66734497D01*
X95764071Y-66709500D01*
X95764069Y-66709500D01*
X87875931Y-66709500D01*
X87875927Y-66709500D01*
X87869864Y-66710097D01*
X87869845Y-66709905D01*
X87853662Y-66711500D01*
X86326338Y-66711500D01*
X86310154Y-66709905D01*
X86310136Y-66710097D01*
X86304073Y-66709500D01*
X86304069Y-66709500D01*
X86175931Y-66709500D01*
X86175927Y-66709500D01*
X86169864Y-66710097D01*
X86169845Y-66709905D01*
X86153662Y-66711500D01*
X85367908Y-66711500D01*
X85300869Y-66691815D01*
X85280227Y-66675181D01*
X84867226Y-66262180D01*
X84833741Y-66200857D01*
X84838725Y-66131165D01*
X84880597Y-66075232D01*
X84946061Y-66050815D01*
X84954907Y-66050499D01*
X87794856Y-66050499D01*
X87794864Y-66050499D01*
X87794879Y-66050497D01*
X87794882Y-66050497D01*
X87819987Y-66047586D01*
X87819988Y-66047585D01*
X87819991Y-66047585D01*
X87922765Y-66002206D01*
X88002206Y-65922765D01*
X88047585Y-65819991D01*
X88050500Y-65794865D01*
X88050499Y-62205136D01*
X88050497Y-62205117D01*
X88047586Y-62180012D01*
X88047585Y-62180010D01*
X88047585Y-62180009D01*
X88002206Y-62077235D01*
X87922765Y-61997794D01*
X87922763Y-61997793D01*
X87819992Y-61952415D01*
X87794865Y-61949500D01*
X84205143Y-61949500D01*
X84205117Y-61949502D01*
X84180012Y-61952413D01*
X84180008Y-61952415D01*
X84077235Y-61997793D01*
X83997794Y-62077234D01*
X83952415Y-62180006D01*
X83952415Y-62180008D01*
X83949500Y-62205131D01*
X83949500Y-63225500D01*
X83929815Y-63292539D01*
X83877011Y-63338294D01*
X83825500Y-63349500D01*
X83634229Y-63349500D01*
X83508561Y-63374497D01*
X83508555Y-63374499D01*
X83390170Y-63423535D01*
X83283631Y-63494722D01*
X83283624Y-63494728D01*
X82882673Y-63895681D01*
X82821350Y-63929166D01*
X82794992Y-63932000D01*
X77376169Y-63932000D01*
X77309130Y-63912315D01*
X77263375Y-63859511D01*
X77253431Y-63790353D01*
X77265684Y-63751705D01*
X77312085Y-63660637D01*
X77370451Y-63481002D01*
X77400000Y-63294447D01*
X77400000Y-63105552D01*
X77370451Y-62918997D01*
X77312085Y-62739362D01*
X77235400Y-62588861D01*
X76600000Y-63224261D01*
X76600000Y-63147339D01*
X76572741Y-63045606D01*
X76520080Y-62954394D01*
X76445606Y-62879920D01*
X76354394Y-62827259D01*
X76252661Y-62800000D01*
X76147339Y-62800000D01*
X76045606Y-62827259D01*
X75954394Y-62879920D01*
X75879920Y-62954394D01*
X75827259Y-63045606D01*
X75800000Y-63147339D01*
X75800000Y-63224264D01*
X75164598Y-62588862D01*
X75087916Y-62739359D01*
X75087914Y-62739362D01*
X75029547Y-62918997D01*
X75000000Y-63105552D01*
X75000000Y-63294447D01*
X75029548Y-63481002D01*
X75087914Y-63660637D01*
X75134316Y-63751705D01*
X75147212Y-63820374D01*
X75120936Y-63885115D01*
X75063829Y-63925372D01*
X75023831Y-63932000D01*
X74403308Y-63932000D01*
X74336269Y-63912315D01*
X74315627Y-63895681D01*
X73836819Y-63416873D01*
X73803334Y-63355550D01*
X73800500Y-63329192D01*
X73800500Y-62606903D01*
X73800500Y-62606898D01*
X73789877Y-62518436D01*
X73734361Y-62377658D01*
X73734360Y-62377657D01*
X73734360Y-62377656D01*
X73662224Y-62282531D01*
X73662222Y-62282529D01*
X73642920Y-62257076D01*
X73522343Y-62165639D01*
X73519703Y-62164598D01*
X75588862Y-62164598D01*
X76200000Y-62775736D01*
X76200001Y-62775736D01*
X76811136Y-62164598D01*
X76660637Y-62087914D01*
X76481002Y-62029548D01*
X76294447Y-62000000D01*
X76105553Y-62000000D01*
X75918997Y-62029547D01*
X75739362Y-62087914D01*
X75739359Y-62087916D01*
X75588862Y-62164598D01*
X73519703Y-62164598D01*
X73381561Y-62110122D01*
X73335926Y-62104642D01*
X73293102Y-62099500D01*
X72106898Y-62099500D01*
X72067853Y-62104188D01*
X72018438Y-62110122D01*
X71877656Y-62165639D01*
X71757077Y-62257077D01*
X71665639Y-62377656D01*
X71610122Y-62518438D01*
X71606845Y-62545734D01*
X71599500Y-62606898D01*
X71599500Y-62606903D01*
X71599500Y-63120422D01*
X71579815Y-63187461D01*
X71527011Y-63233216D01*
X71457853Y-63243160D01*
X71394297Y-63214135D01*
X71387818Y-63208103D01*
X70629176Y-62449449D01*
X70027520Y-61847782D01*
X69994037Y-61786460D01*
X69999022Y-61716769D01*
X70027520Y-61672424D01*
X71647500Y-60052444D01*
X79249500Y-60052444D01*
X79249500Y-61947555D01*
X79255784Y-62038093D01*
X79255786Y-62038109D01*
X79305659Y-62250156D01*
X79305661Y-62250161D01*
X79305662Y-62250164D01*
X79393657Y-62449454D01*
X79459611Y-62545734D01*
X79516773Y-62629181D01*
X79516778Y-62629187D01*
X79670812Y-62783221D01*
X79670818Y-62783226D01*
X79850546Y-62906343D01*
X80049836Y-62994338D01*
X80049841Y-62994339D01*
X80049843Y-62994340D01*
X80261890Y-63044213D01*
X80261895Y-63044213D01*
X80261901Y-63044215D01*
X80312204Y-63047706D01*
X80352444Y-63050500D01*
X80352448Y-63050500D01*
X82247556Y-63050500D01*
X82283770Y-63047986D01*
X82338099Y-63044215D01*
X82338105Y-63044213D01*
X82338109Y-63044213D01*
X82550156Y-62994340D01*
X82550156Y-62994339D01*
X82550164Y-62994338D01*
X82749454Y-62906343D01*
X82929182Y-62783226D01*
X83083226Y-62629182D01*
X83206343Y-62449454D01*
X83294338Y-62250164D01*
X83304927Y-62205143D01*
X83344213Y-62038109D01*
X83344213Y-62038105D01*
X83344215Y-62038099D01*
X83348405Y-61977734D01*
X83350500Y-61947555D01*
X83350500Y-60052444D01*
X83344215Y-59961906D01*
X83344215Y-59961901D01*
X83344213Y-59961895D01*
X83344213Y-59961890D01*
X83294340Y-59749843D01*
X83294339Y-59749841D01*
X83294338Y-59749836D01*
X83206343Y-59550546D01*
X83083226Y-59370818D01*
X83083221Y-59370812D01*
X82929187Y-59216778D01*
X82929181Y-59216773D01*
X82896646Y-59194486D01*
X82749454Y-59093657D01*
X82550164Y-59005662D01*
X82550161Y-59005661D01*
X82550156Y-59005659D01*
X82338109Y-58955786D01*
X82338093Y-58955784D01*
X82247556Y-58949500D01*
X82247552Y-58949500D01*
X80352448Y-58949500D01*
X80352444Y-58949500D01*
X80261906Y-58955784D01*
X80261890Y-58955786D01*
X80049843Y-59005659D01*
X80049836Y-59005662D01*
X79850550Y-59093655D01*
X79850549Y-59093655D01*
X79850546Y-59093657D01*
X79816445Y-59117017D01*
X79670818Y-59216773D01*
X79670812Y-59216778D01*
X79516778Y-59370812D01*
X79516773Y-59370818D01*
X79467522Y-59442717D01*
X79393657Y-59550546D01*
X79393655Y-59550549D01*
X79393655Y-59550550D01*
X79305662Y-59749836D01*
X79305659Y-59749843D01*
X79255786Y-59961890D01*
X79255784Y-59961906D01*
X79249500Y-60052444D01*
X71647500Y-60052444D01*
X74520933Y-57179011D01*
X83850000Y-57179011D01*
X83850000Y-57700000D01*
X84595856Y-57700000D01*
X84534075Y-57807007D01*
X84500000Y-57934174D01*
X84500000Y-58065826D01*
X84534075Y-58192993D01*
X84595856Y-58300000D01*
X83850001Y-58300000D01*
X83850001Y-58820988D01*
X83856147Y-58909559D01*
X83856148Y-58909568D01*
X83904941Y-59117017D01*
X83904946Y-59117032D01*
X83991028Y-59311990D01*
X84111474Y-59487820D01*
X84262179Y-59638525D01*
X84438009Y-59758971D01*
X84632967Y-59845053D01*
X84632982Y-59845058D01*
X84840429Y-59893850D01*
X84840444Y-59893852D01*
X84929011Y-59899999D01*
X85699999Y-59899999D01*
X85700000Y-59899998D01*
X85700000Y-58500000D01*
X86300000Y-58500000D01*
X86300000Y-59899999D01*
X87070988Y-59899999D01*
X87159559Y-59893852D01*
X87159568Y-59893851D01*
X87367017Y-59845058D01*
X87367032Y-59845053D01*
X87561990Y-59758971D01*
X87737820Y-59638525D01*
X87888525Y-59487820D01*
X88008971Y-59311990D01*
X88095053Y-59117032D01*
X88095058Y-59117017D01*
X88143850Y-58909570D01*
X88143852Y-58909555D01*
X88150000Y-58820988D01*
X88150000Y-58300000D01*
X87404144Y-58300000D01*
X87465925Y-58192993D01*
X87500000Y-58065826D01*
X87500000Y-57934174D01*
X87465925Y-57807007D01*
X87404144Y-57700000D01*
X88149999Y-57700000D01*
X88149999Y-57179011D01*
X88143852Y-57090440D01*
X88143851Y-57090431D01*
X88095058Y-56882982D01*
X88095053Y-56882967D01*
X88008971Y-56688009D01*
X87888525Y-56512179D01*
X87737820Y-56361474D01*
X87561990Y-56241028D01*
X87367032Y-56154946D01*
X87367017Y-56154941D01*
X87159570Y-56106149D01*
X87159555Y-56106147D01*
X87070989Y-56100000D01*
X86300000Y-56100000D01*
X86300000Y-57500000D01*
X85700000Y-57500000D01*
X85700000Y-56100000D01*
X84929011Y-56100000D01*
X84840440Y-56106147D01*
X84840431Y-56106148D01*
X84632982Y-56154941D01*
X84632967Y-56154946D01*
X84438009Y-56241028D01*
X84262179Y-56361474D01*
X84111474Y-56512179D01*
X83991028Y-56688009D01*
X83904946Y-56882967D01*
X83904941Y-56882982D01*
X83856149Y-57090429D01*
X83856147Y-57090444D01*
X83850000Y-57179011D01*
X74520933Y-57179011D01*
X75023914Y-56676030D01*
X75085235Y-56642547D01*
X75130991Y-56641240D01*
X75189454Y-56650500D01*
X75189455Y-56650500D01*
X75370551Y-56650500D01*
X75457259Y-56636765D01*
X75549409Y-56622171D01*
X75721639Y-56566211D01*
X75882994Y-56483996D01*
X76029501Y-56377553D01*
X76157553Y-56249501D01*
X76263996Y-56102994D01*
X76346211Y-55941639D01*
X76402171Y-55769409D01*
X76424048Y-55631282D01*
X76430500Y-55590551D01*
X76430500Y-55409448D01*
X76408807Y-55272489D01*
X76402171Y-55230591D01*
X76363065Y-55110233D01*
X76346212Y-55058363D01*
X76346211Y-55058360D01*
X76273264Y-54915195D01*
X76260368Y-54846526D01*
X76286644Y-54781785D01*
X76343751Y-54741528D01*
X76383749Y-54734900D01*
X83224902Y-54734900D01*
X83291941Y-54754585D01*
X83312582Y-54771218D01*
X83331284Y-54789920D01*
X83331286Y-54789921D01*
X83331290Y-54789924D01*
X83468209Y-54868973D01*
X83468216Y-54868977D01*
X83620943Y-54909900D01*
X83620945Y-54909900D01*
X83779055Y-54909900D01*
X83779057Y-54909900D01*
X83931784Y-54868977D01*
X84068716Y-54789920D01*
X84180520Y-54678116D01*
X84259577Y-54541184D01*
X84300500Y-54388457D01*
X84300500Y-54230343D01*
X84259577Y-54077616D01*
X84257688Y-54074344D01*
X84180524Y-53940690D01*
X84180518Y-53940682D01*
X84068717Y-53828881D01*
X84068709Y-53828875D01*
X83931790Y-53749826D01*
X83931786Y-53749824D01*
X83931784Y-53749823D01*
X83779057Y-53708900D01*
X83620943Y-53708900D01*
X83468216Y-53749823D01*
X83468209Y-53749826D01*
X83331290Y-53828875D01*
X83331282Y-53828881D01*
X83312583Y-53847581D01*
X83251260Y-53881066D01*
X83224902Y-53883900D01*
X76274209Y-53883900D01*
X76207170Y-53864215D01*
X76161415Y-53811411D01*
X76151471Y-53742253D01*
X76173891Y-53687015D01*
X76247055Y-53586311D01*
X76263996Y-53562994D01*
X76346211Y-53401639D01*
X76402171Y-53229409D01*
X76416765Y-53137259D01*
X76430500Y-53050551D01*
X76430500Y-52869448D01*
X76408034Y-52727610D01*
X76402171Y-52690591D01*
X76346211Y-52518361D01*
X76346211Y-52518360D01*
X76308313Y-52443982D01*
X76263996Y-52357006D01*
X76247053Y-52333686D01*
X76157558Y-52210505D01*
X76157554Y-52210500D01*
X76029495Y-52082441D01*
X75984592Y-52049818D01*
X75941926Y-51994489D01*
X75935947Y-51924875D01*
X75968552Y-51863080D01*
X76029391Y-51828723D01*
X76057477Y-51825500D01*
X87452390Y-51825500D01*
X87519429Y-51845185D01*
X87540071Y-51861819D01*
X88318181Y-52639929D01*
X88351666Y-52701252D01*
X88354500Y-52727610D01*
X88354500Y-55524902D01*
X88334815Y-55591941D01*
X88318181Y-55612583D01*
X88299481Y-55631282D01*
X88299475Y-55631290D01*
X88220426Y-55768209D01*
X88220423Y-55768216D01*
X88179500Y-55920943D01*
X88179500Y-56079057D01*
X88218312Y-56223903D01*
X88220423Y-56231783D01*
X88220426Y-56231790D01*
X88299475Y-56368709D01*
X88299479Y-56368714D01*
X88299480Y-56368716D01*
X88411284Y-56480520D01*
X88411286Y-56480521D01*
X88411290Y-56480524D01*
X88503598Y-56533817D01*
X88548216Y-56559577D01*
X88700943Y-56600500D01*
X88700945Y-56600500D01*
X88859055Y-56600500D01*
X88859057Y-56600500D01*
X89011784Y-56559577D01*
X89148716Y-56480520D01*
X89260520Y-56368716D01*
X89339577Y-56231784D01*
X89380500Y-56079057D01*
X89380500Y-55920943D01*
X89339577Y-55768216D01*
X89339573Y-55768209D01*
X89260524Y-55631290D01*
X89260518Y-55631282D01*
X89241819Y-55612583D01*
X89208334Y-55551260D01*
X89205500Y-55524902D01*
X89205500Y-52578711D01*
X93449500Y-52578711D01*
X93449500Y-52821288D01*
X93481161Y-53061785D01*
X93543947Y-53296104D01*
X93593924Y-53416759D01*
X93636776Y-53520212D01*
X93758064Y-53730289D01*
X93758066Y-53730292D01*
X93758067Y-53730293D01*
X93905733Y-53922736D01*
X93905739Y-53922743D01*
X94077256Y-54094260D01*
X94077263Y-54094266D01*
X94133550Y-54137456D01*
X94269711Y-54241936D01*
X94479788Y-54363224D01*
X94703900Y-54456054D01*
X94938211Y-54518838D01*
X95107941Y-54541183D01*
X95178711Y-54550500D01*
X95178712Y-54550500D01*
X95421289Y-54550500D01*
X95469388Y-54544167D01*
X95661789Y-54518838D01*
X95896100Y-54456054D01*
X96120212Y-54363224D01*
X96330289Y-54241936D01*
X96522738Y-54094265D01*
X96694265Y-53922738D01*
X96841936Y-53730289D01*
X96963224Y-53520212D01*
X97056054Y-53296100D01*
X97118838Y-53061789D01*
X97150500Y-52821288D01*
X97150500Y-52578712D01*
X97118838Y-52338211D01*
X97056054Y-52103900D01*
X96963224Y-51879788D01*
X96841936Y-51669711D01*
X96694265Y-51477262D01*
X96694260Y-51477256D01*
X96522743Y-51305739D01*
X96522736Y-51305733D01*
X96330293Y-51158067D01*
X96330292Y-51158066D01*
X96330289Y-51158064D01*
X96120212Y-51036776D01*
X96039872Y-51003498D01*
X95896104Y-50943947D01*
X95661785Y-50881161D01*
X95421289Y-50849500D01*
X95421288Y-50849500D01*
X95178712Y-50849500D01*
X95178711Y-50849500D01*
X94938214Y-50881161D01*
X94703895Y-50943947D01*
X94479794Y-51036773D01*
X94479785Y-51036777D01*
X94269706Y-51158067D01*
X94077263Y-51305733D01*
X94077256Y-51305739D01*
X93905739Y-51477256D01*
X93905733Y-51477263D01*
X93758067Y-51669706D01*
X93636777Y-51879785D01*
X93636773Y-51879794D01*
X93543947Y-52103895D01*
X93481161Y-52338214D01*
X93449500Y-52578711D01*
X89205500Y-52578711D01*
X89205500Y-52443984D01*
X89205500Y-52443982D01*
X89176503Y-52335763D01*
X89120485Y-52238737D01*
X89041263Y-52159515D01*
X87941263Y-51059515D01*
X87844237Y-51003497D01*
X87736018Y-50974500D01*
X74356018Y-50974500D01*
X74243981Y-50974500D01*
X74135763Y-51003497D01*
X74135761Y-51003498D01*
X74135760Y-51003498D01*
X74038740Y-51059513D01*
X74038734Y-51059517D01*
X73252595Y-51845655D01*
X73191272Y-51879140D01*
X73126596Y-51875905D01*
X73083244Y-51861819D01*
X73009409Y-51837828D01*
X72830551Y-51809500D01*
X72830546Y-51809500D01*
X72649454Y-51809500D01*
X72649449Y-51809500D01*
X72470589Y-51837829D01*
X72298363Y-51893787D01*
X72298360Y-51893788D01*
X72137002Y-51976006D01*
X71990505Y-52082441D01*
X71990500Y-52082445D01*
X71862445Y-52210500D01*
X71862441Y-52210505D01*
X71756006Y-52357002D01*
X71673788Y-52518360D01*
X71673787Y-52518363D01*
X71617829Y-52690589D01*
X71592473Y-52850678D01*
X71562544Y-52913813D01*
X71503232Y-52950744D01*
X71433369Y-52949746D01*
X71375137Y-52911136D01*
X71347527Y-52850678D01*
X71328034Y-52727610D01*
X71322171Y-52690591D01*
X71266211Y-52518361D01*
X71266211Y-52518360D01*
X71228313Y-52443982D01*
X71183996Y-52357006D01*
X71167053Y-52333686D01*
X71077558Y-52210505D01*
X71077554Y-52210500D01*
X70949499Y-52082445D01*
X70949494Y-52082441D01*
X70802997Y-51976006D01*
X70802996Y-51976005D01*
X70802994Y-51976004D01*
X70751300Y-51949664D01*
X70641639Y-51893788D01*
X70641636Y-51893787D01*
X70469410Y-51837829D01*
X70290551Y-51809500D01*
X70290546Y-51809500D01*
X70109454Y-51809500D01*
X70109449Y-51809500D01*
X69930589Y-51837829D01*
X69758363Y-51893787D01*
X69758360Y-51893788D01*
X69597002Y-51976006D01*
X69450505Y-52082441D01*
X69450500Y-52082445D01*
X69322445Y-52210500D01*
X69322441Y-52210505D01*
X69216006Y-52357002D01*
X69133788Y-52518360D01*
X69133787Y-52518363D01*
X69077829Y-52690589D01*
X69052473Y-52850678D01*
X69022544Y-52913813D01*
X68963232Y-52950744D01*
X68893369Y-52949746D01*
X68835137Y-52911136D01*
X68807527Y-52850678D01*
X68788034Y-52727610D01*
X68782171Y-52690591D01*
X68726211Y-52518361D01*
X68726211Y-52518360D01*
X68688313Y-52443982D01*
X68643996Y-52357006D01*
X68627053Y-52333686D01*
X68537558Y-52210505D01*
X68537554Y-52210500D01*
X68409499Y-52082445D01*
X68409494Y-52082441D01*
X68262997Y-51976006D01*
X68262996Y-51976005D01*
X68262994Y-51976004D01*
X68211300Y-51949664D01*
X68101639Y-51893788D01*
X68101636Y-51893787D01*
X67929410Y-51837829D01*
X67750551Y-51809500D01*
X67750546Y-51809500D01*
X67569454Y-51809500D01*
X67569449Y-51809500D01*
X67390589Y-51837829D01*
X67218363Y-51893787D01*
X67218360Y-51893788D01*
X67057002Y-51976006D01*
X66910505Y-52082441D01*
X66910500Y-52082445D01*
X66782445Y-52210500D01*
X66782441Y-52210505D01*
X66676006Y-52357002D01*
X66593788Y-52518360D01*
X66593787Y-52518363D01*
X66537829Y-52690589D01*
X66512473Y-52850678D01*
X66482544Y-52913813D01*
X66423232Y-52950744D01*
X66353369Y-52949746D01*
X66295137Y-52911136D01*
X66267527Y-52850678D01*
X66248034Y-52727610D01*
X66242171Y-52690591D01*
X66186211Y-52518361D01*
X66186211Y-52518360D01*
X66148313Y-52443982D01*
X66103996Y-52357006D01*
X66087053Y-52333686D01*
X65997558Y-52210505D01*
X65997554Y-52210500D01*
X65869499Y-52082445D01*
X65869494Y-52082441D01*
X65722997Y-51976006D01*
X65722996Y-51976005D01*
X65722994Y-51976004D01*
X65671300Y-51949664D01*
X65561639Y-51893788D01*
X65561636Y-51893787D01*
X65389410Y-51837829D01*
X65210551Y-51809500D01*
X65210546Y-51809500D01*
X65029454Y-51809500D01*
X65029449Y-51809500D01*
X64850589Y-51837829D01*
X64678363Y-51893787D01*
X64678360Y-51893788D01*
X64517002Y-51976006D01*
X64370505Y-52082441D01*
X64370500Y-52082445D01*
X64242445Y-52210500D01*
X64242441Y-52210505D01*
X64136006Y-52357002D01*
X64053788Y-52518360D01*
X64053787Y-52518363D01*
X63997829Y-52690589D01*
X63972473Y-52850678D01*
X63942544Y-52913813D01*
X63883232Y-52950744D01*
X63813369Y-52949746D01*
X63755137Y-52911136D01*
X63727527Y-52850678D01*
X63708034Y-52727610D01*
X63702171Y-52690591D01*
X63646211Y-52518361D01*
X63646211Y-52518360D01*
X63608313Y-52443982D01*
X63563996Y-52357006D01*
X63547053Y-52333686D01*
X63457558Y-52210505D01*
X63457554Y-52210500D01*
X63329499Y-52082445D01*
X63329494Y-52082441D01*
X63182997Y-51976006D01*
X63182996Y-51976005D01*
X63182994Y-51976004D01*
X63131300Y-51949664D01*
X63021639Y-51893788D01*
X63021636Y-51893787D01*
X62849410Y-51837829D01*
X62670551Y-51809500D01*
X62670546Y-51809500D01*
X62489454Y-51809500D01*
X62489449Y-51809500D01*
X62310589Y-51837829D01*
X62138363Y-51893787D01*
X62138360Y-51893788D01*
X61977002Y-51976006D01*
X61830505Y-52082441D01*
X61830500Y-52082445D01*
X61702445Y-52210500D01*
X61702441Y-52210505D01*
X61596006Y-52357002D01*
X61513788Y-52518360D01*
X61513787Y-52518363D01*
X61457829Y-52690589D01*
X61432473Y-52850678D01*
X61402544Y-52913813D01*
X61343232Y-52950744D01*
X61273369Y-52949746D01*
X61215137Y-52911136D01*
X61187527Y-52850678D01*
X61168034Y-52727610D01*
X61162171Y-52690591D01*
X61106211Y-52518361D01*
X61106211Y-52518360D01*
X61068313Y-52443982D01*
X61023996Y-52357006D01*
X61007053Y-52333686D01*
X60917558Y-52210505D01*
X60917554Y-52210500D01*
X60789499Y-52082445D01*
X60789494Y-52082441D01*
X60642997Y-51976006D01*
X60642996Y-51976005D01*
X60642994Y-51976004D01*
X60591300Y-51949664D01*
X60481639Y-51893788D01*
X60481636Y-51893787D01*
X60309410Y-51837829D01*
X60130551Y-51809500D01*
X60130546Y-51809500D01*
X59949454Y-51809500D01*
X59949449Y-51809500D01*
X59770589Y-51837829D01*
X59598363Y-51893787D01*
X59598360Y-51893788D01*
X59437002Y-51976006D01*
X59290505Y-52082441D01*
X59290500Y-52082445D01*
X59162445Y-52210500D01*
X59162441Y-52210505D01*
X59056006Y-52357002D01*
X58973788Y-52518360D01*
X58973787Y-52518363D01*
X58917829Y-52690589D01*
X58892473Y-52850678D01*
X58862544Y-52913813D01*
X58803232Y-52950744D01*
X58733369Y-52949746D01*
X58675137Y-52911136D01*
X58647527Y-52850678D01*
X58628034Y-52727610D01*
X58622171Y-52690591D01*
X58566211Y-52518361D01*
X58566211Y-52518360D01*
X58528313Y-52443982D01*
X58483996Y-52357006D01*
X58467053Y-52333686D01*
X58377558Y-52210505D01*
X58377554Y-52210500D01*
X58249499Y-52082445D01*
X58249494Y-52082441D01*
X58102997Y-51976006D01*
X58102996Y-51976005D01*
X58102994Y-51976004D01*
X58051300Y-51949664D01*
X57941639Y-51893788D01*
X57941636Y-51893787D01*
X57769410Y-51837829D01*
X57590551Y-51809500D01*
X57590546Y-51809500D01*
X57409454Y-51809500D01*
X57409449Y-51809500D01*
X57230589Y-51837829D01*
X57058363Y-51893787D01*
X57058360Y-51893788D01*
X56897002Y-51976006D01*
X56750505Y-52082441D01*
X56750500Y-52082445D01*
X56622445Y-52210500D01*
X56622441Y-52210505D01*
X56516006Y-52357002D01*
X56433788Y-52518360D01*
X56433787Y-52518363D01*
X56377829Y-52690589D01*
X56349500Y-52869448D01*
X56349500Y-53050551D01*
X56377829Y-53229410D01*
X56433787Y-53401636D01*
X56433788Y-53401639D01*
X56516006Y-53562997D01*
X56622441Y-53709494D01*
X56622445Y-53709499D01*
X56750500Y-53837554D01*
X56750505Y-53837558D01*
X56815738Y-53884952D01*
X56897006Y-53943996D01*
X57037371Y-54015516D01*
X57088166Y-54063490D01*
X57104961Y-54131311D01*
X57082424Y-54197446D01*
X57027709Y-54240897D01*
X56981075Y-54250000D01*
X56618520Y-54250000D01*
X56524850Y-54264835D01*
X56524844Y-54264837D01*
X56411958Y-54322356D01*
X56411949Y-54322363D01*
X56322363Y-54411949D01*
X56322360Y-54411953D01*
X56264833Y-54524855D01*
X56250000Y-54618513D01*
X56250000Y-55200000D01*
X57095856Y-55200000D01*
X57034075Y-55307007D01*
X57000000Y-55434174D01*
X57000000Y-55565826D01*
X57034075Y-55692993D01*
X57095856Y-55800000D01*
X56250001Y-55800000D01*
X56250001Y-56381479D01*
X56264835Y-56475149D01*
X56264837Y-56475155D01*
X56322356Y-56588041D01*
X56322363Y-56588050D01*
X56411949Y-56677636D01*
X56411953Y-56677639D01*
X56524855Y-56735166D01*
X56618514Y-56749999D01*
X57199999Y-56749999D01*
X57200000Y-56749998D01*
X57200000Y-55904144D01*
X57307007Y-55965925D01*
X57434174Y-56000000D01*
X57565826Y-56000000D01*
X57692993Y-55965925D01*
X57800000Y-55904144D01*
X57800000Y-56749999D01*
X58381479Y-56749999D01*
X58475149Y-56735164D01*
X58475155Y-56735162D01*
X58588041Y-56677643D01*
X58588050Y-56677636D01*
X58677636Y-56588050D01*
X58677639Y-56588046D01*
X58735166Y-56475144D01*
X58749999Y-56381485D01*
X58749999Y-56018925D01*
X58769683Y-55951886D01*
X58822487Y-55906131D01*
X58891646Y-55896187D01*
X58955201Y-55925212D01*
X58984483Y-55962629D01*
X59056004Y-56102995D01*
X59162441Y-56249494D01*
X59162445Y-56249499D01*
X59290500Y-56377554D01*
X59290505Y-56377558D01*
X59394986Y-56453467D01*
X59437006Y-56483996D01*
X59534785Y-56533817D01*
X59598360Y-56566211D01*
X59598363Y-56566212D01*
X59684476Y-56594191D01*
X59770591Y-56622171D01*
X59853429Y-56635291D01*
X59949449Y-56650500D01*
X59949454Y-56650500D01*
X60130551Y-56650500D01*
X60217259Y-56636765D01*
X60309409Y-56622171D01*
X60481639Y-56566211D01*
X60642994Y-56483996D01*
X60789501Y-56377553D01*
X60917553Y-56249501D01*
X61023996Y-56102994D01*
X61106211Y-55941639D01*
X61162171Y-55769409D01*
X61184048Y-55631284D01*
X61187527Y-55609321D01*
X61217456Y-55546186D01*
X61276768Y-55509255D01*
X61346630Y-55510253D01*
X61404863Y-55548863D01*
X61432473Y-55609321D01*
X61457829Y-55769410D01*
X61513787Y-55941636D01*
X61513788Y-55941639D01*
X61553168Y-56018925D01*
X61594478Y-56100000D01*
X61596006Y-56102997D01*
X61702441Y-56249494D01*
X61702445Y-56249499D01*
X61830500Y-56377554D01*
X61830505Y-56377558D01*
X61934986Y-56453467D01*
X61977006Y-56483996D01*
X62074785Y-56533817D01*
X62138360Y-56566211D01*
X62138363Y-56566212D01*
X62282071Y-56612905D01*
X62339746Y-56652342D01*
X62366945Y-56716701D01*
X62355031Y-56785547D01*
X62331434Y-56818517D01*
X60537771Y-58612181D01*
X60476448Y-58645666D01*
X60450090Y-58648500D01*
X57775098Y-58648500D01*
X57708059Y-58628815D01*
X57687417Y-58612181D01*
X57668717Y-58593481D01*
X57668709Y-58593475D01*
X57531790Y-58514426D01*
X57531786Y-58514424D01*
X57531784Y-58514423D01*
X57379057Y-58473500D01*
X57220943Y-58473500D01*
X57068216Y-58514423D01*
X57068209Y-58514426D01*
X56931290Y-58593475D01*
X56931282Y-58593481D01*
X56819481Y-58705282D01*
X56819475Y-58705290D01*
X56740426Y-58842209D01*
X56740423Y-58842216D01*
X56699500Y-58994943D01*
X56699500Y-59153057D01*
X56737588Y-59295201D01*
X56740423Y-59305783D01*
X56740426Y-59305790D01*
X56819475Y-59442709D01*
X56819481Y-59442717D01*
X56921109Y-59544345D01*
X56954594Y-59605668D01*
X56949610Y-59675360D01*
X56907738Y-59731293D01*
X56895429Y-59739412D01*
X56853343Y-59763710D01*
X56853334Y-59763717D01*
X56774113Y-59842939D01*
X56321296Y-60295755D01*
X56321295Y-60295755D01*
X56321296Y-60295756D01*
X56259514Y-60357538D01*
X56259513Y-60357540D01*
X56203498Y-60454560D01*
X56203497Y-60454563D01*
X56174500Y-60562782D01*
X56174500Y-61076947D01*
X56154815Y-61143986D01*
X56102011Y-61189741D01*
X56038925Y-61200405D01*
X56029266Y-61199500D01*
X56029262Y-61199500D01*
X55737267Y-61199500D01*
X55689815Y-61190061D01*
X55652248Y-61174500D01*
X55652238Y-61174497D01*
X55526571Y-61149500D01*
X55526569Y-61149500D01*
X54639031Y-61149500D01*
X54639029Y-61149500D01*
X54513361Y-61174497D01*
X54513355Y-61174499D01*
X54426469Y-61210489D01*
X54394977Y-61223533D01*
X54394969Y-61223537D01*
X54288426Y-61294726D01*
X54288425Y-61294727D01*
X53742222Y-61840931D01*
X53742220Y-61840933D01*
X53713533Y-61883870D01*
X53713531Y-61883873D01*
X53671038Y-61947467D01*
X53671033Y-61947475D01*
X53621999Y-62065855D01*
X53621997Y-62065861D01*
X53597000Y-62191528D01*
X53597000Y-63309671D01*
X53619650Y-63423535D01*
X53619651Y-63423538D01*
X53621999Y-63435343D01*
X53621999Y-63435344D01*
X53671034Y-63553725D01*
X53742226Y-63660273D01*
X55887227Y-65805274D01*
X55968499Y-65859578D01*
X55968498Y-65859578D01*
X55987474Y-65872256D01*
X55993773Y-65876465D01*
X56112156Y-65925501D01*
X56112160Y-65925501D01*
X56112161Y-65925502D01*
X56237828Y-65950500D01*
X56237831Y-65950500D01*
X60025501Y-65950500D01*
X60092540Y-65970185D01*
X60138295Y-66022989D01*
X60149501Y-66074500D01*
X60149501Y-67894856D01*
X60149502Y-67894882D01*
X60152413Y-67919987D01*
X60152415Y-67919991D01*
X60197793Y-68022764D01*
X60197794Y-68022765D01*
X60277235Y-68102206D01*
X60380009Y-68147585D01*
X60405135Y-68150500D01*
X62844864Y-68150499D01*
X62844879Y-68150497D01*
X62844882Y-68150497D01*
X62869987Y-68147586D01*
X62869988Y-68147585D01*
X62869991Y-68147585D01*
X62972765Y-68102206D01*
X63052206Y-68022765D01*
X63097585Y-67919991D01*
X63100500Y-67894865D01*
X63100500Y-66074500D01*
X63120185Y-66007461D01*
X63172989Y-65961706D01*
X63224500Y-65950500D01*
X63738471Y-65950500D01*
X63823015Y-65933682D01*
X63864144Y-65925501D01*
X63982527Y-65876465D01*
X64089069Y-65805276D01*
X64089073Y-65805271D01*
X64093779Y-65801411D01*
X64094835Y-65802698D01*
X64149122Y-65773045D01*
X64218815Y-65778018D01*
X64274755Y-65819880D01*
X64299183Y-65885341D01*
X64299500Y-65894207D01*
X64299500Y-67894856D01*
X64299502Y-67894882D01*
X64302413Y-67919987D01*
X64302415Y-67919991D01*
X64347793Y-68022764D01*
X64347794Y-68022765D01*
X64427235Y-68102206D01*
X64530009Y-68147585D01*
X64555135Y-68150500D01*
X66994864Y-68150499D01*
X66994879Y-68150497D01*
X66994882Y-68150497D01*
X67019987Y-68147586D01*
X67019988Y-68147585D01*
X67019991Y-68147585D01*
X67122765Y-68102206D01*
X67202206Y-68022765D01*
X67211136Y-68002539D01*
X67256221Y-67949164D01*
X67323007Y-67928636D01*
X67390289Y-67947474D01*
X67436706Y-67999697D01*
X67439924Y-68007136D01*
X67465637Y-68072339D01*
X67465638Y-68072341D01*
X67557077Y-68192922D01*
X67677656Y-68284360D01*
X67677657Y-68284360D01*
X67677658Y-68284361D01*
X67818436Y-68339877D01*
X67906898Y-68350500D01*
X67906903Y-68350500D01*
X69293097Y-68350500D01*
X69293102Y-68350500D01*
X69381564Y-68339877D01*
X69522342Y-68284361D01*
X69642922Y-68192922D01*
X69734361Y-68072342D01*
X69789877Y-67931564D01*
X69800500Y-67843102D01*
X69800500Y-67106898D01*
X69789877Y-67018436D01*
X69734361Y-66877658D01*
X69734360Y-66877657D01*
X69734360Y-66877656D01*
X69642922Y-66757077D01*
X69522343Y-66665639D01*
X69381561Y-66610122D01*
X69335926Y-66604642D01*
X69293102Y-66599500D01*
X69293097Y-66599500D01*
X68045808Y-66599500D01*
X67978769Y-66579815D01*
X67958127Y-66563181D01*
X67286818Y-65891872D01*
X67253333Y-65830549D01*
X67250499Y-65804191D01*
X67250499Y-62966600D01*
X67270184Y-62899561D01*
X67322988Y-62853806D01*
X67374499Y-62842600D01*
X68232236Y-62842600D01*
X68234274Y-62842500D01*
X68652071Y-62842500D01*
X68753980Y-62822228D01*
X68777744Y-62817501D01*
X68896127Y-62768465D01*
X68938245Y-62740323D01*
X68938561Y-62740111D01*
X69005208Y-62719138D01*
X69072614Y-62737526D01*
X69095279Y-62755433D01*
X74342297Y-68002541D01*
X74545025Y-68205272D01*
X74545033Y-68205278D01*
X74648767Y-68274591D01*
X74652154Y-68276989D01*
X74657186Y-68278790D01*
X74769956Y-68325501D01*
X74875337Y-68346462D01*
X74875339Y-68346463D01*
X74875340Y-68346463D01*
X74880345Y-68347458D01*
X74895625Y-68350499D01*
X74895631Y-68350500D01*
X75023763Y-68350500D01*
X79334384Y-68350500D01*
X79401423Y-68370185D01*
X79447178Y-68422989D01*
X79457500Y-68459718D01*
X79460122Y-68481561D01*
X79460122Y-68481563D01*
X79460123Y-68481564D01*
X79475073Y-68519475D01*
X79508804Y-68605010D01*
X79515085Y-68674597D01*
X79482748Y-68736533D01*
X79422059Y-68771154D01*
X79393449Y-68774500D01*
X72475098Y-68774500D01*
X72408059Y-68754815D01*
X72387417Y-68738181D01*
X72368717Y-68719481D01*
X72368709Y-68719475D01*
X72231790Y-68640426D01*
X72231786Y-68640424D01*
X72231784Y-68640423D01*
X72079057Y-68599500D01*
X71920943Y-68599500D01*
X71768216Y-68640423D01*
X71768209Y-68640426D01*
X71631290Y-68719475D01*
X71631282Y-68719481D01*
X71519481Y-68831282D01*
X71519475Y-68831290D01*
X71440426Y-68968209D01*
X71440423Y-68968216D01*
X71399500Y-69120943D01*
X71399500Y-69279057D01*
X71423525Y-69368717D01*
X71440423Y-69431783D01*
X71440426Y-69431790D01*
X71519475Y-69568709D01*
X71519479Y-69568714D01*
X71519480Y-69568716D01*
X71631284Y-69680520D01*
X71631286Y-69680521D01*
X71637735Y-69685470D01*
X71635767Y-69688034D01*
X71673535Y-69727670D01*
X71686735Y-69796281D01*
X71660745Y-69861137D01*
X71603817Y-69901647D01*
X71534025Y-69904948D01*
X71524982Y-69902384D01*
X71449409Y-69877829D01*
X71270550Y-69849500D01*
X71270545Y-69849500D01*
X71089453Y-69849500D01*
X71089448Y-69849500D01*
X70910588Y-69877829D01*
X70738362Y-69933787D01*
X70738359Y-69933788D01*
X70577001Y-70016006D01*
X70430504Y-70122441D01*
X70430499Y-70122445D01*
X70302444Y-70250500D01*
X70302440Y-70250505D01*
X70196005Y-70397002D01*
X70113787Y-70558360D01*
X70113786Y-70558363D01*
X70080239Y-70661612D01*
X70040801Y-70719288D01*
X69976443Y-70746486D01*
X69907596Y-70734571D01*
X69856121Y-70687327D01*
X69844377Y-70661612D01*
X69798416Y-70520161D01*
X69712575Y-70351687D01*
X69712575Y-70351686D01*
X69137904Y-70926356D01*
X69105924Y-70807007D01*
X69040098Y-70692993D01*
X68947006Y-70599901D01*
X68832992Y-70534075D01*
X68713641Y-70502094D01*
X69288311Y-69927423D01*
X69288311Y-69927422D01*
X69119839Y-69841583D01*
X69119829Y-69841579D01*
X68932704Y-69780778D01*
X68738381Y-69750000D01*
X68541617Y-69750000D01*
X68347293Y-69780778D01*
X68160168Y-69841579D01*
X68160158Y-69841583D01*
X67991685Y-69927422D01*
X68566357Y-70502094D01*
X68447006Y-70534075D01*
X68332992Y-70599901D01*
X68239900Y-70692993D01*
X68174074Y-70807007D01*
X68142093Y-70926358D01*
X67567421Y-70351686D01*
X67484983Y-70513485D01*
X67437009Y-70564281D01*
X67369188Y-70581077D01*
X67303053Y-70558540D01*
X67259601Y-70503825D01*
X67250498Y-70457191D01*
X67250498Y-70105143D01*
X67250498Y-70105136D01*
X67250070Y-70101447D01*
X67247585Y-70080013D01*
X67247584Y-70080011D01*
X67247584Y-70080009D01*
X67202205Y-69977235D01*
X67122764Y-69897794D01*
X67079466Y-69878676D01*
X67019991Y-69852415D01*
X66994864Y-69849500D01*
X65205142Y-69849500D01*
X65205116Y-69849502D01*
X65180011Y-69852413D01*
X65180007Y-69852415D01*
X65077234Y-69897793D01*
X64997793Y-69977234D01*
X64952414Y-70080006D01*
X64952414Y-70080008D01*
X64949499Y-70105131D01*
X64949499Y-71179192D01*
X64929814Y-71246231D01*
X64913180Y-71266873D01*
X64266873Y-71913181D01*
X64205550Y-71946666D01*
X64179192Y-71949500D01*
X63355610Y-71949500D01*
X63288571Y-71929815D01*
X63242816Y-71877011D01*
X63232872Y-71807853D01*
X63255291Y-71752615D01*
X63296373Y-71696068D01*
X63363996Y-71602994D01*
X63446211Y-71441639D01*
X63502171Y-71269409D01*
X63519827Y-71157935D01*
X63530500Y-71090551D01*
X63530500Y-70909448D01*
X63510390Y-70782483D01*
X63502171Y-70730591D01*
X63453592Y-70581077D01*
X63446212Y-70558363D01*
X63446211Y-70558360D01*
X63394662Y-70457191D01*
X63363996Y-70397006D01*
X63331069Y-70351686D01*
X63257558Y-70250505D01*
X63257554Y-70250500D01*
X63129499Y-70122445D01*
X63129494Y-70122441D01*
X62982997Y-70016006D01*
X62982996Y-70016005D01*
X62982994Y-70016004D01*
X62906906Y-69977235D01*
X62821639Y-69933788D01*
X62817139Y-69931925D01*
X62817819Y-69930282D01*
X62766459Y-69895138D01*
X62755091Y-69878676D01*
X62744965Y-69861137D01*
X62720485Y-69818737D01*
X62641263Y-69739515D01*
X61561263Y-68659515D01*
X61464237Y-68603497D01*
X61356018Y-68574500D01*
X61356017Y-68574500D01*
X57775098Y-68574500D01*
X57708059Y-68554815D01*
X57687417Y-68538181D01*
X57668717Y-68519481D01*
X57668709Y-68519475D01*
X57531790Y-68440426D01*
X57531786Y-68440424D01*
X57531784Y-68440423D01*
X57379057Y-68399500D01*
X57220943Y-68399500D01*
X57068216Y-68440423D01*
X57068209Y-68440426D01*
X56931290Y-68519475D01*
X56931282Y-68519481D01*
X56819481Y-68631282D01*
X56819475Y-68631290D01*
X56740426Y-68768209D01*
X56740423Y-68768216D01*
X56699500Y-68920943D01*
X56699500Y-69079057D01*
X56710724Y-69120943D01*
X56740423Y-69231783D01*
X56740426Y-69231790D01*
X56819475Y-69368709D01*
X56819479Y-69368714D01*
X56819480Y-69368716D01*
X56931284Y-69480520D01*
X56931286Y-69480521D01*
X56931290Y-69480524D01*
X57068209Y-69559573D01*
X57068216Y-69559577D01*
X57220943Y-69600500D01*
X57220945Y-69600500D01*
X57379055Y-69600500D01*
X57379057Y-69600500D01*
X57531784Y-69559577D01*
X57668716Y-69480520D01*
X57687417Y-69461819D01*
X57748740Y-69428334D01*
X57775098Y-69425500D01*
X61072390Y-69425500D01*
X61139429Y-69445185D01*
X61160071Y-69461819D01*
X61638230Y-69939978D01*
X61671715Y-70001301D01*
X61666731Y-70070993D01*
X61633476Y-70118534D01*
X61633944Y-70119002D01*
X61631298Y-70121647D01*
X61631098Y-70121934D01*
X61630507Y-70122438D01*
X61502445Y-70250500D01*
X61502441Y-70250505D01*
X61396006Y-70397002D01*
X61313788Y-70558360D01*
X61313787Y-70558363D01*
X61280240Y-70661612D01*
X61240802Y-70719288D01*
X61176444Y-70746486D01*
X61107597Y-70734571D01*
X61056122Y-70687327D01*
X61044378Y-70661612D01*
X60998417Y-70520161D01*
X60912576Y-70351687D01*
X60912576Y-70351686D01*
X60337905Y-70926356D01*
X60305925Y-70807007D01*
X60240099Y-70692993D01*
X60147007Y-70599901D01*
X60032993Y-70534075D01*
X59913642Y-70502094D01*
X60488312Y-69927423D01*
X60488312Y-69927422D01*
X60319840Y-69841583D01*
X60319830Y-69841579D01*
X60132705Y-69780778D01*
X59938382Y-69750000D01*
X59741618Y-69750000D01*
X59547294Y-69780778D01*
X59360169Y-69841579D01*
X59360159Y-69841583D01*
X59191686Y-69927422D01*
X59766358Y-70502094D01*
X59647007Y-70534075D01*
X59532993Y-70599901D01*
X59439901Y-70692993D01*
X59374075Y-70807007D01*
X59342094Y-70926358D01*
X58767422Y-70351686D01*
X58684984Y-70513485D01*
X58637010Y-70564281D01*
X58569189Y-70581077D01*
X58503054Y-70558540D01*
X58459602Y-70503825D01*
X58450499Y-70457191D01*
X58450499Y-70105143D01*
X58450499Y-70105136D01*
X58450071Y-70101447D01*
X58447586Y-70080013D01*
X58447585Y-70080011D01*
X58447585Y-70080009D01*
X58402206Y-69977235D01*
X58322765Y-69897794D01*
X58279467Y-69878676D01*
X58219992Y-69852415D01*
X58194865Y-69849500D01*
X56405143Y-69849500D01*
X56405117Y-69849502D01*
X56380012Y-69852413D01*
X56380008Y-69852415D01*
X56277235Y-69897793D01*
X56197794Y-69977234D01*
X56152415Y-70080006D01*
X56152415Y-70080008D01*
X56149500Y-70105131D01*
X56149500Y-71110492D01*
X56129815Y-71177531D01*
X56077011Y-71223286D01*
X56007853Y-71233230D01*
X55944297Y-71204205D01*
X55937819Y-71198173D01*
X53336819Y-68597173D01*
X53303334Y-68535850D01*
X53300500Y-68509492D01*
X53300500Y-66499627D01*
X53320185Y-66432588D01*
X53325697Y-66424701D01*
X53384360Y-66347343D01*
X53384359Y-66347343D01*
X53384361Y-66347342D01*
X53439877Y-66206564D01*
X53450500Y-66118102D01*
X53450500Y-65081898D01*
X53439877Y-64993436D01*
X53384361Y-64852658D01*
X53384360Y-64852657D01*
X53384360Y-64852656D01*
X53292922Y-64732077D01*
X53172343Y-64640639D01*
X53076192Y-64602722D01*
X53031564Y-64585123D01*
X53031563Y-64585122D01*
X53031561Y-64585122D01*
X52985926Y-64579642D01*
X52943102Y-64574500D01*
X52356898Y-64574500D01*
X52317853Y-64579188D01*
X52268438Y-64585122D01*
X52127656Y-64640639D01*
X52007077Y-64732077D01*
X51915639Y-64852656D01*
X51860122Y-64993438D01*
X51854188Y-65042853D01*
X51849500Y-65081898D01*
X51849500Y-66118102D01*
X51851069Y-66131165D01*
X51860122Y-66206561D01*
X51915639Y-66347343D01*
X51974303Y-66424701D01*
X51999127Y-66490012D01*
X51999500Y-66499627D01*
X51999500Y-68894369D01*
X51999500Y-68894371D01*
X51999499Y-68894371D01*
X52024497Y-69020038D01*
X52024499Y-69020044D01*
X52073535Y-69138427D01*
X52144723Y-69244969D01*
X52144726Y-69244973D01*
X52144727Y-69244974D01*
X57737573Y-74837819D01*
X57771058Y-74899142D01*
X57766074Y-74968834D01*
X57724202Y-75024767D01*
X57658738Y-75049184D01*
X57649892Y-75049500D01*
X56405143Y-75049500D01*
X56405117Y-75049502D01*
X56380012Y-75052413D01*
X56380008Y-75052415D01*
X56277235Y-75097793D01*
X56197794Y-75177234D01*
X56152415Y-75280006D01*
X56152415Y-75280008D01*
X56149500Y-75305131D01*
X56149500Y-77094856D01*
X56149502Y-77094882D01*
X56152413Y-77119987D01*
X56152415Y-77119991D01*
X56197793Y-77222764D01*
X56197794Y-77222765D01*
X56277235Y-77302206D01*
X56380009Y-77347585D01*
X56405135Y-77350500D01*
X58194864Y-77350499D01*
X58194879Y-77350497D01*
X58194882Y-77350497D01*
X58219987Y-77347586D01*
X58219988Y-77347585D01*
X58219991Y-77347585D01*
X58322765Y-77302206D01*
X58402206Y-77222765D01*
X58447585Y-77119991D01*
X58450500Y-77094865D01*
X58450499Y-76357126D01*
X58470183Y-76290089D01*
X58522987Y-76244334D01*
X58592146Y-76234390D01*
X58655702Y-76263415D01*
X58693476Y-76322193D01*
X58696972Y-76337729D01*
X58717829Y-76469410D01*
X58773787Y-76641636D01*
X58773788Y-76641639D01*
X58856006Y-76802997D01*
X58962441Y-76949494D01*
X58962445Y-76949499D01*
X59090500Y-77077554D01*
X59090505Y-77077558D01*
X59161658Y-77129253D01*
X59237006Y-77183996D01*
X59313094Y-77222765D01*
X59398360Y-77266211D01*
X59398363Y-77266212D01*
X59484476Y-77294191D01*
X59570591Y-77322171D01*
X59653429Y-77335291D01*
X59749449Y-77350500D01*
X59749454Y-77350500D01*
X59930551Y-77350500D01*
X60017259Y-77336765D01*
X60109409Y-77322171D01*
X60281639Y-77266211D01*
X60442994Y-77183996D01*
X60477681Y-77158794D01*
X60518343Y-77129253D01*
X60589494Y-77077558D01*
X60589492Y-77077558D01*
X60589501Y-77077553D01*
X60717553Y-76949501D01*
X60823996Y-76802994D01*
X60906211Y-76641639D01*
X60939759Y-76538388D01*
X60979196Y-76480712D01*
X61043554Y-76453513D01*
X61112401Y-76465427D01*
X61163877Y-76512671D01*
X61175621Y-76538386D01*
X61221580Y-76679833D01*
X61221583Y-76679840D01*
X61307422Y-76848312D01*
X61882093Y-76273640D01*
X61914075Y-76392993D01*
X61979901Y-76507007D01*
X62072993Y-76600099D01*
X62187007Y-76665925D01*
X62306358Y-76697905D01*
X61731686Y-77272576D01*
X61900161Y-77358417D01*
X62087294Y-77419221D01*
X62281618Y-77450000D01*
X62478382Y-77450000D01*
X62672705Y-77419221D01*
X62859835Y-77358418D01*
X63028311Y-77272575D01*
X62453642Y-76697905D01*
X62572993Y-76665925D01*
X62687007Y-76600099D01*
X62780099Y-76507007D01*
X62845925Y-76392993D01*
X62877905Y-76273641D01*
X63452575Y-76848311D01*
X63538418Y-76679835D01*
X63599221Y-76492705D01*
X63630000Y-76298382D01*
X63630000Y-76101617D01*
X63599221Y-75907294D01*
X63538417Y-75720161D01*
X63492017Y-75629094D01*
X63479121Y-75560425D01*
X63505398Y-75495685D01*
X63562504Y-75455428D01*
X63602502Y-75448800D01*
X64825500Y-75448800D01*
X64892539Y-75468485D01*
X64938294Y-75521289D01*
X64949500Y-75572800D01*
X64949500Y-77094856D01*
X64949502Y-77094882D01*
X64952413Y-77119987D01*
X64952415Y-77119991D01*
X64997793Y-77222764D01*
X64997794Y-77222765D01*
X65077235Y-77302206D01*
X65180009Y-77347585D01*
X65205135Y-77350500D01*
X66994864Y-77350499D01*
X66994879Y-77350497D01*
X66994882Y-77350497D01*
X67019987Y-77347586D01*
X67019988Y-77347585D01*
X67019991Y-77347585D01*
X67122765Y-77302206D01*
X67202206Y-77222765D01*
X67247585Y-77119991D01*
X67250500Y-77094865D01*
X67250499Y-76357126D01*
X67270183Y-76290089D01*
X67322987Y-76244334D01*
X67392146Y-76234390D01*
X67455702Y-76263415D01*
X67493476Y-76322193D01*
X67496972Y-76337729D01*
X67517829Y-76469410D01*
X67573787Y-76641636D01*
X67573788Y-76641639D01*
X67656006Y-76802997D01*
X67762441Y-76949494D01*
X67762445Y-76949499D01*
X67890500Y-77077554D01*
X67890505Y-77077558D01*
X67961658Y-77129253D01*
X68037006Y-77183996D01*
X68113094Y-77222765D01*
X68198360Y-77266211D01*
X68198363Y-77266212D01*
X68284476Y-77294191D01*
X68370591Y-77322171D01*
X68453429Y-77335291D01*
X68549449Y-77350500D01*
X68549454Y-77350500D01*
X68730551Y-77350500D01*
X68817259Y-77336765D01*
X68909409Y-77322171D01*
X69081639Y-77266211D01*
X69242994Y-77183996D01*
X69277681Y-77158794D01*
X69318343Y-77129253D01*
X69389494Y-77077558D01*
X69389492Y-77077558D01*
X69389501Y-77077553D01*
X69517553Y-76949501D01*
X69623996Y-76802994D01*
X69706211Y-76641639D01*
X69739759Y-76538388D01*
X69779196Y-76480712D01*
X69843554Y-76453513D01*
X69912401Y-76465427D01*
X69963877Y-76512671D01*
X69975621Y-76538386D01*
X70021580Y-76679833D01*
X70021583Y-76679840D01*
X70107422Y-76848312D01*
X70682093Y-76273640D01*
X70714075Y-76392993D01*
X70779901Y-76507007D01*
X70872993Y-76600099D01*
X70987007Y-76665925D01*
X71106358Y-76697905D01*
X70531686Y-77272576D01*
X70700161Y-77358417D01*
X70887294Y-77419221D01*
X71081618Y-77450000D01*
X71278382Y-77450000D01*
X71472705Y-77419221D01*
X71659835Y-77358418D01*
X71828311Y-77272575D01*
X71253642Y-76697905D01*
X71372993Y-76665925D01*
X71487007Y-76600099D01*
X71580099Y-76507007D01*
X71645925Y-76392993D01*
X71677905Y-76273641D01*
X72252575Y-76848311D01*
X72338418Y-76679835D01*
X72399221Y-76492705D01*
X72430000Y-76298382D01*
X72430000Y-76101617D01*
X72399221Y-75907294D01*
X72338417Y-75720161D01*
X72292017Y-75629094D01*
X72279121Y-75560425D01*
X72305398Y-75495685D01*
X72362504Y-75455428D01*
X72402502Y-75448800D01*
X73625500Y-75448800D01*
X73692539Y-75468485D01*
X73738294Y-75521289D01*
X73749500Y-75572800D01*
X73749500Y-77094856D01*
X73749502Y-77094882D01*
X73752413Y-77119987D01*
X73752415Y-77119991D01*
X73797793Y-77222764D01*
X73797794Y-77222765D01*
X73877235Y-77302206D01*
X73980009Y-77347585D01*
X74005135Y-77350500D01*
X75794864Y-77350499D01*
X75794879Y-77350497D01*
X75794882Y-77350497D01*
X75819987Y-77347586D01*
X75819988Y-77347585D01*
X75819991Y-77347585D01*
X75922765Y-77302206D01*
X76002206Y-77222765D01*
X76047585Y-77119991D01*
X76050500Y-77094865D01*
X76050499Y-76357126D01*
X76070183Y-76290089D01*
X76122987Y-76244334D01*
X76192146Y-76234390D01*
X76255702Y-76263415D01*
X76293476Y-76322193D01*
X76296972Y-76337729D01*
X76317829Y-76469410D01*
X76373787Y-76641636D01*
X76373788Y-76641639D01*
X76456006Y-76802997D01*
X76562441Y-76949494D01*
X76562445Y-76949499D01*
X76690500Y-77077554D01*
X76690505Y-77077558D01*
X76761658Y-77129253D01*
X76837006Y-77183996D01*
X76913094Y-77222765D01*
X76998360Y-77266211D01*
X76998363Y-77266212D01*
X77084476Y-77294191D01*
X77170591Y-77322171D01*
X77253429Y-77335291D01*
X77349449Y-77350500D01*
X77349454Y-77350500D01*
X77530551Y-77350500D01*
X77617259Y-77336765D01*
X77709409Y-77322171D01*
X77881639Y-77266211D01*
X78042994Y-77183996D01*
X78077681Y-77158794D01*
X78118343Y-77129253D01*
X78189494Y-77077558D01*
X78189492Y-77077558D01*
X78189501Y-77077553D01*
X78317553Y-76949501D01*
X78423996Y-76802994D01*
X78506211Y-76641639D01*
X78539759Y-76538388D01*
X78579196Y-76480712D01*
X78643554Y-76453513D01*
X78712401Y-76465427D01*
X78763877Y-76512671D01*
X78775621Y-76538386D01*
X78821580Y-76679833D01*
X78821583Y-76679840D01*
X78907422Y-76848312D01*
X79482093Y-76273640D01*
X79514075Y-76392993D01*
X79579901Y-76507007D01*
X79672993Y-76600099D01*
X79787007Y-76665925D01*
X79906358Y-76697905D01*
X79331686Y-77272576D01*
X79500161Y-77358417D01*
X79687294Y-77419221D01*
X79881618Y-77450000D01*
X80078382Y-77450000D01*
X80272705Y-77419221D01*
X80459835Y-77358418D01*
X80628311Y-77272575D01*
X80053642Y-76697905D01*
X80172993Y-76665925D01*
X80287007Y-76600099D01*
X80380099Y-76507007D01*
X80445925Y-76392993D01*
X80477905Y-76273641D01*
X81052575Y-76848311D01*
X81138418Y-76679835D01*
X81199221Y-76492705D01*
X81230000Y-76298382D01*
X81230000Y-76101617D01*
X81199221Y-75907294D01*
X81138417Y-75720161D01*
X81092017Y-75629094D01*
X81079121Y-75560425D01*
X81105398Y-75495685D01*
X81162504Y-75455428D01*
X81202502Y-75448800D01*
X82425500Y-75448800D01*
X82492539Y-75468485D01*
X82538294Y-75521289D01*
X82549500Y-75572800D01*
X82549500Y-77094856D01*
X82549502Y-77094882D01*
X82552413Y-77119987D01*
X82552415Y-77119991D01*
X82597793Y-77222764D01*
X82597794Y-77222765D01*
X82677235Y-77302206D01*
X82780009Y-77347585D01*
X82805135Y-77350500D01*
X84594864Y-77350499D01*
X84594879Y-77350497D01*
X84594882Y-77350497D01*
X84619987Y-77347586D01*
X84619988Y-77347585D01*
X84619991Y-77347585D01*
X84722765Y-77302206D01*
X84802206Y-77222765D01*
X84847585Y-77119991D01*
X84850500Y-77094865D01*
X84850499Y-76357125D01*
X84870183Y-76290088D01*
X84922987Y-76244333D01*
X84992146Y-76234389D01*
X85055702Y-76263414D01*
X85093476Y-76322192D01*
X85096972Y-76337728D01*
X85117829Y-76469410D01*
X85173787Y-76641636D01*
X85173788Y-76641639D01*
X85256006Y-76802997D01*
X85362441Y-76949494D01*
X85362445Y-76949499D01*
X85490500Y-77077554D01*
X85490505Y-77077558D01*
X85561658Y-77129253D01*
X85637006Y-77183996D01*
X85713094Y-77222765D01*
X85798360Y-77266211D01*
X85798363Y-77266212D01*
X85884476Y-77294191D01*
X85970591Y-77322171D01*
X86053429Y-77335291D01*
X86149449Y-77350500D01*
X86149454Y-77350500D01*
X86330551Y-77350500D01*
X86417259Y-77336765D01*
X86509409Y-77322171D01*
X86681639Y-77266211D01*
X86842994Y-77183996D01*
X86877681Y-77158794D01*
X86918343Y-77129253D01*
X86989494Y-77077558D01*
X86989492Y-77077558D01*
X86989501Y-77077553D01*
X87117553Y-76949501D01*
X87223996Y-76802994D01*
X87306211Y-76641639D01*
X87339759Y-76538388D01*
X87379196Y-76480712D01*
X87443554Y-76453513D01*
X87512401Y-76465427D01*
X87563877Y-76512671D01*
X87575621Y-76538386D01*
X87621580Y-76679833D01*
X87621583Y-76679840D01*
X87707422Y-76848312D01*
X87707423Y-76848312D01*
X88282094Y-76273641D01*
X88314075Y-76392993D01*
X88379901Y-76507007D01*
X88472993Y-76600099D01*
X88587007Y-76665925D01*
X88706358Y-76697905D01*
X88131686Y-77272576D01*
X88300161Y-77358417D01*
X88487294Y-77419221D01*
X88681618Y-77450000D01*
X88878382Y-77450000D01*
X89072705Y-77419221D01*
X89259835Y-77358418D01*
X89428311Y-77272575D01*
X88853642Y-76697905D01*
X88972993Y-76665925D01*
X89087007Y-76600099D01*
X89180099Y-76507007D01*
X89245925Y-76392993D01*
X89277905Y-76273641D01*
X89852575Y-76848311D01*
X89938418Y-76679835D01*
X89999221Y-76492705D01*
X90030000Y-76298382D01*
X90030000Y-76101617D01*
X89999221Y-75907294D01*
X89938417Y-75720161D01*
X89852576Y-75551687D01*
X89852576Y-75551686D01*
X89277905Y-76126357D01*
X89245925Y-76007007D01*
X89180099Y-75892993D01*
X89087007Y-75799901D01*
X88972993Y-75734075D01*
X88853642Y-75702094D01*
X89428312Y-75127423D01*
X89428312Y-75127422D01*
X89259840Y-75041583D01*
X89259830Y-75041579D01*
X89072705Y-74980778D01*
X88878382Y-74950000D01*
X88681618Y-74950000D01*
X88487294Y-74980778D01*
X88300169Y-75041579D01*
X88300159Y-75041583D01*
X88131686Y-75127422D01*
X88706358Y-75702094D01*
X88587007Y-75734075D01*
X88472993Y-75799901D01*
X88379901Y-75892993D01*
X88314075Y-76007007D01*
X88282094Y-76126358D01*
X87707422Y-75551686D01*
X87621583Y-75720159D01*
X87621580Y-75720166D01*
X87575621Y-75861613D01*
X87536183Y-75919288D01*
X87471824Y-75946486D01*
X87402978Y-75934571D01*
X87351502Y-75887327D01*
X87339759Y-75861611D01*
X87306213Y-75758366D01*
X87306211Y-75758360D01*
X87276474Y-75700000D01*
X87223996Y-75597006D01*
X87197419Y-75560426D01*
X87117558Y-75450505D01*
X87117554Y-75450500D01*
X86989501Y-75322447D01*
X86965667Y-75305131D01*
X86918340Y-75270746D01*
X86918339Y-75270744D01*
X86842997Y-75216006D01*
X86842996Y-75216005D01*
X86842994Y-75216004D01*
X86766906Y-75177235D01*
X86681639Y-75133788D01*
X86681636Y-75133787D01*
X86509410Y-75077829D01*
X86330551Y-75049500D01*
X86330546Y-75049500D01*
X86149454Y-75049500D01*
X86149449Y-75049500D01*
X86090991Y-75058759D01*
X86021698Y-75049805D01*
X85983912Y-75023967D01*
X85252974Y-74293027D01*
X85252973Y-74293026D01*
X85252969Y-74293023D01*
X85146427Y-74221835D01*
X85139090Y-74218796D01*
X85028044Y-74172799D01*
X85028038Y-74172797D01*
X84902371Y-74147800D01*
X84902369Y-74147800D01*
X77504069Y-74147800D01*
X68704069Y-74147800D01*
X59904069Y-74147800D01*
X58938808Y-74147800D01*
X58871769Y-74128115D01*
X58851127Y-74111481D01*
X57101826Y-72362180D01*
X57068341Y-72300857D01*
X57073325Y-72231165D01*
X57115197Y-72175232D01*
X57180661Y-72150815D01*
X57189507Y-72150499D01*
X57479191Y-72150499D01*
X57546230Y-72170184D01*
X57566872Y-72186818D01*
X58485325Y-73105272D01*
X58485332Y-73105278D01*
X58556794Y-73153027D01*
X58556795Y-73153027D01*
X58591873Y-73176465D01*
X58710256Y-73225501D01*
X58710260Y-73225501D01*
X58710261Y-73225502D01*
X58835928Y-73250500D01*
X58835931Y-73250500D01*
X64564071Y-73250500D01*
X64648615Y-73233682D01*
X64689744Y-73225501D01*
X64808127Y-73176465D01*
X64914669Y-73105276D01*
X65005276Y-73014669D01*
X65833126Y-72186817D01*
X65894449Y-72153333D01*
X65920807Y-72150499D01*
X66279191Y-72150499D01*
X66346230Y-72170184D01*
X66366872Y-72186818D01*
X67194724Y-73014669D01*
X67261010Y-73080955D01*
X67285332Y-73105277D01*
X67391866Y-73176461D01*
X67391872Y-73176464D01*
X67391873Y-73176465D01*
X67510256Y-73225501D01*
X67510260Y-73225501D01*
X67510261Y-73225502D01*
X67635928Y-73250500D01*
X67635931Y-73250500D01*
X73364071Y-73250500D01*
X73448615Y-73233682D01*
X73489744Y-73225501D01*
X73608127Y-73176465D01*
X73643205Y-73153027D01*
X73643206Y-73153027D01*
X73711149Y-73107629D01*
X73714669Y-73105277D01*
X74633127Y-72186817D01*
X74694450Y-72153333D01*
X74720808Y-72150499D01*
X75794856Y-72150499D01*
X75794864Y-72150499D01*
X75794879Y-72150497D01*
X75794882Y-72150497D01*
X75819987Y-72147586D01*
X75819988Y-72147585D01*
X75819991Y-72147585D01*
X75922765Y-72102206D01*
X76002206Y-72022765D01*
X76047585Y-71919991D01*
X76050500Y-71894865D01*
X76050499Y-71542806D01*
X76070183Y-71475770D01*
X76122987Y-71430015D01*
X76192146Y-71420071D01*
X76255701Y-71449096D01*
X76284984Y-71486515D01*
X76367422Y-71648312D01*
X76367423Y-71648312D01*
X76942094Y-71073641D01*
X76974075Y-71192993D01*
X77039901Y-71307007D01*
X77132993Y-71400099D01*
X77247007Y-71465925D01*
X77366358Y-71497905D01*
X76791686Y-72072576D01*
X76960161Y-72158417D01*
X77147294Y-72219221D01*
X77341618Y-72250000D01*
X77538382Y-72250000D01*
X77732705Y-72219221D01*
X77919835Y-72158418D01*
X78088311Y-72072575D01*
X77513642Y-71497905D01*
X77632993Y-71465925D01*
X77747007Y-71400099D01*
X77840099Y-71307007D01*
X77905925Y-71192993D01*
X77937905Y-71073641D01*
X78512575Y-71648311D01*
X78598418Y-71479835D01*
X78644378Y-71338387D01*
X78683815Y-71280712D01*
X78748174Y-71253513D01*
X78817020Y-71265428D01*
X78868496Y-71312672D01*
X78880240Y-71338387D01*
X78913787Y-71441636D01*
X78913788Y-71441639D01*
X78965338Y-71542809D01*
X78996003Y-71602993D01*
X78996006Y-71602997D01*
X79102441Y-71749494D01*
X79102445Y-71749499D01*
X79230500Y-71877554D01*
X79230505Y-71877558D01*
X79309802Y-71935170D01*
X79377006Y-71983996D01*
X79453094Y-72022765D01*
X79538360Y-72066211D01*
X79538363Y-72066212D01*
X79624476Y-72094191D01*
X79710591Y-72122171D01*
X79793429Y-72135291D01*
X79889449Y-72150500D01*
X79889454Y-72150500D01*
X80070551Y-72150500D01*
X80157259Y-72136765D01*
X80249409Y-72122171D01*
X80421639Y-72066211D01*
X80582994Y-71983996D01*
X80729501Y-71877553D01*
X80857553Y-71749501D01*
X80963996Y-71602994D01*
X81046211Y-71441639D01*
X81102171Y-71269409D01*
X81119827Y-71157935D01*
X81127527Y-71109321D01*
X81157456Y-71046186D01*
X81216768Y-71009255D01*
X81286630Y-71010253D01*
X81344863Y-71048863D01*
X81372473Y-71109321D01*
X81397829Y-71269410D01*
X81453787Y-71441636D01*
X81453788Y-71441639D01*
X81505338Y-71542809D01*
X81536003Y-71602993D01*
X81536006Y-71602997D01*
X81642441Y-71749494D01*
X81642445Y-71749499D01*
X81770500Y-71877554D01*
X81770505Y-71877558D01*
X81849802Y-71935170D01*
X81917006Y-71983996D01*
X81993094Y-72022765D01*
X82078360Y-72066211D01*
X82078363Y-72066212D01*
X82164476Y-72094191D01*
X82250591Y-72122171D01*
X82333429Y-72135291D01*
X82429449Y-72150500D01*
X82429454Y-72150500D01*
X82610551Y-72150500D01*
X82697259Y-72136765D01*
X82789409Y-72122171D01*
X82961639Y-72066211D01*
X83122994Y-71983996D01*
X83269501Y-71877553D01*
X83397553Y-71749501D01*
X83503996Y-71602994D01*
X83586211Y-71441639D01*
X83642171Y-71269409D01*
X83659827Y-71157935D01*
X83670500Y-71090551D01*
X83670500Y-70909448D01*
X83650390Y-70782483D01*
X83642171Y-70730591D01*
X83593592Y-70581077D01*
X83586212Y-70558363D01*
X83586211Y-70558360D01*
X83534662Y-70457191D01*
X83503996Y-70397006D01*
X83471069Y-70351686D01*
X83397558Y-70250505D01*
X83397554Y-70250500D01*
X83269499Y-70122445D01*
X83269494Y-70122441D01*
X83122997Y-70016006D01*
X83122996Y-70016005D01*
X83122994Y-70016004D01*
X83017803Y-69962406D01*
X82982769Y-69944555D01*
X82931973Y-69896580D01*
X82919289Y-69866161D01*
X82917634Y-69859985D01*
X82916503Y-69855763D01*
X82860485Y-69758737D01*
X82781263Y-69679515D01*
X81961263Y-68859515D01*
X81864237Y-68803497D01*
X81756018Y-68774500D01*
X81756017Y-68774500D01*
X81256551Y-68774500D01*
X81189512Y-68754815D01*
X81143757Y-68702011D01*
X81133813Y-68632853D01*
X81141196Y-68605010D01*
X81150740Y-68580807D01*
X81189877Y-68481564D01*
X81200500Y-68393102D01*
X81200500Y-67795808D01*
X81220185Y-67728769D01*
X81236819Y-67708127D01*
X82024127Y-66920819D01*
X82085450Y-66887334D01*
X82111808Y-66884500D01*
X83598292Y-66884500D01*
X83665331Y-66904185D01*
X83685973Y-66920819D01*
X84632425Y-67867272D01*
X84632432Y-67867278D01*
X84728642Y-67931563D01*
X84728643Y-67931563D01*
X84732102Y-67933874D01*
X84738973Y-67938465D01*
X84857356Y-67987501D01*
X84857360Y-67987501D01*
X84857361Y-67987502D01*
X84983028Y-68012500D01*
X84983031Y-68012500D01*
X85465500Y-68012500D01*
X85532539Y-68032185D01*
X85578294Y-68084989D01*
X85589500Y-68136500D01*
X85589500Y-69725500D01*
X85569815Y-69792539D01*
X85517011Y-69838294D01*
X85465501Y-69849500D01*
X85345142Y-69849500D01*
X85345119Y-69849502D01*
X85320011Y-69852414D01*
X85320008Y-69852415D01*
X85217235Y-69897793D01*
X85137794Y-69977234D01*
X85092415Y-70080006D01*
X85092415Y-70080008D01*
X85089500Y-70105131D01*
X85089500Y-71894856D01*
X85089502Y-71894882D01*
X85092413Y-71919987D01*
X85092415Y-71919991D01*
X85137793Y-72022764D01*
X85137794Y-72022765D01*
X85217235Y-72102206D01*
X85320009Y-72147585D01*
X85345135Y-72150500D01*
X87134864Y-72150499D01*
X87134879Y-72150497D01*
X87134882Y-72150497D01*
X87159987Y-72147586D01*
X87159988Y-72147585D01*
X87159991Y-72147585D01*
X87262765Y-72102206D01*
X87342206Y-72022765D01*
X87387585Y-71919991D01*
X87390500Y-71894865D01*
X87390499Y-71157125D01*
X87410183Y-71090089D01*
X87462987Y-71044334D01*
X87532146Y-71034390D01*
X87595702Y-71063415D01*
X87633476Y-71122193D01*
X87636972Y-71137729D01*
X87657829Y-71269410D01*
X87713787Y-71441636D01*
X87713788Y-71441639D01*
X87765338Y-71542809D01*
X87796003Y-71602993D01*
X87796006Y-71602997D01*
X87902441Y-71749494D01*
X87902445Y-71749499D01*
X88030500Y-71877554D01*
X88030505Y-71877558D01*
X88109802Y-71935170D01*
X88177006Y-71983996D01*
X88253094Y-72022765D01*
X88338360Y-72066211D01*
X88338363Y-72066212D01*
X88424476Y-72094191D01*
X88510591Y-72122171D01*
X88593429Y-72135291D01*
X88689449Y-72150500D01*
X88689454Y-72150500D01*
X88870551Y-72150500D01*
X88957259Y-72136765D01*
X89049409Y-72122171D01*
X89221639Y-72066211D01*
X89382994Y-71983996D01*
X89529501Y-71877553D01*
X89657553Y-71749501D01*
X89763996Y-71602994D01*
X89846211Y-71441639D01*
X89902171Y-71269409D01*
X89919827Y-71157935D01*
X89927527Y-71109321D01*
X89957456Y-71046186D01*
X90016768Y-71009255D01*
X90086630Y-71010253D01*
X90144863Y-71048863D01*
X90172473Y-71109321D01*
X90197829Y-71269410D01*
X90253787Y-71441636D01*
X90253788Y-71441639D01*
X90305338Y-71542809D01*
X90336003Y-71602993D01*
X90336006Y-71602997D01*
X90442441Y-71749494D01*
X90442445Y-71749499D01*
X90570500Y-71877554D01*
X90570505Y-71877558D01*
X90649802Y-71935170D01*
X90717006Y-71983996D01*
X90793094Y-72022765D01*
X90878360Y-72066211D01*
X90878366Y-72066213D01*
X90988817Y-72102100D01*
X91046493Y-72141537D01*
X91073692Y-72205895D01*
X91074500Y-72220031D01*
X91074500Y-72810858D01*
X91054815Y-72877897D01*
X91002011Y-72923652D01*
X90993847Y-72927034D01*
X90982669Y-72931204D01*
X90982664Y-72931206D01*
X90867455Y-73017452D01*
X90867452Y-73017455D01*
X90781206Y-73132664D01*
X90781202Y-73132671D01*
X90730910Y-73267513D01*
X90730909Y-73267517D01*
X90724500Y-73327127D01*
X90724500Y-73327134D01*
X90724500Y-73327135D01*
X90724500Y-73822870D01*
X90724501Y-73822876D01*
X90730908Y-73882483D01*
X90781202Y-74017328D01*
X90781206Y-74017335D01*
X90867452Y-74132544D01*
X90867455Y-74132547D01*
X90982664Y-74218793D01*
X90982671Y-74218797D01*
X91027618Y-74235561D01*
X91117517Y-74269091D01*
X91177127Y-74275500D01*
X91680147Y-74275499D01*
X91747186Y-74295183D01*
X91792941Y-74347987D01*
X91802885Y-74417146D01*
X91773860Y-74480702D01*
X91755001Y-74498357D01*
X91753679Y-74499358D01*
X91688349Y-74524134D01*
X91678825Y-74524500D01*
X91177129Y-74524500D01*
X91177123Y-74524501D01*
X91117516Y-74530908D01*
X90982671Y-74581202D01*
X90982664Y-74581206D01*
X90867455Y-74667452D01*
X90867452Y-74667455D01*
X90781206Y-74782664D01*
X90781202Y-74782671D01*
X90744706Y-74880524D01*
X90730909Y-74917517D01*
X90724500Y-74977127D01*
X90724500Y-74977134D01*
X90724500Y-74977135D01*
X90724500Y-75472870D01*
X90724501Y-75472876D01*
X90730908Y-75532483D01*
X90781202Y-75667328D01*
X90781206Y-75667335D01*
X90867452Y-75782544D01*
X90867455Y-75782547D01*
X90982664Y-75868793D01*
X90982671Y-75868797D01*
X91027618Y-75885561D01*
X91117517Y-75919091D01*
X91177127Y-75925500D01*
X91822872Y-75925499D01*
X91882483Y-75919091D01*
X92017331Y-75868796D01*
X92132546Y-75782546D01*
X92218796Y-75667331D01*
X92269091Y-75532483D01*
X92275500Y-75472873D01*
X92275499Y-75233335D01*
X92295183Y-75166296D01*
X92324665Y-75134462D01*
X92333967Y-75127422D01*
X92433067Y-75052415D01*
X92468460Y-75025627D01*
X92533794Y-75000864D01*
X92543294Y-75000500D01*
X92669055Y-75000500D01*
X92669057Y-75000500D01*
X92821784Y-74959577D01*
X92958716Y-74880520D01*
X93070520Y-74768716D01*
X93149577Y-74631784D01*
X93165773Y-74571338D01*
X93202136Y-74511677D01*
X93217993Y-74499446D01*
X93462707Y-74340479D01*
X93531928Y-74295513D01*
X93598871Y-74275500D01*
X93599478Y-74275499D01*
X94182871Y-74275499D01*
X94182872Y-74275499D01*
X94242483Y-74269091D01*
X94377331Y-74218796D01*
X94492546Y-74132546D01*
X94578796Y-74017331D01*
X94629091Y-73882483D01*
X94635500Y-73822873D01*
X94635499Y-73327128D01*
X94629091Y-73267517D01*
X94613420Y-73225502D01*
X94578797Y-73132671D01*
X94578793Y-73132664D01*
X94492547Y-73017455D01*
X94492544Y-73017452D01*
X94377335Y-72931206D01*
X94377328Y-72931202D01*
X94242486Y-72880910D01*
X94242485Y-72880909D01*
X94242483Y-72880909D01*
X94182873Y-72874500D01*
X94182863Y-72874500D01*
X93537129Y-72874500D01*
X93537123Y-72874501D01*
X93477516Y-72880908D01*
X93342671Y-72931202D01*
X93342664Y-72931206D01*
X93227455Y-73017452D01*
X93227452Y-73017455D01*
X93141206Y-73132664D01*
X93141202Y-73132671D01*
X93090908Y-73267517D01*
X93084501Y-73327116D01*
X93084501Y-73327123D01*
X93084500Y-73327135D01*
X93084500Y-73504056D01*
X93064815Y-73571095D01*
X93028050Y-73608042D01*
X92760860Y-73781610D01*
X92693917Y-73801623D01*
X92677185Y-73800007D01*
X92677113Y-73800561D01*
X92669058Y-73799500D01*
X92669057Y-73799500D01*
X92510943Y-73799500D01*
X92431592Y-73820762D01*
X92361742Y-73819099D01*
X92303880Y-73779936D01*
X92276376Y-73715708D01*
X92275499Y-73700999D01*
X92275499Y-73327128D01*
X92269091Y-73267517D01*
X92253420Y-73225502D01*
X92218797Y-73132671D01*
X92218793Y-73132664D01*
X92132547Y-73017455D01*
X92132544Y-73017452D01*
X92017335Y-72931206D01*
X92017332Y-72931205D01*
X92017331Y-72931204D01*
X92006161Y-72927038D01*
X91950231Y-72885166D01*
X91925816Y-72819701D01*
X91925500Y-72810858D01*
X91925500Y-72045356D01*
X91927041Y-72040106D01*
X91925955Y-72034743D01*
X91936781Y-72006937D01*
X91945185Y-71978317D01*
X91949845Y-71973382D01*
X91951305Y-71969634D01*
X91976616Y-71945037D01*
X91998343Y-71929252D01*
X92069497Y-71877556D01*
X92069497Y-71877555D01*
X92069501Y-71877553D01*
X92197553Y-71749501D01*
X92303996Y-71602994D01*
X92386211Y-71441639D01*
X92393219Y-71420071D01*
X92419759Y-71338388D01*
X92459196Y-71280712D01*
X92523554Y-71253513D01*
X92592401Y-71265427D01*
X92643877Y-71312671D01*
X92655621Y-71338386D01*
X92701580Y-71479833D01*
X92701583Y-71479840D01*
X92787422Y-71648312D01*
X92787423Y-71648312D01*
X93362094Y-71073641D01*
X93394075Y-71192993D01*
X93459901Y-71307007D01*
X93552993Y-71400099D01*
X93667007Y-71465925D01*
X93786358Y-71497905D01*
X93211686Y-72072576D01*
X93380161Y-72158417D01*
X93567294Y-72219221D01*
X93761618Y-72250000D01*
X93958382Y-72250000D01*
X94152705Y-72219221D01*
X94339835Y-72158418D01*
X94508311Y-72072575D01*
X93933642Y-71497905D01*
X94052993Y-71465925D01*
X94167007Y-71400099D01*
X94260099Y-71307007D01*
X94325925Y-71192993D01*
X94357905Y-71073641D01*
X94932575Y-71648311D01*
X95018418Y-71479835D01*
X95079221Y-71292705D01*
X95110000Y-71098382D01*
X95110000Y-70901617D01*
X95079221Y-70707294D01*
X95018417Y-70520161D01*
X94932576Y-70351687D01*
X94932576Y-70351686D01*
X94357905Y-70926357D01*
X94325925Y-70807007D01*
X94260099Y-70692993D01*
X94167007Y-70599901D01*
X94052993Y-70534075D01*
X93933642Y-70502094D01*
X94508312Y-69927423D01*
X94508312Y-69927422D01*
X94339840Y-69841583D01*
X94339830Y-69841579D01*
X94152705Y-69780778D01*
X93958382Y-69750000D01*
X93761618Y-69750000D01*
X93567294Y-69780778D01*
X93380169Y-69841579D01*
X93380159Y-69841583D01*
X93211686Y-69927422D01*
X93786358Y-70502094D01*
X93667007Y-70534075D01*
X93552993Y-70599901D01*
X93459901Y-70692993D01*
X93394075Y-70807007D01*
X93362094Y-70926358D01*
X92787422Y-70351686D01*
X92701583Y-70520159D01*
X92701580Y-70520166D01*
X92655621Y-70661613D01*
X92616183Y-70719288D01*
X92551824Y-70746486D01*
X92482978Y-70734571D01*
X92431502Y-70687327D01*
X92419759Y-70661611D01*
X92386213Y-70558366D01*
X92386211Y-70558360D01*
X92334662Y-70457191D01*
X92303996Y-70397006D01*
X92271069Y-70351686D01*
X92197558Y-70250505D01*
X92197554Y-70250500D01*
X92069501Y-70122447D01*
X92011095Y-70080013D01*
X91998340Y-70070746D01*
X91998339Y-70070744D01*
X91922997Y-70016006D01*
X91922996Y-70016005D01*
X91922994Y-70016004D01*
X91846906Y-69977235D01*
X91761639Y-69933788D01*
X91761636Y-69933787D01*
X91589410Y-69877829D01*
X91410551Y-69849500D01*
X91410546Y-69849500D01*
X91229454Y-69849500D01*
X91229449Y-69849500D01*
X91050589Y-69877829D01*
X90878363Y-69933787D01*
X90878360Y-69933788D01*
X90717002Y-70016006D01*
X90570505Y-70122441D01*
X90570500Y-70122445D01*
X90442445Y-70250500D01*
X90442441Y-70250505D01*
X90336006Y-70397002D01*
X90253788Y-70558360D01*
X90253787Y-70558363D01*
X90197829Y-70730589D01*
X90172473Y-70890678D01*
X90142544Y-70953813D01*
X90083232Y-70990744D01*
X90013369Y-70989746D01*
X89955137Y-70951136D01*
X89927527Y-70890678D01*
X89910390Y-70782483D01*
X89902171Y-70730591D01*
X89853592Y-70581077D01*
X89846212Y-70558363D01*
X89846211Y-70558360D01*
X89794662Y-70457191D01*
X89763996Y-70397006D01*
X89731069Y-70351686D01*
X89657558Y-70250505D01*
X89657554Y-70250500D01*
X89529499Y-70122445D01*
X89529494Y-70122441D01*
X89382997Y-70016006D01*
X89382996Y-70016005D01*
X89382994Y-70016004D01*
X89306906Y-69977235D01*
X89221639Y-69933788D01*
X89221636Y-69933787D01*
X89049410Y-69877829D01*
X88870551Y-69849500D01*
X88870546Y-69849500D01*
X88689454Y-69849500D01*
X88689449Y-69849500D01*
X88510589Y-69877829D01*
X88338363Y-69933787D01*
X88338360Y-69933788D01*
X88177002Y-70016006D01*
X88030505Y-70122441D01*
X88030500Y-70122445D01*
X87902445Y-70250500D01*
X87902441Y-70250505D01*
X87796006Y-70397002D01*
X87713788Y-70558360D01*
X87713787Y-70558363D01*
X87657829Y-70730589D01*
X87636972Y-70862271D01*
X87607042Y-70925405D01*
X87547731Y-70962336D01*
X87477868Y-70961338D01*
X87419636Y-70922728D01*
X87391522Y-70858764D01*
X87390499Y-70842872D01*
X87390499Y-70105143D01*
X87390499Y-70105136D01*
X87390071Y-70101447D01*
X87387586Y-70080012D01*
X87387585Y-70080010D01*
X87387585Y-70080009D01*
X87342206Y-69977235D01*
X87262765Y-69897794D01*
X87219467Y-69878676D01*
X87159992Y-69852415D01*
X87134868Y-69849500D01*
X87134865Y-69849500D01*
X87014500Y-69849500D01*
X86947461Y-69829815D01*
X86901706Y-69777011D01*
X86890500Y-69725500D01*
X86890500Y-68136500D01*
X86910185Y-68069461D01*
X86962989Y-68023706D01*
X87014500Y-68012500D01*
X88001073Y-68012500D01*
X88007136Y-68011903D01*
X88007154Y-68012094D01*
X88023338Y-68010500D01*
X95379192Y-68010500D01*
X95446231Y-68030185D01*
X95466873Y-68046819D01*
X95913181Y-68493126D01*
X95946666Y-68554449D01*
X95949500Y-68580807D01*
X95949500Y-69900165D01*
X95929815Y-69967204D01*
X95924767Y-69974476D01*
X95881204Y-70032668D01*
X95881202Y-70032671D01*
X95847718Y-70122449D01*
X95830909Y-70167517D01*
X95824500Y-70227127D01*
X95824500Y-70227134D01*
X95824500Y-70227135D01*
X95824500Y-70722870D01*
X95824501Y-70722876D01*
X95830908Y-70782483D01*
X95881202Y-70917328D01*
X95881206Y-70917335D01*
X95967452Y-71032544D01*
X95967455Y-71032547D01*
X96082664Y-71118793D01*
X96082671Y-71118797D01*
X96127618Y-71135561D01*
X96217517Y-71169091D01*
X96277127Y-71175500D01*
X96922872Y-71175499D01*
X96982483Y-71169091D01*
X97117331Y-71118796D01*
X97232546Y-71032546D01*
X97276234Y-70974186D01*
X97332167Y-70932316D01*
X97401859Y-70927332D01*
X97463182Y-70960817D01*
X97496666Y-71022141D01*
X97499500Y-71048498D01*
X97499500Y-71551501D01*
X97479815Y-71618540D01*
X97427011Y-71664295D01*
X97357853Y-71674239D01*
X97294297Y-71645214D01*
X97276234Y-71625813D01*
X97256175Y-71599019D01*
X97232546Y-71567454D01*
X97232544Y-71567453D01*
X97232544Y-71567452D01*
X97117335Y-71481206D01*
X97117328Y-71481202D01*
X96982486Y-71430910D01*
X96982485Y-71430909D01*
X96982483Y-71430909D01*
X96922873Y-71424500D01*
X96922863Y-71424500D01*
X96277129Y-71424500D01*
X96277123Y-71424501D01*
X96217516Y-71430908D01*
X96082671Y-71481202D01*
X96082664Y-71481206D01*
X95967455Y-71567452D01*
X95967452Y-71567455D01*
X95881206Y-71682664D01*
X95881202Y-71682671D01*
X95834513Y-71807853D01*
X95830909Y-71817517D01*
X95824500Y-71877127D01*
X95824500Y-71877134D01*
X95824500Y-71877135D01*
X95824500Y-72372870D01*
X95824501Y-72372876D01*
X95830908Y-72432483D01*
X95881202Y-72567328D01*
X95881206Y-72567335D01*
X95967452Y-72682544D01*
X95967453Y-72682544D01*
X95967454Y-72682546D01*
X95988763Y-72698498D01*
X96064577Y-72755253D01*
X96106447Y-72811187D01*
X96111431Y-72880879D01*
X96077945Y-72942201D01*
X96065191Y-72953323D01*
X95973131Y-73023134D01*
X95886886Y-73136865D01*
X95834520Y-73269655D01*
X95834520Y-73269656D01*
X95824500Y-73353097D01*
X95824500Y-73871902D01*
X95834520Y-73955343D01*
X95834520Y-73955344D01*
X95886886Y-74088134D01*
X95973132Y-74201867D01*
X96086865Y-74288113D01*
X96086868Y-74288115D01*
X96219654Y-74340479D01*
X96303098Y-74350500D01*
X96896902Y-74350500D01*
X96980346Y-74340479D01*
X97113132Y-74288115D01*
X97226867Y-74201867D01*
X97248910Y-74172799D01*
X97276696Y-74136158D01*
X97332888Y-74094635D01*
X97402610Y-74090083D01*
X97463724Y-74123948D01*
X97496827Y-74185477D01*
X97499500Y-74211083D01*
X97499500Y-80995572D01*
X97499184Y-81004419D01*
X97484869Y-81204557D01*
X97482351Y-81222068D01*
X97440645Y-81413790D01*
X97435661Y-81430765D01*
X97367093Y-81614605D01*
X97359743Y-81630699D01*
X97265709Y-81802908D01*
X97256144Y-81817791D01*
X97138561Y-81974864D01*
X97126975Y-81988235D01*
X96988235Y-82126975D01*
X96974864Y-82138561D01*
X96817791Y-82256144D01*
X96802908Y-82265709D01*
X96630699Y-82359743D01*
X96614605Y-82367093D01*
X96430765Y-82435661D01*
X96413790Y-82440645D01*
X96222068Y-82482351D01*
X96204557Y-82484869D01*
X96023779Y-82497799D01*
X96004417Y-82499184D01*
X95995572Y-82499500D01*
X52004428Y-82499500D01*
X51995582Y-82499184D01*
X51973622Y-82497613D01*
X51795442Y-82484869D01*
X51777931Y-82482351D01*
X51586209Y-82440645D01*
X51569234Y-82435661D01*
X51385394Y-82367093D01*
X51369300Y-82359743D01*
X51197091Y-82265709D01*
X51182208Y-82256144D01*
X51025135Y-82138561D01*
X51011764Y-82126975D01*
X50873024Y-81988235D01*
X50861438Y-81974864D01*
X50743855Y-81817791D01*
X50734290Y-81802908D01*
X50640256Y-81630699D01*
X50632909Y-81614611D01*
X50564336Y-81430760D01*
X50559354Y-81413790D01*
X50545586Y-81350500D01*
X50517647Y-81222063D01*
X50515130Y-81204556D01*
X50500816Y-81004418D01*
X50500500Y-80995572D01*
X50500500Y-79378711D01*
X50849500Y-79378711D01*
X50849500Y-79621288D01*
X50881161Y-79861785D01*
X50943947Y-80096104D01*
X51036773Y-80320205D01*
X51036776Y-80320212D01*
X51158064Y-80530289D01*
X51158066Y-80530292D01*
X51158067Y-80530293D01*
X51305733Y-80722736D01*
X51305739Y-80722743D01*
X51477256Y-80894260D01*
X51477263Y-80894266D01*
X51590321Y-80981018D01*
X51669711Y-81041936D01*
X51879788Y-81163224D01*
X52103900Y-81256054D01*
X52338211Y-81318838D01*
X52518586Y-81342584D01*
X52578711Y-81350500D01*
X52578712Y-81350500D01*
X52821289Y-81350500D01*
X52869388Y-81344167D01*
X53061789Y-81318838D01*
X53296100Y-81256054D01*
X53520212Y-81163224D01*
X53730289Y-81041936D01*
X53922738Y-80894265D01*
X54094265Y-80722738D01*
X54241936Y-80530289D01*
X54363224Y-80320212D01*
X54456054Y-80096100D01*
X54518838Y-79861789D01*
X54550500Y-79621288D01*
X54550500Y-79378712D01*
X54550500Y-79378711D01*
X93449500Y-79378711D01*
X93449500Y-79621288D01*
X93481161Y-79861785D01*
X93543947Y-80096104D01*
X93636773Y-80320205D01*
X93636776Y-80320212D01*
X93758064Y-80530289D01*
X93758066Y-80530292D01*
X93758067Y-80530293D01*
X93905733Y-80722736D01*
X93905739Y-80722743D01*
X94077256Y-80894260D01*
X94077263Y-80894266D01*
X94190321Y-80981018D01*
X94269711Y-81041936D01*
X94479788Y-81163224D01*
X94703900Y-81256054D01*
X94938211Y-81318838D01*
X95118586Y-81342584D01*
X95178711Y-81350500D01*
X95178712Y-81350500D01*
X95421289Y-81350500D01*
X95469388Y-81344167D01*
X95661789Y-81318838D01*
X95896100Y-81256054D01*
X96120212Y-81163224D01*
X96330289Y-81041936D01*
X96522738Y-80894265D01*
X96694265Y-80722738D01*
X96841936Y-80530289D01*
X96963224Y-80320212D01*
X97056054Y-80096100D01*
X97118838Y-79861789D01*
X97150500Y-79621288D01*
X97150500Y-79378712D01*
X97118838Y-79138211D01*
X97056054Y-78903900D01*
X96963224Y-78679788D01*
X96841936Y-78469711D01*
X96694265Y-78277262D01*
X96694260Y-78277256D01*
X96522743Y-78105739D01*
X96522736Y-78105733D01*
X96330293Y-77958067D01*
X96330292Y-77958066D01*
X96330289Y-77958064D01*
X96120212Y-77836776D01*
X96120205Y-77836773D01*
X95896104Y-77743947D01*
X95661785Y-77681161D01*
X95421289Y-77649500D01*
X95421288Y-77649500D01*
X95178712Y-77649500D01*
X95178711Y-77649500D01*
X94938214Y-77681161D01*
X94703895Y-77743947D01*
X94479794Y-77836773D01*
X94479785Y-77836777D01*
X94269706Y-77958067D01*
X94077263Y-78105733D01*
X94077256Y-78105739D01*
X93905739Y-78277256D01*
X93905733Y-78277263D01*
X93758067Y-78469706D01*
X93636777Y-78679785D01*
X93636773Y-78679794D01*
X93543947Y-78903895D01*
X93481161Y-79138214D01*
X93449500Y-79378711D01*
X54550500Y-79378711D01*
X54518838Y-79138211D01*
X54456054Y-78903900D01*
X54363224Y-78679788D01*
X54241936Y-78469711D01*
X54094265Y-78277262D01*
X54094260Y-78277256D01*
X53922743Y-78105739D01*
X53922736Y-78105733D01*
X53730293Y-77958067D01*
X53730292Y-77958066D01*
X53730289Y-77958064D01*
X53520212Y-77836776D01*
X53520205Y-77836773D01*
X53296104Y-77743947D01*
X53061785Y-77681161D01*
X52821289Y-77649500D01*
X52821288Y-77649500D01*
X52578712Y-77649500D01*
X52578711Y-77649500D01*
X52338214Y-77681161D01*
X52103895Y-77743947D01*
X51879794Y-77836773D01*
X51879785Y-77836777D01*
X51669706Y-77958067D01*
X51477263Y-78105733D01*
X51477256Y-78105739D01*
X51305739Y-78277256D01*
X51305733Y-78277263D01*
X51158067Y-78469706D01*
X51036777Y-78679785D01*
X51036773Y-78679794D01*
X50943947Y-78903895D01*
X50881161Y-79138214D01*
X50849500Y-79378711D01*
X50500500Y-79378711D01*
X50500500Y-52578711D01*
X50849500Y-52578711D01*
X50849500Y-52821288D01*
X50881161Y-53061785D01*
X50943947Y-53296104D01*
X50993924Y-53416759D01*
X51036776Y-53520212D01*
X51158064Y-53730289D01*
X51158066Y-53730292D01*
X51158067Y-53730293D01*
X51305733Y-53922736D01*
X51305739Y-53922743D01*
X51477256Y-54094260D01*
X51477263Y-54094266D01*
X51533550Y-54137456D01*
X51669711Y-54241936D01*
X51879788Y-54363224D01*
X52103900Y-54456054D01*
X52338211Y-54518838D01*
X52507941Y-54541183D01*
X52578711Y-54550500D01*
X52578712Y-54550500D01*
X52821289Y-54550500D01*
X52869388Y-54544167D01*
X53061789Y-54518838D01*
X53296100Y-54456054D01*
X53520212Y-54363224D01*
X53730289Y-54241936D01*
X53922738Y-54094265D01*
X54094265Y-53922738D01*
X54241936Y-53730289D01*
X54363224Y-53520212D01*
X54456054Y-53296100D01*
X54518838Y-53061789D01*
X54550500Y-52821288D01*
X54550500Y-52578712D01*
X54518838Y-52338211D01*
X54456054Y-52103900D01*
X54363224Y-51879788D01*
X54241936Y-51669711D01*
X54094265Y-51477262D01*
X54094260Y-51477256D01*
X53922743Y-51305739D01*
X53922736Y-51305733D01*
X53730293Y-51158067D01*
X53730292Y-51158066D01*
X53730289Y-51158064D01*
X53520212Y-51036776D01*
X53439872Y-51003498D01*
X53296104Y-50943947D01*
X53061785Y-50881161D01*
X52821289Y-50849500D01*
X52821288Y-50849500D01*
X52578712Y-50849500D01*
X52578711Y-50849500D01*
X52338214Y-50881161D01*
X52103895Y-50943947D01*
X51879794Y-51036773D01*
X51879785Y-51036777D01*
X51669706Y-51158067D01*
X51477263Y-51305733D01*
X51477256Y-51305739D01*
X51305739Y-51477256D01*
X51305733Y-51477263D01*
X51158067Y-51669706D01*
X51036777Y-51879785D01*
X51036773Y-51879794D01*
X50943947Y-52103895D01*
X50881161Y-52338214D01*
X50849500Y-52578711D01*
X50500500Y-52578711D01*
X50500500Y-52004427D01*
X50500816Y-51995581D01*
X50508096Y-51893789D01*
X50515130Y-51795436D01*
X50517646Y-51777938D01*
X50559356Y-51586200D01*
X50564335Y-51569242D01*
X50632911Y-51385382D01*
X50640251Y-51369310D01*
X50734294Y-51197083D01*
X50743850Y-51182214D01*
X50861443Y-51025128D01*
X50873017Y-51011771D01*
X51011771Y-50873017D01*
X51025128Y-50861443D01*
X51182214Y-50743850D01*
X51197083Y-50734294D01*
X51369310Y-50640251D01*
X51385382Y-50632911D01*
X51569242Y-50564335D01*
X51586200Y-50559356D01*
X51777938Y-50517646D01*
X51795436Y-50515130D01*
X51995582Y-50500816D01*
X52004428Y-50500500D01*
X52065892Y-50500500D01*
X95934108Y-50500500D01*
X95995572Y-50500500D01*
X96004418Y-50500816D01*
G37*
%TD.AperFunction*%
%TD*%
M02*
